<svg width="36" height="36" viewBox="0 0 36 36" fill="none" xmlns="http://www.w3.org/2000/svg">
<path d="M13.4283 27.3988L13.304 27.5438C13.0847 27.7635 12.7938 27.8971 12.4842 27.9202C12.1747 27.9434 11.8671 27.8545 11.6176 27.6698L11.4726 27.5438L2.84739 18.9186C2.62815 18.6994 2.49485 18.4088 2.47173 18.0996C2.4486 17.7905 2.53719 17.4833 2.72139 17.2339L2.84739 17.0872L11.4726 8.45161C11.7039 8.22211 12.0133 8.08828 12.3389 8.07681C12.6645 8.06534 12.9825 8.17709 13.2294 8.38975C13.4762 8.60241 13.6338 8.90033 13.6707 9.22407C13.7076 9.54781 13.621 9.87354 13.4283 10.1363L13.304 10.2813L6.89851 16.6971H32.2374C32.55 16.6971 32.852 16.8101 33.0878 17.0154C33.3235 17.2207 33.477 17.5043 33.5199 17.8139L33.532 17.9899C33.532 18.3028 33.4187 18.605 33.2131 18.8408C33.0074 19.0765 32.7234 19.2299 32.4135 19.2724L32.2374 19.2845L6.87607 19.2862L13.304 25.7142C13.523 25.9336 13.656 26.2243 13.6788 26.5334C13.7016 26.8426 13.6127 27.1497 13.4283 27.3988Z" fill="#292929"/>
</svg>
