<svg width="33" height="32" viewBox="0 0 33 32" fill="none" xmlns="http://www.w3.org/2000/svg">
<path d="M21.6117 12.5743C21.8199 12.3681 22.1011 12.2524 22.3941 12.2524C22.6871 12.2524 22.9683 12.3681 23.1765 12.5743C23.2793 12.6755 23.3609 12.7962 23.4167 12.9293C23.4724 13.0623 23.5011 13.2052 23.5011 13.3495C23.5011 13.4937 23.4724 13.6366 23.4167 13.7697C23.3609 13.9027 23.2793 14.0234 23.1765 14.1247L16.9237 20.2527C16.715 20.4585 16.4336 20.574 16.1405 20.574C15.8473 20.574 15.566 20.4585 15.3573 20.2527L9.10449 14.1247C9.00169 14.0234 8.92005 13.9027 8.86433 13.7697C8.8086 13.6366 8.77991 13.4937 8.77991 13.3495C8.77991 13.2052 8.8086 13.0623 8.86433 12.9293C8.92005 12.7962 9.00169 12.6755 9.10449 12.5743C9.3127 12.3681 9.59387 12.2524 9.88689 12.2524C10.1799 12.2524 10.4611 12.3681 10.6693 12.5743L16.1429 17.5999L21.6117 12.5743Z" fill="#FF5E00"/>
</svg>
