<?xml version="1.0" standalone="no"?>
<!DOCTYPE svg PUBLIC "-//W3C//DTD SVG 1.1//EN" "http://www.w3.org/Graphics/SVG/1.1/DTD/svg11.dtd" >
<svg xmlns="http://www.w3.org/2000/svg" xmlns:xlink="http://www.w3.org/1999/xlink" version="1.1">
<metadata>
Created by FontForge 20170731 at Mon Dec  7 10:07:40 2020
 By Aleksey,,,
Copyright (c) 2019, ParaType Ltd. All rights reserved.
</metadata>
<defs>
<font id="GolosUI-Regular" horiz-adv-x="550" >
  <font-face 
    font-family="Golos UI"
    font-weight="400"
    font-stretch="normal"
    units-per-em="1000"
    panose-1="2 11 5 4 2 2 2 2 2 4"
    ascent="774"
    descent="-226"
    x-height="530"
    cap-height="700"
    bbox="-400 -207 1023 925"
    underline-thickness="50"
    underline-position="-150"
    unicode-range="U+000D-FEFF"
  />
<missing-glyph horiz-adv-x="364" 
d="M33 0v666h265v-666h-265zM66 33h199v600h-199v-600z" />
    <glyph glyph-name=".notdef" horiz-adv-x="364" 
d="M33 0v666h265v-666h-265zM66 33h199v600h-199v-600z" />
    <glyph glyph-name="uni0000" horiz-adv-x="0" 
 />
    <glyph glyph-name="uni0000" horiz-adv-x="0" 
 />
    <glyph glyph-name="uni000D" unicode="&#xd;" horiz-adv-x="250" 
 />
    <glyph glyph-name="space" unicode=" " horiz-adv-x="250" 
 />
    <glyph glyph-name="exclam" unicode="!" horiz-adv-x="300" 
d="M150 -7q-29 0 -49.5 20.5t-20.5 49.5q0 30 20.5 50t49.5 20t49.5 -20t20.5 -50q0 -29 -20.5 -49.5t-49.5 -20.5zM103 700h94v-480h-94v480z" />
    <glyph glyph-name="quotedbl" unicode="&#x22;" horiz-adv-x="360" 
d="M57 700h85v-208h-85v208zM218 700h85v-208h-85v208z" />
    <glyph glyph-name="numbersign" unicode="#" horiz-adv-x="580" 
d="M111 215h-94v78h109l26 134h-96v78h110l37 195h90l-37 -195h125l37 195h91l-37 -195h91v-78h-106l-26 -134h93v-78h-107l-40 -215h-90l40 215h-125l-40 -215h-90zM341 293l26 134h-125l-26 -134h125z" />
    <glyph glyph-name="dollar" unicode="$" 
d="M238 -5q-93 10 -140.5 62.5t-52.5 127.5h94q5 -43 28 -72t73 -37v250q-38 13 -70 29.5t-55.5 40t-37 55t-13.5 75.5q0 34 11.5 64.5t34 54t55 39.5t73.5 21v95h74v-95q84 -11 127.5 -60.5t48.5 -121.5h-91q-6 38 -25.5 64.5t-61.5 34.5v-228q46 -15 82.5 -33t61.5 -42.5
t38 -57.5t13 -78q0 -74 -49.5 -126t-143.5 -62v-95h-74v95zM413 181q0 47 -22.5 73t-80.5 48v-225q52 8 77.5 36t25.5 68zM156 527q0 -43 19.5 -67.5t64.5 -41.5v204q-42 -8 -63 -33.5t-21 -61.5z" />
    <glyph glyph-name="percent" unicode="%" horiz-adv-x="700" 
d="M166 373q-65 0 -101.5 38t-36.5 109v40q0 71 36.5 109t101.5 38t101.5 -38t36.5 -109v-40q0 -71 -36.5 -109t-101.5 -38zM166 435q33 0 50 19t17 66v40q0 47 -17 66t-50 19t-50 -19t-17 -66v-40q0 -47 17 -66t50 -19zM541 700h89l-469 -700h-89zM535 -6q-65 0 -101.5 38
t-36.5 109v40q0 71 36.5 109t101.5 38t101.5 -38t36.5 -109v-40q0 -71 -36.5 -109t-101.5 -38zM535 56q33 0 50 19t17 66v40q0 47 -17 66t-50 19t-50 -19t-17 -66v-40q0 -47 17 -66t50 -19z" />
    <glyph glyph-name="ampersand" unicode="&#x26;" horiz-adv-x="700" 
d="M285 -7q-54 0 -95.5 14.5t-70.5 41t-44 62.5t-15 79q0 63 33 108t97 90q-32 35 -54.5 76t-22.5 94q0 31 12 58.5t34 47.5t54 31.5t72 11.5t72 -11.5t54 -30.5t34 -44t12 -53q0 -21 -5.5 -42t-20.5 -44.5t-42 -49.5t-70 -56l169 -182q14 29 22 62.5t8 73.5h85
q0 -60 -13.5 -110.5t-39.5 -91.5l118 -128h-117l-59 63q-40 -34 -92 -52t-115 -18zM285 75q89 0 149 51l-188 201q-25 -17 -43 -32.5t-29 -31.5t-16.5 -33t-5.5 -38q0 -54 33.5 -85.5t99.5 -31.5zM285 628q-38 0 -60 -20.5t-22 -50.5q0 -40 17.5 -68t40.5 -53q37 25 58.5 44
t32 34t13 27.5t2.5 25.5q0 23 -22 42t-60 19z" />
    <glyph glyph-name="quotesingle" unicode="'" horiz-adv-x="200" 
d="M57 700h86v-208h-86v208z" />
    <glyph glyph-name="parenleft" unicode="(" horiz-adv-x="360" 
d="M63 310q0 114 24.5 197t54.5 137q34 63 79 106h108q-48 -45 -86 -108q-16 -27 -31.5 -61.5t-27.5 -75.5t-19.5 -90t-7.5 -105v-20q0 -53 7.5 -99.5t19.5 -87.5t27.5 -75.5t31.5 -62.5q38 -66 86 -115h-109q-45 48 -79 113q-29 56 -53.5 137.5t-24.5 189.5v20z" />
    <glyph glyph-name="parenright" unicode=")" horiz-adv-x="360" 
d="M297 290q0 -54 -7 -101t-18 -88t-25 -75.5t-29 -62.5q-34 -65 -78 -113h-108q47 49 85 115q16 28 31.5 62.5t27.5 75.5t19.5 87.5t7.5 99.5v20q0 56 -7.5 105t-19.5 90t-27.5 75.5t-31.5 61.5q-38 63 -85 108h107q44 -43 79 -106q15 -27 29 -61t25 -76t18 -91t7 -106v-20
v0z" />
    <glyph glyph-name="asterisk" unicode="*" horiz-adv-x="450" 
d="M194 472l-105 -66l-36 62l111 57l-111 57l36 61l105 -65l-5 122h72l-5 -122l105 65l36 -61l-112 -57l112 -57l-36 -62l-105 66l5 -122h-72z" />
    <glyph glyph-name="plus" unicode="+" 
d="M229 319h-158v82h158v163h92v-163h158v-82h-158v-163h-92v163z" />
    <glyph glyph-name="comma" unicode="," horiz-adv-x="300" 
d="M95 0v110h110v-110l-90 -155h-52z" />
    <glyph glyph-name="hyphen" unicode="-" horiz-adv-x="340" 
d="M38 361h264v-82h-264v82z" />
    <glyph glyph-name="period" unicode="." horiz-adv-x="300" 
d="M150 -7q-30 0 -51 21t-21 51q0 31 21 51.5t51 20.5t51 -20.5t21 -51.5q0 -30 -21 -51t-51 -21z" />
    <glyph glyph-name="slash" unicode="/" horiz-adv-x="500" 
d="M367 750h90l-324 -900h-90z" />
    <glyph glyph-name="zero" unicode="0" 
d="M275 -7q-53 0 -94 16t-69 53t-42.5 97t-14.5 149v100q0 82 14.5 139.5t42.5 92.5t69 51t94 16t94 -16t69 -51t42.5 -92.5t14.5 -139.5v-100q0 -89 -14.5 -149t-42.5 -97t-69 -53t-94 -16zM275 75q30 0 53 10t39.5 36.5t25 71.5t8.5 115v100q0 64 -8.5 106t-25 67
t-39.5 35t-53 10t-53 -10t-39.5 -35t-25 -67t-8.5 -106v-100q0 -70 8.5 -115t25 -71.5t39.5 -36.5t53 -10z" />
    <glyph glyph-name="one" unicode="1" 
d="M91 82h168v515l-167 -121v103l167 121h94v-618h138v-82h-400v82z" />
    <glyph glyph-name="two" unicode="2" 
d="M57 75l255 278q42 47 65.5 80t23.5 71q0 55 -33 88t-88 33t-88 -33t-33 -88h-92q0 42 16 79t44.5 64.5t67.5 43.5t85 16t85 -16t67.5 -43.5t44.5 -64.5t16 -79q0 -27 -9.5 -53t-25.5 -51.5t-38 -51t-46 -52.5l-199 -214h318v-82h-436v75z" />
    <glyph glyph-name="three" unicode="3" 
d="M265 -7q-50 0 -90.5 15t-69 41.5t-44 61.5t-15.5 76h93q0 -48 33.5 -80t92.5 -32t92.5 32.5t33.5 81.5q0 61 -36 95.5t-110 34.5h-53v82h53q70 0 103 31t33 90q0 45 -30.5 74t-85.5 29t-85.5 -28.5t-30.5 -72.5h-93q0 38 14.5 71.5t41.5 58t66 39t87 14.5t86.5 -14.5
t66 -39.5t42 -58.5t14.5 -72.5q0 -60 -32 -101t-77 -58q55 -16 87 -62t32 -113q0 -41 -15.5 -76.5t-44 -62t-69 -41.5t-90.5 -15z" />
    <glyph glyph-name="four" unicode="4" 
d="M355 159h-320v70l306 471h106v-459h68v-82h-68v-159h-92v159zM355 241v332l-217 -332h217z" />
    <glyph glyph-name="five" unicode="5" 
d="M279 -7q-49 0 -86.5 13.5t-64 35.5t-41 49.5t-18.5 56.5h94q2 -12 10 -25t22 -23.5t35 -17.5t49 -7q53 0 85 37.5t32 124.5t-32 124t-85 37q-38 0 -66 -19.5t-46 -47.5h-82v369h374v-82h-282v-191q17 23 49.5 38t69.5 15q87 0 140 -59.5t53 -183.5q0 -126 -55 -185
t-155 -59z" />
    <glyph glyph-name="six" unicode="6" 
d="M275 -7q-100 0 -156 56t-56 156v245q0 134 56 195.5t156 61.5q78 0 129 -35t68 -117h-95q-11 41 -38 56t-64 15q-29 0 -51.5 -8t-39 -28t-25 -53t-8.5 -82v-56q23 27 57.5 42.5t81.5 15.5q43 0 79 -14.5t62.5 -41.5t41 -65t14.5 -84v-54q0 -47 -15 -84.5t-42.5 -64.5
t-66.5 -41.5t-88 -14.5zM275 75q54 0 86 32.5t32 90.5v54q0 59 -32 91.5t-86 32.5t-86 -32.5t-32 -90.5v-55q0 -57 32 -90t86 -33z" />
    <glyph glyph-name="seven" unicode="7" 
d="M392 618h-330v82h426v-70l-225 -630h-99z" />
    <glyph glyph-name="eight" unicode="8" 
d="M275 -7q-51 0 -91.5 15t-69 41t-44 61.5t-15.5 76.5q0 63 28.5 103.5t79.5 69.5q-38 23 -63.5 63.5t-25.5 100.5q0 38 14.5 71.5t41 58t63.5 39t82 14.5t82 -14.5t63.5 -39t41 -58t14.5 -71.5q0 -60 -25.5 -100.5t-63.5 -63.5q51 -29 79.5 -69.5t28.5 -103.5
q0 -41 -15.5 -76.5t-44 -61.5t-69 -41t-91.5 -15zM275 74q29 0 52.5 9t40.5 24.5t26 36t9 44.5q0 59 -35 92.5t-93 41.5q-58 -8 -93 -41.5t-35 -92.5q0 -24 9 -44.5t26 -36t40.5 -24.5t52.5 -9zM275 626q-48 0 -78.5 -30t-30.5 -74q0 -28 9 -49.5t24 -36.5t35 -24.5
t41 -13.5q21 4 41 13.5t35 24.5t24 36.5t9 49.5q0 44 -30.5 74t-78.5 30z" />
    <glyph glyph-name="nine" unicode="9" 
d="M275 -7q-78 0 -129 35t-68 117h95q11 -41 38 -56t64 -15q28 0 51 8t39.5 28t25 52.5t8.5 82.5v56q-23 -27 -57.5 -42.5t-81.5 -15.5q-43 0 -79 14.5t-62.5 41.5t-41 64.5t-14.5 84.5v54q0 46 15 84t42.5 65t66.5 41.5t88 14.5q100 0 156 -56t56 -156v-245
q0 -134 -56 -195.5t-156 -61.5zM275 324q54 0 86 32.5t32 90.5v55q0 57 -32 90t-86 33t-86 -32.5t-32 -90.5v-54q0 -59 32 -91.5t86 -32.5z" />
    <glyph glyph-name="colon" unicode=":" horiz-adv-x="300" 
d="M150 -7q-30 0 -51 21t-21 51q0 31 21 51.5t51 20.5t51 -20.5t21 -51.5q0 -30 -21 -51t-51 -21zM150 393q-30 0 -51 21t-21 51q0 31 21 51.5t51 20.5t51 -20.5t21 -51.5q0 -30 -21 -51t-51 -21z" />
    <glyph glyph-name="semicolon" unicode=";" horiz-adv-x="300" 
d="M95 0v110h110v-110l-90 -155h-52zM150 393q-30 0 -51 21t-21 51q0 31 21 51.5t51 20.5t51 -20.5t21 -51.5q0 -30 -21 -51t-51 -21z" />
    <glyph glyph-name="less" unicode="&#x3c;" 
d="M71 315v90l408 189v-94l-304 -138l304 -138v-97z" />
    <glyph glyph-name="equal" unicode="=" 
d="M71 296h408v-82h-408v82zM71 506h408v-82h-408v82z" />
    <glyph glyph-name="greater" unicode="&#x3e;" 
d="M71 220l304 138l-304 138v98l408 -189v-90l-408 -188v93z" />
    <glyph glyph-name="question" unicode="?" horiz-adv-x="500" 
d="M249 -7q-29 0 -49.5 20.5t-20.5 49.5q0 30 20.5 50t49.5 20t49.5 -20t20.5 -50q0 -29 -20.5 -49.5t-49.5 -20.5zM204 252q0 19 3 35t11.5 32t24 34t41.5 40q42 36 62 65t20 62q0 48 -30 76.5t-86 28.5t-86 -28.5t-30 -76.5h-92q0 39 14.5 73.5t41.5 59.5t65.5 39.5
t86.5 14.5t86.5 -14.5t65.5 -39.5t41.5 -59.5t14.5 -73.5q0 -28 -9 -53t-24 -47.5t-34.5 -43t-40.5 -38.5q-17 -14 -28 -26.5t-17 -24t-8.5 -23t-2.5 -24.5v-20h-90v32z" />
    <glyph glyph-name="at" unicode="@" horiz-adv-x="800" 
d="M425 -93q-83 0 -151 25.5t-116 77t-74 129t-26 181.5q0 100 25.5 177.5t71.5 129.5t108.5 79t136.5 27q162 0 252 -99t90 -291q0 -49 -7.5 -89t-23 -68.5t-40 -44.5t-58.5 -16q-15 0 -31 3.5t-30.5 11.5t-26.5 22.5t-19 37.5q-17 -45 -50 -61t-70 -16q-67 0 -109 45
t-42 132v40q0 44 11.5 77t31.5 55.5t47.5 33.5t60.5 11q34 0 65 -17.5t41 -49.5v60h73v-210q0 -59 13.5 -79.5t34.5 -20.5q10 0 18.5 5t15 20.5t10 43.5t3.5 74q0 161 -66 238t-194 77q-55 0 -102.5 -21t-82 -63t-54 -105.5t-19.5 -148.5q0 -89 20 -152.5t57 -105t89 -61
t117 -19.5q58 0 107.5 16t85.5 41v-84q-38 -22 -84.5 -35t-108.5 -13zM400 199q38 0 59.5 23.5t21.5 77.5v40q0 52 -21.5 77t-59.5 25t-59.5 -24t-21.5 -78v-40q0 -54 21.5 -77.5t59.5 -23.5z" />
    <glyph glyph-name="A" unicode="A" horiz-adv-x="650" 
d="M277 700h97l255 -700h-102l-63 174h-282l-63 -174h-98zM435 256l-112 325l-112 -325h224z" />
    <glyph glyph-name="B" unicode="B" horiz-adv-x="650" 
d="M98 700h230q61 0 107 -14t77 -38.5t46.5 -59t15.5 -75.5q0 -54 -30.5 -92.5t-74.5 -55.5q58 -14 93.5 -56.5t35.5 -110.5q0 -43 -15.5 -79t-46 -62.5t-77.5 -41.5t-110 -15h-251v700zM347 82q84 0 121 32t37 87t-37 87t-121 32h-155v-238h155zM328 400q81 0 117 30.5
t36 78.5q0 49 -35.5 79t-117.5 30h-136v-218h136z" />
    <glyph glyph-name="C" unicode="C" horiz-adv-x="630" 
d="M330 -7q-62 0 -111 19t-83 59t-52 102t-18 148v80q0 155 70 230.5t194 75.5q109 0 173.5 -51t84.5 -161h-94q-19 71 -58 100t-106 29q-81 0 -126 -51.5t-45 -171.5v-80q0 -68 11.5 -115t33.5 -76t53.5 -41.5t72.5 -12.5q35 0 61.5 7.5t46 23t33 40.5t23.5 61h94
q-23 -116 -88.5 -165.5t-169.5 -49.5z" />
    <glyph glyph-name="D" unicode="D" horiz-adv-x="660" 
d="M98 700h232q124 0 194 -75.5t70 -231.5v-80q0 -161 -70 -237t-194 -76h-232v700zM330 82q81 0 126 53t45 178v80q0 121 -45 173t-126 52h-138v-536h138z" />
    <glyph glyph-name="E" unicode="E" horiz-adv-x="575" 
d="M98 700h429v-82h-335v-217h303v-82h-303v-237h335v-82h-429v700z" />
    <glyph glyph-name="F" unicode="F" horiz-adv-x="565" 
d="M98 700h430v-82h-336v-227h304v-82h-304v-309h-94v700z" />
    <glyph glyph-name="G" unicode="G" horiz-adv-x="660" 
d="M330 -7q-62 0 -111 19t-83 59t-52 101.5t-18 147.5v80q0 156 70 231.5t194 75.5q109 0 173.5 -51.5t85.5 -160.5h-94q-20 71 -59 100t-106 29q-81 0 -126 -51.5t-45 -172.5v-80q0 -68 11.5 -114.5t33.5 -75.5t53.5 -41.5t72.5 -12.5q82 0 126.5 45.5t44.5 152.5h-171v79
h264v-41q0 -88 -18 -149t-52 -98.5t-83 -54.5t-111 -17z" />
    <glyph glyph-name="H" unicode="H" horiz-adv-x="700" 
d="M98 700h94v-299h316v299h94v-700h-94v319h-316v-319h-94v700z" />
    <glyph glyph-name="I" unicode="I" horiz-adv-x="310" 
d="M108 700h94v-700h-94v700z" />
    <glyph glyph-name="J" unicode="J" horiz-adv-x="540" 
d="M228 -7q-100 0 -149.5 49.5t-53.5 136.5h94q4 -48 29.5 -75.5t79.5 -27.5q33 0 56.5 8t38.5 28t22.5 53.5t7.5 84.5v450h94v-450q0 -70 -13.5 -119t-40.5 -79.5t-68 -44.5t-97 -14z" />
    <glyph glyph-name="K" unicode="K" horiz-adv-x="675" 
d="M98 700h94v-367l284 367h112l-218 -280l270 -420h-114l-218 348l-116 -144v-204h-94v700z" />
    <glyph glyph-name="L" unicode="L" horiz-adv-x="540" 
d="M98 700h94v-618h334v-82h-428v700z" />
    <glyph glyph-name="M" unicode="M" horiz-adv-x="830" 
d="M98 700h98l222 -434l222 434h92v-700h-92v532l-190 -375h-70l-190 375v-532h-92v700z" />
    <glyph glyph-name="N" unicode="N" horiz-adv-x="700" 
d="M98 700h92l320 -538v538h92v-700h-92l-320 539v-539h-92v700z" />
    <glyph glyph-name="O" unicode="O" horiz-adv-x="660" 
d="M330 -7q-62 0 -111 19t-83 59t-52 101.5t-18 147.5v80q0 155 70 231t194 76t194 -76t70 -231v-80q0 -86 -18 -147.5t-52 -101.5t-83 -59t-111 -19zM330 76q40 0 72 12.5t54 41.5t33.5 75.5t11.5 114.5v80q0 121 -45 172.5t-126 51.5t-126 -51.5t-45 -172.5v-80
q0 -68 11.5 -114.5t33.5 -75.5t53.5 -41.5t72.5 -12.5z" />
    <glyph glyph-name="P" unicode="P" horiz-adv-x="640" 
d="M98 700h236q127 0 191.5 -60.5t64.5 -162.5q0 -103 -64 -163t-192 -60h-142v-254h-94v700zM334 335q85 0 123.5 36.5t38.5 105.5q0 68 -38.5 104.5t-123.5 36.5h-142v-283h142z" />
    <glyph glyph-name="Q" unicode="Q" horiz-adv-x="670" 
d="M495 44q-32 -26 -73.5 -38.5t-91.5 -12.5q-62 0 -111 19t-83 59t-52 101.5t-18 147.5v80q0 155 70 231t194 76t194 -76t70 -231v-80q0 -69 -11.5 -122.5t-33.5 -91.5l80 -81l-57 -57zM330 76q63 0 102 33l-106 106l57 57l96 -97q11 27 16.5 63t5.5 82v80q0 121 -45 172.5
t-126 51.5t-126 -51.5t-45 -172.5v-80q0 -68 11.5 -114.5t33.5 -75.5t53.5 -41.5t72.5 -12.5z" />
    <glyph glyph-name="R" unicode="R" horiz-adv-x="650" 
d="M98 700h244q60 0 106.5 -15.5t78 -43.5t47.5 -66t16 -84q0 -67 -33.5 -117t-98.5 -74l152 -300h-103l-139 282h-176v-282h-94v700zM342 364q78 0 116 35t38 92t-38 92t-116 35h-150v-254h150z" />
    <glyph glyph-name="S" unicode="S" horiz-adv-x="620" 
d="M306 -7q-63 0 -109 14.5t-76 40.5t-46 61t-19 76h95q3 -24 12.5 -44t27.5 -34.5t46 -22.5t69 -8q83 0 119.5 30.5t36.5 76.5q0 28 -8 48.5t-28 36.5t-53.5 28.5t-85.5 23.5q-47 10 -86 26.5t-67 40.5t-43.5 58t-15.5 81q0 38 14.5 71t43.5 57.5t72.5 38.5t100.5 14
q58 0 101 -14t71.5 -38.5t44 -58.5t18.5 -73h-94q-3 22 -11.5 40.5t-25 32t-42 21t-62.5 7.5q-72 0 -104.5 -28t-32.5 -70q0 -27 8 -46.5t27 -34.5t49 -26t74 -20q55 -12 98 -29.5t72 -42.5t44 -60.5t15 -83.5q0 -40 -15.5 -75t-47 -60.5t-78 -40t-109.5 -14.5z" />
    <glyph glyph-name="T" unicode="T" horiz-adv-x="570" 
d="M238 618h-220v82h534v-82h-220v-618h-94v618z" />
    <glyph glyph-name="U" unicode="U" horiz-adv-x="690" 
d="M345 -7q-119 0 -187.5 70.5t-68.5 216.5v420h94v-420q0 -107 42 -155.5t120 -48.5t120 48.5t42 155.5v420h94v-420q0 -73 -18 -127t-51 -89.5t-80.5 -53t-106.5 -17.5z" />
    <glyph glyph-name="V" unicode="V" horiz-adv-x="650" 
d="M21 700h102l212 -580l196 580h98l-245 -700h-97z" />
    <glyph glyph-name="W" unicode="W" horiz-adv-x="920" 
d="M21 700h101l129 -576l154 576h110l158 -576l129 576h97l-166 -700h-113l-162 576l-158 -576h-113z" />
    <glyph glyph-name="X" unicode="X" horiz-adv-x="630" 
d="M258 367l-203 333h104l157 -257l159 257h100l-202 -331l222 -369h-106l-175 294l-177 -294h-102z" />
    <glyph glyph-name="Y" unicode="Y" horiz-adv-x="610" 
d="M268 297l-247 403h107l186 -306l172 306h103l-227 -403v-297h-94v297z" />
    <glyph glyph-name="Z" unicode="Z" horiz-adv-x="560" 
d="M42 79l377 539h-367v82h466v-78l-377 -540h377v-82h-476v79z" />
    <glyph glyph-name="bracketleft" unicode="[" horiz-adv-x="360" 
d="M86 750h213v-82h-120v-736h120v-82h-213v900z" />
    <glyph glyph-name="backslash" unicode="\" horiz-adv-x="500" 
d="M43 750h93l321 -900h-93z" />
    <glyph glyph-name="bracketright" unicode="]" horiz-adv-x="360" 
d="M61 -68h120v736h-120v82h213v-900h-213v82z" />
    <glyph glyph-name="asciicircum" unicode="^" 
d="M230 700h90l176 -260h-101l-122 181l-122 -181h-97z" />
    <glyph glyph-name="underscore" unicode="_" horiz-adv-x="500" 
d="M0 -87h500v-76h-500v76z" />
    <glyph glyph-name="grave" unicode="`" horiz-adv-x="280" 
d="M37 730h102l104 -160h-78z" />
    <glyph glyph-name="a" unicode="a" horiz-adv-x="510" 
d="M197 -6q-73 0 -114 40.5t-41 113.5q0 77 44 117.5t141 40.5h126v51q0 54 -24.5 78.5t-75.5 24.5q-26 0 -44 -5.5t-29 -15t-17 -21.5t-7 -24h-86q3 31 14 57t33 45t55.5 30t81.5 11q96 0 141 -44.5t45 -135.5v-357h-77v88q-10 -17 -23 -34t-32.5 -30.5t-46.5 -21.5t-64 -8
zM222 70q60 0 95.5 35.5t35.5 96.5v32h-122q-57 0 -79.5 -20.5t-22.5 -64.5q0 -35 23 -57t70 -22z" />
    <glyph glyph-name="b" unicode="b" horiz-adv-x="555" 
d="M311 -6q-57 0 -95.5 25t-61.5 69v-88h-79v700h89v-252q19 39 55.5 64t91.5 25q42 0 77 -15t60.5 -44t40 -72t14.5 -98v-76q0 -59 -14.5 -103.5t-40 -74.5t-60.5 -45t-77 -15zM293 72q54 0 88 38.5t34 121.5v76q0 76 -34 113.5t-88 37.5q-60 0 -94.5 -37.5t-34.5 -113.5
v-76q0 -83 34.5 -121.5t94.5 -38.5z" />
    <glyph glyph-name="c" unicode="c" horiz-adv-x="510" 
d="M265 -7q-48 0 -87.5 15.5t-67 46t-43 75t-15.5 102.5v76q0 54 15.5 96.5t43 72t67 45t87.5 15.5q40 0 75.5 -11t62.5 -32t44 -50.5t21 -65.5h-89q-8 33 -35 57t-79 24q-57 0 -91 -37.5t-34 -113.5v-76q0 -85 34 -123t91 -38q52 0 79 25t34 56h90q-18 -79 -69.5 -119
t-133.5 -40z" />
    <glyph glyph-name="d" unicode="d" horiz-adv-x="555" 
d="M244 -6q-42 0 -77.5 15t-61 45t-39.5 74.5t-14 103.5v76q0 55 14 98t39.5 72t61 44t77.5 15q55 0 91.5 -25t55.5 -64v252h89v-700h-79v88q-23 -44 -61.5 -69t-95.5 -25zM262 72q60 0 94.5 38.5t34.5 121.5v76q0 76 -34.5 113.5t-94.5 37.5q-54 0 -88 -37.5t-34 -113.5
v-76q0 -83 34 -121.5t88 -38.5z" />
    <glyph glyph-name="e" unicode="e" horiz-adv-x="520" 
d="M265 -7q-48 0 -87.5 15.5t-67 46t-43 75t-15.5 102.5v76q0 112 55.5 170.5t152.5 58.5t152.5 -58.5t55.5 -172.5v-67h-328q1 -91 34.5 -130.5t90.5 -39.5q25 0 43.5 6.5t31 17.5t19.5 25t10 29h89q-16 -78 -65 -116t-128 -38zM261 461q-57 0 -88.5 -34.5t-32.5 -115.5
h245q-2 81 -33.5 115.5t-90.5 34.5z" />
    <glyph glyph-name="f" unicode="f" horiz-adv-x="340" 
d="M104 453h-73v77h73v27q0 72 38.5 107.5t123.5 35.5h33v-77h-31q-43 0 -59 -15t-16 -51v-27h106v-77h-106v-453h-89v453z" />
    <glyph glyph-name="g" unicode="g" horiz-adv-x="555" 
d="M244 -5q-42 0 -77.5 15t-61 45t-39.5 74t-14 103v76q0 55 14 98t39.5 71.5t61 43.5t77.5 15q57 0 95.5 -25t61.5 -69v88h79v-530q0 -104 -52.5 -155.5t-165.5 -51.5q-48 0 -83 10.5t-59 29.5t-38 45t-19 56h87q10 -26 34.5 -45.5t77.5 -19.5q68 0 98.5 31t30.5 100v82
q-19 -38 -55.5 -62.5t-91.5 -24.5zM262 71q60 0 94.5 38.5t34.5 122.5v76q0 75 -34.5 112.5t-94.5 37.5q-54 0 -88 -37.5t-34 -112.5v-76q0 -84 34 -122.5t88 -38.5z" />
    <glyph glyph-name="h" unicode="h" horiz-adv-x="555" 
d="M75 700h89v-244q9 15 22 29.5t31 26t41.5 18.5t52.5 7q80 0 127 -51t47 -154v-332h-89v327q0 68 -29 100t-82 32q-25 0 -47 -10t-38.5 -27.5t-26 -41.5t-9.5 -53v-327h-89v700z" />
    <glyph glyph-name="i" unicode="i" horiz-adv-x="280" 
d="M96 530h88v-530h-88v530zM140 589q-25 0 -43 18t-18 43t18 43t43 18t43 -18t18 -43t-18 -43t-43 -18z" />
    <glyph glyph-name="j" unicode="j" horiz-adv-x="280" 
d="M6 -123q26 0 43 5t27.5 18.5t15 37.5t4.5 62v530h88v-530q0 -60 -8.5 -98.5t-29 -61t-55 -31.5t-85.5 -9v77zM140 589q-25 0 -43 18t-18 43t18 43t43 18t43 -18t18 -43t-18 -43t-43 -18z" />
    <glyph glyph-name="k" unicode="k" horiz-adv-x="555" 
d="M75 700h88v-415l233 245h107l-208 -216l238 -314h-108l-189 251l-73 -75v-176h-88v700z" />
    <glyph glyph-name="l" unicode="l" horiz-adv-x="300" 
d="M245 0q-87 0 -124 37.5t-37 127.5v535h89v-535q0 -52 16.5 -70t58.5 -18h20v-77h-23z" />
    <glyph glyph-name="m" unicode="m" horiz-adv-x="835" 
d="M75 530h79v-88q17 39 57 67t90 28q48 0 87.5 -25t56.5 -69q25 43 66 68.5t92 25.5q35 0 65 -13t51.5 -38.5t33.5 -64t12 -89.5v-332h-89v327q0 68 -27.5 100t-71.5 32q-22 0 -42.5 -10t-36 -27.5t-25 -41.5t-9.5 -53v-327h-88v327q0 68 -28 100t-72 32q-22 0 -42 -10
t-35.5 -27.5t-25 -41.5t-9.5 -53v-327h-89v530z" />
    <glyph glyph-name="n" unicode="n" horiz-adv-x="555" 
d="M75 530h79v-88q17 39 58 67t99 28q80 0 127 -51t47 -154v-332h-89v327q0 68 -29 100t-82 32q-25 0 -47 -10t-38.5 -27.5t-26 -41.5t-9.5 -53v-327h-89v530z" />
    <glyph glyph-name="o" unicode="o" horiz-adv-x="540" 
d="M270 -7q-100 0 -159 61.5t-59 177.5v76q0 54 15.5 96.5t44 72t68.5 45t90 15.5t90 -15.5t68.5 -45t44 -72t15.5 -96.5v-76q0 -116 -59 -177.5t-159 -61.5zM270 71q60 0 95 38.5t35 122.5v76q0 76 -35 113.5t-95 37.5t-95 -37.5t-35 -113.5v-76q0 -84 35 -122.5t95 -38.5z
" />
    <glyph glyph-name="p" unicode="p" horiz-adv-x="555" 
d="M75 530h79v-88q23 44 61.5 69t95.5 25q42 0 77 -15t60.5 -43.5t40 -71.5t14.5 -98v-76q0 -59 -14.5 -104t-40 -75t-60.5 -45t-77 -15q-54 0 -91 25t-56 64v-282h-89v730zM293 71q54 0 88 38.5t34 122.5v76q0 75 -34 112.5t-88 37.5q-60 0 -94.5 -37.5t-34.5 -112.5v-76
q0 -84 34.5 -122.5t94.5 -38.5z" />
    <glyph glyph-name="q" unicode="q" horiz-adv-x="555" 
d="M391 82q-19 -39 -55.5 -64t-91.5 -25q-42 0 -77.5 15t-61 45t-39.5 75t-14 104v76q0 55 14 98t39.5 71.5t61 43.5t77.5 15q57 0 95.5 -25t61.5 -69v88h79v-730h-89v282zM262 71q60 0 94.5 38.5t34.5 122.5v76q0 75 -34.5 112.5t-94.5 37.5q-54 0 -88 -37.5t-34 -112.5
v-76q0 -84 34 -122.5t88 -38.5z" />
    <glyph glyph-name="r" unicode="r" horiz-adv-x="390" 
d="M83 530h79v-88q17 39 58.5 67t98.5 28q11 0 20 -1t17 -2q9 -1 16 -2v-84q-10 2 -22 4q-11 2 -24.5 3.5t-28.5 1.5q-56 0 -90.5 -35t-34.5 -95v-327h-89v530z" />
    <glyph glyph-name="s" unicode="s" horiz-adv-x="500" 
d="M250 -7q-53 0 -90.5 11.5t-62 32t-36.5 48.5t-14 62h89q2 -18 8.5 -32t19.5 -24.5t34 -16t52 -5.5q65 0 90.5 20.5t25.5 54.5q0 14 -4 26.5t-17.5 23.5t-39.5 20.5t-69 17.5q-88 17 -131.5 51.5t-43.5 103.5q0 66 46.5 108t142.5 42t140.5 -42t48.5 -108h-89
q-4 35 -25 54.5t-75 19.5q-56 0 -78.5 -19t-22.5 -53q0 -15 4 -27t16.5 -21.5t35.5 -17.5t61 -15q49 -9 84.5 -21.5t58 -31.5t33.5 -45.5t11 -62.5q0 -68 -49 -111t-154 -43z" />
    <glyph glyph-name="t" unicode="t" horiz-adv-x="360" 
d="M275 0q-88 0 -125 37.5t-37 127.5v287h-74v78h74v120h89v-120h109v-78h-109v-287q0 -52 17 -70t59 -18h33v-77h-36z" />
    <glyph glyph-name="u" unicode="u" horiz-adv-x="545" 
d="M240 -7q-77 0 -123.5 51t-46.5 154v332h89v-327q0 -68 28.5 -100t77.5 -32q23 0 44 10t37 27.5t25.5 41.5t9.5 53v327h89v-530h-79v88q-17 -39 -56 -67t-95 -28z" />
    <glyph glyph-name="v" unicode="v" horiz-adv-x="530" 
d="M17 530h97l161 -430l145 430h93l-191 -530h-94z" />
    <glyph glyph-name="w" unicode="w" horiz-adv-x="770" 
d="M26 530h93l106 -430l107 430h107l109 -430l107 430h89l-139 -530h-110l-111 430l-109 -430h-110z" />
    <glyph glyph-name="x" unicode="x" horiz-adv-x="510" 
d="M199 277l-163 253h103l117 -187l120 187h98l-163 -251l182 -279h-103l-136 212l-138 -212h-99z" />
    <glyph glyph-name="y" unicode="y" horiz-adv-x="530" 
d="M93 -123q28 0 48.5 5t36 17.5t28.5 34t25 54.5l-214 542h99l159 -430l143 430h95l-197 -542q-21 -57 -41 -93.5t-45 -57.5t-58 -29t-79 -8v77z" />
    <glyph glyph-name="z" unicode="z" horiz-adv-x="480" 
d="M47 72l289 381h-279v77h376v-72l-287 -381h287v-77h-386v72z" />
    <glyph glyph-name="braceleft" unicode="{" horiz-adv-x="360" 
d="M251 -150q-86 0 -125.5 39.5t-39.5 126.5v199q0 23 -13.5 36.5t-36.5 13.5v90q23 0 36.5 13.5t13.5 36.5v180q0 85 40 125t125 40h48v-82h-36q-45 0 -64.5 -19t-19.5 -64v-215q0 -26 -12.5 -40.5t-27.5 -19.5q15 -5 27.5 -18.5t12.5 -41.5v-235q0 -45 19.5 -64t64.5 -19
h36v-82h-48z" />
    <glyph glyph-name="bar" unicode="|" horiz-adv-x="310" 
d="M112 750h86v-900h-86v900z" />
    <glyph glyph-name="braceright" unicode="}" horiz-adv-x="360" 
d="M61 -68h36q45 0 64.5 19t19.5 64v235q0 28 12.5 41.5t27.5 18.5q-15 5 -27.5 19.5t-12.5 40.5v215q0 45 -19.5 64t-64.5 19h-36v82h48q85 0 125 -40t40 -125v-180q0 -23 13.5 -36.5t36.5 -13.5v-90q-23 0 -36.5 -13.5t-13.5 -36.5v-199q0 -87 -39.5 -126.5t-125.5 -39.5
h-48v82z" />
    <glyph glyph-name="asciitilde" unicode="~" 
d="M363 283q-27 0 -51 11t-46.5 24.5t-43.5 25t-41 11.5q-22 0 -37.5 -10.5t-26.5 -23.5q-12 -15 -20 -34l-62 37q13 31 35 56q18 21 47 39t70 18q27 0 51 -11.5t46.5 -25t43.5 -24.5t41 -11q22 0 37.5 10.5t26.5 23.5q12 15 21 34l61 -37q-15 -32 -36 -57
q-19 -21 -47 -38.5t-69 -17.5z" />
    <glyph glyph-name="uni00A0" unicode="&#xa0;" horiz-adv-x="250" 
 />
    <glyph glyph-name="exclamdown" unicode="&#xa1;" horiz-adv-x="300" 
d="M103 310h94v-510h-94v510zM150 397q-29 0 -49.5 20t-20.5 50t20.5 50t49.5 20t49.5 -20t20.5 -50t-20.5 -50t-49.5 -20z" />
    <glyph glyph-name="cent" unicode="&#xa2;" 
d="M235 -2q-78 14 -123 73.5t-45 160.5v76q0 95 45 152.5t123 71.5v100h82v-99q67 -8 113 -49t54 -106h-89q-8 33 -35 57t-79 24q-57 0 -91 -37.5t-34 -113.5v-76q0 -84 34 -122.5t91 -38.5q52 0 79 25t34 56h90q-16 -70 -58.5 -108.5t-108.5 -46.5v-97h-82v98z" />
    <glyph glyph-name="sterling" unicode="&#xa3;" 
d="M55 82h72v234h-62v82h62v102q0 103 50 155t143 52t140 -49t53 -133h-93q-7 48 -29.5 74t-70.5 26q-49 0 -74.5 -29t-25.5 -96v-102h155v-82h-155v-234h293v-82h-458v82z" />
    <glyph glyph-name="currency" unicode="&#xa4;" 
d="M35 182l81 80q-29 44 -29 98q0 52 28 96l-80 81l63 63l82 -81q44 25 95 25q26 0 50 -7t46 -19l82 82l62 -62l-81 -81q14 -22 21.5 -46.5t7.5 -50.5q0 -53 -29 -97l81 -80l-63 -63l-82 81q-44 -25 -95 -25q-53 0 -96 26l-82 -82zM275 254q21 0 40 8.5t33 22.5t22 33.5
t8 41.5t-8 41.5t-22 33.5t-33 22.5t-40 8.5t-40 -8.5t-33 -22.5t-22 -33.5t-8 -41.5t8 -41.5t22 -33.5t33 -22.5t40 -8.5z" />
    <glyph glyph-name="yen" unicode="&#xa5;" 
d="M238 148h-153v82h153v67h-153v82h101l-161 321h107l152 -318l138 318h103l-146 -321h106v-82h-153v-67h153v-82h-153v-148h-94v148z" />
    <glyph glyph-name="brokenbar" unicode="&#xa6;" horiz-adv-x="310" 
d="M112 200h86v-350h-86v350zM112 750h86v-350h-86v350z" />
    <glyph glyph-name="section" unicode="&#xa7;" 
d="M275 -107q-85 0 -129 43t-44 116h92q0 -77 81 -77t81 77q0 18 -7 32t-25 27.5t-48.5 27.5t-78.5 33q-60 24 -95.5 69.5t-35.5 108.5q0 57 32.5 100.5t89.5 67.5q-39 23 -62.5 52.5t-23.5 77.5q0 73 44 116t129 43t129 -43t44 -116h-92q0 77 -81 77t-81 -77q0 -18 7 -32
t25 -27.5t49 -27.5t78 -33q60 -24 95.5 -70t35.5 -108q0 -57 -33 -100.5t-89 -67.5q38 -22 62 -52t24 -78q0 -73 -44 -116t-129 -43zM275 242q24 0 45.5 8.5t37.5 23t25 34t9 42.5q0 22 -9 42t-25 34.5t-37.5 23t-45.5 8.5t-45.5 -8.5t-37.5 -23t-25 -34.5t-9 -42
q0 -23 9 -42.5t25 -34t37.5 -23t45.5 -8.5z" />
    <glyph glyph-name="dieresis" unicode="&#xa8;" horiz-adv-x="430" 
d="M122 589q-25 0 -42.5 18t-17.5 43t17.5 43t42.5 18q26 0 43.5 -18t17.5 -43t-17.5 -43t-43.5 -18zM308 589q-26 0 -43.5 18t-17.5 43t17.5 43t43.5 18q25 0 43 -18t18 -43t-18 -43t-43 -18z" />
    <glyph glyph-name="copyright" unicode="&#xa9;" horiz-adv-x="780" 
d="M390 -7q-74 0 -139 28t-113.5 76.5t-76.5 113.5t-28 139t28 139t76.5 113.5t113.5 76.5t139 28t139 -28t113.5 -76.5t76.5 -113.5t28 -139t-28 -139t-76.5 -113.5t-113.5 -76.5t-139 -28zM390 72q57 0 107 21.5t87.5 59t59 88t21.5 109.5q0 58 -21.5 109t-59 88.5
t-87.5 59t-107 21.5t-107 -21.5t-87.5 -59t-59 -88.5t-21.5 -109q0 -59 21.5 -109.5t59 -88t87.5 -59t107 -21.5zM390 133q-78 0 -120.5 47t-42.5 150v50q0 95 42.5 141t120.5 46q76 0 115.5 -36t46.5 -94h-85q-7 29 -25.5 42t-51.5 13q-38 0 -58 -24.5t-20 -87.5v-50
q0 -70 20 -96t58 -26q33 0 51.5 13t25.5 42h85q-7 -58 -46.5 -94t-115.5 -36z" />
    <glyph glyph-name="ordfeminine" unicode="&#xaa;" horiz-adv-x="340" 
d="M141 374q-52 0 -78 25t-26 71t30 72t94 26h71v30q0 26 -11.5 37.5t-40.5 11.5t-40.5 -10.5t-11.5 -27.5h-71q0 44 30.5 71t93.5 27t92.5 -28.5t29.5 -80.5v-218h-59v54q-11 -26 -36 -43t-67 -17zM156 434q36 0 56 19.5t20 52.5v10h-67q-32 0 -44.5 -11t-12.5 -32
q0 -39 48 -39z" />
    <glyph glyph-name="guillemotleft" unicode="&#xab;" horiz-adv-x="560" 
d="M39 278v64l230 191v-97l-151 -124l151 -124v-101zM269 278v64l230 191v-97l-151 -124l151 -124v-101z" />
    <glyph glyph-name="logicalnot" unicode="&#xac;" 
d="M396 319h-325v82h408v-212h-83v130z" />
    <glyph glyph-name="uni00AD" unicode="&#xad;" horiz-adv-x="340" 
d="M38 361h264v-82h-264v82z" />
    <glyph glyph-name="registered" unicode="&#xae;" horiz-adv-x="590" 
d="M295 163q-56 0 -105.5 21.5t-86.5 58.5t-58.5 86.5t-21.5 105.5t21.5 105.5t58.5 86.5t86.5 58.5t105.5 21.5t105.5 -21.5t86.5 -58.5t58.5 -86.5t21.5 -105.5t-21.5 -105.5t-58.5 -86.5t-86.5 -58.5t-105.5 -21.5zM295 232q42 0 79 16t64.5 43.5t43.5 64.5t16 79t-16 79
t-43.5 64.5t-64.5 43.5t-79 16t-79 -16t-64.5 -43.5t-43.5 -64.5t-16 -79t16 -79t43.5 -64.5t64.5 -43.5t79 -16zM195 570h100q58 0 84.5 -23.5t26.5 -64.5q0 -55 -52 -78l51 -104h-71l-39 94h-35v-94h-65v270zM295 451q28 0 37 7t9 24t-9 24t-37 7h-35v-62h35z" />
    <glyph glyph-name="macron" unicode="&#xaf;" horiz-adv-x="340" 
d="M28 688h284v-76h-284v76z" />
    <glyph glyph-name="degree" unicode="&#xb0;" horiz-adv-x="320" 
d="M160 423q-29 0 -55 11t-45.5 30.5t-30.5 45.5t-11 55t11 55t30.5 45.5t45.5 30.5t55 11t55 -11t45.5 -30.5t30.5 -45.5t11 -55t-11 -55t-30.5 -45.5t-45.5 -30.5t-55 -11zM160 498q28 0 47.5 19.5t19.5 47.5t-19.5 47.5t-47.5 19.5t-47.5 -19.5t-19.5 -47.5t19.5 -47.5
t47.5 -19.5z" />
    <glyph glyph-name="plusminus" unicode="&#xb1;" 
d="M71 191h408v-82h-408v82zM229 384h-158v82h158v163h92v-163h158v-82h-158v-103h-92v103z" />
    <glyph glyph-name="uni00B2" unicode="&#xb2;" horiz-adv-x="340" 
d="M37 438l143 151q28 31 40 51t12 42q0 29 -16.5 45t-45.5 16t-45.5 -16t-16.5 -45h-71q0 27 9.5 49.5t27 39.5t42 26.5t54.5 9.5q60 0 96.5 -35.5t36.5 -89.5q0 -32 -15.5 -60.5t-50.5 -65.5l-106 -113h172v-63h-266v58z" />
    <glyph glyph-name="uni00B3" unicode="&#xb3;" horiz-adv-x="360" 
d="M180 373q-67 0 -103 33.5t-36 85.5h73q0 -24 17 -39.5t49 -15.5t49 16.5t17 47.5q0 30 -18.5 46.5t-58.5 16.5h-40v62h40q36 0 54 16t18 42q0 27 -16 43t-45 16t-45 -15t-16 -35h-73q0 48 35.5 81t98.5 33q31 0 56 -9t42 -24.5t26.5 -36.5t9.5 -44q0 -39 -17.5 -63
t-40.5 -35q27 -9 45 -35t18 -68q0 -51 -36.5 -85t-102.5 -34z" />
    <glyph glyph-name="acute" unicode="&#xb4;" horiz-adv-x="280" 
d="M142 730h101l-128 -160h-78z" />
    <glyph glyph-name="uni03BC" unicode="&#xb5;" 
d="M75 530h89v-327q0 -68 28.5 -100t77.5 -32q23 0 44 10t37 27.5t25.5 41.5t9.5 53v327h89v-530h-79v85q-16 -38 -53.5 -65t-91.5 -27q-19 0 -44.5 8t-42.5 33v-184h-89v680z" />
    <glyph glyph-name="uni03BC" unicode="&#x3bc;" 
d="M75 530h89v-327q0 -68 28.5 -100t77.5 -32q23 0 44 10t37 27.5t25.5 41.5t9.5 53v327h89v-530h-79v85q-16 -38 -53.5 -65t-91.5 -27q-19 0 -44.5 8t-42.5 33v-184h-89v680z" />
    <glyph glyph-name="paragraph" unicode="&#xb6;" horiz-adv-x="680" 
d="M262 300q-41 0 -77.5 16t-63.5 43t-43 63.5t-16 77.5t16 77.5t43 63.5t63.5 43t77.5 16h316v-900h-92v818h-132v-818h-92v500z" />
    <glyph glyph-name="periodcentered" unicode="&#xb7;" horiz-adv-x="300" 
d="M150 248q-30 0 -51 21t-21 51q0 31 21 51.5t51 20.5t51 -20.5t21 -51.5q0 -30 -21 -51t-51 -21z" />
    <glyph glyph-name="cedilla" unicode="&#xb8;" horiz-adv-x="230" 
d="M85 -207q-12 0 -22 0.5t-17 1.5q-8 1 -14 3l13 53q4 -1 8 -1q4 -1 9 -1h11q28 0 39.5 10t11.5 24t-12.5 22t-44.5 10l18 85h60l-11 -42q38 -12 51 -32.5t13 -43.5q0 -38 -28 -63.5t-85 -25.5z" />
    <glyph glyph-name="uni00B9" unicode="&#xb9;" horiz-adv-x="240" 
d="M112 719l-95 -71v81l95 71h73v-420h-73v339z" />
    <glyph glyph-name="ordmasculine" unicode="&#xba;" horiz-adv-x="350" 
d="M175 373q-65 0 -101.5 38t-36.5 109v40q0 71 36.5 109t101.5 38t101.5 -38t36.5 -109v-40q0 -71 -36.5 -109t-101.5 -38zM175 435q33 0 50 19t17 66v40q0 47 -17 66t-50 19t-50 -19t-17 -66v-40q0 -47 17 -66t50 -19z" />
    <glyph glyph-name="guillemotright" unicode="&#xbb;" horiz-adv-x="560" 
d="M61 184l151 124l-151 124v101l230 -191v-64l-230 -191v97zM291 184l151 124l-151 124v101l230 -191v-64l-230 -191v97z" />
    <glyph glyph-name="onequarter" unicode="&#xbc;" horiz-adv-x="820" 
d="M141 620l-95 -71v81l95 71h73v-420h-73v339zM607 700h89l-469 -700h-89zM661 86h-197v53l183 282h88v-272h39v-63h-39v-85h-74v85zM661 149v176l-114 -176h114z" />
    <glyph glyph-name="onehalf" unicode="&#xbd;" horiz-adv-x="860" 
d="M141 620l-95 -71v81l95 71h73v-420h-73v339zM607 700h89l-469 -700h-89zM548 59l143 151q28 31 40 51t12 42q0 29 -16.5 45t-45.5 16t-45.5 -16t-16.5 -45h-71q0 27 9.5 49.5t27 39.5t42 26.5t54.5 9.5q60 0 96.5 -35.5t36.5 -89.5q0 -32 -15.5 -60.5t-50.5 -65.5
l-106 -113h172v-63h-266v58z" />
    <glyph glyph-name="threequarters" unicode="&#xbe;" horiz-adv-x="880" 
d="M185 274q-67 0 -103 33.5t-36 85.5h73q0 -24 17 -39.5t49 -15.5t49 16.5t17 47.5q0 30 -18.5 46.5t-58.5 16.5h-40v62h40q36 0 54 16t18 42q0 27 -16 43t-45 16t-45 -15t-16 -35h-73q0 48 35.5 81t98.5 33q31 0 56 -9t42 -24.5t26.5 -36.5t9.5 -44q0 -39 -17.5 -63
t-40.5 -35q27 -9 45 -35t18 -68q0 -51 -36.5 -85t-102.5 -34zM667 700h89l-469 -700h-89zM721 86h-197v53l183 282h88v-272h39v-63h-39v-85h-74v85zM721 149v176l-114 -176h114z" />
    <glyph glyph-name="questiondown" unicode="&#xbf;" horiz-adv-x="500" 
d="M250 -207q-48 0 -86.5 14.5t-65.5 39.5t-41.5 59.5t-14.5 73.5q0 28 9 53t24 47.5t34.5 43t40.5 38.5q17 14 28 26.5t17 24t8.5 23t2.5 24.5v50h90v-62q0 -19 -3 -35t-11.5 -32t-24 -34t-41.5 -40q-42 -36 -62 -65t-20 -62q0 -48 30 -76.5t86 -28.5t86 28.5t30 76.5h92
q0 -39 -14.5 -73.5t-41.5 -59.5t-65.5 -39.5t-86.5 -14.5zM251 397q-29 0 -49.5 20t-20.5 50t20.5 50t49.5 20t49.5 -20t20.5 -50t-20.5 -50t-49.5 -20z" />
    <glyph glyph-name="Agrave" unicode="&#xc0;" horiz-adv-x="650" 
d="M277 700h97l255 -700h-102l-63 174h-282l-63 -174h-98zM435 256l-112 325l-112 -325h224zM148 900h103l115 -150h-82z" />
    <glyph glyph-name="Aacute" unicode="&#xc1;" horiz-adv-x="650" 
d="M277 700h97l255 -700h-102l-63 174h-282l-63 -174h-98zM435 256l-112 325l-112 -325h224zM399 900h103l-136 -150h-82z" />
    <glyph glyph-name="Acircumflex" unicode="&#xc2;" horiz-adv-x="650" 
d="M277 700h97l255 -700h-102l-63 174h-282l-63 -174h-98zM435 256l-112 325l-112 -325h224zM287 900h77l116 -150h-82l-73 84l-73 -84h-82z" />
    <glyph glyph-name="Atilde" unicode="&#xc3;" horiz-adv-x="650" 
d="M277 700h97l255 -700h-102l-63 174h-282l-63 -174h-98zM435 256l-112 325l-112 -325h224zM393 762q-24 0 -42.5 7.5t-35 16.5t-31.5 16.5t-31 7.5q-14 0 -23.5 -6t-15.5 -14q-7 -9 -11 -20l-61 32q10 24 26 43q14 16 35.5 29.5t53.5 13.5q24 0 42.5 -7.5t35 -16.5
t31 -16.5t31.5 -7.5q14 0 23 6t15 14q7 9 12 20l61 -32q-10 -25 -26 -43q-14 -17 -35.5 -30t-53.5 -13z" />
    <glyph glyph-name="Adieresis" unicode="&#xc4;" horiz-adv-x="650" 
d="M277 700h97l255 -700h-102l-63 174h-282l-63 -174h-98zM435 256l-112 325l-112 -325h224zM215 764q-25 0 -43 18t-18 43t18 43t43 18t43 -18t18 -43t-18 -43t-43 -18zM435 764q-25 0 -43 18t-18 43t18 43t43 18t43 -18t18 -43t-18 -43t-43 -18z" />
    <glyph glyph-name="Aring" unicode="&#xc5;" horiz-adv-x="650" 
d="M277 700h97l255 -700h-102l-63 174h-282l-63 -174h-98zM435 256l-112 325l-112 -325h224zM325 725q-54 0 -86 26t-32 74t32 74t86 26t86 -26t32 -74t-32 -74t-86 -26zM325 784q24 0 36.5 11.5t12.5 29.5t-12.5 29.5t-36.5 11.5t-36.5 -11.5t-12.5 -29.5t12.5 -29.5
t36.5 -11.5z" />
    <glyph glyph-name="AE" unicode="&#xc6;" horiz-adv-x="920" 
d="M438 700h434v-82h-332v-217h300v-82h-300v-237h332v-82h-425v174h-225l-104 -174h-103zM447 256v302l-177 -302h177z" />
    <glyph glyph-name="Ccedilla" unicode="&#xc7;" horiz-adv-x="630" 
d="M300 -207q-12 0 -22.5 0.5t-18.5 1.5q-10 1 -17 3l13 53q5 -1 10 -1q5 -1 11 -1h12q32 0 44 10t12 24t-13 22t-49 10l17 80q-110 9 -171.5 87t-61.5 239v80q0 155 70 230.5t194 75.5q109 0 173.5 -51t84.5 -161h-94q-19 71 -58 100t-106 29q-81 0 -126 -51.5t-45 -171.5
v-80q0 -68 11.5 -115t33.5 -76t53.5 -41.5t72.5 -12.5q35 0 61.5 7.5t46 23t33 40.5t23.5 61h94q-21 -109 -79 -158.5t-152 -55.5l-9 -36q43 -12 56 -32.5t13 -43.5q0 -38 -28.5 -63.5t-88.5 -25.5z" />
    <glyph glyph-name="Egrave" unicode="&#xc8;" horiz-adv-x="575" 
d="M98 700h429v-82h-335v-217h303v-82h-303v-237h335v-82h-429v700zM135 900h103l115 -150h-82z" />
    <glyph glyph-name="Eacute" unicode="&#xc9;" horiz-adv-x="575" 
d="M98 700h429v-82h-335v-217h303v-82h-303v-237h335v-82h-429v700zM387 900h103l-136 -150h-82z" />
    <glyph glyph-name="Ecircumflex" unicode="&#xca;" horiz-adv-x="575" 
d="M98 700h429v-82h-335v-217h303v-82h-303v-237h335v-82h-429v700zM274 900h77l116 -150h-82l-73 84l-73 -84h-82z" />
    <glyph glyph-name="Edieresis" unicode="&#xcb;" horiz-adv-x="575" 
d="M98 700h429v-82h-335v-217h303v-82h-303v-237h335v-82h-429v700zM202 764q-25 0 -43 18t-18 43t18 43t43 18t43 -18t18 -43t-18 -43t-43 -18zM422 764q-25 0 -43 18t-18 43t18 43t43 18t43 -18t18 -43t-18 -43t-43 -18z" />
    <glyph glyph-name="Igrave" unicode="&#xcc;" horiz-adv-x="310" 
d="M108 700h94v-700h-94v700zM-21 900h103l115 -150h-82z" />
    <glyph glyph-name="Iacute" unicode="&#xcd;" horiz-adv-x="310" 
d="M108 700h94v-700h-94v700zM229 900h103l-136 -150h-82z" />
    <glyph glyph-name="Icircumflex" unicode="&#xce;" horiz-adv-x="310" 
d="M108 700h94v-700h-94v700zM118 900h77l116 -150h-82l-73 84l-73 -84h-82z" />
    <glyph glyph-name="Idieresis" unicode="&#xcf;" horiz-adv-x="310" 
d="M108 700h94v-700h-94v700zM46 764q-25 0 -43 18t-18 43t18 43t43 18t43 -18t18 -43t-18 -43t-43 -18zM266 764q-25 0 -43 18t-18 43t18 43t43 18t43 -18t18 -43t-18 -43t-43 -18z" />
    <glyph glyph-name="Eth" unicode="&#xd0;" horiz-adv-x="670" 
d="M108 319h-99v82h99v299h232q124 0 194 -75.5t70 -231.5v-80q0 -161 -70 -237t-194 -76h-232v319zM340 82q81 0 126 53t45 178v80q0 121 -45 173t-126 52h-138v-217h182v-82h-182v-237h138z" />
    <glyph glyph-name="Ntilde" unicode="&#xd1;" horiz-adv-x="700" 
d="M98 700h92l320 -538v538h92v-700h-92l-320 539v-539h-92v700zM418 762q-24 0 -42.5 7.5t-35 16.5t-31.5 16.5t-31 7.5q-14 0 -23.5 -6t-15.5 -14q-7 -9 -11 -20l-61 32q10 24 26 43q14 16 35.5 29.5t53.5 13.5q24 0 42.5 -7.5t35 -16.5t31 -16.5t31.5 -7.5q14 0 23 6
t15 14q7 9 12 20l61 -32q-10 -25 -26 -43q-14 -17 -35.5 -30t-53.5 -13z" />
    <glyph glyph-name="Ograve" unicode="&#xd2;" horiz-adv-x="660" 
d="M330 -7q-62 0 -111 19t-83 59t-52 101.5t-18 147.5v80q0 155 70 231t194 76t194 -76t70 -231v-80q0 -86 -18 -147.5t-52 -101.5t-83 -59t-111 -19zM330 76q40 0 72 12.5t54 41.5t33.5 75.5t11.5 114.5v80q0 121 -45 172.5t-126 51.5t-126 -51.5t-45 -172.5v-80
q0 -68 11.5 -114.5t33.5 -75.5t53.5 -41.5t72.5 -12.5zM153 900h103l115 -150h-82z" />
    <glyph glyph-name="Oacute" unicode="&#xd3;" horiz-adv-x="660" 
d="M330 -7q-62 0 -111 19t-83 59t-52 101.5t-18 147.5v80q0 155 70 231t194 76t194 -76t70 -231v-80q0 -86 -18 -147.5t-52 -101.5t-83 -59t-111 -19zM330 76q40 0 72 12.5t54 41.5t33.5 75.5t11.5 114.5v80q0 121 -45 172.5t-126 51.5t-126 -51.5t-45 -172.5v-80
q0 -68 11.5 -114.5t33.5 -75.5t53.5 -41.5t72.5 -12.5zM404 900h103l-136 -150h-82z" />
    <glyph glyph-name="Ocircumflex" unicode="&#xd4;" horiz-adv-x="660" 
d="M330 -7q-62 0 -111 19t-83 59t-52 101.5t-18 147.5v80q0 155 70 231t194 76t194 -76t70 -231v-80q0 -86 -18 -147.5t-52 -101.5t-83 -59t-111 -19zM330 76q40 0 72 12.5t54 41.5t33.5 75.5t11.5 114.5v80q0 121 -45 172.5t-126 51.5t-126 -51.5t-45 -172.5v-80
q0 -68 11.5 -114.5t33.5 -75.5t53.5 -41.5t72.5 -12.5zM292 900h77l116 -150h-82l-73 84l-73 -84h-82z" />
    <glyph glyph-name="Otilde" unicode="&#xd5;" horiz-adv-x="660" 
d="M330 -7q-62 0 -111 19t-83 59t-52 101.5t-18 147.5v80q0 155 70 231t194 76t194 -76t70 -231v-80q0 -86 -18 -147.5t-52 -101.5t-83 -59t-111 -19zM330 76q40 0 72 12.5t54 41.5t33.5 75.5t11.5 114.5v80q0 121 -45 172.5t-126 51.5t-126 -51.5t-45 -172.5v-80
q0 -68 11.5 -114.5t33.5 -75.5t53.5 -41.5t72.5 -12.5zM398 762q-24 0 -42.5 7.5t-35 16.5t-31.5 16.5t-31 7.5q-14 0 -23.5 -6t-15.5 -14q-7 -9 -11 -20l-61 32q10 24 26 43q14 16 35.5 29.5t53.5 13.5q24 0 42.5 -7.5t35 -16.5t31 -16.5t31.5 -7.5q14 0 23 6t15 14
q7 9 12 20l61 -32q-10 -25 -26 -43q-14 -17 -35.5 -30t-53.5 -13z" />
    <glyph glyph-name="Odieresis" unicode="&#xd6;" horiz-adv-x="660" 
d="M330 -7q-62 0 -111 19t-83 59t-52 101.5t-18 147.5v80q0 155 70 231t194 76t194 -76t70 -231v-80q0 -86 -18 -147.5t-52 -101.5t-83 -59t-111 -19zM330 76q40 0 72 12.5t54 41.5t33.5 75.5t11.5 114.5v80q0 121 -45 172.5t-126 51.5t-126 -51.5t-45 -172.5v-80
q0 -68 11.5 -114.5t33.5 -75.5t53.5 -41.5t72.5 -12.5zM220 764q-25 0 -43 18t-18 43t18 43t43 18t43 -18t18 -43t-18 -43t-43 -18zM440 764q-25 0 -43 18t-18 43t18 43t43 18t43 -18t18 -43t-18 -43t-43 -18z" />
    <glyph glyph-name="multiply" unicode="&#xd7;" 
d="M97 246l115 115l-115 116l61 62l116 -116l115 116l65 -65l-116 -115l116 -116l-62 -61l-116 115l-115 -115z" />
    <glyph glyph-name="Oslash" unicode="&#xd8;" horiz-adv-x="660" 
d="M112 -47l43 98q-44 39 -66.5 105.5t-22.5 163.5v80q0 155 70 231t194 76q29 0 55 -5t49 -13l40 91l74 -33l-43 -98q44 -38 66.5 -99.5t22.5 -149.5v-80q0 -86 -18 -147.5t-52 -101.5t-83 -59t-111 -19q-58 0 -104 17l-40 -90zM330 625q-81 0 -126 -52t-45 -173v-80
q0 -61 9 -103.5t27 -71.5l206 467q-34 13 -71 13zM330 75q40 0 72 12.5t54 41.5t33.5 76t11.5 115v80q0 103 -36 156l-206 -468q30 -13 71 -13z" />
    <glyph glyph-name="Ugrave" unicode="&#xd9;" horiz-adv-x="690" 
d="M345 -7q-119 0 -187.5 70.5t-68.5 216.5v420h94v-420q0 -107 42 -155.5t120 -48.5t120 48.5t42 155.5v420h94v-420q0 -73 -18 -127t-51 -89.5t-80.5 -53t-106.5 -17.5zM168 900h103l115 -150h-82z" />
    <glyph glyph-name="Uacute" unicode="&#xda;" horiz-adv-x="690" 
d="M345 -7q-119 0 -187.5 70.5t-68.5 216.5v420h94v-420q0 -107 42 -155.5t120 -48.5t120 48.5t42 155.5v420h94v-420q0 -73 -18 -127t-51 -89.5t-80.5 -53t-106.5 -17.5zM419 900h103l-136 -150h-82z" />
    <glyph glyph-name="Ucircumflex" unicode="&#xdb;" horiz-adv-x="690" 
d="M345 -7q-119 0 -187.5 70.5t-68.5 216.5v420h94v-420q0 -107 42 -155.5t120 -48.5t120 48.5t42 155.5v420h94v-420q0 -73 -18 -127t-51 -89.5t-80.5 -53t-106.5 -17.5zM307 900h77l116 -150h-82l-73 84l-73 -84h-82z" />
    <glyph glyph-name="Udieresis" unicode="&#xdc;" horiz-adv-x="690" 
d="M345 -7q-119 0 -187.5 70.5t-68.5 216.5v420h94v-420q0 -107 42 -155.5t120 -48.5t120 48.5t42 155.5v420h94v-420q0 -73 -18 -127t-51 -89.5t-80.5 -53t-106.5 -17.5zM235 764q-25 0 -43 18t-18 43t18 43t43 18t43 -18t18 -43t-18 -43t-43 -18zM455 764q-25 0 -43 18
t-18 43t18 43t43 18t43 -18t18 -43t-18 -43t-43 -18z" />
    <glyph glyph-name="Yacute" unicode="&#xdd;" horiz-adv-x="610" 
d="M268 297l-247 403h107l186 -306l172 306h103l-227 -403v-297h-94v297zM379 900h103l-136 -150h-82z" />
    <glyph glyph-name="Thorn" unicode="&#xde;" horiz-adv-x="640" 
d="M98 700h94v-117h142q127 0 191.5 -60.5t64.5 -162.5q0 -103 -64 -163t-192 -60h-142v-137h-94v700zM334 219q85 0 123.5 36t38.5 105q0 68 -38.5 104.5t-123.5 36.5h-142v-282h142z" />
    <glyph glyph-name="germandbls" unicode="&#xdf;" horiz-adv-x="535" 
d="M75 465q0 64 15.5 109.5t44 75t67.5 43.5t86 14q46 0 79.5 -12t55 -33.5t32 -50.5t10.5 -62q0 -42 -17.5 -75t-51.5 -48q38 -15 53.5 -45t15.5 -78v-144q0 -82 -38.5 -120.5t-128.5 -38.5h-38v77h32q84 0 84 82v143q0 45 -20.5 65t-63.5 20h-32v76h33q83 0 83 84
q0 38 -22.5 60.5t-65.5 22.5q-26 0 -48.5 -8t-39 -27.5t-26.5 -51t-10 -78.5v-465h-89v465z" />
    <glyph glyph-name="agrave" unicode="&#xe0;" horiz-adv-x="510" 
d="M197 -6q-73 0 -114 40.5t-41 113.5q0 77 44 117.5t141 40.5h126v51q0 54 -24.5 78.5t-75.5 24.5q-26 0 -44 -5.5t-29 -15t-17 -21.5t-7 -24h-86q3 31 14 57t33 45t55.5 30t81.5 11q96 0 141 -44.5t45 -135.5v-357h-77v88q-10 -17 -23 -34t-32.5 -30.5t-46.5 -21.5t-64 -8
zM222 70q60 0 95.5 35.5t35.5 96.5v32h-122q-57 0 -79.5 -20.5t-22.5 -64.5q0 -35 23 -57t70 -22zM88 730h102l104 -160h-78z" />
    <glyph glyph-name="aacute" unicode="&#xe1;" horiz-adv-x="510" 
d="M197 -6q-73 0 -114 40.5t-41 113.5q0 77 44 117.5t141 40.5h126v51q0 54 -24.5 78.5t-75.5 24.5q-26 0 -44 -5.5t-29 -15t-17 -21.5t-7 -24h-86q3 31 14 57t33 45t55.5 30t81.5 11q96 0 141 -44.5t45 -135.5v-357h-77v88q-10 -17 -23 -34t-32.5 -30.5t-46.5 -21.5t-64 -8
zM222 70q60 0 95.5 35.5t35.5 96.5v32h-122q-57 0 -79.5 -20.5t-22.5 -64.5q0 -35 23 -57t70 -22zM321 730h101l-128 -160h-78z" />
    <glyph glyph-name="acircumflex" unicode="&#xe2;" horiz-adv-x="510" 
d="M197 -6q-73 0 -114 40.5t-41 113.5q0 77 44 117.5t141 40.5h126v51q0 54 -24.5 78.5t-75.5 24.5q-26 0 -44 -5.5t-29 -15t-17 -21.5t-7 -24h-86q3 31 14 57t33 45t55.5 30t81.5 11q96 0 141 -44.5t45 -135.5v-357h-77v88q-10 -17 -23 -34t-32.5 -30.5t-46.5 -21.5t-64 -8
zM222 70q60 0 95.5 35.5t35.5 96.5v32h-122q-57 0 -79.5 -20.5t-22.5 -64.5q0 -35 23 -57t70 -22zM220 730h70l110 -160h-78l-67 85l-67 -85h-78z" />
    <glyph glyph-name="atilde" unicode="&#xe3;" horiz-adv-x="510" 
d="M197 -6q-73 0 -114 40.5t-41 113.5q0 77 44 117.5t141 40.5h126v51q0 54 -24.5 78.5t-75.5 24.5q-26 0 -44 -5.5t-29 -15t-17 -21.5t-7 -24h-86q3 31 14 57t33 45t55.5 30t81.5 11q96 0 141 -44.5t45 -135.5v-357h-77v88q-10 -17 -23 -34t-32.5 -30.5t-46.5 -21.5t-64 -8
zM222 70q60 0 95.5 35.5t35.5 96.5v32h-122q-57 0 -79.5 -20.5t-22.5 -64.5q0 -35 23 -57t70 -22zM310 587q-19 0 -34.5 7.5t-29 17t-26 17t-25.5 7.5q-11 0 -19.5 -6t-13.5 -14q-6 -9 -11 -20l-59 31q9 24 24 43q13 16 33.5 29.5t50.5 13.5q19 0 34.5 -7.5t29 -17t26 -17
t25.5 -7.5q11 0 19.5 6t13.5 14q6 9 11 20l59 -31q-9 -25 -24 -43q-13 -17 -34 -30t-50 -13z" />
    <glyph glyph-name="adieresis" unicode="&#xe4;" horiz-adv-x="510" 
d="M197 -6q-73 0 -114 40.5t-41 113.5q0 77 44 117.5t141 40.5h126v51q0 54 -24.5 78.5t-75.5 24.5q-26 0 -44 -5.5t-29 -15t-17 -21.5t-7 -24h-86q3 31 14 57t33 45t55.5 30t81.5 11q96 0 141 -44.5t45 -135.5v-357h-77v88q-10 -17 -23 -34t-32.5 -30.5t-46.5 -21.5t-64 -8
zM222 70q60 0 95.5 35.5t35.5 96.5v32h-122q-57 0 -79.5 -20.5t-22.5 -64.5q0 -35 23 -57t70 -22zM162 589q-25 0 -42.5 18t-17.5 43t17.5 43t42.5 18q26 0 43.5 -18t17.5 -43t-17.5 -43t-43.5 -18zM348 589q-26 0 -43.5 18t-17.5 43t17.5 43t43.5 18q25 0 43 -18t18 -43
t-18 -43t-43 -18z" />
    <glyph glyph-name="aring" unicode="&#xe5;" horiz-adv-x="510" 
d="M197 -6q-73 0 -114 40.5t-41 113.5q0 77 44 117.5t141 40.5h126v51q0 54 -24.5 78.5t-75.5 24.5q-26 0 -44 -5.5t-29 -15t-17 -21.5t-7 -24h-86q3 31 14 57t33 45t55.5 30t81.5 11q96 0 141 -44.5t45 -135.5v-357h-77v88q-10 -17 -23 -34t-32.5 -30.5t-46.5 -21.5t-64 -8
zM222 70q60 0 95.5 35.5t35.5 96.5v32h-122q-57 0 -79.5 -20.5t-22.5 -64.5q0 -35 23 -57t70 -22zM255 551q-53 0 -85.5 31t-32.5 78t32.5 78t85.5 31t85.5 -31t32.5 -78t-32.5 -78t-85.5 -31zM255 610q22 0 35 13.5t13 36.5t-13 36.5t-35 13.5t-35 -13.5t-13 -36.5
t13 -36.5t35 -13.5z" />
    <glyph glyph-name="ae" unicode="&#xe6;" horiz-adv-x="800" 
d="M204 -7q-78 0 -120 40.5t-42 114.5q0 77 44 117.5t138 40.5h121v51q0 54 -23.5 78.5t-71.5 24.5q-25 0 -42 -5.5t-28 -15t-17 -21.5t-7 -24h-86q3 31 14 57t32.5 45t54.5 30t80 11q56 0 91 -18t57 -54q49 72 149 72q92 0 146 -58.5t54 -173.5v-71h-316q2 -89 34.5 -127
t84.5 -38q23 0 40 6.5t29 17.5t19.5 25t10.5 29h89q-16 -78 -64.5 -116t-123.5 -38q-57 0 -102 25t-72 73q-24 -44 -65.5 -71t-107.5 -27zM218 70q60 0 93.5 35.5t33.5 96.5v32h-118q-54 0 -76 -20.5t-22 -64.5q0 -35 22.5 -57t66.5 -22zM547 461q-52 0 -83 -35t-32 -120
h233q-1 85 -32 120t-86 35z" />
    <glyph glyph-name="ccedilla" unicode="&#xe7;" horiz-adv-x="510" 
d="M235 -207q-12 0 -22 0.5t-17 1.5q-8 1 -14 3l13 53q4 -1 8 -1q4 -1 9 -1h11q28 0 39.5 10t11.5 24t-12.5 22t-44.5 10l17 80q-84 10 -133 70t-49 167v76q0 54 15.5 96.5t43 72t67 45t87.5 15.5q41 0 76 -11t62 -32t44 -50.5t21 -65.5h-89q-8 33 -35 57t-79 24
q-57 0 -91 -37.5t-34 -113.5v-76q0 -84 34 -122.5t91 -38.5q52 0 79 25t34 56h90q-33 -143 -175 -157l-9 -37q38 -12 51 -32.5t13 -43.5q0 -38 -28 -63.5t-85 -25.5z" />
    <glyph glyph-name="egrave" unicode="&#xe8;" horiz-adv-x="520" 
d="M265 -7q-48 0 -87.5 15.5t-67 46t-43 75t-15.5 102.5v76q0 112 55.5 170.5t152.5 58.5t152.5 -58.5t55.5 -172.5v-67h-328q1 -91 34.5 -130.5t90.5 -39.5q25 0 43.5 6.5t31 17.5t19.5 25t10 29h89q-16 -78 -65 -116t-128 -38zM261 461q-57 0 -88.5 -34.5t-32.5 -115.5
h245q-2 81 -33.5 115.5t-90.5 34.5zM93 730h102l104 -160h-78z" />
    <glyph glyph-name="eacute" unicode="&#xe9;" horiz-adv-x="520" 
d="M265 -7q-48 0 -87.5 15.5t-67 46t-43 75t-15.5 102.5v76q0 112 55.5 170.5t152.5 58.5t152.5 -58.5t55.5 -172.5v-67h-328q1 -91 34.5 -130.5t90.5 -39.5q25 0 43.5 6.5t31 17.5t19.5 25t10 29h89q-16 -78 -65 -116t-128 -38zM261 461q-57 0 -88.5 -34.5t-32.5 -115.5
h245q-2 81 -33.5 115.5t-90.5 34.5zM326 730h101l-128 -160h-78z" />
    <glyph glyph-name="ecircumflex" unicode="&#xea;" horiz-adv-x="520" 
d="M265 -7q-48 0 -87.5 15.5t-67 46t-43 75t-15.5 102.5v76q0 112 55.5 170.5t152.5 58.5t152.5 -58.5t55.5 -172.5v-67h-328q1 -91 34.5 -130.5t90.5 -39.5q25 0 43.5 6.5t31 17.5t19.5 25t10 29h89q-16 -78 -65 -116t-128 -38zM261 461q-57 0 -88.5 -34.5t-32.5 -115.5
h245q-2 81 -33.5 115.5t-90.5 34.5zM225 730h70l110 -160h-78l-67 85l-67 -85h-78z" />
    <glyph glyph-name="edieresis" unicode="&#xeb;" horiz-adv-x="520" 
d="M265 -7q-48 0 -87.5 15.5t-67 46t-43 75t-15.5 102.5v76q0 112 55.5 170.5t152.5 58.5t152.5 -58.5t55.5 -172.5v-67h-328q1 -91 34.5 -130.5t90.5 -39.5q25 0 43.5 6.5t31 17.5t19.5 25t10 29h89q-16 -78 -65 -116t-128 -38zM261 461q-57 0 -88.5 -34.5t-32.5 -115.5
h245q-2 81 -33.5 115.5t-90.5 34.5zM167 589q-25 0 -42.5 18t-17.5 43t17.5 43t42.5 18q26 0 43.5 -18t17.5 -43t-17.5 -43t-43.5 -18zM353 589q-26 0 -43.5 18t-17.5 43t17.5 43t43.5 18q25 0 43 -18t18 -43t-18 -43t-43 -18z" />
    <glyph glyph-name="igrave" unicode="&#xec;" horiz-adv-x="280" 
d="M96 530h88v-530h-88v530zM-26 730h102l104 -160h-78z" />
    <glyph glyph-name="iacute" unicode="&#xed;" horiz-adv-x="280" 
d="M96 530h88v-530h-88v530zM206 730h101l-128 -160h-78z" />
    <glyph glyph-name="icircumflex" unicode="&#xee;" horiz-adv-x="280" 
d="M96 530h88v-530h-88v530zM106 730h70l110 -160h-78l-67 85l-67 -85h-78z" />
    <glyph glyph-name="idieresis" unicode="&#xef;" horiz-adv-x="280" 
d="M96 530h88v-530h-88v530zM48 589q-25 0 -42.5 18t-17.5 43t17.5 43t42.5 18q26 0 43.5 -18t17.5 -43t-17.5 -43t-43.5 -18zM234 589q-26 0 -43.5 18t-17.5 43t17.5 43t43.5 18q25 0 43 -18t18 -43t-18 -43t-43 -18z" />
    <glyph glyph-name="eth" unicode="&#xf0;" horiz-adv-x="540" 
d="M270 -7q-100 0 -159 61.5t-59 177.5v76q0 50 15 90.5t42.5 69t65.5 44t83 15.5q52 0 89.5 -24t60.5 -59q-5 37 -12 65.5t-20.5 51t-35 40t-55.5 31.5l-18 -59l-60 17l18 62q-15 5 -32.5 8.5l-37.5 7.5l17 67q2 0 13 -2.5t24 -5t24 -5t13 -2.5l16 52l61 -16l-18 -55
q51 -19 86 -47t56.5 -70.5t31 -102.5t9.5 -143v-70q0 -71 -15.5 -123t-44 -86t-68.5 -50t-90 -16zM270 71q60 0 95 38.5t35 122.5v76q0 69 -35 105t-95 36t-95 -36t-35 -105v-76q0 -84 35 -122.5t95 -38.5z" />
    <glyph glyph-name="ntilde" unicode="&#xf1;" horiz-adv-x="555" 
d="M75 530h79v-88q17 39 58 67t99 28q80 0 127 -51t47 -154v-332h-89v327q0 68 -29 100t-82 32q-25 0 -47 -10t-38.5 -27.5t-26 -41.5t-9.5 -53v-327h-89v530zM333 587q-19 0 -34.5 7.5t-29 17t-26 17t-25.5 7.5q-11 0 -19.5 -6t-13.5 -14q-6 -9 -11 -20l-59 31q9 24 24 43
q13 16 33.5 29.5t50.5 13.5q19 0 34.5 -7.5t29 -17t26 -17t25.5 -7.5q11 0 19.5 6t13.5 14q6 9 11 20l59 -31q-9 -25 -24 -43q-13 -17 -34 -30t-50 -13z" />
    <glyph glyph-name="ograve" unicode="&#xf2;" horiz-adv-x="540" 
d="M270 -7q-100 0 -159 61.5t-59 177.5v76q0 54 15.5 96.5t44 72t68.5 45t90 15.5t90 -15.5t68.5 -45t44 -72t15.5 -96.5v-76q0 -116 -59 -177.5t-159 -61.5zM270 71q60 0 95 38.5t35 122.5v76q0 76 -35 113.5t-95 37.5t-95 -37.5t-35 -113.5v-76q0 -84 35 -122.5t95 -38.5z
M103 730h102l104 -160h-78z" />
    <glyph glyph-name="oacute" unicode="&#xf3;" horiz-adv-x="540" 
d="M270 -7q-100 0 -159 61.5t-59 177.5v76q0 54 15.5 96.5t44 72t68.5 45t90 15.5t90 -15.5t68.5 -45t44 -72t15.5 -96.5v-76q0 -116 -59 -177.5t-159 -61.5zM270 71q60 0 95 38.5t35 122.5v76q0 76 -35 113.5t-95 37.5t-95 -37.5t-35 -113.5v-76q0 -84 35 -122.5t95 -38.5z
M336 730h101l-128 -160h-78z" />
    <glyph glyph-name="ocircumflex" unicode="&#xf4;" horiz-adv-x="540" 
d="M270 -7q-100 0 -159 61.5t-59 177.5v76q0 54 15.5 96.5t44 72t68.5 45t90 15.5t90 -15.5t68.5 -45t44 -72t15.5 -96.5v-76q0 -116 -59 -177.5t-159 -61.5zM270 71q60 0 95 38.5t35 122.5v76q0 76 -35 113.5t-95 37.5t-95 -37.5t-35 -113.5v-76q0 -84 35 -122.5t95 -38.5z
M235 730h70l110 -160h-78l-67 85l-67 -85h-78z" />
    <glyph glyph-name="otilde" unicode="&#xf5;" horiz-adv-x="540" 
d="M270 -7q-100 0 -159 61.5t-59 177.5v76q0 54 15.5 96.5t44 72t68.5 45t90 15.5t90 -15.5t68.5 -45t44 -72t15.5 -96.5v-76q0 -116 -59 -177.5t-159 -61.5zM270 71q60 0 95 38.5t35 122.5v76q0 76 -35 113.5t-95 37.5t-95 -37.5t-35 -113.5v-76q0 -84 35 -122.5t95 -38.5z
M325 587q-19 0 -34.5 7.5t-29 17t-26 17t-25.5 7.5q-11 0 -19.5 -6t-13.5 -14q-6 -9 -11 -20l-59 31q9 24 24 43q13 16 33.5 29.5t50.5 13.5q19 0 34.5 -7.5t29 -17t26 -17t25.5 -7.5q11 0 19.5 6t13.5 14q6 9 11 20l59 -31q-9 -25 -24 -43q-13 -17 -34 -30t-50 -13z" />
    <glyph glyph-name="odieresis" unicode="&#xf6;" horiz-adv-x="540" 
d="M270 -7q-100 0 -159 61.5t-59 177.5v76q0 54 15.5 96.5t44 72t68.5 45t90 15.5t90 -15.5t68.5 -45t44 -72t15.5 -96.5v-76q0 -116 -59 -177.5t-159 -61.5zM270 71q60 0 95 38.5t35 122.5v76q0 76 -35 113.5t-95 37.5t-95 -37.5t-35 -113.5v-76q0 -84 35 -122.5t95 -38.5z
M177 589q-25 0 -42.5 18t-17.5 43t17.5 43t42.5 18q26 0 43.5 -18t17.5 -43t-17.5 -43t-43.5 -18zM363 589q-26 0 -43.5 18t-17.5 43t17.5 43t43.5 18q25 0 43 -18t18 -43t-18 -43t-43 -18z" />
    <glyph glyph-name="divide" unicode="&#xf7;" 
d="M275 128q-29 0 -48.5 20t-19.5 49t19.5 48.5t48.5 19.5t48.5 -19.5t19.5 -48.5t-19.5 -49t-48.5 -20zM71 401h408v-82h-408v82zM275 455q-29 0 -48.5 19.5t-19.5 48.5t19.5 49t48.5 20t48.5 -20t19.5 -49t-19.5 -48.5t-48.5 -19.5z" />
    <glyph glyph-name="oslash" unicode="&#xf8;" horiz-adv-x="540" 
d="M91 -54l39 91q-38 29 -58 78t-20 117v76q0 54 15.5 96.5t44 72t68.5 45t90 15.5q20 0 39 -3t36 -8l38 84l66 -26l-39 -91q37 -29 57.5 -75.5t20.5 -109.5v-76q0 -116 -59 -177.5t-159 -61.5q-40 0 -76 11l-37 -84zM270 461q-62 0 -97 -38t-35 -115v-76q0 -38 7 -66
t21 -48l149 336q-11 3 -22 5t-23 2zM270 69q62 0 97 39t35 124v76q0 67 -28 104l-149 -337q19 -6 45 -6z" />
    <glyph glyph-name="ugrave" unicode="&#xf9;" horiz-adv-x="545" 
d="M240 -7q-77 0 -123.5 51t-46.5 154v332h89v-327q0 -68 28.5 -100t77.5 -32q23 0 44 10t37 27.5t25.5 41.5t9.5 53v327h89v-530h-79v88q-17 -39 -56 -67t-95 -28zM103 730h102l104 -160h-78z" />
    <glyph glyph-name="uacute" unicode="&#xfa;" horiz-adv-x="545" 
d="M240 -7q-77 0 -123.5 51t-46.5 154v332h89v-327q0 -68 28.5 -100t77.5 -32q23 0 44 10t37 27.5t25.5 41.5t9.5 53v327h89v-530h-79v88q-17 -39 -56 -67t-95 -28zM336 730h101l-128 -160h-78z" />
    <glyph glyph-name="ucircumflex" unicode="&#xfb;" horiz-adv-x="545" 
d="M240 -7q-77 0 -123.5 51t-46.5 154v332h89v-327q0 -68 28.5 -100t77.5 -32q23 0 44 10t37 27.5t25.5 41.5t9.5 53v327h89v-530h-79v88q-17 -39 -56 -67t-95 -28zM235 730h70l110 -160h-78l-67 85l-67 -85h-78z" />
    <glyph glyph-name="udieresis" unicode="&#xfc;" horiz-adv-x="545" 
d="M240 -7q-77 0 -123.5 51t-46.5 154v332h89v-327q0 -68 28.5 -100t77.5 -32q23 0 44 10t37 27.5t25.5 41.5t9.5 53v327h89v-530h-79v88q-17 -39 -56 -67t-95 -28zM177 589q-25 0 -42.5 18t-17.5 43t17.5 43t42.5 18q26 0 43.5 -18t17.5 -43t-17.5 -43t-43.5 -18zM363 589
q-26 0 -43.5 18t-17.5 43t17.5 43t43.5 18q25 0 43 -18t18 -43t-18 -43t-43 -18z" />
    <glyph glyph-name="yacute" unicode="&#xfd;" horiz-adv-x="530" 
d="M93 -123q28 0 48.5 5t36 17.5t28.5 34t25 54.5l-214 542h99l159 -430l143 430h95l-197 -542q-21 -57 -41 -93.5t-45 -57.5t-58 -29t-79 -8v77zM331 730h101l-128 -160h-78z" />
    <glyph glyph-name="thorn" unicode="&#xfe;" horiz-adv-x="555" 
d="M75 700h89v-252q19 39 55.5 64t91.5 25q42 0 77 -15t60.5 -44t40 -72t14.5 -98v-76q0 -59 -14.5 -104t-40 -75t-60.5 -45t-77 -15q-54 0 -91 25t-56 64v-282h-89v900zM293 71q54 0 88 38.5t34 122.5v76q0 76 -34 113.5t-88 37.5q-60 0 -94.5 -37.5t-34.5 -113.5v-76
q0 -84 34.5 -122.5t94.5 -38.5z" />
    <glyph glyph-name="ydieresis" unicode="&#xff;" horiz-adv-x="530" 
d="M93 -123q28 0 48.5 5t36 17.5t28.5 34t25 54.5l-214 542h99l159 -430l143 430h95l-197 -542q-21 -57 -41 -93.5t-45 -57.5t-58 -29t-79 -8v77zM172 589q-25 0 -42.5 18t-17.5 43t17.5 43t42.5 18q26 0 43.5 -18t17.5 -43t-17.5 -43t-43.5 -18zM358 589q-26 0 -43.5 18
t-17.5 43t17.5 43t43.5 18q25 0 43 -18t18 -43t-18 -43t-43 -18z" />
    <glyph glyph-name="dotlessi" unicode="&#x131;" horiz-adv-x="280" 
d="M96 530h88v-530h-88v530z" />
    <glyph glyph-name="OE" unicode="&#x152;" horiz-adv-x="900" 
d="M304 -7q-118 0 -178 77.5t-60 249.5v80q0 158 60 232.5t178 74.5q46 0 84 -13.5t65 -47.5v54h399v-82h-305v-217h273v-82h-273v-237h305v-82h-399v55q-27 -35 -65 -48.5t-84 -13.5zM306 76q38 0 66 12.5t46 41t26.5 75t8.5 115.5v80q0 122 -35.5 173t-111.5 51
q-38 0 -66 -12t-46 -39t-26.5 -69.5t-8.5 -103.5v-80q0 -69 8.5 -115.5t26.5 -75t46 -41t66 -12.5z" />
    <glyph glyph-name="oe" unicode="&#x153;" horiz-adv-x="850" 
d="M265 -7q-48 0 -87.5 15.5t-67 46t-43 75t-15.5 102.5v76q0 54 15.5 96.5t43 72t67 45t87.5 15.5q54 0 96.5 -20.5t70.5 -58.5q26 39 67 59t95 20q94 0 149 -58.5t55 -172.5v-67h-320q1 -91 33 -130.5t89 -39.5q25 0 42.5 6.5t29.5 17.5t19 25t10 29h89
q-33 -154 -190 -154q-55 0 -97.5 20.5t-69.5 62.5q-28 -42 -71 -62.5t-97 -20.5zM265 71q56 0 90.5 38.5t34.5 122.5v76q0 76 -34.5 113.5t-90.5 37.5t-90.5 -37.5t-34.5 -113.5v-76q0 -84 34.5 -122.5t90.5 -38.5zM595 461q-52 0 -83.5 -34.5t-32.5 -115.5h236
q-2 81 -33.5 115.5t-86.5 34.5z" />
    <glyph glyph-name="Scaron" unicode="&#x160;" horiz-adv-x="620" 
d="M306 -7q-63 0 -109 14.5t-76 40.5t-46 61t-19 76h95q3 -24 12.5 -44t27.5 -34.5t46 -22.5t69 -8q83 0 119.5 30.5t36.5 76.5q0 28 -8 48.5t-28 36.5t-53.5 28.5t-85.5 23.5q-47 10 -86 26.5t-67 40.5t-43.5 58t-15.5 81q0 38 14.5 71t43.5 57.5t72.5 38.5t100.5 14
q58 0 101 -14t71.5 -38.5t44 -58.5t18.5 -73h-94q-3 22 -11.5 40.5t-25 32t-42 21t-62.5 7.5q-72 0 -104.5 -28t-32.5 -70q0 -27 8 -46.5t27 -34.5t49 -26t74 -20q55 -12 98 -29.5t72 -42.5t44 -60.5t15 -83.5q0 -40 -15.5 -75t-47 -60.5t-78 -40t-109.5 -14.5zM151 900h82
l73 -84l73 84h82l-116 -150h-77z" />
    <glyph glyph-name="scaron" unicode="&#x161;" horiz-adv-x="500" 
d="M250 -7q-53 0 -90.5 11.5t-62 32t-36.5 48.5t-14 62h89q2 -18 8.5 -32t19.5 -24.5t34 -16t52 -5.5q65 0 90.5 20.5t25.5 54.5q0 14 -4 26.5t-17.5 23.5t-39.5 20.5t-69 17.5q-88 17 -131.5 51.5t-43.5 103.5q0 66 46.5 108t142.5 42t140.5 -42t48.5 -108h-89
q-4 35 -25 54.5t-75 19.5q-56 0 -78.5 -19t-22.5 -53q0 -15 4 -27t16.5 -21.5t35.5 -17.5t61 -15q49 -9 84.5 -21.5t58 -31.5t33.5 -45.5t11 -62.5q0 -68 -49 -111t-154 -43zM105 730h78l67 -85l67 85h78l-110 -160h-70z" />
    <glyph glyph-name="Ydieresis" unicode="&#x178;" horiz-adv-x="610" 
d="M268 297l-247 403h107l186 -306l172 306h103l-227 -403v-297h-94v297zM195 764q-25 0 -43 18t-18 43t18 43t43 18t43 -18t18 -43t-18 -43t-43 -18zM415 764q-25 0 -43 18t-18 43t18 43t43 18t43 -18t18 -43t-18 -43t-43 -18z" />
    <glyph glyph-name="Zcaron" unicode="&#x17d;" horiz-adv-x="560" 
d="M42 79l377 539h-367v82h466v-78l-377 -540h377v-82h-476v79zM130 900h82l73 -84l73 84h82l-116 -150h-77z" />
    <glyph glyph-name="zcaron" unicode="&#x17e;" horiz-adv-x="480" 
d="M47 72l289 381h-279v77h376v-72l-287 -381h287v-77h-386v72zM100 730h78l67 -85l67 85h78l-110 -160h-70z" />
    <glyph glyph-name="florin" unicode="&#x192;" 
d="M137 -123h7q42 0 58 15t16 51v510h-73v77h73v27q0 72 38.5 107.5t123.5 35.5h33v-77h-30q-43 0 -59.5 -15t-16.5 -51v-27h106v-77h-106v-510q0 -72 -38.5 -107.5t-123.5 -35.5h-8v77z" />
    <glyph glyph-name="uni0237" unicode="&#x237;" horiz-adv-x="280" 
d="M6 -123q26 0 43 5t27.5 18.5t15 37.5t4.5 62v530h88v-530q0 -60 -8.5 -98.5t-29 -61t-55 -31.5t-85.5 -9v77z" />
    <glyph glyph-name="uni02BC" unicode="&#x2bc;" horiz-adv-x="250" 
d="M86 420v110h110v-110l-90 -155h-52z" />
    <glyph glyph-name="circumflex" unicode="&#x2c6;" horiz-adv-x="380" 
d="M155 730h70l110 -160h-78l-67 85l-67 -85h-78z" />
    <glyph glyph-name="caron" unicode="&#x2c7;" horiz-adv-x="380" 
d="M45 730h78l67 -85l67 85h78l-110 -160h-70z" />
    <glyph glyph-name="dotaccent" unicode="&#x2d9;" horiz-adv-x="220" 
d="M110 589q-25 0 -43 18t-18 43t18 43t43 18t43 -18t18 -43t-18 -43t-43 -18z" />
    <glyph glyph-name="ring" unicode="&#x2da;" horiz-adv-x="300" 
d="M150 551q-53 0 -85.5 31t-32.5 78t32.5 78t85.5 31t85.5 -31t32.5 -78t-32.5 -78t-85.5 -31zM150 610q22 0 35 13.5t13 36.5t-13 36.5t-35 13.5t-35 -13.5t-13 -36.5t13 -36.5t35 -13.5z" />
    <glyph glyph-name="tilde" unicode="&#x2dc;" horiz-adv-x="400" 
d="M255 587q-19 0 -34.5 7.5t-29 17t-26 17t-25.5 7.5q-11 0 -19.5 -6t-13.5 -14q-6 -9 -11 -20l-59 31q9 24 24 43q13 16 33.5 29.5t50.5 13.5q19 0 34.5 -7.5t29 -17t26 -17t25.5 -7.5q11 0 19.5 6t13.5 14q6 9 11 20l59 -31q-9 -25 -24 -43q-13 -17 -34 -30t-50 -13z" />
    <glyph glyph-name="hungarumlaut" unicode="&#x2dd;" horiz-adv-x="560" 
d="M192 730h101l-128 -160h-78zM357 730h101l-148 -160h-78z" />
    <glyph glyph-name="uni0401" unicode="&#x401;" horiz-adv-x="575" 
d="M98 700h429v-82h-335v-217h303v-82h-303v-237h335v-82h-429v700zM202 764q-25 0 -43 18t-18 43t18 43t43 18t43 -18t18 -43t-18 -43t-43 -18zM422 764q-25 0 -43 18t-18 43t18 43t43 18t43 -18t18 -43t-18 -43t-43 -18z" />
    <glyph glyph-name="uni0402" unicode="&#x402;" horiz-adv-x="775" 
d="M238 618h-220v82h534v-82h-220v-257q11 13 26.5 27t36.5 24.5t48 17.5t62 7q97 0 148.5 -52.5t51.5 -152.5v-44q0 -97 -46.5 -142.5t-146.5 -45.5h-33v77h23q63 0 88.5 26t25.5 89v35q0 64 -34 98t-103 34q-33 0 -60 -10.5t-46.5 -28.5t-30 -42t-10.5 -51v-227h-94v618z
" />
    <glyph glyph-name="uni0403" unicode="&#x403;" horiz-adv-x="530" 
d="M98 700h418v-82h-324v-618h-94v700zM381 900h103l-136 -150h-82z" />
    <glyph glyph-name="uni0404" unicode="&#x404;" horiz-adv-x="630" 
d="M330 -7q-62 0 -111 19t-83 59.5t-52 104t-18 151.5v66q0 161 70 237.5t194 76.5q109 0 173.5 -50t84.5 -162h-94q-19 73 -58 101t-106 28q-80 0 -125 -51.5t-46 -172.5h266v-82h-265q1 -68 12.5 -114t33.5 -74.5t53 -41t71 -12.5q35 0 61.5 7.5t46 23t33 40.5t23.5 61h94
q-23 -116 -88.5 -165.5t-169.5 -49.5z" />
    <glyph glyph-name="uni0405" unicode="&#x405;" horiz-adv-x="620" 
d="M306 -7q-63 0 -109 14.5t-76 40.5t-46 61t-19 76h95q3 -24 12.5 -44t27.5 -34.5t46 -22.5t69 -8q83 0 119.5 30.5t36.5 76.5q0 28 -8 48.5t-28 36.5t-53.5 28.5t-85.5 23.5q-47 10 -86 26.5t-67 40.5t-43.5 58t-15.5 81q0 38 14.5 71t43.5 57.5t72.5 38.5t100.5 14
q58 0 101 -14t71.5 -38.5t44 -58.5t18.5 -73h-94q-3 22 -11.5 40.5t-25 32t-42 21t-62.5 7.5q-72 0 -104.5 -28t-32.5 -70q0 -27 8 -46.5t27 -34.5t49 -26t74 -20q55 -12 98 -29.5t72 -42.5t44 -60.5t15 -83.5q0 -40 -15.5 -75t-47 -60.5t-78 -40t-109.5 -14.5z" />
    <glyph glyph-name="uni0406" unicode="&#x406;" horiz-adv-x="310" 
d="M108 700h94v-700h-94v700z" />
    <glyph glyph-name="uni0407" unicode="&#x407;" horiz-adv-x="310" 
d="M108 700h94v-700h-94v700zM46 764q-25 0 -43 18t-18 43t18 43t43 18t43 -18t18 -43t-18 -43t-43 -18zM266 764q-25 0 -43 18t-18 43t18 43t43 18t43 -18t18 -43t-18 -43t-43 -18z" />
    <glyph glyph-name="uni0408" unicode="&#x408;" horiz-adv-x="540" 
d="M228 -7q-100 0 -149.5 49.5t-53.5 136.5h94q4 -48 29.5 -75.5t79.5 -27.5q33 0 56.5 8t38.5 28t22.5 53.5t7.5 84.5v450h94v-450q0 -70 -13.5 -119t-40.5 -79.5t-68 -44.5t-97 -14z" />
    <glyph glyph-name="uni0409" unicode="&#x409;" horiz-adv-x="1020" 
d="M22 88q35 5 60 18t40.5 50t22.5 104.5t7 181.5v258h428v-274h134q63 0 111 -15.5t80.5 -43.5t48.5 -67t16 -87q0 -47 -16 -86.5t-48.5 -67.5t-80.5 -43.5t-111 -15.5h-227v618h-245v-176q0 -141 -14 -228t-41.5 -135t-68.5 -65.5t-96 -20.5v95zM714 82q85 0 123.5 35.5
t38.5 95.5q0 61 -38.5 96.5t-123.5 35.5h-134v-263h134z" />
    <glyph glyph-name="uni040A" unicode="&#x40a;" horiz-adv-x="1040" 
d="M98 700h94v-284h316v284h94v-284h132q63 0 111 -15.5t80.5 -43t48.5 -65.5t16 -84q0 -45 -16 -83.5t-48.5 -66t-80.5 -43t-111 -15.5h-226v335h-316v-335h-94v700zM734 82q84 0 123 35t39 91q0 57 -38.5 92t-123.5 35h-132v-253h132z" />
    <glyph glyph-name="uni040B" unicode="&#x40b;" horiz-adv-x="780" 
d="M238 618h-220v82h534v-82h-220v-257q11 13 26.5 27t36.5 24.5t48.5 17.5t61.5 7q96 0 148 -52.5t52 -152.5v-232h-89v227q0 64 -34 98t-103 34q-33 0 -60 -10.5t-46.5 -28.5t-30 -42t-10.5 -51v-227h-94v618z" />
    <glyph glyph-name="uni040C" unicode="&#x40c;" horiz-adv-x="660" 
d="M98 700h94v-305h106l212 305h107l-242 -341l262 -359h-114l-225 314h-106v-314h-94v700zM432 900h103l-136 -150h-82z" />
    <glyph glyph-name="uni040E" unicode="&#x40e;" horiz-adv-x="620" 
d="M132 75q59 0 90 16.5t42 45.5l9 21l-252 542h103l196 -435l180 435h99l-239 -563q-17 -41 -36 -68.5t-45 -44t-61.5 -24t-85.5 -7.5v82zM310 743q-97 0 -140 40.5t-43 116.5h89q0 -48 22 -69.5t72 -21.5q51 0 73 21.5t22 69.5h88q0 -76 -43 -116.5t-140 -40.5z" />
    <glyph glyph-name="uni040F" unicode="&#x40f;" horiz-adv-x="690" 
d="M300 0h-202v700h94v-618h306v618h94v-700h-202v-130h-90v130z" />
    <glyph glyph-name="uni0410" unicode="&#x410;" horiz-adv-x="650" 
d="M277 700h97l255 -700h-102l-63 174h-282l-63 -174h-98zM435 256l-112 325l-112 -325h224z" />
    <glyph glyph-name="uni0411" unicode="&#x411;" horiz-adv-x="650" 
d="M98 700h435v-81h-341v-193h142q63 0 111 -15.5t80.5 -43.5t48.5 -67t16 -87q0 -47 -16 -86.5t-48.5 -67.5t-80.5 -43.5t-111 -15.5h-236v700zM334 82q85 0 123.5 35.5t38.5 95.5q0 61 -38.5 96.5t-123.5 35.5h-142v-263h142z" />
    <glyph glyph-name="uni0412" unicode="&#x412;" horiz-adv-x="650" 
d="M98 700h230q61 0 107 -14t77 -38.5t46.5 -59t15.5 -75.5q0 -54 -30.5 -92.5t-74.5 -55.5q58 -14 93.5 -56.5t35.5 -110.5q0 -43 -15.5 -79t-46 -62.5t-77.5 -41.5t-110 -15h-251v700zM347 82q84 0 121 32t37 87t-37 87t-121 32h-155v-238h155zM328 400q81 0 117 30.5
t36 78.5q0 49 -35.5 79t-117.5 30h-136v-218h136z" />
    <glyph glyph-name="uni0413" unicode="&#x413;" horiz-adv-x="530" 
d="M98 700h418v-82h-324v-618h-94v700z" />
    <glyph glyph-name="uni0414" unicode="&#x414;" horiz-adv-x="720" 
d="M27 82h69q25 38 40 86.5t23.5 106.5t11 125t2.5 142v158h432v-618h85v-212h-90v130h-482v-130h-91v212zM511 82v536h-249v-76q0 -145 -12.5 -262t-53.5 -198h315z" />
    <glyph glyph-name="uni0415" unicode="&#x415;" horiz-adv-x="575" 
d="M98 700h429v-82h-335v-217h303v-82h-303v-237h335v-82h-429v700z" />
    <glyph glyph-name="uni0416" unicode="&#x416;" horiz-adv-x="940" 
d="M248 353l-186 347h112l153 -300h96v300h94v-300h96l160 300h105l-186 -337l206 -363h-112l-173 318h-96v-318h-94v318h-96l-180 -318h-105z" />
    <glyph glyph-name="uni0417" unicode="&#x417;" horiz-adv-x="605" 
d="M298 -7q-59 0 -104 15t-76.5 42t-50 64.5t-22.5 83.5h94q8 -57 45 -89.5t114 -32.5q87 0 124 32.5t37 89.5q0 56 -37.5 88.5t-123.5 32.5h-82v82h82q69 0 103 30.5t34 81.5t-34 81.5t-103 30.5q-72 0 -107.5 -29.5t-41.5 -81.5h-92q4 42 21 77.5t47.5 61t73.5 40t99 14.5
t99 -14.5t72 -40t44 -60.5t15 -76q0 -56 -30.5 -94.5t-75.5 -55.5q59 -15 95 -57.5t36 -111.5q0 -45 -16 -82.5t-47.5 -64.5t-79.5 -42t-112 -15z" />
    <glyph glyph-name="uni0418" unicode="&#x418;" horiz-adv-x="710" 
d="M98 700h94v-542l326 542h94v-700h-94v542l-326 -542h-94v700z" />
    <glyph glyph-name="uni0419" unicode="&#x419;" horiz-adv-x="710" 
d="M98 700h94v-542l326 542h94v-700h-94v542l-326 -542h-94v700zM355 743q-97 0 -140 40.5t-43 116.5h89q0 -48 22 -69.5t72 -21.5q51 0 73 21.5t22 69.5h88q0 -76 -43 -116.5t-140 -40.5z" />
    <glyph glyph-name="uni041A" unicode="&#x41a;" horiz-adv-x="660" 
d="M98 700h94v-305h106l212 305h107l-242 -341l262 -359h-114l-225 314h-106v-314h-94v700z" />
    <glyph glyph-name="uni041B" unicode="&#x41b;" horiz-adv-x="680" 
d="M22 88q35 5 60 18t40.5 50t22.5 104.5t7 181.5v258h430v-700h-94v618h-246v-176q0 -141 -14 -228t-41.5 -135t-68.5 -65.5t-96 -20.5v95z" />
    <glyph glyph-name="uni041C" unicode="&#x41c;" horiz-adv-x="830" 
d="M98 700h98l222 -434l222 434h92v-700h-92v532l-190 -375h-70l-190 375v-532h-92v700z" />
    <glyph glyph-name="uni041D" unicode="&#x41d;" horiz-adv-x="700" 
d="M98 700h94v-299h316v299h94v-700h-94v319h-316v-319h-94v700z" />
    <glyph glyph-name="uni041E" unicode="&#x41e;" horiz-adv-x="660" 
d="M330 -7q-62 0 -111 19t-83 59t-52 101.5t-18 147.5v80q0 155 70 231t194 76t194 -76t70 -231v-80q0 -86 -18 -147.5t-52 -101.5t-83 -59t-111 -19zM330 76q40 0 72 12.5t54 41.5t33.5 75.5t11.5 114.5v80q0 121 -45 172.5t-126 51.5t-126 -51.5t-45 -172.5v-80
q0 -68 11.5 -114.5t33.5 -75.5t53.5 -41.5t72.5 -12.5z" />
    <glyph glyph-name="uni041F" unicode="&#x41f;" horiz-adv-x="690" 
d="M98 700h494v-700h-94v618h-306v-618h-94v700z" />
    <glyph glyph-name="uni0420" unicode="&#x420;" horiz-adv-x="640" 
d="M98 700h236q127 0 191.5 -60.5t64.5 -162.5q0 -103 -64 -163t-192 -60h-142v-254h-94v700zM334 335q85 0 123.5 36.5t38.5 105.5q0 68 -38.5 104.5t-123.5 36.5h-142v-283h142z" />
    <glyph glyph-name="uni0421" unicode="&#x421;" horiz-adv-x="630" 
d="M330 -7q-62 0 -111 19t-83 59t-52 102t-18 148v80q0 155 70 230.5t194 75.5q109 0 173.5 -51t84.5 -161h-94q-19 71 -58 100t-106 29q-81 0 -126 -51.5t-45 -171.5v-80q0 -68 11.5 -115t33.5 -76t53.5 -41.5t72.5 -12.5q35 0 61.5 7.5t46 23t33 40.5t23.5 61h94
q-23 -116 -88.5 -165.5t-169.5 -49.5z" />
    <glyph glyph-name="uni0422" unicode="&#x422;" horiz-adv-x="570" 
d="M238 618h-220v82h534v-82h-220v-618h-94v618z" />
    <glyph glyph-name="uni0423" unicode="&#x423;" horiz-adv-x="620" 
d="M132 75q59 0 90 16.5t42 45.5l9 21l-252 542h103l196 -435l180 435h99l-239 -563q-17 -41 -36 -68.5t-45 -44t-61.5 -24t-85.5 -7.5v82z" />
    <glyph glyph-name="uni0424" unicode="&#x424;" horiz-adv-x="820" 
d="M363 54q-152 0 -225 71.5t-73 216.5v36q0 130 73 199t225 69v54h94v-54q152 0 225 -69t73 -199v-36q0 -145 -73 -216.5t-225 -71.5v-54h-94v54zM661 378q0 93 -48.5 139.5t-155.5 46.5v-428q107 0 155.5 49t48.5 157v36zM159 342q0 -108 48.5 -157t155.5 -49v428
q-107 0 -155.5 -46.5t-48.5 -139.5v-36z" />
    <glyph glyph-name="uni0425" unicode="&#x425;" horiz-adv-x="630" 
d="M258 367l-203 333h104l157 -257l159 257h100l-202 -331l222 -369h-106l-175 294l-177 -294h-102z" />
    <glyph glyph-name="uni0426" unicode="&#x426;" horiz-adv-x="710" 
d="M590 0h-492v700h94v-618h296v618h94v-618h98v-212h-90v130z" />
    <glyph glyph-name="uni0427" unicode="&#x427;" horiz-adv-x="630" 
d="M438 314q-10 -8 -26.5 -16.5t-38.5 -16.5t-47.5 -13t-53.5 -5q-61 0 -105 13.5t-72 43.5t-41.5 78t-13.5 117v185h94v-185q0 -48 8 -80.5t26 -52t47.5 -28t71.5 -8.5q54 0 91.5 20t59.5 44v290h94v-700h-94v314z" />
    <glyph glyph-name="uni0428" unicode="&#x428;" horiz-adv-x="950" 
d="M98 700h94v-618h236v618h94v-618h236v618h94v-700h-754v700z" />
    <glyph glyph-name="uni0429" unicode="&#x429;" horiz-adv-x="980" 
d="M860 0h-762v700h94v-618h236v618h94v-618h236v618h94v-619h98v-211h-90v130z" />
    <glyph glyph-name="uni042A" unicode="&#x42a;" horiz-adv-x="705" 
d="M163 619h-163v81h257v-274h142q63 0 111 -15.5t80.5 -43.5t48.5 -67t16 -87q0 -47 -16 -86.5t-48.5 -67.5t-80.5 -43.5t-111 -15.5h-236v619zM399 82q85 0 123.5 35.5t38.5 95.5q0 61 -38.5 96.5t-123.5 35.5h-142v-263h142z" />
    <glyph glyph-name="uni042B" unicode="&#x42b;" horiz-adv-x="840" 
d="M98 700h94v-274h135q63 0 111 -15.5t80.5 -43.5t48.5 -67t16 -87q0 -47 -16 -86.5t-48.5 -67.5t-80.5 -43.5t-111 -15.5h-229v700zM327 82q85 0 124 35.5t39 95.5q0 61 -39 96.5t-124 35.5h-135v-263h135zM648 700h94v-700h-94v700z" />
    <glyph glyph-name="uni042C" unicode="&#x42c;" horiz-adv-x="640" 
d="M98 700h94v-274h142q63 0 111 -15.5t80.5 -43.5t48.5 -67t16 -87q0 -47 -16 -86.5t-48.5 -67.5t-80.5 -43.5t-111 -15.5h-236v700zM334 82q85 0 123.5 35.5t38.5 95.5q0 61 -38.5 96.5t-123.5 35.5h-142v-263h142z" />
    <glyph glyph-name="uni042D" unicode="&#x42d;" horiz-adv-x="630" 
d="M300 -7q-104 0 -170 49.5t-88 165.5h94q10 -36 23.5 -61t33 -40.5t46 -23t61.5 -7.5q40 0 71 12.5t53 41t33.5 74.5t12.5 114h-265v82h265q0 61 -12 103.5t-33.5 69.5t-52 39t-68.5 12q-63 0 -101.5 -28t-57.5 -101h-93q20 112 84 162t168 50q121 0 190.5 -76.5
t69.5 -237.5v-66q0 -88 -18 -151.5t-52 -104t-83 -59.5t-111 -19z" />
    <glyph glyph-name="uni042E" unicode="&#x42e;" horiz-adv-x="870" 
d="M560 -7q-58 0 -103 17.5t-76.5 56t-48 100.5t-16.5 152h-124v-319h-94v703h94v-302h124q1 82 17.5 140t47.5 95t76 54t103 17t103.5 -17.5t76.5 -55.5t47.5 -97.5t16.5 -144.5v-64q0 -92 -16.5 -156t-47.5 -104t-76.5 -57.5t-103.5 -17.5zM560 76q36 0 64.5 11t47.5 39.5
t29 77.5t10 124v64q0 67 -10 112t-29 71.5t-47.5 37.5t-64.5 11t-64.5 -11t-47.5 -37.5t-29 -71.5t-10 -112v-64q0 -75 10 -124t29 -77.5t47.5 -39.5t64.5 -11z" />
    <glyph glyph-name="uni042F" unicode="&#x42f;" horiz-adv-x="650" 
d="M200 300q-64 23 -98 73t-34 118q0 46 16 84t46.5 66t75.5 43.5t102 15.5h244v-700h-94v282h-170l-146 -282h-102zM458 364v254h-150q-72 0 -109 -35t-37 -92t37 -92t109 -35h150z" />
    <glyph glyph-name="uni0430" unicode="&#x430;" horiz-adv-x="510" 
d="M197 -6q-73 0 -114 40.5t-41 113.5q0 77 44 117.5t141 40.5h126v51q0 54 -24.5 78.5t-75.5 24.5q-26 0 -44 -5.5t-29 -15t-17 -21.5t-7 -24h-86q3 31 14 57t33 45t55.5 30t81.5 11q96 0 141 -44.5t45 -135.5v-357h-77v88q-10 -17 -23 -34t-32.5 -30.5t-46.5 -21.5t-64 -8
zM222 70q60 0 95.5 35.5t35.5 96.5v32h-122q-57 0 -79.5 -20.5t-22.5 -64.5q0 -35 23 -57t70 -22z" />
    <glyph glyph-name="uni0431" unicode="&#x431;" horiz-adv-x="540" 
d="M270 -7q-50 0 -90 16t-68.5 50t-44 86t-15.5 123v72q0 70 6 136t28.5 117.5t65.5 84t117 36.5q39 2 67 4t50 5t38.5 8.5t33.5 13.5v-85q-8 -5 -19.5 -8.5t-31 -7t-50 -6t-75.5 -5.5q-43 -2 -71 -18t-45 -41.5t-25 -59.5t-10 -71q23 35 60.5 59.5t88.5 24.5
q46 0 84.5 -15.5t66 -44t42.5 -69t15 -90.5v-76q0 -116 -59 -177.5t-159 -61.5zM270 71q60 0 95 38.5t35 122.5v76q0 69 -35 105t-95 36t-95 -36t-35 -105v-76q0 -84 35 -122.5t95 -38.5z" />
    <glyph glyph-name="uni0432" unicode="&#x432;" horiz-adv-x="535" 
d="M75 530h198q98 0 144.5 -40.5t46.5 -104.5q0 -17 -5.5 -34t-16 -32t-25 -26t-32.5 -17q49 -12 74 -46t25 -79q0 -69 -46.5 -110t-144.5 -41h-218v530zM293 75q57 0 80 20.5t23 59.5q0 38 -23 58t-80 20h-131v-158h131zM273 307q57 0 80 19.5t23 54.5t-23 54.5t-80 19.5
h-111v-148h111z" />
    <glyph glyph-name="uni0433" unicode="&#x433;" horiz-adv-x="410" 
d="M75 530h318v-77h-229v-453h-89v530z" />
    <glyph glyph-name="uni0434" unicode="&#x434;" horiz-adv-x="590" 
d="M17 78h47q23 21 37 52.5t22 71.5t11 86.5t3 96.5v145h344v-452h65v-203h-85v125h-358v-125h-86v203zM392 78v375h-172v-71q0 -97 -11 -171.5t-46 -132.5h229z" />
    <glyph glyph-name="uni0435" unicode="&#x435;" horiz-adv-x="520" 
d="M265 -7q-48 0 -87.5 15.5t-67 46t-43 75t-15.5 102.5v76q0 112 55.5 170.5t152.5 58.5t152.5 -58.5t55.5 -172.5v-67h-328q1 -91 34.5 -130.5t90.5 -39.5q25 0 43.5 6.5t31 17.5t19.5 25t10 29h89q-16 -78 -65 -116t-128 -38zM261 461q-57 0 -88.5 -34.5t-32.5 -115.5
h245q-2 81 -33.5 115.5t-90.5 34.5z" />
    <glyph glyph-name="uni0436" unicode="&#x436;" horiz-adv-x="750" 
d="M186 266l-154 264h102l127 -222h70v222h88v-222h70l132 222h97l-154 -256l159 -274h-102l-132 232h-70v-232h-88v232h-70l-136 -232h-98z" />
    <glyph glyph-name="uni0437" unicode="&#x437;" horiz-adv-x="490" 
d="M235 -7q-100 0 -149 41t-55 117h88q7 -39 32.5 -60.5t83.5 -21.5q64 0 90 21.5t26 60.5t-26 60.5t-90 21.5h-74v74h69q54 0 77.5 20t23.5 58q0 37 -23 57t-78 20q-47 0 -69 -20t-28 -57h-92q3 33 18 61t39.5 48.5t58 31.5t73.5 11q48 0 83.5 -11t59 -31t35 -47.5
t11.5 -60.5q0 -19 -5.5 -36.5t-16 -32.5t-25 -26t-32.5 -17q49 -12 74 -46.5t25 -79.5q0 -71 -49 -113.5t-155 -42.5z" />
    <glyph glyph-name="uni0438" unicode="&#x438;" horiz-adv-x="570" 
d="M75 530h85v-405l247 405h88v-530h-85v405l-247 -405h-88v530z" />
    <glyph glyph-name="uni0439" unicode="&#x439;" horiz-adv-x="570" 
d="M75 530h85v-405l247 405h88v-530h-85v405l-247 -405h-88v530zM285 582q-75 0 -110 33.5t-35 96.5h81q0 -38 15.5 -54.5t48.5 -16.5q34 0 49.5 16.5t15.5 54.5h80q0 -63 -35 -96.5t-110 -33.5z" />
    <glyph glyph-name="uni043A" unicode="&#x43a;" horiz-adv-x="535" 
d="M75 530h89v-222h69l170 222h99l-196 -257l212 -273h-104l-180 232h-70v-232h-89v530z" />
    <glyph glyph-name="uni043B" unicode="&#x43b;" horiz-adv-x="555" 
d="M27 84q30 4 50 18t32 42.5t17 72.5t5 108v205h349v-530h-89v453h-173v-128q0 -171 -44 -251.5t-147 -80.5v91z" />
    <glyph glyph-name="uni043C" unicode="&#x43c;" horiz-adv-x="680" 
d="M75 530h92l176 -331l175 331h87v-530h-85v385l-138 -265h-84l-138 265v-385h-85v530z" />
    <glyph glyph-name="uni043D" unicode="&#x43d;" horiz-adv-x="570" 
d="M75 530h89v-222h242v222h89v-530h-89v232h-242v-232h-89v530z" />
    <glyph glyph-name="uni043E" unicode="&#x43e;" horiz-adv-x="540" 
d="M270 -7q-100 0 -159 61.5t-59 177.5v76q0 54 15.5 96.5t44 72t68.5 45t90 15.5t90 -15.5t68.5 -45t44 -72t15.5 -96.5v-76q0 -116 -59 -177.5t-159 -61.5zM270 71q60 0 95 38.5t35 122.5v76q0 76 -35 113.5t-95 37.5t-95 -37.5t-35 -113.5v-76q0 -84 35 -122.5t95 -38.5z
" />
    <glyph glyph-name="uni043F" unicode="&#x43f;" horiz-adv-x="560" 
d="M75 530h410v-530h-89v453h-232v-453h-89v530z" />
    <glyph glyph-name="uni0440" unicode="&#x440;" horiz-adv-x="555" 
d="M75 530h79v-88q23 44 61.5 69t95.5 25q42 0 77 -15t60.5 -43.5t40 -71.5t14.5 -98v-76q0 -59 -14.5 -104t-40 -75t-60.5 -45t-77 -15q-54 0 -91 25t-56 64v-282h-89v730zM293 71q54 0 88 38.5t34 122.5v76q0 75 -34 112.5t-88 37.5q-60 0 -94.5 -37.5t-34.5 -112.5v-76
q0 -84 34.5 -122.5t94.5 -38.5z" />
    <glyph glyph-name="uni0441" unicode="&#x441;" horiz-adv-x="510" 
d="M265 -7q-48 0 -87.5 15.5t-67 46t-43 75t-15.5 102.5v76q0 54 15.5 96.5t43 72t67 45t87.5 15.5q40 0 75.5 -11t62.5 -32t44 -50.5t21 -65.5h-89q-8 33 -35 57t-79 24q-57 0 -91 -37.5t-34 -113.5v-76q0 -85 34 -123t91 -38q52 0 79 25t34 56h90q-18 -79 -69.5 -119
t-133.5 -40z" />
    <glyph glyph-name="uni0442" unicode="&#x442;" horiz-adv-x="460" 
d="M186 453h-169v77h426v-77h-169v-453h-88v453z" />
    <glyph glyph-name="uni0443" unicode="&#x443;" horiz-adv-x="530" 
d="M93 -123q28 0 48.5 5t36 17.5t28.5 34t25 54.5l-214 542h99l159 -430l143 430h95l-197 -542q-21 -57 -41 -93.5t-45 -57.5t-58 -29t-79 -8v77z" />
    <glyph glyph-name="uni0444" unicode="&#x444;" horiz-adv-x="710" 
d="M311 -7q-131 0 -195 62t-64 180v71q0 109 64 170t195 61v173h88v-173q129 0 194 -61t65 -174v-71q0 -115 -65 -176.5t-194 -61.5v-193h-88v193zM570 302q0 79 -42 118t-130 39v-388q88 0 130 39.5t42 120.5v71zM140 235q0 -86 39.5 -125t132.5 -39v388q-92 0 -132 -37.5
t-40 -115.5v-71z" />
    <glyph glyph-name="uni0445" unicode="&#x445;" horiz-adv-x="510" 
d="M199 277l-163 253h103l117 -187l120 187h98l-163 -251l182 -279h-103l-136 212l-138 -212h-99z" />
    <glyph glyph-name="uni0446" unicode="&#x446;" horiz-adv-x="580" 
d="M463 0h-388v530h89v-453h222v453h89v-453h73v-202h-85v125z" />
    <glyph glyph-name="uni0447" unicode="&#x447;" horiz-adv-x="505" 
d="M341 241q-17 -20 -47.5 -33.5t-71.5 -13.5q-88 0 -131 45.5t-43 150.5v140h89v-135q0 -68 25.5 -95.5t79.5 -27.5q43 0 66.5 17t32.5 34v207h89v-530h-89v241z" />
    <glyph glyph-name="uni0448" unicode="&#x448;" horiz-adv-x="780" 
d="M75 530h89v-453h182v453h88v-453h182v453h89v-530h-630v530z" />
    <glyph glyph-name="uni0449" unicode="&#x449;" horiz-adv-x="810" 
d="M693 0h-618v530h89v-453h182v453h88v-453h182v453h89v-453h73v-202h-85v125z" />
    <glyph glyph-name="uni044A" unicode="&#x44a;" horiz-adv-x="590" 
d="M150 453h-141v77h230v-202h120q105 0 152 -43t47 -122q0 -78 -47 -120.5t-152 -42.5h-209v453zM359 77q63 0 87 21t24 66q0 46 -24 67t-87 21h-120v-175h120z" />
    <glyph glyph-name="uni044B" unicode="&#x44b;" horiz-adv-x="690" 
d="M75 530h89v-202h86q105 0 152.5 -43t47.5 -122q0 -78 -47.5 -120.5t-152.5 -42.5h-175v530zM250 75q65 0 89 21t24 68t-24 68t-89 21h-86v-178h86zM526 530h89v-530h-89v530z" />
    <glyph glyph-name="uni044C" unicode="&#x44c;" horiz-adv-x="515" 
d="M75 530h89v-202h120q105 0 152 -43t47 -122q0 -78 -47 -120.5t-152 -42.5h-209v530zM284 77q63 0 87 21t24 66q0 46 -24 67t-87 21h-120v-175h120z" />
    <glyph glyph-name="uni044D" unicode="&#x44d;" horiz-adv-x="515" 
d="M245 -7q-85 0 -133 39.5t-66 115.5h89q5 -15 12.5 -29t20 -25t31.5 -17.5t46 -6.5q59 0 93 38t36 123h-190v77h191q-2 77 -36 114.5t-90 37.5q-27 0 -45.5 -6.5t-31.5 -17t-20.5 -24.5t-12.5 -30h-87q4 35 20 63.5t41.5 49t60 31.5t75.5 11q97 0 155.5 -60.5t58.5 -170.5
v-71q0 -118 -59 -180t-159 -62z" />
    <glyph glyph-name="uni044E" unicode="&#x44e;" horiz-adv-x="725" 
d="M465 -7q-96 0 -150.5 58.5t-56.5 180.5h-94v-232h-89v530h89v-222h94q2 115 56.5 172t150.5 57q97 0 152.5 -58.5t55.5 -170.5v-76q0 -120 -55.5 -179.5t-152.5 -59.5zM465 71q56 0 88 37t32 124v76q0 80 -31.5 115.5t-88.5 35.5t-88.5 -35.5t-31.5 -115.5v-76
q0 -87 32 -124t88 -37z" />
    <glyph glyph-name="uni044F" unicode="&#x44f;" horiz-adv-x="540" 
d="M177 213q-58 16 -85 55t-27 99q0 78 47 120.5t152 42.5h201v-530h-89v202h-111l-122 -202h-98zM376 278v175h-112q-63 0 -87 -21t-24 -66q0 -46 24 -67t87 -21h112z" />
    <glyph glyph-name="uni0451" unicode="&#x451;" horiz-adv-x="520" 
d="M265 -7q-48 0 -87.5 15.5t-67 46t-43 75t-15.5 102.5v76q0 112 55.5 170.5t152.5 58.5t152.5 -58.5t55.5 -172.5v-67h-328q1 -91 34.5 -130.5t90.5 -39.5q25 0 43.5 6.5t31 17.5t19.5 25t10 29h89q-16 -78 -65 -116t-128 -38zM261 461q-57 0 -88.5 -34.5t-32.5 -115.5
h245q-2 81 -33.5 115.5t-90.5 34.5zM167 589q-25 0 -42.5 18t-17.5 43t17.5 43t42.5 18q26 0 43.5 -18t17.5 -43t-17.5 -43t-43.5 -18zM353 589q-26 0 -43.5 18t-17.5 43t17.5 43t43.5 18q25 0 43 -18t18 -43t-18 -43t-43 -18z" />
    <glyph glyph-name="uni0452" unicode="&#x452;" horiz-adv-x="565" 
d="M317 -123q25 0 42.5 5t27.5 18.5t14.5 37.5t4.5 62v277q0 68 -29 100t-82 32q-25 0 -47 -10t-38.5 -27.5t-26 -41.5t-9.5 -53v-277h-89v557h-97v66h97v77h89v-77h171v-66h-171v-151q9 15 22 29.5t31 26t41.5 18.5t52.5 7q80 0 127 -51t47 -154v-282q0 -60 -8.5 -98.5
t-29 -61t-55 -31.5t-85.5 -9v77z" />
    <glyph glyph-name="uni0453" unicode="&#x453;" horiz-adv-x="410" 
d="M75 530h318v-77h-229v-453h-89v530zM300 730h101l-128 -160h-78z" />
    <glyph glyph-name="uni0454" unicode="&#x454;" horiz-adv-x="515" 
d="M270 -7q-100 0 -159 62t-59 180v71q0 110 59 170.5t159 60.5q84 0 137.5 -42.5t61.5 -112.5h-88q-5 16 -12.5 30t-20.5 24.5t-32 17t-46 6.5q-59 0 -93.5 -37.5t-36.5 -114.5h191v-77h-190q2 -85 36 -123t93 -38q27 0 46 6.5t31.5 17.5t20 25t12.5 29h89
q-18 -76 -66 -115.5t-133 -39.5z" />
    <glyph glyph-name="uni0455" unicode="&#x455;" horiz-adv-x="500" 
d="M250 -7q-53 0 -90.5 11.5t-62 32t-36.5 48.5t-14 62h89q2 -18 8.5 -32t19.5 -24.5t34 -16t52 -5.5q65 0 90.5 20.5t25.5 54.5q0 14 -4 26.5t-17.5 23.5t-39.5 20.5t-69 17.5q-88 17 -131.5 51.5t-43.5 103.5q0 66 46.5 108t142.5 42t140.5 -42t48.5 -108h-89
q-4 35 -25 54.5t-75 19.5q-56 0 -78.5 -19t-22.5 -53q0 -15 4 -27t16.5 -21.5t35.5 -17.5t61 -15q49 -9 84.5 -21.5t58 -31.5t33.5 -45.5t11 -62.5q0 -68 -49 -111t-154 -43z" />
    <glyph glyph-name="uni0456" unicode="&#x456;" horiz-adv-x="280" 
d="M96 530h88v-530h-88v530zM140 589q-25 0 -43 18t-18 43t18 43t43 18t43 -18t18 -43t-18 -43t-43 -18z" />
    <glyph glyph-name="uni0457" unicode="&#x457;" horiz-adv-x="280" 
d="M96 530h88v-530h-88v530zM48 589q-25 0 -42.5 18t-17.5 43t17.5 43t42.5 18q26 0 43.5 -18t17.5 -43t-17.5 -43t-43.5 -18zM234 589q-26 0 -43.5 18t-17.5 43t17.5 43t43.5 18q25 0 43 -18t18 -43t-18 -43t-43 -18z" />
    <glyph glyph-name="uni0458" unicode="&#x458;" horiz-adv-x="280" 
d="M6 -123q26 0 43 5t27.5 18.5t15 37.5t4.5 62v530h88v-530q0 -60 -8.5 -98.5t-29 -61t-55 -31.5t-85.5 -9v77zM140 589q-25 0 -43 18t-18 43t18 43t43 18t43 -18t18 -43t-18 -43t-43 -18z" />
    <glyph glyph-name="uni0459" unicode="&#x459;" horiz-adv-x="810" 
d="M27 84q30 4 50 18t32 42.5t17 72.5t5 108v205h345v-202h103q105 0 152 -43t47 -122q0 -78 -47 -120.5t-152 -42.5h-192v453h-169v-128q0 -171 -44 -251.5t-147 -80.5v91zM579 77q63 0 87 21t24 66q0 46 -24 67t-87 21h-103v-175h103z" />
    <glyph glyph-name="uni045A" unicode="&#x45a;" horiz-adv-x="825" 
d="M75 530h89v-211h234v211h89v-211h107q105 0 152 -42.5t47 -117.5q0 -74 -47.5 -116.5t-151.5 -42.5h-196v242h-234v-242h-89v530zM594 77q63 0 87 20.5t24 62.5t-24 62t-87 20h-107v-165h107z" />
    <glyph glyph-name="uni045B" unicode="&#x45b;" horiz-adv-x="565" 
d="M85 557h-97v66h97v77h89v-77h171v-66h-171v-151q9 15 22 29.5t31 26t41.5 18.5t52.5 7q80 0 127 -51t47 -154v-282h-89v277q0 68 -29 100t-82 32q-25 0 -47 -10t-38.5 -27.5t-26 -41.5t-9.5 -53v-277h-89v557z" />
    <glyph glyph-name="uni045C" unicode="&#x45c;" horiz-adv-x="535" 
d="M75 530h89v-222h69l170 222h99l-196 -257l212 -273h-104l-180 232h-70v-232h-89v530zM351 730h101l-128 -160h-78z" />
    <glyph glyph-name="uni045E" unicode="&#x45e;" horiz-adv-x="530" 
d="M93 -123q28 0 48.5 5t36 17.5t28.5 34t25 54.5l-214 542h99l159 -430l143 430h95l-197 -542q-21 -57 -41 -93.5t-45 -57.5t-58 -29t-79 -8v77zM265 582q-75 0 -110 33.5t-35 96.5h81q0 -38 15.5 -54.5t48.5 -16.5q34 0 49.5 16.5t15.5 54.5h80q0 -63 -35 -96.5
t-110 -33.5z" />
    <glyph glyph-name="uni045F" unicode="&#x45f;" horiz-adv-x="560" 
d="M237 0h-162v530h89v-452h232v452h89v-530h-162v-125h-86v125z" />
    <glyph glyph-name="uni0490" unicode="&#x490;" horiz-adv-x="530" 
d="M98 700h328v130h90v-212h-324v-618h-94v700z" />
    <glyph glyph-name="uni0491" unicode="&#x491;" horiz-adv-x="410" 
d="M75 530h233v125h85v-202h-229v-453h-89v530z" />
    <glyph glyph-name="uni0492" unicode="&#x492;" horiz-adv-x="530" 
d="M98 700h418v-82h-324v-217h183v-82h-183v-319h-94v319h-98v82h98v299z" />
    <glyph glyph-name="uni0493" unicode="&#x493;" horiz-adv-x="410" 
d="M0 308h75v222h318v-77h-229v-145h97v-77h-97v-231h-89v231h-75v77z" />
    <glyph glyph-name="uni0494" unicode="&#x494;" horiz-adv-x="631" 
d="M98 700h418v-82h-324v-229q7 6 20.5 14t34 15.5t46.5 13t59 5.5q44 0 82.5 -12t66.5 -37t44 -64t16 -92v-244q0 -97 -46.5 -142.5t-146.5 -45.5h-33v77h23q63 0 88.5 26t25.5 89v228q0 71 -35 102.5t-105 31.5q-52 0 -87.5 -19.5t-52.5 -39.5v-295h-94v700z" />
    <glyph glyph-name="uni0495" unicode="&#x495;" horiz-adv-x="510" 
d="M272 -123q25 0 42.5 5t27.5 18.5t14.5 37.5t4.5 62v135q0 68 -22.5 95.5t-76.5 27.5q-38 0 -63 -16.5t-35 -33.5v-208h-89v530h318v-77h-229v-163q17 20 48.5 33t69.5 13q88 0 128 -45.5t40 -150.5v-140q0 -60 -8.5 -98.5t-29 -61t-55 -31.5t-85.5 -9v77z" />
    <glyph glyph-name="uni0496" unicode="&#x496;" horiz-adv-x="940" 
d="M248 353l-186 347h112l153 -300h96v300h94v-300h96l160 300h105l-186 -337l155 -281h77v-212h-90v130h-52l-169 318h-96v-318h-94v318h-96l-180 -318h-105z" />
    <glyph glyph-name="uni0497" unicode="&#x497;" horiz-adv-x="750" 
d="M186 266l-154 264h102l127 -222h70v222h88v-222h70l132 222h97l-154 -256l114 -197h63v-202h-85v125h-35l-132 232h-70v-232h-88v232h-70l-136 -232h-98z" />
    <glyph glyph-name="uni0498" unicode="&#x498;" horiz-adv-x="605" 
d="M260 -130v125q-36 3 -66 13q-45 15 -76.5 42t-50 64.5t-22.5 83.5h94q8 -57 45 -89.5t114 -32.5q87 0 124 32.5t37 89.5q0 56 -37.5 88.5t-123.5 32.5h-82v82h82q69 0 103 30.5t34 81.5t-34 81.5t-103 30.5q-72 0 -107.5 -29.5t-41.5 -81.5h-92q4 42 21 77.5t47.5 61
t73.5 40t99 14.5t99 -14.5t72 -40t44 -60.5t15 -76q0 -56 -30.5 -94.5t-75.5 -55.5q59 -15 95 -57.5t36 -111.5q0 -45 -16 -82.5t-47.5 -64.5t-79.5 -42q-28 -8 -60 -12v-126h-90z" />
    <glyph glyph-name="uni0499" unicode="&#x499;" horiz-adv-x="490" 
d="M197 -5q-72 6 -111 39q-49 41 -55 117h88q7 -39 32.5 -60.5t83.5 -21.5q64 0 90 21.5t26 60.5t-26 60.5t-90 21.5h-74v74h69q54 0 77.5 20t23.5 58q0 37 -23 57t-78 20q-47 0 -69 -20t-28 -57h-92q3 33 18 61t39.5 48.5t58 31.5t73.5 11q48 0 83.5 -11t59 -31t35 -47.5
t11.5 -60.5q0 -19 -5.5 -36.5t-16 -32.5t-25 -26t-32.5 -17q49 -12 74 -46.5t25 -79.5q0 -71 -49 -114q-37 -32 -107 -39v-121h-86v120z" />
    <glyph glyph-name="uni049A" unicode="&#x49a;" horiz-adv-x="660" 
d="M560 0h-42l-220 314h-106v-314h-94v700h94v-305h106l212 305h107l-242 -341l198 -277h77v-212h-90v130z" />
    <glyph glyph-name="uni049B" unicode="&#x49b;" horiz-adv-x="535" 
d="M75 530h89v-222h69l170 222h99l-196 -257l152 -196h63v-202h-85v125h-22l-180 232h-70v-232h-89v530z" />
    <glyph glyph-name="uni049C" unicode="&#x49c;" horiz-adv-x="700" 
d="M246 512h85v-117h17l202 305h107l-232 -341l252 -359h-114l-215 314h-17v-114h-85v114h-54v-314h-94v700h94v-305h54v117z" />
    <glyph glyph-name="uni049D" unicode="&#x49d;" horiz-adv-x="575" 
d="M198 232h-34v-232h-89v530h89v-222h34v95h75v-95h10l160 222h99l-186 -257l202 -273h-104l-170 232h-11v-102h-75v102z" />
    <glyph glyph-name="uni04A0" unicode="&#x4a0;" horiz-adv-x="724" 
d="M0 700h257l-1 -1v-304h106l212 305h107l-242 -341l262 -359h-114l-225 314h-106v-314h-94v619h-162v81z" />
    <glyph glyph-name="uni04A1" unicode="&#x4a1;" horiz-adv-x="610" 
d="M150 453h-141v77h230v-222h69l170 222h99l-196 -257l212 -273h-104l-180 232h-70v-232h-89v453z" />
    <glyph glyph-name="uni04A2" unicode="&#x4a2;" horiz-adv-x="720" 
d="M98 700h94v-299h316v299h94v-618h88v-212h-90v130h-92v319h-316v-319h-94v700z" />
    <glyph glyph-name="uni04A3" unicode="&#x4a3;" horiz-adv-x="595" 
d="M75 530h89v-222h242v222h89v-453h68v-202h-85v125h-72v232h-242v-232h-89v530z" />
    <glyph glyph-name="uni04A4" unicode="&#x4a4;" horiz-adv-x="940" 
d="M508 700h418v-82h-324v-618h-94v319h-316v-319h-94v700h94v-299h316v299z" />
    <glyph glyph-name="uni04A5" unicode="&#x4a5;" horiz-adv-x="740" 
d="M405 530h318v-77h-228v-453h-90v232h-241v-232h-89v530h89v-222h241v222z" />
    <glyph glyph-name="uni04AA" unicode="&#x4aa;" horiz-adv-x="630" 
d="M280 -130v127q-33 4 -61 15q-49 19 -83 59t-52 102t-18 148v80q0 155 70 230.5t194 75.5q109 0 173.5 -51t84.5 -161h-94q-19 71 -58 100t-106 29q-81 0 -126 -51.5t-45 -171.5v-80q0 -68 11.5 -115t33.5 -76t53.5 -41.5t72.5 -12.5q35 0 61.5 7.5t46 23t33 40.5t23.5 61
h94q-23 -116 -89 -166q-52 -39 -129 -47v-125h-90z" />
    <glyph glyph-name="uni04AB" unicode="&#x4ab;" horiz-adv-x="510" 
d="M227 -4q-81 11 -128 71t-47 165v76q0 54 15.5 96.5t43 72t67 45t87.5 15.5q40 0 75.5 -11t62.5 -32t44 -50.5t21 -65.5h-89q-8 33 -35 57t-79 24q-57 0 -91 -37.5t-34 -113.5v-76q0 -85 34 -123t91 -38q52 0 79 25t34 56h90q-32 -134 -155 -155v-122h-86v121z" />
    <glyph glyph-name="uni04AE" unicode="&#x4ae;" horiz-adv-x="610" 
d="M268 297l-247 403h107l186 -306l172 306h103l-227 -403v-297h-94v297z" />
    <glyph glyph-name="uni04AF" unicode="&#x4af;" horiz-adv-x="530" 
d="M231 10l-214 520h99l159 -408l143 408h95l-194 -512v-218h-88v210z" />
    <glyph glyph-name="uni04B0" unicode="&#x4b0;" horiz-adv-x="610" 
d="M497 301v-82h-135v-219h-94v219h-146v82h143l-244 399h107l186 -306l172 306h103l-225 -399h133z" />
    <glyph glyph-name="uni04B1" unicode="&#x4b1;" horiz-adv-x="530" 
d="M442 77v-77h-123v-200h-88v200h-120v77h98l-192 453h99l159 -398l143 398h95l-177 -453h106z" />
    <glyph glyph-name="uni04B2" unicode="&#x4b2;" horiz-adv-x="630" 
d="M258 367l-203 333h104l157 -257l159 257h100l-202 -331l172 -287h78v-212h-90v130h-44l-175 294l-177 -294h-102z" />
    <glyph glyph-name="uni04B3" unicode="&#x4b3;" horiz-adv-x="510" 
d="M199 277l-163 253h103l117 -187l120 187h98l-163 -251l132 -202h63v-202h-85v125h-31l-136 212l-138 -212h-99z" />
    <glyph glyph-name="uni04B6" unicode="&#x4b6;" horiz-adv-x="650" 
d="M438 314q-10 -8 -26.5 -16.5t-38.5 -16.5t-47.5 -13t-53.5 -5q-61 0 -105 13.5t-72 43.5t-41.5 78t-13.5 117v185h94v-185q0 -48 8 -80.5t26 -52t47.5 -28t71.5 -8.5q54 0 91.5 20t59.5 44v290h94v-618h88v-212h-90v130h-92v314z" />
    <glyph glyph-name="uni04B7" unicode="&#x4b7;" horiz-adv-x="530" 
d="M341 241q-17 -20 -47.5 -33.5t-71.5 -13.5q-88 0 -131 45.5t-43 150.5v140h89v-135q0 -68 25.5 -95.5t79.5 -27.5q43 0 66.5 17t32.5 34v207h89v-453h68v-202h-85v125h-72v241z" />
    <glyph glyph-name="uni04B8" unicode="&#x4b8;" horiz-adv-x="630" 
d="M438 314q-14 -11 -42.5 -24t-64.5 -21v-99h-85v93q-54 3 -93 18.5t-64 45.5t-37 76.5t-12 111.5v185h94v-185q0 -42 5.5 -72t18.5 -50t34.5 -31t53.5 -14v134h85v-132q38 8 64 24.5t43 35.5v290h94v-700h-94v314z" />
    <glyph glyph-name="uni04B9" unicode="&#x4b9;" horiz-adv-x="505" 
d="M341 239q-9 -9 -21.5 -17.5t-29.5 -13.5v-83h-75v72q-39 1 -70.5 11t-54 33t-34.5 59.5t-12 89.5v140h89v-135q0 -63 20.5 -88.5t61.5 -30.5v102h75v-94q19 7 31 17.5t20 19.5v209h89v-530h-89v239z" />
    <glyph glyph-name="uni04BA" unicode="&#x4ba;" horiz-adv-x="631" 
d="M192 396q10 7 26.5 16t37.5 17t46.5 13t53.5 5q58 0 101.5 -13.5t72 -43.5t42.5 -78t14 -117v-195h-94v195q0 48 -8.5 80.5t-27 52t-47 28t-68.5 8.5q-51 0 -89 -20t-60 -44v-300h-94v700h94v-304z" />
    <glyph glyph-name="uni04BB" unicode="&#x4bb;" horiz-adv-x="555" 
d="M75 700h89v-244q9 15 22 29.5t31 26t41.5 18.5t52.5 7q80 0 127 -51t47 -154v-332h-89v327q0 68 -29 100t-82 32q-25 0 -47 -10t-38.5 -27.5t-26 -41.5t-9.5 -53v-327h-89v700z" />
    <glyph glyph-name="uni04C0" unicode="&#x4c0;" horiz-adv-x="310" 
d="M108 700h94v-700h-94v700z" />
    <glyph glyph-name="uni04C3" unicode="&#x4c3;" horiz-adv-x="650" 
d="M368 -123q63 0 88.5 26t25.5 89v179q0 73 -41.5 108t-113.5 35h-135v-314h-94v700h94v-305h106l212 305h107l-219 -310q33 -5 64.5 -20t55.5 -40.5t38.5 -61t14.5 -80.5v-200q0 -97 -46.5 -142.5t-146.5 -45.5h-33v77h23z" />
    <glyph glyph-name="uni04C4" unicode="&#x4c4;" horiz-adv-x="536" 
d="M386 100q0 69 -34.5 100.5t-88.5 31.5h-99v-232h-89v530h89v-222h71l168 222h99l-177 -230q72 -14 111 -60t39 -128v-112q0 -60 -8.5 -98.5t-29 -61t-56 -31.5t-89.5 -9v77q28 0 46.5 5t29 18.5t14.5 37.5t4 62v100v0z" />
    <glyph glyph-name="uni04C7" unicode="&#x4c7;" horiz-adv-x="700" 
d="M98 700h94v-299h316v299h94v-700q0 -60 -8.5 -98.5t-29 -61t-55 -31.5t-85.5 -9l-5 82q25 0 42.5 5t27.5 18.5t14.5 37.5t4.5 57v319h-316v-319h-94v700z" />
    <glyph glyph-name="uni04C8" unicode="&#x4c8;" horiz-adv-x="570" 
d="M75 530h89v-222h242v222h89v-530q0 -60 -8.5 -98.5t-29 -61t-55 -31.5t-85.5 -9v77q25 0 42.5 5t27.5 18.5t14.5 37.5t4.5 62v232h-242v-232h-89v530z" />
    <glyph glyph-name="uni04CB" unicode="&#x4cb;" horiz-adv-x="630" 
d="M440 -130h-90v212h88v232q-10 -8 -26.5 -16.5t-38.5 -16.5t-47.5 -13t-53.5 -5q-61 0 -105 13.5t-72 43.5t-41.5 78t-13.5 117v185h94v-185q0 -48 8 -80.5t26 -52t47.5 -28t71.5 -8.5q54 0 91.5 20t59.5 44v290h94v-700h-92v-130z" />
    <glyph glyph-name="uni04CC" unicode="&#x4cc;" horiz-adv-x="505" 
d="M363 -125h-85v202h63v164q-17 -20 -47 -33.5t-72 -13.5q-88 0 -131 45.5t-43 150.5v140h89v-135q0 -68 25.5 -95.5t79.5 -27.5q43 0 66.5 17t32.5 34v207h89v-530h-67v-125z" />
    <glyph glyph-name="uni04CF" unicode="&#x4cf;" horiz-adv-x="257" 
d="M84 0v700h89v-700h-89z" />
    <glyph glyph-name="uni04D0" unicode="&#x4d0;" horiz-adv-x="650" 
d="M277 700h97l255 -700h-102l-63 174h-282l-63 -174h-98zM435 256l-112 325l-112 -325h224zM325 743q-97 0 -140 40.5t-43 116.5h89q0 -48 22 -69.5t72 -21.5q51 0 73 21.5t22 69.5h88q0 -76 -43 -116.5t-140 -40.5z" />
    <glyph glyph-name="uni04D1" unicode="&#x4d1;" horiz-adv-x="510" 
d="M197 -6q-73 0 -114 40.5t-41 113.5q0 77 44 117.5t141 40.5h126v51q0 54 -24.5 78.5t-75.5 24.5q-26 0 -44 -5.5t-29 -15t-17 -21.5t-7 -24h-86q3 31 14 57t33 45t55.5 30t81.5 11q96 0 141 -44.5t45 -135.5v-357h-77v88q-10 -17 -23 -34t-32.5 -30.5t-46.5 -21.5t-64 -8
zM222 70q60 0 95.5 35.5t35.5 96.5v32h-122q-57 0 -79.5 -20.5t-22.5 -64.5q0 -35 23 -57t70 -22zM254 582q-75 0 -110 33.5t-35 96.5h81q0 -38 15.5 -54.5t48.5 -16.5q34 0 49.5 16.5t15.5 54.5h80q0 -63 -35 -96.5t-110 -33.5z" />
    <glyph glyph-name="uni04D2" unicode="&#x4d2;" horiz-adv-x="650" 
d="M277 700h97l255 -700h-102l-63 174h-282l-63 -174h-98zM435 256l-112 325l-112 -325h224zM215 764q-25 0 -43 18t-18 43t18 43t43 18t43 -18t18 -43t-18 -43t-43 -18zM435 764q-25 0 -43 18t-18 43t18 43t43 18t43 -18t18 -43t-18 -43t-43 -18z" />
    <glyph glyph-name="uni04D3" unicode="&#x4d3;" horiz-adv-x="510" 
d="M197 -6q-73 0 -114 40.5t-41 113.5q0 77 44 117.5t141 40.5h126v51q0 54 -24.5 78.5t-75.5 24.5q-26 0 -44 -5.5t-29 -15t-17 -21.5t-7 -24h-86q3 31 14 57t33 45t55.5 30t81.5 11q96 0 141 -44.5t45 -135.5v-357h-77v88q-10 -17 -23 -34t-32.5 -30.5t-46.5 -21.5t-64 -8
zM222 70q60 0 95.5 35.5t35.5 96.5v32h-122q-57 0 -79.5 -20.5t-22.5 -64.5q0 -35 23 -57t70 -22zM162 589q-25 0 -42.5 18t-17.5 43t17.5 43t42.5 18q26 0 43.5 -18t17.5 -43t-17.5 -43t-43.5 -18zM348 589q-26 0 -43.5 18t-17.5 43t17.5 43t43.5 18q25 0 43 -18t18 -43
t-18 -43t-43 -18z" />
    <glyph glyph-name="uni04D4" unicode="&#x4d4;" horiz-adv-x="920" 
d="M438 700h434v-82h-332v-217h300v-82h-300v-237h332v-82h-425v174h-225l-104 -174h-103zM447 256v302l-177 -302h177z" />
    <glyph glyph-name="uni04D5" unicode="&#x4d5;" horiz-adv-x="800" 
d="M204 -7q-78 0 -120 40.5t-42 114.5q0 77 44 117.5t138 40.5h121v51q0 54 -23.5 78.5t-71.5 24.5q-25 0 -42 -5.5t-28 -15t-17 -21.5t-7 -24h-86q3 31 14 57t32.5 45t54.5 30t80 11q56 0 91 -18t57 -54q49 72 149 72q92 0 146 -58.5t54 -173.5v-71h-316q2 -89 34.5 -127
t84.5 -38q23 0 40 6.5t29 17.5t19.5 25t10.5 29h89q-16 -78 -64.5 -116t-123.5 -38q-57 0 -102 25t-72 73q-24 -44 -65.5 -71t-107.5 -27zM218 70q60 0 93.5 35.5t33.5 96.5v32h-118q-54 0 -76 -20.5t-22 -64.5q0 -35 22.5 -57t66.5 -22zM547 461q-52 0 -83 -35t-32 -120
h233q-1 85 -32 120t-86 35z" />
    <glyph glyph-name="uni04D6" unicode="&#x4d6;" horiz-adv-x="575" 
d="M98 700h429v-82h-335v-217h303v-82h-303v-237h335v-82h-429v700zM317 743q-97 0 -140 40.5t-43 116.5h89q0 -48 22 -69.5t72 -21.5q51 0 73 21.5t22 69.5h88q0 -76 -43 -116.5t-140 -40.5z" />
    <glyph glyph-name="uni04D7" unicode="&#x4d7;" horiz-adv-x="520" 
d="M265 -7q-48 0 -87.5 15.5t-67 46t-43 75t-15.5 102.5v76q0 112 55.5 170.5t152.5 58.5t152.5 -58.5t55.5 -172.5v-67h-328q1 -91 34.5 -130.5t90.5 -39.5q25 0 43.5 6.5t31 17.5t19.5 25t10 29h89q-16 -78 -65 -116t-128 -38zM261 461q-57 0 -88.5 -34.5t-32.5 -115.5
h245q-2 81 -33.5 115.5t-90.5 34.5zM260 582q-75 0 -110 33.5t-35 96.5h81q0 -38 15.5 -54.5t48.5 -16.5q34 0 49.5 16.5t15.5 54.5h80q0 -63 -35 -96.5t-110 -33.5z" />
    <glyph glyph-name="uni04D8" unicode="&#x4d8;" horiz-adv-x="660" 
d="M71 495q10 55 34.5 95t58.5 66t76.5 38.5t89.5 12.5q62 0 111 -19t83.5 -60.5t52.5 -107.5t18 -161q0 -103 -18 -173t-52.5 -113t-83.5 -61.5t-111 -18.5q-94 0 -156.5 43t-89.5 136q-18 60 -18 146v82h435q0 121 -45 172.5t-126 51.5q-63 0 -109 -32t-57 -97h-93z
M501 318h-342q0 -66 11 -113q18 -71 58 -100t102 -29q61 0 101.5 29t57.5 100q12 46 12 113z" />
    <glyph glyph-name="uni04D9" unicode="&#x4d9;" horiz-adv-x="520" 
d="M255 537q48 0 87.5 -15.5t67 -46t43 -75t15.5 -102.5v-76q0 -112 -55.5 -170.5t-152.5 -58.5t-152.5 58.5t-55.5 172.5v67h328q-1 91 -34.5 130.5t-90.5 39.5q-25 0 -43.5 -6.5t-31 -17.5t-19.5 -25t-10 -29h-89q16 78 65 116t128 38zM259 69q57 0 88.5 34.5t32.5 115.5
h-245q2 -81 33.5 -115.5t90.5 -34.5z" />
    <glyph glyph-name="uni04DA" unicode="&#x4da;" horiz-adv-x="660" 
d="M71 495q10 55 34.5 95t58.5 66t76.5 38.5t89.5 12.5q62 0 111 -19t83.5 -60.5t52.5 -107.5t18 -161q0 -103 -18 -173t-52.5 -113t-83.5 -61.5t-111 -18.5q-94 0 -156.5 43t-89.5 136q-18 60 -18 146v82h435q0 121 -45 172.5t-126 51.5q-63 0 -109 -32t-57 -97h-93z
M501 318h-342q0 -66 11 -113q18 -71 58 -100t102 -29q61 0 101.5 29t57.5 100q12 46 12 113zM220 764q-25 0 -43 18t-18 43t18 43t43 18t43 -18t18 -43t-18 -43t-43 -18zM440 764q-25 0 -43 18t-18 43t18 43t43 18t43 -18t18 -43t-18 -43t-43 -18z" />
    <glyph glyph-name="uni04DB" unicode="&#x4db;" horiz-adv-x="520" 
d="M255 537q48 0 87.5 -15.5t67 -46t43 -75t15.5 -102.5v-76q0 -112 -55.5 -170.5t-152.5 -58.5t-152.5 58.5t-55.5 172.5v67h328q-1 91 -34.5 130.5t-90.5 39.5q-25 0 -43.5 -6.5t-31 -17.5t-19.5 -25t-10 -29h-89q16 78 65 116t128 38zM259 69q57 0 88.5 34.5t32.5 115.5
h-245q2 -81 33.5 -115.5t90.5 -34.5zM160 589q-25 0 -42.5 18t-17.5 43t17.5 43t42.5 18q26 0 43.5 -18t17.5 -43t-17.5 -43t-43.5 -18zM346 589q-26 0 -43.5 18t-17.5 43t17.5 43t43.5 18q25 0 43 -18t18 -43t-18 -43t-43 -18z" />
    <glyph glyph-name="uni04DC" unicode="&#x4dc;" horiz-adv-x="940" 
d="M248 353l-186 347h112l153 -300h96v300h94v-300h96l160 300h105l-186 -337l206 -363h-112l-173 318h-96v-318h-94v318h-96l-180 -318h-105zM360 764q-25 0 -43 18t-18 43t18 43t43 18t43 -18t18 -43t-18 -43t-43 -18zM580 764q-25 0 -43 18t-18 43t18 43t43 18t43 -18
t18 -43t-18 -43t-43 -18z" />
    <glyph glyph-name="uni04DD" unicode="&#x4dd;" horiz-adv-x="750" 
d="M186 266l-154 264h102l127 -222h70v222h88v-222h70l132 222h97l-154 -256l159 -274h-102l-132 232h-70v-232h-88v232h-70l-136 -232h-98zM282 589q-25 0 -42.5 18t-17.5 43t17.5 43t42.5 18q26 0 43.5 -18t17.5 -43t-17.5 -43t-43.5 -18zM468 589q-26 0 -43.5 18
t-17.5 43t17.5 43t43.5 18q25 0 43 -18t18 -43t-18 -43t-43 -18z" />
    <glyph glyph-name="uni04DE" unicode="&#x4de;" horiz-adv-x="605" 
d="M298 -7q-59 0 -104 15t-76.5 42t-50 64.5t-22.5 83.5h94q8 -57 45 -89.5t114 -32.5q87 0 124 32.5t37 89.5q0 56 -37.5 88.5t-123.5 32.5h-82v82h82q69 0 103 30.5t34 81.5t-34 81.5t-103 30.5q-72 0 -107.5 -29.5t-41.5 -81.5h-92q4 42 21 77.5t47.5 61t73.5 40t99 14.5
t99 -14.5t72 -40t44 -60.5t15 -76q0 -56 -30.5 -94.5t-75.5 -55.5q59 -15 95 -57.5t36 -111.5q0 -45 -16 -82.5t-47.5 -64.5t-79.5 -42t-112 -15zM190 764q-25 0 -43 18t-18 43t18 43t43 18t43 -18t18 -43t-18 -43t-43 -18zM410 764q-25 0 -43 18t-18 43t18 43t43 18t43 -18
t18 -43t-18 -43t-43 -18z" />
    <glyph glyph-name="uni04DF" unicode="&#x4df;" horiz-adv-x="490" 
d="M235 -7q-100 0 -149 41t-55 117h88q7 -39 32.5 -60.5t83.5 -21.5q64 0 90 21.5t26 60.5t-26 60.5t-90 21.5h-74v74h69q54 0 77.5 20t23.5 58q0 37 -23 57t-78 20q-47 0 -69 -20t-28 -57h-92q3 33 18 61t39.5 48.5t58 31.5t73.5 11q48 0 83.5 -11t59 -31t35 -47.5
t11.5 -60.5q0 -19 -5.5 -36.5t-16 -32.5t-25 -26t-32.5 -17q49 -12 74 -46.5t25 -79.5q0 -71 -49 -113.5t-155 -42.5zM148 589q-25 0 -42.5 18t-17.5 43t17.5 43t42.5 18q26 0 43.5 -18t17.5 -43t-17.5 -43t-43.5 -18zM334 589q-26 0 -43.5 18t-17.5 43t17.5 43t43.5 18
q25 0 43 -18t18 -43t-18 -43t-43 -18z" />
    <glyph glyph-name="uni04E2" unicode="&#x4e2;" horiz-adv-x="710" 
d="M98 700h94v-542l326 542h94v-700h-94v542l-326 -542h-94v700zM202 865h306v-80h-306v80z" />
    <glyph glyph-name="uni04E3" unicode="&#x4e3;" horiz-adv-x="570" 
d="M75 530h85v-405l247 405h88v-530h-85v405l-247 -405h-88v530zM148 688h284v-76h-284v76z" />
    <glyph glyph-name="uni04E4" unicode="&#x4e4;" horiz-adv-x="710" 
d="M98 700h94v-542l326 542h94v-700h-94v542l-326 -542h-94v700zM245 764q-25 0 -43 18t-18 43t18 43t43 18t43 -18t18 -43t-18 -43t-43 -18zM465 764q-25 0 -43 18t-18 43t18 43t43 18t43 -18t18 -43t-18 -43t-43 -18z" />
    <glyph glyph-name="uni04E5" unicode="&#x4e5;" horiz-adv-x="570" 
d="M75 530h85v-405l247 405h88v-530h-85v405l-247 -405h-88v530zM192 589q-25 0 -42.5 18t-17.5 43t17.5 43t42.5 18q26 0 43.5 -18t17.5 -43t-17.5 -43t-43.5 -18zM378 589q-26 0 -43.5 18t-17.5 43t17.5 43t43.5 18q25 0 43 -18t18 -43t-18 -43t-43 -18z" />
    <glyph glyph-name="uni04E6" unicode="&#x4e6;" horiz-adv-x="660" 
d="M330 -7q-62 0 -111 19t-83 59t-52 101.5t-18 147.5v80q0 155 70 231t194 76t194 -76t70 -231v-80q0 -86 -18 -147.5t-52 -101.5t-83 -59t-111 -19zM330 76q40 0 72 12.5t54 41.5t33.5 75.5t11.5 114.5v80q0 121 -45 172.5t-126 51.5t-126 -51.5t-45 -172.5v-80
q0 -68 11.5 -114.5t33.5 -75.5t53.5 -41.5t72.5 -12.5zM220 764q-25 0 -43 18t-18 43t18 43t43 18t43 -18t18 -43t-18 -43t-43 -18zM440 764q-25 0 -43 18t-18 43t18 43t43 18t43 -18t18 -43t-18 -43t-43 -18z" />
    <glyph glyph-name="uni04E7" unicode="&#x4e7;" horiz-adv-x="540" 
d="M270 -7q-100 0 -159 61.5t-59 177.5v76q0 54 15.5 96.5t44 72t68.5 45t90 15.5t90 -15.5t68.5 -45t44 -72t15.5 -96.5v-76q0 -116 -59 -177.5t-159 -61.5zM270 71q60 0 95 38.5t35 122.5v76q0 76 -35 113.5t-95 37.5t-95 -37.5t-35 -113.5v-76q0 -84 35 -122.5t95 -38.5z
M177 589q-25 0 -42.5 18t-17.5 43t17.5 43t42.5 18q26 0 43.5 -18t17.5 -43t-17.5 -43t-43.5 -18zM363 589q-26 0 -43.5 18t-17.5 43t17.5 43t43.5 18q25 0 43 -18t18 -43t-18 -43t-43 -18z" />
    <glyph glyph-name="uni04E8" unicode="&#x4e8;" horiz-adv-x="660" 
d="M330 -7q-62 0 -111 19t-83 59t-52 101.5t-18 147.5v80q0 155 70 231t194 76t194 -76t70 -231v-80q0 -86 -18 -147.5t-52 -101.5t-83 -59t-111 -19zM330 76q40 0 72 12.5t54 41.5t33 75q12 46 12 114h-342q0 -68 11 -114q12 -46 34 -75t53.5 -41.5t72.5 -12.5zM456 572
q-45 52 -126 52t-126 -51.5t-45 -171.5h342q0 120 -45 171z" />
    <glyph glyph-name="uni04E9" unicode="&#x4e9;" horiz-adv-x="540" 
d="M270 -7q-100 0 -159 61.5t-59 177.5v76q0 54 15.5 96.5t44 72t68.5 45t90 15.5t90 -15.5t68.5 -45t44 -72t15.5 -96.5v-76q0 -116 -59 -177.5t-159 -61.5zM270 71q60 0 95 38.5t35 121.5h-260q0 -83 35 -121.5t95 -38.5zM365 421q-35 38 -95 38t-95 -37.5t-35 -113.5h260
q0 76 -35 113z" />
    <glyph glyph-name="uni04EA" unicode="&#x4ea;" horiz-adv-x="660" 
d="M330 -7q-62 0 -111 19t-83 59t-52 101.5t-18 147.5v80q0 155 70 231t194 76t194 -76t70 -231v-80q0 -86 -18 -147.5t-52 -101.5t-83 -59t-111 -19zM330 76q40 0 72 12.5t54 41.5t33 75q12 46 12 114h-342q0 -68 11 -114q12 -46 34 -75t53.5 -41.5t72.5 -12.5zM456 572
q-45 52 -126 52t-126 -51.5t-45 -171.5h342q0 120 -45 171zM220 764q-25 0 -43 18t-18 43t18 43t43 18t43 -18t18 -43t-18 -43t-43 -18zM440 764q-25 0 -43 18t-18 43t18 43t43 18t43 -18t18 -43t-18 -43t-43 -18z" />
    <glyph glyph-name="uni04EB" unicode="&#x4eb;" horiz-adv-x="540" 
d="M270 -7q-100 0 -159 61.5t-59 177.5v76q0 54 15.5 96.5t44 72t68.5 45t90 15.5t90 -15.5t68.5 -45t44 -72t15.5 -96.5v-76q0 -116 -59 -177.5t-159 -61.5zM270 71q60 0 95 38.5t35 121.5h-260q0 -83 35 -121.5t95 -38.5zM365 421q-35 38 -95 38t-95 -37.5t-35 -113.5h260
q0 76 -35 113zM177 589q-25 0 -42.5 18t-17.5 43t17.5 43t42.5 18q26 0 43.5 -18t17.5 -43t-17.5 -43t-43.5 -18zM363 589q-26 0 -43.5 18t-17.5 43t17.5 43t43.5 18q25 0 43 -18t18 -43t-18 -43t-43 -18z" />
    <glyph glyph-name="uni04EE" unicode="&#x4ee;" horiz-adv-x="620" 
d="M132 75q59 0 90 16.5t42 45.5l9 21l-252 542h103l196 -435l180 435h99l-239 -563q-17 -41 -36 -68.5t-45 -44t-61.5 -24t-85.5 -7.5v82zM161 865h306v-80h-306v80z" />
    <glyph glyph-name="uni04EF" unicode="&#x4ef;" horiz-adv-x="530" 
d="M93 -123q28 0 48.5 5t36 17.5t28.5 34t25 54.5l-214 542h99l159 -430l143 430h95l-197 -542q-21 -57 -41 -93.5t-45 -57.5t-58 -29t-79 -8v77zM124 688h284v-76h-284v76z" />
    <glyph glyph-name="uni04F0" unicode="&#x4f0;" horiz-adv-x="620" 
d="M132 75q59 0 90 16.5t42 45.5l9 21l-252 542h103l196 -435l180 435h99l-239 -563q-17 -41 -36 -68.5t-45 -44t-61.5 -24t-85.5 -7.5v82zM199 764q-25 0 -43 18t-18 43t18 43t43 18t43 -18t18 -43t-18 -43t-43 -18zM419 764q-25 0 -43 18t-18 43t18 43t43 18t43 -18
t18 -43t-18 -43t-43 -18z" />
    <glyph glyph-name="uni04F1" unicode="&#x4f1;" horiz-adv-x="530" 
d="M93 -123q28 0 48.5 5t36 17.5t28.5 34t25 54.5l-214 542h99l159 -430l143 430h95l-197 -542q-21 -57 -41 -93.5t-45 -57.5t-58 -29t-79 -8v77zM175 589q-25 0 -42.5 18t-17.5 43t17.5 43t42.5 18q26 0 43.5 -18t17.5 -43t-17.5 -43t-43.5 -18zM361 589q-26 0 -43.5 18
t-17.5 43t17.5 43t43.5 18q25 0 43 -18t18 -43t-18 -43t-43 -18z" />
    <glyph glyph-name="uni04F2" unicode="&#x4f2;" horiz-adv-x="620" 
d="M132 75q59 0 90 16.5t42 45.5l9 21l-252 542h103l196 -435l180 435h99l-239 -563q-17 -41 -36 -68.5t-45 -44t-61.5 -24t-85.5 -7.5v82zM459 900h103l-161 -150h-82zM286 900h103l-136 -150h-82z" />
    <glyph glyph-name="uni04F3" unicode="&#x4f3;" horiz-adv-x="530" 
d="M93 -123q28 0 48.5 5t36 17.5t28.5 34t25 54.5l-214 542h99l159 -430l143 430h95l-197 -542q-21 -57 -41 -93.5t-45 -57.5t-58 -29t-79 -8v77zM246 730h101l-128 -160h-78zM411 730h101l-148 -160h-78z" />
    <glyph glyph-name="uni04F4" unicode="&#x4f4;" horiz-adv-x="630" 
d="M438 314q-10 -8 -26.5 -16.5t-38.5 -16.5t-47.5 -13t-53.5 -5q-61 0 -105 13.5t-72 43.5t-41.5 78t-13.5 117v185h94v-185q0 -48 8 -80.5t26 -52t47.5 -28t71.5 -8.5q54 0 91.5 20t59.5 44v290h94v-700h-94v314zM180 764q-25 0 -43 18t-18 43t18 43t43 18t43 -18t18 -43
t-18 -43t-43 -18zM400 764q-25 0 -43 18t-18 43t18 43t43 18t43 -18t18 -43t-18 -43t-43 -18z" />
    <glyph glyph-name="uni04F5" unicode="&#x4f5;" horiz-adv-x="505" 
d="M341 241q-17 -20 -47.5 -33.5t-71.5 -13.5q-88 0 -131 45.5t-43 150.5v140h89v-135q0 -68 25.5 -95.5t79.5 -27.5q43 0 66.5 17t32.5 34v207h89v-530h-89v241zM152 589q-25 0 -42.5 18t-17.5 43t17.5 43t42.5 18q26 0 43.5 -18t17.5 -43t-17.5 -43t-43.5 -18zM338 589
q-26 0 -43.5 18t-17.5 43t17.5 43t43.5 18q25 0 43 -18t18 -43t-18 -43t-43 -18z" />
    <glyph glyph-name="uni04F8" unicode="&#x4f8;" horiz-adv-x="840" 
d="M98 700h94v-274h135q63 0 111 -15.5t80.5 -43.5t48.5 -67t16 -87q0 -47 -16 -86.5t-48.5 -67.5t-80.5 -43.5t-111 -15.5h-229v700zM327 82q85 0 124 35.5t39 95.5q0 61 -39 96.5t-124 35.5h-135v-263h135zM648 700h94v-700h-94v700zM310 764q-25 0 -43 18t-18 43t18 43
t43 18t43 -18t18 -43t-18 -43t-43 -18zM530 764q-25 0 -43 18t-18 43t18 43t43 18t43 -18t18 -43t-18 -43t-43 -18z" />
    <glyph glyph-name="uni04F9" unicode="&#x4f9;" horiz-adv-x="690" 
d="M75 530h89v-202h86q105 0 152.5 -43t47.5 -122q0 -78 -47.5 -120.5t-152.5 -42.5h-175v530zM250 75q65 0 89 21t24 68t-24 68t-89 21h-86v-178h86zM526 530h89v-530h-89v530zM252 589q-25 0 -42.5 18t-17.5 43t17.5 43t42.5 18q26 0 43.5 -18t17.5 -43t-17.5 -43
t-43.5 -18zM438 589q-26 0 -43.5 18t-17.5 43t17.5 43t43.5 18q25 0 43 -18t18 -43t-18 -43t-43 -18z" />
    <glyph glyph-name="uni0512" unicode="&#x512;" horiz-adv-x="680" 
d="M22 88q35 5 60 18t40.5 50t22.5 104.5t7 181.5v258h430v-700q0 -60 -8.5 -98.5t-29 -61t-55 -31.5t-85.5 -9l-5 82q25 0 42.5 5t27.5 18.5t14.5 37.5t4.5 57v618h-246v-176q0 -141 -14 -228t-41.5 -135t-68.5 -65.5t-96 -20.5v95z" />
    <glyph glyph-name="uni0513" unicode="&#x513;" horiz-adv-x="555" 
d="M27 84q30 4 50 18t32 42.5t17 72.5t5 108v205h349v-530q0 -60 -8.5 -98.5t-29 -61t-55 -31.5t-85.5 -9v77q25 0 42.5 5t27.5 18.5t14.5 37.5t4.5 62v453h-173v-128q0 -171 -44 -251.5t-147 -80.5v91z" />
    <glyph glyph-name="uni1E9E" unicode="&#x1e9e;" horiz-adv-x="650" 
d="M98 468q0 51 16.5 95t48 76t77 50t104.5 18q71 0 116 -20t70.5 -52.5t34.5 -72.5t9 -79l-161 -99q56 -5 92 -21.5t56.5 -42t28.5 -57t8 -65.5q0 -43 -15.5 -79t-46 -62.5t-77.5 -41.5t-110 -15h-26v82h24q84 0 121 32t37 87t-34.5 87t-118.5 32h-44v80l173 109
q0 49 -34 82.5t-100 33.5q-39 0 -68 -12t-48.5 -32.5t-29 -48t-9.5 -57.5v-475h-94v468z" />
    <glyph glyph-name="uni2009" unicode="&#x2009;" horiz-adv-x="154" 
 />
    <glyph glyph-name="uni2010" unicode="&#x2010;" horiz-adv-x="340" 
d="M38 361h264v-82h-264v82z" />
    <glyph glyph-name="uni2011" unicode="&#x2011;" horiz-adv-x="340" 
d="M38 361h264v-82h-264v82z" />
    <glyph glyph-name="figuredash" unicode="&#x2012;" 
d="M75 401h400v-82h-400v82z" />
    <glyph glyph-name="endash" unicode="&#x2013;" horiz-adv-x="500" 
d="M50 401h400v-82h-400v82z" />
    <glyph glyph-name="emdash" unicode="&#x2014;" horiz-adv-x="750" 
d="M25 361h700v-82h-700v82z" />
    <glyph glyph-name="quoteleft" unicode="&#x2018;" horiz-adv-x="300" 
d="M95 700l90 155h52l-32 -155v-110h-110v110z" />
    <glyph glyph-name="quoteright" unicode="&#x2019;" horiz-adv-x="300" 
d="M95 590v110h110v-110l-90 -155h-52z" />
    <glyph glyph-name="quotesinglbase" unicode="&#x201a;" horiz-adv-x="300" 
d="M95 0v110h110v-110l-90 -155h-52z" />
    <glyph glyph-name="quotedblleft" unicode="&#x201c;" horiz-adv-x="500" 
d="M70 700l90 155h52l-32 -155v-110h-110v110zM270 700l90 155h52l-32 -155v-110h-110v110z" />
    <glyph glyph-name="quotedblright" unicode="&#x201d;" horiz-adv-x="500" 
d="M95 590v110h110v-110l-90 -155h-52zM295 590v110h110v-110l-90 -155h-52z" />
    <glyph glyph-name="quotedblbase" unicode="&#x201e;" horiz-adv-x="500" 
d="M95 0v110h110v-110l-90 -155h-52zM295 0v110h110v-110l-90 -155h-52z" />
    <glyph glyph-name="dagger" unicode="&#x2020;" horiz-adv-x="600" 
d="M253 448h-206v82h206v170h94v-170h206v-82h-206v-648h-94v648z" />
    <glyph glyph-name="daggerdbl" unicode="&#x2021;" horiz-adv-x="600" 
d="M253 0h-206v82h206v366h-206v82h206v170h94v-170h206v-82h-206v-366h206v-82h-206v-200h-94v200z" />
    <glyph glyph-name="bullet" unicode="&#x2022;" horiz-adv-x="350" 
d="M175 222q-42 0 -70 28t-28 70t28 70.5t70 28.5t70.5 -28.5t28.5 -70.5t-28.5 -70t-70.5 -28z" />
    <glyph glyph-name="ellipsis" unicode="&#x2026;" horiz-adv-x="960" 
d="M150 -7q-30 0 -51 21t-21 51q0 31 21 51.5t51 20.5t51 -20.5t21 -51.5q0 -30 -21 -51t-51 -21zM480 -7q-30 0 -51 21t-21 51q0 31 21 51.5t51 20.5t51 -20.5t21 -51.5q0 -30 -21 -51t-51 -21zM810 -7q-30 0 -51 21t-21 51q0 31 21 51.5t51 20.5t51 -20.5t21 -51.5
q0 -30 -21 -51t-51 -21z" />
    <glyph glyph-name="uni202F" unicode="&#x202f;" horiz-adv-x="154" 
 />
    <glyph glyph-name="perthousand" unicode="&#x2030;" horiz-adv-x="1050" 
d="M167 373q-65 0 -101.5 38t-36.5 109v40q0 71 36.5 109t101.5 38t101.5 -38t36.5 -109v-40q0 -71 -36.5 -109t-101.5 -38zM167 435q33 0 50 19t17 66v40q0 47 -17 66t-50 19t-50 -19t-17 -66v-40q0 -47 17 -66t50 -19zM540 700h89l-469 -700h-89zM535 -6q-65 0 -101.5 38
t-36.5 109v40q0 71 36.5 109t101.5 38t101.5 -38t36.5 -109v-40q0 -71 -36.5 -109t-101.5 -38zM535 56q33 0 50 19t17 66v40q0 47 -17 66t-50 19t-50 -19t-17 -66v-40q0 -47 17 -66t50 -19zM885 -6q-65 0 -101.5 38t-36.5 109v40q0 71 36.5 109t101.5 38t101.5 -38
t36.5 -109v-40q0 -71 -36.5 -109t-101.5 -38zM885 56q33 0 50 19t17 66v40q0 47 -17 66t-50 19t-50 -19t-17 -66v-40q0 -47 17 -66t50 -19z" />
    <glyph glyph-name="guilsinglleft" unicode="&#x2039;" horiz-adv-x="330" 
d="M39 278v64l230 191v-97l-151 -124l151 -124v-101z" />
    <glyph glyph-name="guilsinglright" unicode="&#x203a;" horiz-adv-x="330" 
d="M61 184l151 124l-151 124v101l230 -191v-64l-230 -191v97z" />
    <glyph glyph-name="fraction" unicode="&#x2044;" horiz-adv-x="620" 
d="M500 700h89l-469 -700h-89z" />
    <glyph glyph-name="uni2074" unicode="&#x2074;" horiz-adv-x="390" 
d="M224 465h-197v53l183 282h88v-272h39v-63h-39v-85h-74v85zM224 528v176l-114 -176h114z" />
    <glyph glyph-name="Euro" unicode="&#x20ac;" 
d="M308 -7q-45 0 -82.5 14t-66 44t-47 78.5t-25.5 117.5h-62v78h59v67h-59v78h63q13 125 72 181t148 56q92 0 144 -55t66 -157h-94q-13 72 -39 100.5t-77 28.5q-50 0 -83.5 -34t-42.5 -120h165v-78h-169v-67h169v-78h-166q4 -50 15 -82.5t27.5 -52.5t38 -28t46.5 -8
q49 0 78 29.5t42 102.5h94q-8 -57 -27 -98t-46.5 -67t-63.5 -38t-77 -12z" />
    <glyph glyph-name="uni20B4" unicode="&#x20b4;" 
d="M38 469h293q18 23 25.5 42t7.5 46q0 32 -21 53t-68 21q-45 0 -64 -21t-23 -53h-90q2 31 14 58.5t34 48t54 32t75 11.5t76.5 -11.5t55.5 -31.5t33.5 -47t11.5 -57q0 -26 -7 -47t-20 -44h87v-78h-474v78zM275 -7q-46 0 -81.5 12t-60 32.5t-37 48t-12.5 59.5q0 29 8.5 52.5
t26.5 49.5h-81v79h474v-79h-294q-26 -29 -36 -51t-10 -48q0 -33 26 -56t77 -23t74.5 23t27.5 55h89q-2 -32 -14.5 -60t-36.5 -49t-59 -33t-81 -12z" />
    <glyph glyph-name="uni20B8" unicode="&#x20b8;" 
d="M228 469h-195v82h484v-82h-195v-469h-94v469zM33 618v82h484v-82h-484z" />
    <glyph glyph-name="uni20BD" unicode="&#x20bd;" 
d="M99 113h-82v80h82v67h-82v81h82v359h176q124 0 187.5 -60t63.5 -161q0 -100 -63.5 -159.5t-187.5 -59.5h-82v-67h190v-80h-190v-113h-94v113zM275 341q81 0 119 36t38 102q0 67 -38 103t-119 36h-82v-277h82z" />
    <glyph glyph-name="uni2116" unicode="&#x2116;" horiz-adv-x="1000" 
d="M98 700h92l320 -538v538h92v-700h-92l-320 539v-539h-92v700zM682 300h253v-63h-253v63zM808 373q-65 0 -101.5 38t-36.5 109v40q0 71 36.5 109t101.5 38q66 0 102.5 -38t36.5 -109v-40q0 -71 -36.5 -109t-102.5 -38zM808 435q34 0 50.5 19t16.5 66v40q0 47 -16.5 66
t-50.5 19q-33 0 -49.5 -19t-16.5 -66v-40q0 -47 16.5 -66t49.5 -19z" />
    <glyph glyph-name="trademark" unicode="&#x2122;" horiz-adv-x="900" 
d="M167 737h-139v63h352v-63h-139v-357h-74v357zM435 800h75l131 -248l131 248h71v-420h-71v290l-102 -197h-62l-101 197v-290h-72v420z" />
    <glyph glyph-name="uni2190" unicode="&#x2190;" horiz-adv-x="800" 
d="M44 350l350 350h115l-309 -309h550v-82h-550l309 -309h-115z" />
    <glyph glyph-name="uni2191" unicode="&#x2191;" horiz-adv-x="800" 
d="M355 545l-305 -304v116l350 350l350 -350v-116l-305 304v-545h-90v545z" />
    <glyph glyph-name="uni2192" unicode="&#x2192;" horiz-adv-x="800" 
d="M599 309h-549v82h549l-308 309h115l350 -350l-350 -350h-115z" />
    <glyph glyph-name="uni2193" unicode="&#x2193;" horiz-adv-x="800" 
d="M50 343v116l305 -304v545h90v-545l305 304v-116l-350 -350z" />
    <glyph glyph-name="uni2196" unicode="&#x2196;" horiz-adv-x="800" 
d="M114 147v489h491l81 -81h-425l425 -426l-65 -65l-424 424v-424z" />
    <glyph glyph-name="uni2197" unicode="&#x2197;" horiz-adv-x="800" 
d="M114 126l428 429h-428l82 81h490v-489l-83 -83v426l-427 -426z" />
    <glyph glyph-name="uni2198" unicode="&#x2198;" horiz-adv-x="800" 
d="M114 146h425l-425 425l65 65l424 -424v424l83 -82v-490h-490z" />
    <glyph glyph-name="uni2199" unicode="&#x2199;" horiz-adv-x="800" 
d="M114 553l83 83v-426l427 426l62 -62l-428 -428h428l-81 -82h-491v489z" />
    <glyph glyph-name="minus" unicode="&#x2212;" 
d="M71 401h408v-82h-408v82z" />
    <glyph glyph-name="uni2215" unicode="&#x2215;" 
d="M392 700h90l-324 -702h-90z" />
    <glyph glyph-name="uniF400" unicode="&#xf400;" horiz-adv-x="0" 
d="M-225 730h102l-129 -160h-78z" />
    <glyph glyph-name="uniF401" unicode="&#xf401;" horiz-adv-x="0" 
d="M-285 900h103l-136 -150h-82z" />
    <glyph glyph-name="uniF407" unicode="&#xf407;" horiz-adv-x="240" 
d="M90 -207q-12 0 -22.5 0.5t-18.5 1.5q-10 1 -17 3l13 53q5 -1 10 -1q5 -1 11 -1h12q32 0 44 10t12 24t-13 22t-49 10l18 85h60l-11 -42q42 -12 55.5 -32.5t13.5 -43.5q0 -38 -29 -63.5t-89 -25.5z" />
    <glyph glyph-name="uniF408" unicode="&#xf408;" horiz-adv-x="400" 
d="M162 900h77l116 -150h-82l-73 84l-73 -84h-82z" />
    <glyph glyph-name="uniF40A" unicode="&#xf40a;" horiz-adv-x="250" 
d="M86 590v110h110v-110l-90 -155h-52z" />
    <glyph glyph-name="uniF40B" unicode="&#xf40b;" horiz-adv-x="220" 
d="M110 764q-25 0 -43 18t-18 43t18 43t43 18t43 -18t18 -43t-18 -43t-43 -18z" />
    <glyph glyph-name="uniF40C" unicode="&#xf40c;" horiz-adv-x="300" 
d="M150 725q-54 0 -86 26t-32 74t32 74t86 26t86 -26t32 -74t-32 -74t-86 -26zM150 784q24 0 36.5 11.5t12.5 29.5t-12.5 29.5t-36.5 11.5t-36.5 -11.5t-12.5 -29.5t12.5 -29.5t36.5 -11.5z" />
    <glyph glyph-name="uniF40D" unicode="&#xf40d;" horiz-adv-x="440" 
d="M288 762q-24 0 -42.5 7.5t-35 16.5t-31.5 16.5t-31 7.5q-14 0 -23.5 -6t-15.5 -14q-7 -9 -11 -20l-61 32q10 24 26 43q14 16 35.5 29.5t53.5 13.5q24 0 42.5 -7.5t35 -16.5t31 -16.5t31.5 -7.5q14 0 23 6t15 14q7 9 12 20l61 -32q-10 -25 -26 -43q-14 -17 -35.5 -30
t-53.5 -13z" />
    <glyph glyph-name="uniF50C" unicode="&#xf50c;" horiz-adv-x="630" 
d="M300 -207q-12 0 -22.5 0.5t-18.5 1.5q-10 1 -17 3l13 53q5 -1 10 -1q5 -1 11 -1h12q32 0 44 10t12 24t-13 22t-49 10l17 80q-110 9 -171.5 87t-61.5 239v80q0 155 70 230.5t194 75.5q109 0 173.5 -51t84.5 -161h-94q-19 71 -58 100t-106 29q-81 0 -126 -51.5t-45 -171.5
v-80q0 -68 11.5 -115t33.5 -76t53.5 -41.5t72.5 -12.5q35 0 61.5 7.5t46 23t33 40.5t23.5 61h94q-21 -109 -79 -158.5t-152 -55.5l-9 -36q43 -12 56 -32.5t13 -43.5q0 -38 -28.5 -63.5t-88.5 -25.5z" />
    <glyph glyph-name="uniF50D" unicode="&#xf50d;" horiz-adv-x="510" 
d="M235 -207q-12 0 -22 0.5t-17 1.5q-8 1 -14 3l13 53q4 -1 8 -1q4 -1 9 -1h11q28 0 39.5 10t11.5 24t-12.5 22t-44.5 10l17 80q-84 10 -133 70t-49 167v76q0 54 15.5 96.5t43 72t67 45t87.5 15.5q41 0 76 -11t62 -32t44 -50.5t21 -65.5h-89q-8 33 -35 57t-79 24
q-57 0 -91 -37.5t-34 -113.5v-76q0 -84 34 -122.5t91 -38.5q52 0 79 25t34 56h90q-33 -143 -175 -157l-9 -37q38 -12 51 -32.5t13 -43.5q0 -38 -28 -63.5t-85 -25.5z" />
    <glyph glyph-name="uniF536" unicode="&#xf536;" horiz-adv-x="840" 
d="M98 700h94v-274h135q63 0 111 -15.5t80.5 -43.5t48.5 -67t16 -87q0 -47 -16 -86.5t-48.5 -67.5t-80.5 -43.5t-111 -15.5h-229v700zM327 82q85 0 124 35.5t39 95.5q0 61 -39 96.5t-124 35.5h-135v-263h135zM648 700h94v-700h-94v700zM420 743q-97 0 -140 40.5t-43 116.5
h89q0 -48 22 -69.5t72 -21.5q51 0 73 21.5t22 69.5h88q0 -76 -43 -116.5t-140 -40.5z" />
    <glyph glyph-name="uniF537" unicode="&#xf537;" horiz-adv-x="690" 
d="M75 530h89v-202h86q105 0 152.5 -43t47.5 -122q0 -78 -47.5 -120.5t-152.5 -42.5h-175v530zM250 75q65 0 89 21t24 68t-24 68t-89 21h-86v-178h86zM526 530h89v-530h-89v530zM345 582q-75 0 -110 33.5t-35 96.5h81q0 -38 15.5 -54.5t48.5 -16.5q34 0 49.5 16.5t15.5 54.5
h80q0 -63 -35 -96.5t-110 -33.5z" />
    <glyph glyph-name="uniF53C" unicode="&#xf53c;" horiz-adv-x="565" 
d="M98 700h430v-82h-336v-227h304v-82h-304v-309h-94v700z" />
    <glyph glyph-name="uniF53D" unicode="&#xf53d;" horiz-adv-x="410" 
d="M75 530h318v-77h-229v-145h167v-77h-167v-231h-89v530z" />
    <glyph glyph-name="uniF6BA" unicode="&#xf6ba;" horiz-adv-x="340" 
d="M38 391h264v-82h-264v82z" />
    <glyph glyph-name="uniF6BB" unicode="&#xf6bb;" horiz-adv-x="500" 
d="M50 392h400v-82h-400v82z" />
    <glyph glyph-name="uniF6BC" unicode="&#xf6bc;" horiz-adv-x="750" 
d="M25 391h700v-82h-700v82z" />
    <glyph glyph-name="uniF6C9" unicode="&#xf6c9;" horiz-adv-x="300" 
d="M156 900h103l-136 -150h-82z" />
    <glyph glyph-name="uniF6CA" unicode="&#xf6ca;" horiz-adv-x="400" 
d="M45 900h82l73 -84l73 84h82l-116 -150h-77z" />
    <glyph glyph-name="uniF6CB" unicode="&#xf6cb;" horiz-adv-x="440" 
d="M110 764q-25 0 -43 18t-18 43t18 43t43 18t43 -18t18 -43t-18 -43t-43 -18zM330 764q-25 0 -43 18t-18 43t18 43t43 18t43 -18t18 -43t-18 -43t-43 -18z" />
    <glyph glyph-name="uniF6CE" unicode="&#xf6ce;" horiz-adv-x="300" 
d="M41 900h103l115 -150h-82z" />
    <glyph glyph-name="uniF6CF" unicode="&#xf6cf;" horiz-adv-x="490" 
d="M349 900h103l-161 -150h-82zM176 900h103l-136 -150h-82z" />
    <glyph glyph-name="uniF6D0" unicode="&#xf6d0;" horiz-adv-x="380" 
d="M37 865h306v-80h-306v80z" />
    <glyph glyph-name="uniF6D1" unicode="&#xf6d1;" horiz-adv-x="440" 
d="M220 743q-97 0 -140 40.5t-43 116.5h89q0 -48 22 -69.5t72 -21.5q51 0 73 21.5t22 69.5h88q0 -76 -43 -116.5t-140 -40.5z" />
    <glyph glyph-name="uniF6D4" unicode="&#xf6d4;" horiz-adv-x="380" 
d="M190 582q-75 0 -110 33.5t-35 96.5h81q0 -38 15.5 -54.5t48.5 -16.5q34 0 49.5 16.5t15.5 54.5h80q0 -63 -35 -96.5t-110 -33.5z" />
    <glyph glyph-name="uniFEFF" unicode="&#xfeff;" horiz-adv-x="0" 
 />
    <glyph glyph-name="cyrbreve" horiz-adv-x="500" 
d="M442 8v496h-384v-496h384zM50 512h400v-512h-400v512z" />
    </font>
</defs>
</svg>
