<?xml version="1.0" standalone="no"?>
<!DOCTYPE svg PUBLIC "-//W3C//DTD SVG 1.1//EN" "http://www.w3.org/Graphics/SVG/1.1/DTD/svg11.dtd" >
<svg xmlns="http://www.w3.org/2000/svg" xmlns:xlink="http://www.w3.org/1999/xlink" version="1.1">
<metadata>
Created by FontForge 20170731 at Mon Dec  7 10:07:49 2020
 By Aleksey,,,
Copyright (c) 2019, ParaType Ltd. All rights reserved.
</metadata>
<defs>
<font id="GolosUI-Medium" horiz-adv-x="550" >
  <font-face 
    font-family="Golos UI Medium"
    font-weight="500"
    font-stretch="normal"
    units-per-em="1000"
    panose-1="2 11 6 4 2 2 2 2 2 4"
    ascent="774"
    descent="-226"
    x-height="530"
    cap-height="700"
    bbox="-400 -208 1029 925"
    underline-thickness="50"
    underline-position="-150"
    unicode-range="U+000D-FEFF"
  />
<missing-glyph horiz-adv-x="364" 
d="M33 0v666h265v-666h-265zM66 33h199v600h-199v-600z" />
    <glyph glyph-name=".notdef" horiz-adv-x="364" 
d="M33 0v666h265v-666h-265zM66 33h199v600h-199v-600z" />
    <glyph glyph-name="uni0000" horiz-adv-x="0" 
 />
    <glyph glyph-name="uni0000" horiz-adv-x="0" 
 />
    <glyph glyph-name="uni000D" unicode="&#xd;" horiz-adv-x="250" 
 />
    <glyph glyph-name="space" unicode=" " horiz-adv-x="250" 
 />
    <glyph glyph-name="exclam" unicode="!" horiz-adv-x="300" 
d="M150 -8q-32 0 -54.5 22.5t-22.5 54.5t22.5 54.5t54.5 22.5t54.5 -22.5t22.5 -54.5t-22.5 -54.5t-54.5 -22.5zM90 700h120v-480h-120v480z" />
    <glyph glyph-name="quotedbl" unicode="&#x22;" horiz-adv-x="360" 
d="M51 700h97v-222h-97v222zM212 700h97v-222h-97v222z" />
    <glyph glyph-name="numbersign" unicode="#" horiz-adv-x="580" 
d="M96 207h-85v92h102l23 122h-85v93h102l36 186h110l-35 -186h113l35 186h111l-36 -186h82v-93h-99l-23 -122h82v-92h-99l-39 -207h-110l38 207h-113l-38 -207h-110zM336 299l24 122h-113l-24 -122h113z" />
    <glyph glyph-name="dollar" unicode="$" 
d="M234 -5q-97 9 -145.5 63t-51.5 136h116q3 -42 22 -67.5t64 -33.5v222q-43 15 -77.5 32.5t-58.5 41.5t-36.5 55.5t-12.5 74.5q0 75 46 125t134 61v95h83v-95q88 -11 132 -62.5t48 -130.5h-114q-4 37 -20 60.5t-51 31.5v-201q52 -18 90.5 -38t63 -45t36.5 -57.5t12 -75.5
q0 -78 -50 -130t-147 -62v-95h-83v95zM399 182q0 20 -4 35t-14 27.5t-27 22.5t-42 21v-194q45 7 66 30.5t21 57.5zM169 523q0 -35 16 -55.5t54 -36.5v174q-35 -8 -52.5 -30t-17.5 -52z" />
    <glyph glyph-name="percent" unicode="%" horiz-adv-x="700" 
d="M166 372q-68 0 -106 38.5t-38 109.5v40q0 71 38 109.5t106 38.5t106 -38.5t38 -109.5v-40q0 -71 -38 -109.5t-106 -38.5zM166 444q29 0 44 16.5t15 59.5v40q0 43 -15 60t-44 17t-44 -17t-15 -60v-40q0 -43 15 -59.5t44 -16.5zM533 700h104l-467 -700h-105zM536 -7
q-68 0 -106 38.5t-38 109.5v40q0 71 38 109.5t106 38.5t106 -38.5t38 -109.5v-40q0 -71 -38 -109.5t-106 -38.5zM536 65q29 0 44 16.5t15 59.5v40q0 43 -15 60t-44 17t-44 -17t-15 -60v-40q0 -43 15 -59.5t44 -16.5z" />
    <glyph glyph-name="ampersand" unicode="&#x26;" horiz-adv-x="700" 
d="M285 -8q-57 0 -101 14.5t-73 40.5t-44 62.5t-15 80.5q0 61 30.5 106.5t91.5 90.5q-31 35 -51.5 74.5t-20.5 94.5q0 32 12 60t35.5 48.5t57.5 32t78 11.5t78 -11.5t57.5 -31t35.5 -45.5t12 -54q0 -23 -6 -45t-21.5 -45.5t-42 -49.5t-68.5 -56l144 -156q25 52 25 116h110
q0 -60 -14.5 -110t-40.5 -91l120 -129h-140l-51 55q-81 -63 -198 -63zM285 94q36 0 67.5 10t57.5 30l-166 178q-43 -31 -60.5 -56.5t-17.5 -60.5q0 -47 29.5 -74t89.5 -27zM285 615q-34 0 -53.5 -18t-19.5 -46q0 -33 14.5 -58t34.5 -48q34 23 53.5 40t29 30.5t12 24
t2.5 21.5q0 20 -19.5 37t-53.5 17z" />
    <glyph glyph-name="quotesingle" unicode="'" horiz-adv-x="200" 
d="M52 700h96v-222h-96v222z" />
    <glyph glyph-name="parenleft" unicode="(" horiz-adv-x="360" 
d="M52 310q0 114 24.5 197t54.5 137q34 63 79 106h133q-48 -45 -86 -108q-16 -27 -31.5 -61.5t-27.5 -75.5t-19.5 -90t-7.5 -105v-20q0 -53 7.5 -99.5t19.5 -87.5t27.5 -75.5t31.5 -62.5q38 -66 86 -115h-135q-44 48 -78 113q-29 56 -53.5 137.5t-24.5 189.5v20z" />
    <glyph glyph-name="parenright" unicode=")" horiz-adv-x="360" 
d="M308 290q0 -108 -24.5 -189.5t-53.5 -137.5q-34 -65 -78 -113h-134q47 49 85 115q16 28 31.5 62.5t27.5 75.5t19.5 87.5t7.5 99.5v20q0 56 -7.5 105t-19.5 90t-27.5 75.5t-31.5 61.5q-38 63 -85 108h132q44 -43 79 -106q15 -27 29 -61t25 -76t18 -91t7 -106v-20v0z" />
    <glyph glyph-name="asterisk" unicode="*" horiz-adv-x="450" 
d="M188 461l-95 -60l-42 73l100 51l-100 52l42 72l95 -60l-5 111h84l-5 -111l95 60l43 -72l-101 -52l101 -51l-43 -73l-95 60l5 -111h-84z" />
    <glyph glyph-name="plus" unicode="+" 
d="M218 309h-154v102h154v160h114v-160h154v-102h-154v-160h-114v160z" />
    <glyph glyph-name="comma" unicode="," horiz-adv-x="300" 
d="M87 0v127h127v-127l-97 -164h-65z" />
    <glyph glyph-name="hyphen" unicode="-" horiz-adv-x="340" 
d="M36 371h269v-102h-269v102z" />
    <glyph glyph-name="period" unicode="." horiz-adv-x="300" 
d="M150 -8q-34 0 -57.5 23.5t-23.5 58.5q0 34 23.5 57.5t57.5 23.5t57.5 -23.5t23.5 -57.5q0 -35 -23.5 -58.5t-57.5 -23.5z" />
    <glyph glyph-name="slash" unicode="/" horiz-adv-x="500" 
d="M355 750h113l-323 -900h-113z" />
    <glyph glyph-name="zero" unicode="0" 
d="M275 -8q-56 0 -99 16t-71.5 53t-43 97t-14.5 148v100q0 84 14.5 141.5t43 93t71.5 51.5t99 16t99 -16t72 -51.5t43.5 -93t14.5 -141.5v-100q0 -88 -14.5 -148t-43.5 -97t-72 -53t-99 -16zM275 94q26 0 46.5 9t34.5 32.5t21 64.5t7 106v100q0 60 -7 99t-21 61.5
t-34.5 31.5t-46.5 9t-46.5 -9t-34.5 -31.5t-21 -61.5t-7 -99v-100q0 -65 7 -106t21 -64.5t34.5 -32.5t46.5 -9z" />
    <glyph glyph-name="one" unicode="1" 
d="M84 102h164v474l-160 -108v124l160 108h119v-598h134v-102h-417v102z" />
    <glyph glyph-name="two" unicode="2" 
d="M53 84l245 275q41 46 62.5 78t21.5 66q0 48 -27.5 75.5t-74.5 27.5t-74.5 -27.5t-27.5 -75.5h-115q0 42 16.5 79.5t45.5 65.5t68.5 44t86.5 16t86.5 -16t68.5 -44t45.5 -65.5t16.5 -79.5q0 -28 -9 -54.5t-25 -52.5t-37.5 -52t-46.5 -53l-172 -189h290v-102h-444v84z" />
    <glyph glyph-name="three" unicode="3" 
d="M265 -8q-52 0 -94 15.5t-71 42t-45 62.5t-16 78h117q0 -41 29 -68.5t80 -27.5t80 28.5t29 73.5q0 54 -31.5 83.5t-97.5 29.5h-57v102h57q62 0 90.5 26t28.5 77q0 42 -26 67t-73 25t-73 -24t-26 -62h-117q0 39 14.5 73t42.5 59.5t68 40.5t91 15q49 0 89 -15t68.5 -40.5
t43.5 -60.5t15 -74q0 -61 -30 -99.5t-70 -55.5q51 -17 80.5 -61.5t29.5 -109.5q0 -42 -16 -78.5t-45 -63.5t-71 -42.5t-94 -15.5z" />
    <glyph glyph-name="four" unicode="4" 
d="M343 149h-316v87l297 464h134v-449h66v-102h-66v-149h-115v149zM343 251v294l-190 -294h190z" />
    <glyph glyph-name="five" unicode="5" 
d="M278 -8q-51 0 -90.5 14t-66.5 38t-42.5 54.5t-19.5 63.5h120q5 -27 28.5 -47.5t70.5 -20.5q44 0 71.5 33t27.5 113q0 79 -27 112t-72 33q-35 0 -58.5 -19.5t-37.5 -45.5h-105v380h389v-101h-274v-161q17 19 46.5 34t67.5 15q42 0 77 -15t60 -45.5t39 -77t14 -109.5
q0 -128 -56 -188t-162 -60z" />
    <glyph glyph-name="six" unicode="6" 
d="M275 -8q-106 0 -164.5 59t-58.5 171v211q0 147 57.5 211t165.5 64q85 0 138.5 -37t71.5 -124h-122q-10 35 -33 47.5t-55 12.5q-26 0 -46.5 -7t-35 -25t-22 -49t-7.5 -79v-39q23 23 55.5 36.5t79.5 13.5q43 0 79.5 -15t63 -42.5t41.5 -66.5t15 -88v-42q0 -98 -59 -155
t-164 -57zM275 94q48 0 76 28t28 82v42q0 54 -28 82.5t-76 28.5t-76 -28t-28 -79v-46q0 -53 28 -81.5t76 -28.5z" />
    <glyph glyph-name="seven" unicode="7" 
d="M375 599h-319v101h438v-87l-219 -613h-122z" />
    <glyph glyph-name="eight" unicode="8" 
d="M275 -8q-54 0 -96 15t-71.5 41.5t-45 62t-15.5 77.5q0 62 28 102.5t77 69.5q-38 23 -63 63.5t-25 97.5q0 39 15 73t43 59.5t66.5 40t86.5 14.5t87 -14.5t66.5 -40t42.5 -59.5t15 -73q0 -57 -25 -97.5t-63 -63.5q50 -29 78 -69.5t28 -102.5q0 -42 -15.5 -77.5t-45 -62
t-72 -41.5t-96.5 -15zM275 91q25 0 46 8t36 22t23.5 32t8.5 39q0 51 -31.5 84t-82.5 41q-51 -8 -82.5 -41t-31.5 -84q0 -21 8 -39t23 -32t36 -22t47 -8zM275 609q-43 0 -69.5 -26.5t-26.5 -65.5q0 -24 8 -43.5t21.5 -34t31 -23.5t35.5 -13q18 4 35 13t30.5 23.5t22 34
t8.5 43.5q0 39 -26.5 65.5t-69.5 26.5z" />
    <glyph glyph-name="nine" unicode="9" 
d="M275 -8q-85 0 -138.5 37t-71.5 125h122q10 -36 33 -48.5t55 -12.5q26 0 46.5 7t35 25t22 49t7.5 79v39q-23 -23 -55.5 -36.5t-78.5 -13.5q-43 0 -79.5 15t-63.5 42.5t-42 66.5t-15 88v42q0 98 59.5 155t163.5 57q106 0 164.5 -59t58.5 -171v-211q0 -147 -57.5 -211
t-165.5 -64zM275 343q48 0 76 28t28 79v46q0 53 -28 81.5t-76 28.5t-76 -28t-28 -82v-42q0 -54 28 -82.5t76 -28.5z" />
    <glyph glyph-name="colon" unicode=":" horiz-adv-x="300" 
d="M150 -8q-34 0 -57.5 23.5t-23.5 58.5q0 34 23.5 57.5t57.5 23.5t57.5 -23.5t23.5 -57.5q0 -35 -23.5 -58.5t-57.5 -23.5zM150 375q-34 0 -57.5 23.5t-23.5 58.5q0 34 23.5 57.5t57.5 23.5t57.5 -23.5t23.5 -57.5q0 -35 -23.5 -58.5t-57.5 -23.5z" />
    <glyph glyph-name="semicolon" unicode=";" horiz-adv-x="300" 
d="M87 0v127h127v-127l-97 -164h-65zM150 375q-34 0 -57.5 23.5t-23.5 58.5q0 34 23.5 57.5t57.5 23.5t57.5 -23.5t23.5 -57.5q0 -35 -23.5 -58.5t-57.5 -23.5z" />
    <glyph glyph-name="less" unicode="&#x3c;" 
d="M64 307v107l422 194v-120l-285 -126l285 -126v-123z" />
    <glyph glyph-name="equal" unicode="=" 
d="M64 297h422v-101h-422v101zM64 524h422v-101h-422v101z" />
    <glyph glyph-name="greater" unicode="&#x3e;" 
d="M64 232l286 126l-286 126v124l422 -194v-107l-422 -194v119z" />
    <glyph glyph-name="question" unicode="?" horiz-adv-x="500" 
d="M248 -8q-32 0 -54.5 22.5t-22.5 54.5t22.5 54.5t54.5 22.5t54.5 -22.5t22.5 -54.5t-22.5 -54.5t-54.5 -22.5zM193 255q0 19 3 36t11.5 34t24 35.5t41.5 40.5q37 32 55.5 59.5t18.5 59.5q0 39 -25 62.5t-72 23.5t-72 -23.5t-25 -62.5h-117q0 40 15 74t42.5 59.5t67 40
t89.5 14.5q49 0 89 -14.5t67.5 -40t42.5 -59.5t15 -74q0 -57 -30 -101.5t-75 -82.5q-17 -15 -28 -27t-17 -23.5t-8.5 -22.5t-2.5 -23v-20h-110v35z" />
    <glyph glyph-name="at" unicode="@" horiz-adv-x="800" 
d="M425 -106q-87 0 -156.5 26.5t-119 79.5t-76 133t-26.5 187q0 105 26 184.5t73 133t112 81t142 27.5q83 0 148.5 -25.5t111 -75.5t69.5 -124.5t24 -171.5q0 -111 -34 -168.5t-103 -57.5q-35 0 -65.5 16t-44.5 61q-19 -45 -53.5 -61.5t-73.5 -16.5q-67 0 -109 45t-42 133
v40q0 46 11.5 79.5t31.5 55.5t48 32.5t60 10.5q33 0 63.5 -17t42.5 -51v60h87v-210q0 -52 12 -69t32 -17q9 0 17 4.5t13.5 18.5t8.5 41t3 71q0 159 -64 233t-194 74q-56 0 -102.5 -20t-80 -61.5t-52.5 -105t-19 -149.5q0 -88 19.5 -151.5t55.5 -104.5t87.5 -60.5
t116.5 -19.5q61 0 112.5 18t86.5 41v-99q-38 -22 -86.5 -36t-112.5 -14zM400 213q35 0 54 21t19 66v40q0 45 -19 66.5t-54 21.5t-54 -21.5t-19 -66.5v-40q0 -45 19 -66t54 -21z" />
    <glyph glyph-name="A" unicode="A" horiz-adv-x="650" 
d="M263 700h125l248 -700h-128l-55 156h-260l-55 -156h-124zM418 257l-95 294l-96 -294h191z" />
    <glyph glyph-name="B" unicode="B" horiz-adv-x="650" 
d="M87 700h247q120 0 183.5 -50t63.5 -137q0 -53 -27.5 -90.5t-69.5 -57.5q55 -17 87.5 -57.5t32.5 -108.5q0 -43 -15 -79.5t-46.5 -63t-80 -41.5t-114.5 -15h-261v700zM343 102q77 0 109.5 27.5t32.5 76.5q0 50 -32.5 78t-109.5 28h-137v-210h137zM334 409q67 0 97.5 26
t30.5 68q0 44 -30 70t-98 26h-128v-190h128z" />
    <glyph glyph-name="C" unicode="C" horiz-adv-x="630" 
d="M330 -8q-63 0 -113.5 19.5t-85.5 60t-53.5 102.5t-18.5 147v80q0 153 72 230t199 77q117 0 181.5 -56.5t80.5 -164.5h-120q-14 60 -46.5 88.5t-95.5 28.5q-71 0 -111.5 -47t-40.5 -156v-80q0 -63 10.5 -106t30 -69.5t47.5 -38t64 -11.5q64 0 95.5 29.5t46.5 91.5h120
q-17 -115 -82 -170t-180 -55z" />
    <glyph glyph-name="D" unicode="D" horiz-adv-x="660" 
d="M87 700h243q127 0 199 -76.5t72 -230.5v-80q0 -158 -72 -235.5t-199 -77.5h-243v700zM330 102q36 0 64 11.5t47.5 36.5t30 65.5t10.5 97.5v80q0 110 -40.5 158t-111.5 48h-124v-497h124z" />
    <glyph glyph-name="E" unicode="E" horiz-adv-x="575" 
d="M87 700h443v-101h-324v-188h289v-102h-289v-207h324v-102h-443v700z" />
    <glyph glyph-name="F" unicode="F" horiz-adv-x="565" 
d="M87 700h445v-101h-326v-198h291v-102h-291v-299h-119v700z" />
    <glyph glyph-name="G" unicode="G" horiz-adv-x="660" 
d="M330 -8q-127 0 -199 79.5t-72 248.5v80q0 154 72 231t199 77q117 0 181.5 -57.5t84.5 -163.5h-120q-16 60 -49.5 88.5t-96.5 28.5q-71 0 -111.5 -47t-40.5 -157v-80q0 -63 10.5 -105.5t30 -69t47.5 -38t64 -11.5q75 0 113.5 39t38.5 124h-152v97h271v-44
q0 -85 -18.5 -145.5t-53.5 -99.5t-85.5 -57t-113.5 -18z" />
    <glyph glyph-name="H" unicode="H" horiz-adv-x="700" 
d="M87 700h119v-289h288v289h119v-700h-119v309h-288v-309h-119v700z" />
    <glyph glyph-name="I" unicode="I" horiz-adv-x="310" 
d="M95 700h120v-700h-120v700z" />
    <glyph glyph-name="J" unicode="J" horiz-adv-x="540" 
d="M232 -8q-107 0 -159 52.5t-56 148.5h119q4 -47 27 -72t69 -25q27 0 47 7.5t33.5 25t20 47t6.5 74.5v450h119v-450q0 -138 -56 -198t-170 -60z" />
    <glyph glyph-name="K" unicode="K" horiz-adv-x="675" 
d="M87 700h119v-334l255 334h139l-218 -281l267 -419h-143l-202 329l-98 -121v-208h-119v700z" />
    <glyph glyph-name="L" unicode="L" horiz-adv-x="540" 
d="M87 700h119v-598h321v-102h-440v700z" />
    <glyph glyph-name="M" unicode="M" horiz-adv-x="830" 
d="M87 700h122l209 -416l210 416h115v-700h-115v494l-169 -341h-87l-170 341v-494h-115v700z" />
    <glyph glyph-name="N" unicode="N" horiz-adv-x="700" 
d="M87 700h115l296 -501v501h115v-700h-115l-296 503v-503h-115v700z" />
    <glyph glyph-name="O" unicode="O" horiz-adv-x="660" 
d="M330 -8q-63 0 -113.5 19.5t-85.5 60t-53.5 102t-18.5 146.5v80q0 154 72 231t199 77t199 -77t72 -231v-80q0 -85 -18.5 -146.5t-53.5 -102t-85.5 -60t-113.5 -19.5zM330 96q36 0 64 11.5t47.5 37.5t30 69t10.5 106v80q0 110 -40.5 157t-111.5 47t-111.5 -47t-40.5 -157
v-80q0 -63 10.5 -106t30 -69t47.5 -37.5t64 -11.5z" />
    <glyph glyph-name="P" unicode="P" horiz-adv-x="640" 
d="M87 700h246q133 0 199.5 -61.5t66.5 -166.5q0 -106 -66.5 -167.5t-199.5 -61.5h-127v-243h-119v700zM333 344q77 0 111.5 32.5t34.5 95.5q0 62 -34.5 94.5t-111.5 32.5h-127v-255h127z" />
    <glyph glyph-name="Q" unicode="Q" horiz-adv-x="670" 
d="M488 36q-32 -23 -71.5 -33.5t-86.5 -10.5q-63 0 -113.5 19.5t-85.5 60t-53.5 102t-18.5 146.5v80q0 154 72 231t199 77t199 -77t72 -231v-80q0 -136 -47 -213l74 -73l-68 -69zM330 96q46 0 77 22l-88 89l68 68l78 -79q8 24 12.5 54.5t4.5 69.5v80q0 110 -40.5 157
t-111.5 47t-111.5 -47t-40.5 -157v-80q0 -63 10.5 -106t30 -69t47.5 -37.5t64 -11.5z" />
    <glyph glyph-name="R" unicode="R" horiz-adv-x="650" 
d="M87 700h251q64 0 113 -15.5t82 -44t49.5 -68t16.5 -87.5q0 -69 -32.5 -119t-97.5 -76l150 -290h-131l-134 268h-148v-268h-119v700zM338 370q73 0 107 30.5t34 84.5q0 52 -34 83t-107 31h-132v-229h132z" />
    <glyph glyph-name="S" unicode="S" horiz-adv-x="620" 
d="M307 -8q-66 0 -114 14.5t-79.5 41.5t-47 64t-17.5 82h120q4 -44 34 -71t104 -27q76 0 107.5 26t31.5 65q0 24 -7.5 42t-26.5 32t-50.5 25.5t-80.5 22.5q-51 13 -91 30t-67.5 41.5t-41.5 58.5t-14 80q0 41 14.5 76t44.5 60t75 39t106 14t106 -14t75 -40t45.5 -62t17.5 -80
h-120q-4 41 -31.5 66.5t-92.5 25.5q-63 0 -92 -24.5t-29 -60.5q0 -23 7.5 -39.5t25.5 -29.5t47 -23t72 -20q58 -14 100.5 -32t71 -44t42.5 -61t14 -83q0 -42 -15.5 -78t-47.5 -62t-81 -40.5t-115 -14.5z" />
    <glyph glyph-name="T" unicode="T" horiz-adv-x="570" 
d="M225 599h-209v101h539v-101h-210v-599h-120v599z" />
    <glyph glyph-name="U" unicode="U" horiz-adv-x="690" 
d="M345 -8q-60 0 -109 17t-84 52.5t-54 90t-19 128.5v420h120v-420q0 -95 36.5 -139.5t109.5 -44.5q72 0 109 44.5t37 139.5v420h120v-420q0 -74 -19 -128.5t-54 -90t-84 -52.5t-109 -17z" />
    <glyph glyph-name="V" unicode="V" horiz-adv-x="650" 
d="M14 700h128l193 -546l177 546h124l-238 -700h-125z" />
    <glyph glyph-name="W" unicode="W" horiz-adv-x="920" 
d="M14 700h126l118 -537l139 537h127l142 -537l119 537h121l-167 -700h-136l-145 537l-141 -537h-136z" />
    <glyph glyph-name="X" unicode="X" horiz-adv-x="630" 
d="M243 367l-196 333h131l138 -237l140 237h128l-197 -330l217 -370h-133l-157 273l-159 -273h-128z" />
    <glyph glyph-name="Y" unicode="Y" horiz-adv-x="610" 
d="M255 291l-241 409h135l165 -284l152 284h130l-221 -409v-291h-120v291z" />
    <glyph glyph-name="Z" unicode="Z" horiz-adv-x="560" 
d="M38 93l354 506h-344v101h474v-92l-354 -506h354v-102h-484v93z" />
    <glyph glyph-name="bracketleft" unicode="[" horiz-adv-x="360" 
d="M79 750h236v-101h-117v-698h117v-101h-236v900z" />
    <glyph glyph-name="backslash" unicode="\" horiz-adv-x="500" 
d="M32 750h115l321 -900h-115z" />
    <glyph glyph-name="bracketright" unicode="]" horiz-adv-x="360" 
d="M45 -49h117v698h-117v101h236v-900h-236v101z" />
    <glyph glyph-name="asciicircum" unicode="^" 
d="M222 700h107l177 -260h-126l-107 159l-107 -159h-122z" />
    <glyph glyph-name="underscore" unicode="_" horiz-adv-x="500" 
d="M0 -79h500v-93h-500v93z" />
    <glyph glyph-name="grave" unicode="`" horiz-adv-x="280" 
d="M31 730h122l96 -160h-92z" />
    <glyph glyph-name="a" unicode="a" horiz-adv-x="510" 
d="M191 -6q-73 0 -114 40.5t-41 115.5q0 78 46 119.5t141 41.5h117v40q0 49 -21 70.5t-68 21.5t-66 -17t-21 -42h-102q1 35 12.5 63.5t34.5 48.5t58.5 31t85.5 11q103 0 149.5 -45.5t46.5 -141.5v-351h-99v86q-9 -18 -22 -34.5t-31.5 -29.5t-44.5 -20.5t-61 -7.5zM225 87
q54 0 84.5 30.5t30.5 87.5v24h-108q-49 0 -68.5 -18.5t-19.5 -54.5q0 -32 20 -50.5t61 -18.5z" />
    <glyph glyph-name="b" unicode="b" horiz-adv-x="555" 
d="M321 -6q-57 0 -93 25t-59 67v-86h-102v700h112v-248q19 38 54.5 62t87.5 24q85 0 136.5 -57t51.5 -175v-71q0 -62 -13.5 -107.5t-38 -75t-59.5 -44t-77 -14.5zM291 91q48 0 76.5 33.5t28.5 110.5v71q0 69 -28.5 102t-76.5 33q-52 0 -82 -33t-30 -102v-71q0 -77 30 -110.5
t82 -33.5z" />
    <glyph glyph-name="c" unicode="c" horiz-adv-x="510" 
d="M265 -8q-50 0 -90 16t-69 47t-44.5 76t-15.5 104v71q0 54 15.5 97t44.5 73t69 46t90 16q93 0 148 -48t61 -125h-114q-6 31 -28.5 53.5t-66.5 22.5q-48 0 -77 -33t-29 -102v-71q0 -78 29 -112t77 -34q44 0 66.5 23t28.5 53h114q-12 -81 -64 -127t-145 -46z" />
    <glyph glyph-name="d" unicode="d" horiz-adv-x="555" 
d="M234 -6q-42 0 -77 14.5t-59.5 44t-38 75t-13.5 107.5v71q0 118 51.5 175t136.5 57q52 0 87 -24t55 -62v248h113v-700h-103v86q-23 -42 -59 -67t-93 -25zM265 91q51 0 81 33.5t30 110.5v71q0 69 -30 102t-81 33q-48 0 -77 -33t-29 -102v-71q0 -77 29 -110.5t77 -33.5z" />
    <glyph glyph-name="e" unicode="e" horiz-adv-x="520" 
d="M265 -8q-50 0 -90 16t-69 47t-44.5 76t-15.5 104v71q0 112 57.5 172t156.5 60t156.5 -60t57.5 -174v-71h-315q1 -82 29 -115t77 -33q41 0 61.5 20t25.5 46h112q-14 -75 -63.5 -117t-135.5 -42zM262 445q-48 0 -74.5 -29t-28.5 -99h209q-2 70 -29 99t-77 29z" />
    <glyph glyph-name="f" unicode="f" horiz-adv-x="340" 
d="M94 435h-70v95h70v21q0 77 39 113t136 36h37v-94h-34q-36 0 -50.5 -13t-14.5 -42v-21h99v-95h-99v-435h-113v435z" />
    <glyph glyph-name="g" unicode="g" horiz-adv-x="555" 
d="M234 -3q-85 0 -136.5 58t-51.5 180v71q0 116 51.5 173t136.5 57q57 0 93 -24.5t59 -66.5v85h103v-530q0 -105 -53.5 -156.5t-170.5 -51.5q-51 0 -88 11.5t-61.5 31.5t-38 47t-18.5 59h108q4 -11 10.5 -21t18 -18t28 -12.5t41.5 -4.5q59 0 85 26t26 89v78
q-19 -35 -54.5 -58t-87.5 -23zM265 89q51 0 81 34t30 112v71q0 69 -30 101t-81 32q-48 0 -77 -32t-29 -101v-71q0 -78 29 -112t77 -34z" />
    <glyph glyph-name="h" unicode="h" horiz-adv-x="555" 
d="M67 700h112v-243q18 32 53 56.5t89 24.5q80 0 126.5 -50t46.5 -153v-335h-113v321q0 63 -25.5 91.5t-70.5 28.5q-46 0 -76 -32t-30 -88v-321h-112v700z" />
    <glyph glyph-name="i" unicode="i" horiz-adv-x="280" 
d="M84 530h112v-530h-112v530zM140 579q-29 0 -50 21t-21 50t21 50t50 21t50 -21t21 -50t-21 -50t-50 -21z" />
    <glyph glyph-name="j" unicode="j" horiz-adv-x="280" 
d="M4 -105q22 0 37.5 4.5t25 16.5t13.5 32t4 52v530h112v-530q0 -59 -9 -97.5t-31 -61.5t-59 -32t-93 -9v95zM140 579q-29 0 -50 21t-21 50t21 50t50 21t50 -21t21 -50t-21 -50t-50 -21z" />
    <glyph glyph-name="k" unicode="k" horiz-adv-x="555" 
d="M67 700h111v-389l201 219h130l-199 -215l229 -315h-133l-168 234l-60 -63v-171h-111v700z" />
    <glyph glyph-name="l" unicode="l" horiz-adv-x="300" 
d="M246 0q-47 0 -80 9t-53.5 29.5t-29.5 54t-9 81.5v526h113v-526q0 -47 15 -63t52 -16h18v-95h-26z" />
    <glyph glyph-name="m" unicode="m" horiz-adv-x="835" 
d="M67 530h102v-85q18 40 57 66.5t86 26.5q51 0 89 -22.5t58 -66.5q25 42 64 65.5t87 23.5q73 0 118.5 -50.5t45.5 -152.5v-335h-113v321q0 63 -24 91.5t-62 28.5q-40 0 -69.5 -32t-29.5 -88v-321h-112v321q0 63 -24.5 91.5t-62.5 28.5q-40 0 -69 -32t-29 -88v-321h-112v530
z" />
    <glyph glyph-name="n" unicode="n" horiz-adv-x="555" 
d="M67 530h102v-85q18 40 58 66.5t94 26.5q80 0 126.5 -50t46.5 -153v-335h-113v321q0 63 -25.5 91.5t-70.5 28.5q-46 0 -76 -32t-30 -88v-321h-112v530z" />
    <glyph glyph-name="o" unicode="o" horiz-adv-x="540" 
d="M270 -8q-103 0 -163.5 62.5t-60.5 180.5v71q0 54 15.5 97t45 73t71 46t92.5 16t92.5 -16t71 -46t45 -73t15.5 -97v-71q0 -118 -60.5 -180.5t-163.5 -62.5zM270 89q52 0 81.5 34t29.5 112v71q0 69 -29.5 102t-81.5 33t-81.5 -33t-29.5 -102v-71q0 -78 29.5 -112t81.5 -34z
" />
    <glyph glyph-name="p" unicode="p" horiz-adv-x="555" 
d="M67 530h102v-85q23 42 59 66.5t93 24.5q85 0 136.5 -57t51.5 -173v-71q0 -126 -51.5 -184.5t-136.5 -58.5q-51 0 -87 24t-55 62v-278h-112v730zM291 89q48 0 76.5 34t28.5 112v71q0 69 -28.5 101t-76.5 32q-52 0 -82 -32t-30 -101v-71q0 -78 30 -112t82 -34z" />
    <glyph glyph-name="q" unicode="q" horiz-adv-x="555" 
d="M376 78q-19 -38 -54.5 -62t-87.5 -24q-85 0 -136.5 58.5t-51.5 184.5v71q0 116 51.5 173t136.5 57q57 0 93 -24.5t59 -66.5v85h103v-730h-113v278zM265 89q51 0 81 34t30 112v71q0 69 -30 101t-81 32q-48 0 -77 -32t-29 -101v-71q0 -78 29 -112t77 -34z" />
    <glyph glyph-name="r" unicode="r" horiz-adv-x="390" 
d="M72 530h103v-85q18 40 57.5 66.5t93.5 26.5q11 0 19.5 -1t15.5 -2q8 -1 14 -2v-104q-11 1 -22 3t-24 3t-29 1q-54 0 -84.5 -30.5t-30.5 -84.5v-321h-113v530z" />
    <glyph glyph-name="s" unicode="s" horiz-adv-x="500" 
d="M250 -8q-54 0 -92.5 12t-64 33t-38 50t-14.5 64h112q4 -30 24 -48t73 -18q56 0 77.5 17t21.5 44q0 13 -3.5 24t-15 20t-33.5 17t-59 15q-95 19 -139.5 55t-44.5 105t48 112.5t148 43.5q99 0 145.5 -43.5t50.5 -112.5h-111q-4 30 -21.5 46.5t-63.5 16.5q-48 0 -67 -15.5
t-19 -43.5q0 -12 4 -22.5t15 -19t31.5 -15.5t52.5 -13q52 -9 88.5 -22.5t59.5 -33t33.5 -46.5t10.5 -63q0 -70 -50.5 -114.5t-158.5 -44.5z" />
    <glyph glyph-name="t" unicode="t" horiz-adv-x="360" 
d="M274 0q-48 0 -80.5 9t-53 29.5t-29.5 54t-9 81.5v261h-73v95h73v120h113v-120h106v-95h-106v-261q0 -47 15 -63t52 -16h39v-95h-47z" />
    <glyph glyph-name="u" unicode="u" horiz-adv-x="545" 
d="M231 -8q-77 0 -123 50.5t-46 153.5v334h112v-321q0 -63 24.5 -91.5t66.5 -28.5q20 0 38.5 8.5t32.5 24t22 38t8 49.5v321h113v-530h-103v86q-18 -41 -55.5 -67.5t-89.5 -26.5z" />
    <glyph glyph-name="v" unicode="v" horiz-adv-x="530" 
d="M11 530h124l139 -396l126 396h119l-186 -530h-116z" />
    <glyph glyph-name="w" unicode="w" horiz-adv-x="770" 
d="M19 530h116l93 -396l98 396h118l102 -396l94 396h111l-137 -530h-127l-103 396l-100 -396h-127z" />
    <glyph glyph-name="x" unicode="x" horiz-adv-x="510" 
d="M186 274l-157 256h127l100 -170l103 170h122l-157 -252l173 -278h-127l-116 191l-118 -191h-123z" />
    <glyph glyph-name="y" unicode="y" horiz-adv-x="530" 
d="M91 -105q52 0 80 20.5t48 76.5l-208 538h125l138 -396l125 396h120l-190 -538q-21 -60 -42 -97.5t-47.5 -58.5t-62 -28.5t-86.5 -7.5v95z" />
    <glyph glyph-name="z" unicode="z" horiz-adv-x="480" 
d="M41 81l267 354h-257v95h388v-81l-266 -354h266v-95h-398v81z" />
    <glyph glyph-name="braceleft" unicode="{" horiz-adv-x="360" 
d="M252 -150q-90 0 -131.5 41.5t-41.5 132.5v183q0 23 -13.5 36.5t-36.5 13.5v107q23 0 36.5 13.5t13.5 36.5v163q0 90 42.5 131.5t130.5 41.5h63v-101h-45q-72 0 -72 -72v-204q0 -22 -13 -39.5t-30 -23.5q17 -5 30 -21t13 -42v-223q0 -73 72 -73h45v-101h-63z" />
    <glyph glyph-name="bar" unicode="|" horiz-adv-x="310" 
d="M98 750h114v-900h-114v900z" />
    <glyph glyph-name="braceright" unicode="}" horiz-adv-x="360" 
d="M45 -49h45q72 0 72 73v223q0 26 13 42t30 21q-17 6 -30 23.5t-13 39.5v204q0 72 -72 72h-45v101h63q88 0 130.5 -41.5t42.5 -131.5v-163q0 -23 13.5 -36.5t36.5 -13.5v-107q-23 0 -36.5 -13.5t-13.5 -36.5v-183q0 -91 -41.5 -132.5t-131.5 -41.5h-63v101z" />
    <glyph glyph-name="asciitilde" unicode="~" 
d="M361 272q-28 0 -52 11.5t-45.5 26t-41.5 26t-40 11.5q-21 0 -36 -10.5t-26 -22.5q-12 -15 -20 -33l-73 50q15 32 39 58q20 22 51 40.5t73 18.5q28 0 51.5 -11.5t45 -25.5t41.5 -25.5t40 -11.5t35.5 10t26.5 22q12 14 21 33l73 -50q-16 -33 -40 -59q-20 -22 -50.5 -40
t-72.5 -18z" />
    <glyph glyph-name="uni00A0" unicode="&#xa0;" horiz-adv-x="250" 
 />
    <glyph glyph-name="exclamdown" unicode="&#xa1;" horiz-adv-x="300" 
d="M90 310h120v-510h-120v510zM150 384q-32 0 -54.5 22.5t-22.5 54.5t22.5 54.5t54.5 22.5t54.5 -22.5t22.5 -54.5t-22.5 -54.5t-54.5 -22.5z" />
    <glyph glyph-name="cent" unicode="&#xa2;" 
d="M223 0q-75 16 -117.5 75.5t-42.5 159.5v71q0 92 42.5 149.5t117.5 74.5v105h108v-102q69 -13 112 -57.5t48 -110.5h-113q-7 31 -29 53.5t-67 22.5q-48 0 -77 -33t-29 -102v-71q0 -78 29 -112t77 -34q45 0 67 23t28 53h114q-11 -69 -51 -113t-109 -55v-97h-108v100z" />
    <glyph glyph-name="sterling" unicode="&#xa3;" 
d="M47 102h74v198h-64v102h64v98q0 103 51.5 155.5t147.5 52.5t145.5 -50.5t53.5 -140.5h-119q-5 46 -23.5 67.5t-56.5 21.5q-39 0 -59.5 -23.5t-20.5 -82.5v-98h142v-102h-142v-198h279v-102h-472v102z" />
    <glyph glyph-name="currency" unicode="&#xa4;" 
d="M27 186l80 80q-26 43 -26 94t25 93l-79 80l75 76l81 -81q41 23 92 23q25 0 48.5 -6.5t44.5 -17.5l81 82l75 -75l-81 -81q12 -20 19 -44t7 -49q0 -50 -26 -93l81 -80l-76 -75l-81 80q-41 -23 -92 -23t-93 24l-81 -81zM275 261q41 0 69 28.5t28 70.5t-28 70.5t-69 28.5
t-69 -28.5t-28 -70.5t28 -70.5t69 -28.5z" />
    <glyph glyph-name="yen" unicode="&#xa5;" 
d="M225 129h-148v101h148v61h-148v102h87l-147 307h135l132 -298l119 298h131l-133 -307h93v-102h-149v-61h149v-101h-149v-129h-120v129z" />
    <glyph glyph-name="brokenbar" unicode="&#xa6;" horiz-adv-x="310" 
d="M98 200h114v-350h-114v350zM98 750h114v-350h-114v350z" />
    <glyph glyph-name="section" unicode="&#xa7;" 
d="M275 -108q-86 0 -132.5 44.5t-46.5 118.5h115q0 -61 64 -61t64 61q0 15 -5.5 27t-20 23.5t-40 24t-65.5 28.5q-71 28 -110 74t-39 118q0 57 32.5 99t85.5 67q-36 22 -58.5 52.5t-22.5 77.5q0 73 46.5 117.5t132.5 44.5q87 0 133 -44.5t46 -117.5h-115q0 29 -16 44.5
t-48 15.5t-48 -15.5t-16 -44.5q0 -15 5.5 -27t20.5 -24t40.5 -24.5t64.5 -28.5q71 -28 110 -74t39 -118q0 -57 -32.5 -99.5t-85.5 -65.5q36 -23 58.5 -54t22.5 -76q0 -74 -46 -118.5t-133 -44.5zM275 255q21 0 39.5 7.5t32 20t21.5 30t8 37.5t-8 37.5t-21.5 30t-32 20
t-39.5 7.5t-39.5 -7.5t-32 -20t-21.5 -30t-8 -37.5t8 -37.5t21.5 -30t32 -20t39.5 -7.5z" />
    <glyph glyph-name="dieresis" unicode="&#xa8;" horiz-adv-x="430" 
d="M118 579q-29 0 -49.5 21t-20.5 50t20.5 50t49.5 21t50 -21t21 -50t-21 -50t-50 -21zM312 579q-29 0 -50 21t-21 50t21 50t50 21t50 -21t21 -50t-21 -50t-50 -21z" />
    <glyph glyph-name="copyright" unicode="&#xa9;" horiz-adv-x="780" 
d="M390 -8q-74 0 -139.5 28t-114 76.5t-76.5 114t-28 139.5t28 139.5t76.5 114t114 76.5t139.5 28t139.5 -28t114 -76.5t76.5 -114t28 -139.5t-28 -139.5t-76.5 -114t-114 -76.5t-139.5 -28zM390 78q56 0 105.5 21t86 58t57.5 86.5t21 106.5t-21 106.5t-57.5 86.5t-86 58
t-105.5 21t-105 -21t-86 -58t-58 -86.5t-21 -106.5t21 -106.5t58 -86.5t86 -58t105 -21zM390 132q-81 0 -125 47.5t-44 150.5v50q0 95 44 141.5t125 46.5q77 0 118.5 -38t46.5 -97h-97q-9 51 -68 51q-35 0 -53.5 -22.5t-18.5 -81.5v-50q0 -67 18.5 -90.5t53.5 -23.5
q59 0 68 53h97q-5 -60 -46.5 -98.5t-118.5 -38.5z" />
    <glyph glyph-name="ordfeminine" unicode="&#xaa;" horiz-adv-x="340" 
d="M134 374q-51 0 -77 25t-26 73q0 47 29.5 72.5t93.5 25.5h70v25q0 25 -10 35.5t-36 10.5q-25 0 -35.5 -9t-10.5 -25h-80q0 46 31 73.5t98 27.5t97.5 -29t30.5 -84v-215h-73v53q-11 -25 -35 -42t-67 -17zM157 441q32 0 49.5 17.5t17.5 48.5v9h-60q-26 0 -37 -10t-11 -29
q0 -36 41 -36z" />
    <glyph glyph-name="guillemotleft" unicode="&#xab;" horiz-adv-x="560" 
d="M38 276v69l230 194v-114l-138 -113l138 -113v-118zM268 276v69l230 194v-114l-138 -113l138 -113v-118z" />
    <glyph glyph-name="logicalnot" unicode="&#xac;" 
d="M380 309h-316v102h422v-232h-106v130z" />
    <glyph glyph-name="uni00AD" unicode="&#xad;" horiz-adv-x="340" 
d="M36 371h269v-102h-269v102z" />
    <glyph glyph-name="registered" unicode="&#xae;" horiz-adv-x="590" 
d="M295 162q-57 0 -106.5 21.5t-86.5 58.5t-58.5 86.5t-21.5 106.5t21.5 106.5t58.5 86.5t86.5 58.5t106.5 21.5t106.5 -21.5t86.5 -58.5t58.5 -86.5t21.5 -106.5t-21.5 -106.5t-58.5 -86.5t-86.5 -58.5t-106.5 -21.5zM295 238q41 0 77 15.5t62.5 42t42 62.5t15.5 77
t-15.5 77t-42 62.5t-62.5 42t-77 15.5t-77 -15.5t-62.5 -42t-42 -62.5t-15.5 -77t15.5 -77t42 -62.5t62.5 -42t77 -15.5zM195 570h100q58 0 84.5 -23.5t26.5 -64.5q0 -55 -51 -78l50 -104h-72l-38 94h-33v-94h-67v270zM295 453q26 0 35 6.5t9 22.5q0 15 -9 22t-35 7h-33v-58
h33z" />
    <glyph glyph-name="macron" unicode="&#xaf;" horiz-adv-x="340" 
d="M26 695h289v-90h-289v90z" />
    <glyph glyph-name="degree" unicode="&#xb0;" horiz-adv-x="320" 
d="M160 419q-30 0 -56.5 11.5t-46 31t-30.5 45.5t-11 56t11 56.5t30.5 46t46 31t56.5 11.5t56.5 -11.5t46 -31t31 -46t11.5 -56.5t-11.5 -56t-31 -45.5t-46 -31t-56.5 -11.5zM160 502q26 0 43.5 17.5t17.5 43.5t-17.5 43.5t-43.5 17.5t-43.5 -17.5t-17.5 -43.5t17.5 -43.5
t43.5 -17.5z" />
    <glyph glyph-name="plusminus" unicode="&#xb1;" 
d="M64 201h422v-102h-422v102zM218 374h-154v102h154v160h114v-160h154v-102h-154v-100h-114v100z" />
    <glyph glyph-name="uni00B2" unicode="&#xb2;" horiz-adv-x="340" 
d="M31 442l145 152q26 28 37 46.5t11 37.5q0 26 -14 40t-40 14t-40 -14t-14 -40h-85q0 57 37.5 93.5t101.5 36.5t101.5 -36.5t37.5 -93.5q0 -32 -15.5 -60t-48.5 -63l-96 -99h160v-76h-278v62z" />
    <glyph glyph-name="uni00B3" unicode="&#xb3;" horiz-adv-x="360" 
d="M180 372q-72 0 -109 34t-37 89h89q0 -20 14.5 -33.5t42.5 -13.5t42.5 15t14.5 41t-16 40.5t-53 14.5h-40v72h40q33 0 48.5 14t15.5 36q0 23 -14 37t-38 14q-25 0 -38.5 -12t-13.5 -29h-89q0 51 36 84t105 33q33 0 59 -9.5t44.5 -25.5t28 -37t9.5 -45q0 -38 -16.5 -61.5
t-37.5 -34.5q27 -11 43 -36t16 -64q0 -52 -38 -87.5t-108 -35.5z" />
    <glyph glyph-name="acute" unicode="&#xb4;" horiz-adv-x="280" 
d="M128 730h121l-125 -160h-93z" />
    <glyph glyph-name="uni03BC" unicode="&#xb5;" 
d="M67 530h112v-321q0 -63 24.5 -91.5t66.5 -28.5q20 0 38.5 8.5t32.5 24t22 38t8 49.5v321h113v-530h-103v77q-15 -37 -48.5 -61t-78.5 -24q-18 0 -39.5 6.5t-35.5 24.5v-173h-112v680z" />
    <glyph glyph-name="uni03BC" unicode="&#x3bc;" 
d="M67 530h112v-321q0 -63 24.5 -91.5t66.5 -28.5q20 0 38.5 8.5t32.5 24t22 38t8 49.5v321h113v-530h-103v77q-15 -37 -48.5 -61t-78.5 -24q-18 0 -39.5 6.5t-35.5 24.5v-173h-112v680z" />
    <glyph glyph-name="paragraph" unicode="&#xb6;" horiz-adv-x="680" 
d="M250 300q-41 0 -77.5 16t-63.5 43t-43 63.5t-16 77.5t16 77.5t43 63.5t63.5 43t77.5 16h340v-900h-115v799h-110v-799h-115v500z" />
    <glyph glyph-name="periodcentered" unicode="&#xb7;" horiz-adv-x="300" 
d="M150 238q-34 0 -57.5 23.5t-23.5 58.5q0 34 23.5 57.5t57.5 23.5t57.5 -23.5t23.5 -57.5q0 -35 -23.5 -58.5t-57.5 -23.5z" />
    <glyph glyph-name="cedilla" unicode="&#xb8;" horiz-adv-x="230" 
d="M85 -208q-26 0 -41 3q-9 1 -16 3l15 62q4 -1 8 -1q4 -1 9 -1h11q23 0 32.5 8t9.5 21q0 11 -10.5 18.5t-39.5 9.5l18 85h68l-10 -38q37 -14 50 -33.5t13 -44.5q0 -41 -28.5 -66.5t-88.5 -25.5z" />
    <glyph glyph-name="uni00B9" unicode="&#xb9;" horiz-adv-x="240" 
d="M104 708l-93 -66v93l93 65h90v-420h-90v328z" />
    <glyph glyph-name="ordmasculine" unicode="&#xba;" horiz-adv-x="350" 
d="M175 372q-68 0 -106 38.5t-38 109.5v40q0 71 38 109.5t106 38.5t106 -38.5t38 -109.5v-40q0 -71 -38 -109.5t-106 -38.5zM175 444q29 0 44 16.5t15 59.5v40q0 43 -15 60t-44 17t-44 -17t-15 -60v-40q0 -43 15 -59.5t44 -16.5z" />
    <glyph glyph-name="guillemotright" unicode="&#xbb;" horiz-adv-x="560" 
d="M62 195l138 113l-138 113v118l230 -194v-69l-230 -195v114zM292 195l138 113l-138 113v118l230 -194v-69l-230 -195v114z" />
    <glyph glyph-name="onequarter" unicode="&#xbc;" horiz-adv-x="820" 
d="M132 609l-93 -66v93l93 65h90v-420h-90v328zM595 700h104l-467 -700h-105zM654 78h-200v65l178 278h111v-268h38v-75h-38v-77h-89v77zM654 153v162l-103 -162h103z" />
    <glyph glyph-name="onehalf" unicode="&#xbd;" horiz-adv-x="860" 
d="M132 609l-93 -66v93l93 65h90v-420h-90v328zM595 700h104l-467 -700h-105zM543 63l145 152q26 28 37 46.5t11 37.5q0 26 -14 40t-40 14t-40 -14t-14 -40h-85q0 57 37.5 93.5t101.5 36.5t101.5 -36.5t37.5 -93.5q0 -32 -15.5 -60t-48.5 -63l-96 -99h160v-76h-278v62z" />
    <glyph glyph-name="threequarters" unicode="&#xbe;" horiz-adv-x="880" 
d="M185 273q-72 0 -109 34t-37 89h89q0 -20 14.5 -33.5t42.5 -13.5t42.5 15t14.5 41t-16 40.5t-53 14.5h-40v72h40q33 0 48.5 14t15.5 36q0 23 -14 37t-38 14q-25 0 -38.5 -12t-13.5 -29h-89q0 51 36 84t105 33q33 0 59 -9.5t44.5 -25.5t28 -37t9.5 -45q0 -38 -16.5 -61.5
t-37.5 -34.5q27 -11 43 -36t16 -64q0 -52 -38 -87.5t-108 -35.5zM655 700h104l-467 -700h-105zM714 78h-200v65l178 278h111v-268h38v-75h-38v-77h-89v77zM714 153v162l-103 -162h103z" />
    <glyph glyph-name="questiondown" unicode="&#xbf;" horiz-adv-x="500" 
d="M250 -208q-50 0 -89.5 14.5t-67 40t-42.5 59.5t-15 74q0 57 30.5 101.5t75.5 83.5q34 29 44.5 49.5t10.5 45.5v50h110v-64q0 -19 -3 -36t-11.5 -34t-24 -36t-41.5 -41q-37 -32 -55.5 -59.5t-18.5 -59.5q0 -39 25 -62.5t72 -23.5t72 23.5t25 62.5h117q0 -40 -15 -74
t-42.5 -59.5t-67.5 -40t-89 -14.5zM252 384q-32 0 -54.5 22.5t-22.5 54.5t22.5 54.5t54.5 22.5t54.5 -22.5t22.5 -54.5t-22.5 -54.5t-54.5 -22.5z" />
    <glyph glyph-name="Agrave" unicode="&#xc0;" horiz-adv-x="650" 
d="M263 700h125l248 -700h-128l-55 156h-260l-55 -156h-124zM418 257l-95 294l-96 -294h191zM144 900h126l106 -150h-101z" />
    <glyph glyph-name="Aacute" unicode="&#xc1;" horiz-adv-x="650" 
d="M263 700h125l248 -700h-128l-55 156h-260l-55 -156h-124zM418 257l-95 294l-96 -294h191zM381 900h126l-131 -150h-101z" />
    <glyph glyph-name="Acircumflex" unicode="&#xc2;" horiz-adv-x="650" 
d="M263 700h125l248 -700h-128l-55 156h-260l-55 -156h-124zM418 257l-95 294l-96 -294h191zM273 900h105l111 -150h-102l-62 74l-62 -74h-101z" />
    <glyph glyph-name="Atilde" unicode="&#xc3;" horiz-adv-x="650" 
d="M263 700h125l248 -700h-128l-55 156h-260l-55 -156h-124zM418 257l-95 294l-96 -294h191zM391 756q-24 0 -41.5 7t-33 16t-29.5 16t-30 7q-14 0 -23.5 -6t-15.5 -14q-7 -9 -11 -20l-71 34q9 27 27 49q14 18 38 33.5t59 15.5q23 0 41 -7t33 -15.5t29 -15.5t30 -7
q14 0 23.5 6t15.5 14q7 9 11 20l71 -35q-10 -28 -27 -49q-14 -19 -38 -34t-58 -15z" />
    <glyph glyph-name="Adieresis" unicode="&#xc4;" horiz-adv-x="650" 
d="M263 700h125l248 -700h-128l-55 156h-260l-55 -156h-124zM418 257l-95 294l-96 -294h191zM215 754q-29 0 -50 21t-21 50t21 50t50 21t50 -21t21 -50t-21 -50t-50 -21zM435 754q-29 0 -50 21t-21 50t21 50t50 21t50 -21t21 -50t-21 -50t-50 -21z" />
    <glyph glyph-name="Aring" unicode="&#xc5;" horiz-adv-x="650" 
d="M263 700h125l248 -700h-128l-55 156h-260l-55 -156h-124zM418 257l-95 294l-96 -294h191zM325 725q-60 0 -92 26.5t-32 73.5q0 48 32 74t92 26t92 -26t32 -74q0 -47 -32 -73.5t-92 -26.5zM325 790q21 0 32 9.5t11 25.5t-11 25.5t-32 9.5t-32 -9.5t-11 -25.5t11 -25.5
t32 -9.5z" />
    <glyph glyph-name="AE" unicode="&#xc6;" horiz-adv-x="920" 
d="M419 700h456v-101h-315v-188h280v-102h-280v-207h315v-102h-434v156h-214l-90 -156h-130zM441 257v282l-158 -282h158z" />
    <glyph glyph-name="Ccedilla" unicode="&#xc7;" horiz-adv-x="630" 
d="M300 -208q-28 0 -44 3q-10 1 -18 3l14 62q5 -1 10 -1q5 -1 10.5 -1h12.5q27 0 37 8t10 21q0 11 -11 18.5t-43 9.5l16 79q-110 10 -172.5 89.5t-62.5 237.5v80q0 153 72 230t199 77q117 0 181.5 -56.5t80.5 -164.5h-120q-14 60 -46.5 88.5t-95.5 28.5q-71 0 -111.5 -47
t-40.5 -156v-80q0 -63 10.5 -106t30 -69.5t47.5 -38t64 -11.5q64 0 95.5 29.5t46.5 91.5h120q-31 -209 -231 -223l-7 -32q41 -14 54 -33.5t13 -44.5q0 -41 -29 -66.5t-92 -25.5z" />
    <glyph glyph-name="Egrave" unicode="&#xc8;" horiz-adv-x="575" 
d="M87 700h443v-101h-324v-188h289v-102h-289v-207h324v-102h-443v700zM127 900h126l106 -150h-101z" />
    <glyph glyph-name="Eacute" unicode="&#xc9;" horiz-adv-x="575" 
d="M87 700h443v-101h-324v-188h289v-102h-289v-207h324v-102h-443v700zM364 900h126l-131 -150h-101z" />
    <glyph glyph-name="Ecircumflex" unicode="&#xca;" horiz-adv-x="575" 
d="M87 700h443v-101h-324v-188h289v-102h-289v-207h324v-102h-443v700zM256 900h105l111 -150h-102l-62 74l-62 -74h-101z" />
    <glyph glyph-name="Edieresis" unicode="&#xcb;" horiz-adv-x="575" 
d="M87 700h443v-101h-324v-188h289v-102h-289v-207h324v-102h-443v700zM198 754q-29 0 -50 21t-21 50t21 50t50 21t50 -21t21 -50t-21 -50t-50 -21zM418 754q-29 0 -50 21t-21 50t21 50t50 21t50 -21t21 -50t-21 -50t-50 -21z" />
    <glyph glyph-name="Igrave" unicode="&#xcc;" horiz-adv-x="310" 
d="M95 700h120v-700h-120v700zM-26 900h126l106 -150h-101z" />
    <glyph glyph-name="Iacute" unicode="&#xcd;" horiz-adv-x="310" 
d="M95 700h120v-700h-120v700zM211 900h126l-131 -150h-101z" />
    <glyph glyph-name="Icircumflex" unicode="&#xce;" horiz-adv-x="310" 
d="M95 700h120v-700h-120v700zM104 900h105l111 -150h-102l-62 74l-62 -74h-101z" />
    <glyph glyph-name="Idieresis" unicode="&#xcf;" horiz-adv-x="310" 
d="M95 700h120v-700h-120v700zM46 754q-29 0 -50 21t-21 50t21 50t50 21t50 -21t21 -50t-21 -50t-50 -21zM266 754q-29 0 -50 21t-21 50t21 50t50 21t50 -21t21 -50t-21 -50t-50 -21z" />
    <glyph glyph-name="Eth" unicode="&#xd0;" horiz-adv-x="670" 
d="M97 309h-89v102h89v289h243q127 0 199 -76.5t72 -230.5v-80q0 -158 -72 -235.5t-199 -77.5h-243v309zM340 102q36 0 64 11.5t47.5 36.5t30 65.5t10.5 97.5v80q0 110 -40.5 158t-111.5 48h-124v-188h158v-102h-158v-207h124z" />
    <glyph glyph-name="Ntilde" unicode="&#xd1;" horiz-adv-x="700" 
d="M87 700h115l296 -501v501h115v-700h-115l-296 503v-503h-115v700zM416 756q-24 0 -41.5 7t-33 16t-29.5 16t-30 7q-14 0 -23.5 -6t-15.5 -14q-7 -9 -11 -20l-71 34q9 27 27 49q14 18 38 33.5t59 15.5q23 0 41 -7t33 -15.5t29 -15.5t30 -7q14 0 23.5 6t15.5 14q7 9 11 20
l71 -35q-10 -28 -27 -49q-14 -19 -38 -34t-58 -15z" />
    <glyph glyph-name="Ograve" unicode="&#xd2;" horiz-adv-x="660" 
d="M330 -8q-63 0 -113.5 19.5t-85.5 60t-53.5 102t-18.5 146.5v80q0 154 72 231t199 77t199 -77t72 -231v-80q0 -85 -18.5 -146.5t-53.5 -102t-85.5 -60t-113.5 -19.5zM330 96q36 0 64 11.5t47.5 37.5t30 69t10.5 106v80q0 110 -40.5 157t-111.5 47t-111.5 -47t-40.5 -157
v-80q0 -63 10.5 -106t30 -69t47.5 -37.5t64 -11.5zM149 900h126l106 -150h-101z" />
    <glyph glyph-name="Oacute" unicode="&#xd3;" horiz-adv-x="660" 
d="M330 -8q-63 0 -113.5 19.5t-85.5 60t-53.5 102t-18.5 146.5v80q0 154 72 231t199 77t199 -77t72 -231v-80q0 -85 -18.5 -146.5t-53.5 -102t-85.5 -60t-113.5 -19.5zM330 96q36 0 64 11.5t47.5 37.5t30 69t10.5 106v80q0 110 -40.5 157t-111.5 47t-111.5 -47t-40.5 -157
v-80q0 -63 10.5 -106t30 -69t47.5 -37.5t64 -11.5zM386 900h126l-131 -150h-101z" />
    <glyph glyph-name="Ocircumflex" unicode="&#xd4;" horiz-adv-x="660" 
d="M330 -8q-63 0 -113.5 19.5t-85.5 60t-53.5 102t-18.5 146.5v80q0 154 72 231t199 77t199 -77t72 -231v-80q0 -85 -18.5 -146.5t-53.5 -102t-85.5 -60t-113.5 -19.5zM330 96q36 0 64 11.5t47.5 37.5t30 69t10.5 106v80q0 110 -40.5 157t-111.5 47t-111.5 -47t-40.5 -157
v-80q0 -63 10.5 -106t30 -69t47.5 -37.5t64 -11.5zM278 900h105l111 -150h-102l-62 74l-62 -74h-101z" />
    <glyph glyph-name="Otilde" unicode="&#xd5;" horiz-adv-x="660" 
d="M330 -8q-63 0 -113.5 19.5t-85.5 60t-53.5 102t-18.5 146.5v80q0 154 72 231t199 77t199 -77t72 -231v-80q0 -85 -18.5 -146.5t-53.5 -102t-85.5 -60t-113.5 -19.5zM330 96q36 0 64 11.5t47.5 37.5t30 69t10.5 106v80q0 110 -40.5 157t-111.5 47t-111.5 -47t-40.5 -157
v-80q0 -63 10.5 -106t30 -69t47.5 -37.5t64 -11.5zM396 756q-24 0 -41.5 7t-33 16t-29.5 16t-30 7q-14 0 -23.5 -6t-15.5 -14q-7 -9 -11 -20l-71 34q9 27 27 49q14 18 38 33.5t59 15.5q23 0 41 -7t33 -15.5t29 -15.5t30 -7q14 0 23.5 6t15.5 14q7 9 11 20l71 -35
q-10 -28 -27 -49q-14 -19 -38 -34t-58 -15z" />
    <glyph glyph-name="Odieresis" unicode="&#xd6;" horiz-adv-x="660" 
d="M330 -8q-63 0 -113.5 19.5t-85.5 60t-53.5 102t-18.5 146.5v80q0 154 72 231t199 77t199 -77t72 -231v-80q0 -85 -18.5 -146.5t-53.5 -102t-85.5 -60t-113.5 -19.5zM330 96q36 0 64 11.5t47.5 37.5t30 69t10.5 106v80q0 110 -40.5 157t-111.5 47t-111.5 -47t-40.5 -157
v-80q0 -63 10.5 -106t30 -69t47.5 -37.5t64 -11.5zM220 754q-29 0 -50 21t-21 50t21 50t50 21t50 -21t21 -50t-21 -50t-50 -21zM440 754q-29 0 -50 21t-21 50t21 50t50 21t50 -21t21 -50t-21 -50t-50 -21z" />
    <glyph glyph-name="multiply" unicode="&#xd7;" 
d="M83 246l113 114l-113 113l79 80l113 -114l114 114l79 -79l-114 -114l114 -113l-80 -79l-113 113l-114 -113z" />
    <glyph glyph-name="Oslash" unicode="&#xd8;" horiz-adv-x="660" 
d="M109 -43l41 94q-45 40 -68 106t-23 163v80q0 154 72 231t199 77q53 0 97 -15l37 87l87 -37l-41 -94q44 -38 67.5 -100t23.5 -149v-80q0 -85 -18.5 -146.5t-53.5 -102t-85.5 -60t-113.5 -19.5q-52 0 -97 14l-37 -86zM330 606q-73 0 -113.5 -47t-40.5 -159v-80
q0 -96 27 -145l183 422q-26 9 -56 9zM330 94q36 0 65 11.5t48.5 38t30 69.5t10.5 107v80q0 81 -26 127l-184 -424q13 -5 26.5 -7t29.5 -2z" />
    <glyph glyph-name="Ugrave" unicode="&#xd9;" horiz-adv-x="690" 
d="M345 -8q-60 0 -109 17t-84 52.5t-54 90t-19 128.5v420h120v-420q0 -95 36.5 -139.5t109.5 -44.5q72 0 109 44.5t37 139.5v420h120v-420q0 -74 -19 -128.5t-54 -90t-84 -52.5t-109 -17zM164 900h126l106 -150h-101z" />
    <glyph glyph-name="Uacute" unicode="&#xda;" horiz-adv-x="690" 
d="M345 -8q-60 0 -109 17t-84 52.5t-54 90t-19 128.5v420h120v-420q0 -95 36.5 -139.5t109.5 -44.5q72 0 109 44.5t37 139.5v420h120v-420q0 -74 -19 -128.5t-54 -90t-84 -52.5t-109 -17zM401 900h126l-131 -150h-101z" />
    <glyph glyph-name="Ucircumflex" unicode="&#xdb;" horiz-adv-x="690" 
d="M345 -8q-60 0 -109 17t-84 52.5t-54 90t-19 128.5v420h120v-420q0 -95 36.5 -139.5t109.5 -44.5q72 0 109 44.5t37 139.5v420h120v-420q0 -74 -19 -128.5t-54 -90t-84 -52.5t-109 -17zM293 900h105l111 -150h-102l-62 74l-62 -74h-101z" />
    <glyph glyph-name="Udieresis" unicode="&#xdc;" horiz-adv-x="690" 
d="M345 -8q-60 0 -109 17t-84 52.5t-54 90t-19 128.5v420h120v-420q0 -95 36.5 -139.5t109.5 -44.5q72 0 109 44.5t37 139.5v420h120v-420q0 -74 -19 -128.5t-54 -90t-84 -52.5t-109 -17zM235 754q-29 0 -50 21t-21 50t21 50t50 21t50 -21t21 -50t-21 -50t-50 -21zM455 754
q-29 0 -50 21t-21 50t21 50t50 21t50 -21t21 -50t-21 -50t-50 -21z" />
    <glyph glyph-name="Yacute" unicode="&#xdd;" horiz-adv-x="610" 
d="M255 291l-241 409h135l165 -284l152 284h130l-221 -409v-291h-120v291zM361 900h126l-131 -150h-101z" />
    <glyph glyph-name="Thorn" unicode="&#xde;" horiz-adv-x="640" 
d="M87 700h119v-112h127q133 0 199.5 -61.5t66.5 -166.5q0 -106 -66.5 -167.5t-199.5 -61.5h-127v-131h-119v700zM333 233q77 0 111.5 32t34.5 95q0 62 -34.5 94.5t-111.5 32.5h-127v-254h127z" />
    <glyph glyph-name="germandbls" unicode="&#xdf;" horiz-adv-x="535" 
d="M67 474q0 120 59 177t160 57q49 0 84.5 -12t58.5 -33.5t34 -51t11 -63.5q0 -42 -16.5 -74t-51.5 -48q38 -15 53 -44.5t15 -74.5v-141q0 -85 -39.5 -125.5t-132.5 -40.5h-42v95h28q73 0 73 71v139q0 73 -73 73h-28v94h31q37 0 53.5 16.5t16.5 54.5q0 33 -19 51.5t-56 18.5
q-23 0 -42.5 -7t-34 -23.5t-22.5 -43t-8 -65.5v-474h-112v474z" />
    <glyph glyph-name="agrave" unicode="&#xe0;" horiz-adv-x="510" 
d="M191 -6q-73 0 -114 40.5t-41 115.5q0 78 46 119.5t141 41.5h117v40q0 49 -21 70.5t-68 21.5t-66 -17t-21 -42h-102q1 35 12.5 63.5t34.5 48.5t58.5 31t85.5 11q103 0 149.5 -45.5t46.5 -141.5v-351h-99v86q-9 -18 -22 -34.5t-31.5 -29.5t-44.5 -20.5t-61 -7.5zM225 87
q54 0 84.5 30.5t30.5 87.5v24h-108q-49 0 -68.5 -18.5t-19.5 -54.5q0 -32 20 -50.5t61 -18.5zM83 730h122l96 -160h-92z" />
    <glyph glyph-name="aacute" unicode="&#xe1;" horiz-adv-x="510" 
d="M191 -6q-73 0 -114 40.5t-41 115.5q0 78 46 119.5t141 41.5h117v40q0 49 -21 70.5t-68 21.5t-66 -17t-21 -42h-102q1 35 12.5 63.5t34.5 48.5t58.5 31t85.5 11q103 0 149.5 -45.5t46.5 -141.5v-351h-99v86q-9 -18 -22 -34.5t-31.5 -29.5t-44.5 -20.5t-61 -7.5zM225 87
q54 0 84.5 30.5t30.5 87.5v24h-108q-49 0 -68.5 -18.5t-19.5 -54.5q0 -32 20 -50.5t61 -18.5zM306 730h121l-125 -160h-93z" />
    <glyph glyph-name="acircumflex" unicode="&#xe2;" horiz-adv-x="510" 
d="M191 -6q-73 0 -114 40.5t-41 115.5q0 78 46 119.5t141 41.5h117v40q0 49 -21 70.5t-68 21.5t-66 -17t-21 -42h-102q1 35 12.5 63.5t34.5 48.5t58.5 31t85.5 11q103 0 149.5 -45.5t46.5 -141.5v-351h-99v86q-9 -18 -22 -34.5t-31.5 -29.5t-44.5 -20.5t-61 -7.5zM225 87
q54 0 84.5 30.5t30.5 87.5v24h-108q-49 0 -68.5 -18.5t-19.5 -54.5q0 -32 20 -50.5t61 -18.5zM212 730h87l110 -160h-93l-61 77l-61 -77h-92z" />
    <glyph glyph-name="atilde" unicode="&#xe3;" horiz-adv-x="510" 
d="M191 -6q-73 0 -114 40.5t-41 115.5q0 78 46 119.5t141 41.5h117v40q0 49 -21 70.5t-68 21.5t-66 -17t-21 -42h-102q1 35 12.5 63.5t34.5 48.5t58.5 31t85.5 11q103 0 149.5 -45.5t46.5 -141.5v-351h-99v86q-9 -18 -22 -34.5t-31.5 -29.5t-44.5 -20.5t-61 -7.5zM225 87
q54 0 84.5 30.5t30.5 87.5v24h-108q-49 0 -68.5 -18.5t-19.5 -54.5q0 -32 20 -50.5t61 -18.5zM310 583q-19 0 -34.5 7t-29 16t-26 16t-25.5 7q-11 0 -19.5 -6t-13.5 -14q-6 -9 -10 -20l-66 34q9 26 25 47q14 17 35.5 32t53.5 15q19 0 34.5 -7t29 -16t26 -16t25.5 -7
q11 0 19.5 6t13.5 14q6 9 10 20l66 -34q-9 -27 -25 -47q-14 -18 -35.5 -32.5t-53.5 -14.5z" />
    <glyph glyph-name="adieresis" unicode="&#xe4;" horiz-adv-x="510" 
d="M191 -6q-73 0 -114 40.5t-41 115.5q0 78 46 119.5t141 41.5h117v40q0 49 -21 70.5t-68 21.5t-66 -17t-21 -42h-102q1 35 12.5 63.5t34.5 48.5t58.5 31t85.5 11q103 0 149.5 -45.5t46.5 -141.5v-351h-99v86q-9 -18 -22 -34.5t-31.5 -29.5t-44.5 -20.5t-61 -7.5zM225 87
q54 0 84.5 30.5t30.5 87.5v24h-108q-49 0 -68.5 -18.5t-19.5 -54.5q0 -32 20 -50.5t61 -18.5zM158 579q-29 0 -49.5 21t-20.5 50t20.5 50t49.5 21t50 -21t21 -50t-21 -50t-50 -21zM352 579q-29 0 -50 21t-21 50t21 50t50 21t50 -21t21 -50t-21 -50t-50 -21z" />
    <glyph glyph-name="aring" unicode="&#xe5;" horiz-adv-x="510" 
d="M191 -6q-73 0 -114 40.5t-41 115.5q0 78 46 119.5t141 41.5h117v40q0 49 -21 70.5t-68 21.5t-66 -17t-21 -42h-102q1 35 12.5 63.5t34.5 48.5t58.5 31t85.5 11q103 0 149.5 -45.5t46.5 -141.5v-351h-99v86q-9 -18 -22 -34.5t-31.5 -29.5t-44.5 -20.5t-61 -7.5zM225 87
q54 0 84.5 30.5t30.5 87.5v24h-108q-49 0 -68.5 -18.5t-19.5 -54.5q0 -32 20 -50.5t61 -18.5zM255 552q-57 0 -89.5 31t-32.5 77t32.5 77t89.5 31t89.5 -31t32.5 -77t-32.5 -77t-89.5 -31zM255 617q40 0 40 43t-40 43t-40 -43t40 -43z" />
    <glyph glyph-name="ae" unicode="&#xe6;" horiz-adv-x="800" 
d="M203 -8q-79 0 -123 40.5t-44 117.5q0 78 46 119.5t140 41.5h115v40q0 49 -21 70.5t-67 21.5t-64.5 -17t-20.5 -42h-102q3 70 46.5 112t142.5 42q57 0 93 -15t59 -49q25 34 62 49t83 15q93 0 149.5 -60.5t56.5 -175.5v-73h-309q2 -80 29.5 -112t74.5 -32q38 0 58.5 20
t25.5 46h112q-14 -75 -63.5 -117t-132.5 -42q-57 0 -102 23.5t-72 68.5q-26 -42 -68 -67t-104 -25zM223 87q51 0 82.5 30.5t31.5 87.5v24h-106q-48 0 -67.5 -18.5t-19.5 -54.5q0 -32 20 -50.5t59 -18.5zM546 445q-46 0 -72.5 -29.5t-28.5 -104.5h203q-2 75 -28 104.5
t-74 29.5z" />
    <glyph glyph-name="ccedilla" unicode="&#xe7;" horiz-adv-x="510" 
d="M235 -208q-26 0 -41 3q-9 1 -16 3l15 62q4 -1 8 -1q4 -1 9 -1h11q23 0 32.5 8t9.5 21q0 11 -10.5 18.5t-39.5 9.5l17 80q-85 10 -134.5 71.5t-49.5 168.5v71q0 54 15.5 97t44.5 73t69 46t90 16q93 0 148 -48t61 -125h-114q-6 31 -28.5 53.5t-66.5 22.5q-48 0 -77 -33
t-29 -102v-71q0 -78 29 -112t77 -34q44 0 66.5 23t28.5 53h114q-11 -74 -55 -118t-122 -52l-8 -33q37 -14 50 -33.5t13 -44.5q0 -41 -28.5 -66.5t-88.5 -25.5z" />
    <glyph glyph-name="egrave" unicode="&#xe8;" horiz-adv-x="520" 
d="M265 -8q-50 0 -90 16t-69 47t-44.5 76t-15.5 104v71q0 112 57.5 172t156.5 60t156.5 -60t57.5 -174v-71h-315q1 -82 29 -115t77 -33q41 0 61.5 20t25.5 46h112q-14 -75 -63.5 -117t-135.5 -42zM262 445q-48 0 -74.5 -29t-28.5 -99h209q-2 70 -29 99t-77 29zM88 730h122
l96 -160h-92z" />
    <glyph glyph-name="eacute" unicode="&#xe9;" horiz-adv-x="520" 
d="M265 -8q-50 0 -90 16t-69 47t-44.5 76t-15.5 104v71q0 112 57.5 172t156.5 60t156.5 -60t57.5 -174v-71h-315q1 -82 29 -115t77 -33q41 0 61.5 20t25.5 46h112q-14 -75 -63.5 -117t-135.5 -42zM262 445q-48 0 -74.5 -29t-28.5 -99h209q-2 70 -29 99t-77 29zM311 730h121
l-125 -160h-93z" />
    <glyph glyph-name="ecircumflex" unicode="&#xea;" horiz-adv-x="520" 
d="M265 -8q-50 0 -90 16t-69 47t-44.5 76t-15.5 104v71q0 112 57.5 172t156.5 60t156.5 -60t57.5 -174v-71h-315q1 -82 29 -115t77 -33q41 0 61.5 20t25.5 46h112q-14 -75 -63.5 -117t-135.5 -42zM262 445q-48 0 -74.5 -29t-28.5 -99h209q-2 70 -29 99t-77 29zM217 730h87
l110 -160h-93l-61 77l-61 -77h-92z" />
    <glyph glyph-name="edieresis" unicode="&#xeb;" horiz-adv-x="520" 
d="M265 -8q-50 0 -90 16t-69 47t-44.5 76t-15.5 104v71q0 112 57.5 172t156.5 60t156.5 -60t57.5 -174v-71h-315q1 -82 29 -115t77 -33q41 0 61.5 20t25.5 46h112q-14 -75 -63.5 -117t-135.5 -42zM262 445q-48 0 -74.5 -29t-28.5 -99h209q-2 70 -29 99t-77 29zM163 579
q-29 0 -49.5 21t-20.5 50t20.5 50t49.5 21t50 -21t21 -50t-21 -50t-50 -21zM357 579q-29 0 -50 21t-21 50t21 50t50 21t50 -21t21 -50t-21 -50t-50 -21z" />
    <glyph glyph-name="igrave" unicode="&#xec;" horiz-adv-x="280" 
d="M84 530h112v-530h-112v530zM-31 730h122l96 -160h-92z" />
    <glyph glyph-name="iacute" unicode="&#xed;" horiz-adv-x="280" 
d="M84 530h112v-530h-112v530zM191 730h121l-125 -160h-93z" />
    <glyph glyph-name="icircumflex" unicode="&#xee;" horiz-adv-x="280" 
d="M84 530h112v-530h-112v530zM98 730h87l110 -160h-93l-61 77l-61 -77h-92z" />
    <glyph glyph-name="idieresis" unicode="&#xef;" horiz-adv-x="280" 
d="M84 530h112v-530h-112v530zM44 579q-29 0 -49.5 21t-20.5 50t20.5 50t49.5 21t50 -21t21 -50t-21 -50t-50 -21zM238 579q-29 0 -50 21t-21 50t21 50t50 21t50 -21t21 -50t-21 -50t-50 -21z" />
    <glyph glyph-name="eth" unicode="&#xf0;" horiz-adv-x="540" 
d="M270 -8q-103 0 -163.5 62.5t-60.5 180.5v71q0 51 15.5 92t43.5 70t66.5 44.5t84.5 15.5q47 0 81 -19t60 -51q-4 31 -10.5 55.5t-18.5 44.5t-32 36t-50 30l-16 -53l-69 19l17 58q-16 5 -33.5 9t-37.5 9l19 78q5 -1 16.5 -3.5t23.5 -5t22.5 -4.5t15.5 -3l14 47l69 -19
l-16 -50q52 -20 87.5 -49t56.5 -72.5t30 -103.5t9 -142v-63q0 -74 -15.5 -127.5t-45 -88.5t-71 -51.5t-92.5 -16.5zM270 89q52 0 81.5 34t29.5 112v71q0 62 -29.5 93.5t-81.5 31.5t-81.5 -31.5t-29.5 -93.5v-71q0 -78 29.5 -112t81.5 -34z" />
    <glyph glyph-name="ntilde" unicode="&#xf1;" horiz-adv-x="555" 
d="M67 530h102v-85q18 40 58 66.5t94 26.5q80 0 126.5 -50t46.5 -153v-335h-113v321q0 63 -25.5 91.5t-70.5 28.5q-46 0 -76 -32t-30 -88v-321h-112v530zM333 583q-19 0 -34.5 7t-29 16t-26 16t-25.5 7q-11 0 -19.5 -6t-13.5 -14q-6 -9 -10 -20l-66 34q9 26 25 47
q14 17 35.5 32t53.5 15q19 0 34.5 -7t29 -16t26 -16t25.5 -7q11 0 19.5 6t13.5 14q6 9 10 20l66 -34q-9 -27 -25 -47q-14 -18 -35.5 -32.5t-53.5 -14.5z" />
    <glyph glyph-name="ograve" unicode="&#xf2;" horiz-adv-x="540" 
d="M270 -8q-103 0 -163.5 62.5t-60.5 180.5v71q0 54 15.5 97t45 73t71 46t92.5 16t92.5 -16t71 -46t45 -73t15.5 -97v-71q0 -118 -60.5 -180.5t-163.5 -62.5zM270 89q52 0 81.5 34t29.5 112v71q0 69 -29.5 102t-81.5 33t-81.5 -33t-29.5 -102v-71q0 -78 29.5 -112t81.5 -34z
M98 730h122l96 -160h-92z" />
    <glyph glyph-name="oacute" unicode="&#xf3;" horiz-adv-x="540" 
d="M270 -8q-103 0 -163.5 62.5t-60.5 180.5v71q0 54 15.5 97t45 73t71 46t92.5 16t92.5 -16t71 -46t45 -73t15.5 -97v-71q0 -118 -60.5 -180.5t-163.5 -62.5zM270 89q52 0 81.5 34t29.5 112v71q0 69 -29.5 102t-81.5 33t-81.5 -33t-29.5 -102v-71q0 -78 29.5 -112t81.5 -34z
M321 730h121l-125 -160h-93z" />
    <glyph glyph-name="ocircumflex" unicode="&#xf4;" horiz-adv-x="540" 
d="M270 -8q-103 0 -163.5 62.5t-60.5 180.5v71q0 54 15.5 97t45 73t71 46t92.5 16t92.5 -16t71 -46t45 -73t15.5 -97v-71q0 -118 -60.5 -180.5t-163.5 -62.5zM270 89q52 0 81.5 34t29.5 112v71q0 69 -29.5 102t-81.5 33t-81.5 -33t-29.5 -102v-71q0 -78 29.5 -112t81.5 -34z
M227 730h87l110 -160h-93l-61 77l-61 -77h-92z" />
    <glyph glyph-name="otilde" unicode="&#xf5;" horiz-adv-x="540" 
d="M270 -8q-103 0 -163.5 62.5t-60.5 180.5v71q0 54 15.5 97t45 73t71 46t92.5 16t92.5 -16t71 -46t45 -73t15.5 -97v-71q0 -118 -60.5 -180.5t-163.5 -62.5zM270 89q52 0 81.5 34t29.5 112v71q0 69 -29.5 102t-81.5 33t-81.5 -33t-29.5 -102v-71q0 -78 29.5 -112t81.5 -34z
M325 583q-19 0 -34.5 7t-29 16t-26 16t-25.5 7q-11 0 -19.5 -6t-13.5 -14q-6 -9 -10 -20l-66 34q9 26 25 47q14 17 35.5 32t53.5 15q19 0 34.5 -7t29 -16t26 -16t25.5 -7q11 0 19.5 6t13.5 14q6 9 10 20l66 -34q-9 -27 -25 -47q-14 -18 -35.5 -32.5t-53.5 -14.5z" />
    <glyph glyph-name="odieresis" unicode="&#xf6;" horiz-adv-x="540" 
d="M270 -8q-103 0 -163.5 62.5t-60.5 180.5v71q0 54 15.5 97t45 73t71 46t92.5 16t92.5 -16t71 -46t45 -73t15.5 -97v-71q0 -118 -60.5 -180.5t-163.5 -62.5zM270 89q52 0 81.5 34t29.5 112v71q0 69 -29.5 102t-81.5 33t-81.5 -33t-29.5 -102v-71q0 -78 29.5 -112t81.5 -34z
M173 579q-29 0 -49.5 21t-20.5 50t20.5 50t49.5 21t50 -21t21 -50t-21 -50t-50 -21zM367 579q-29 0 -50 21t-21 50t21 50t50 21t50 -21t21 -50t-21 -50t-50 -21z" />
    <glyph glyph-name="divide" unicode="&#xf7;" 
d="M275 119q-30 0 -51 21t-21 51q0 31 21 51.5t51 20.5t51 -20.5t21 -51.5q0 -30 -21 -51t-51 -21zM64 411h422v-102h-422v102zM275 457q-30 0 -51 21t-21 51q0 31 21 51.5t51 20.5t51 -20.5t21 -51.5q0 -30 -21 -51t-51 -21z" />
    <glyph glyph-name="oslash" unicode="&#xf8;" horiz-adv-x="540" 
d="M92 -53l37 87q-40 30 -61.5 80.5t-21.5 120.5v71q0 54 15.5 97t45 73t71 46t92.5 16q19 0 37 -2.5t34 -7.5l36 82l71 -27l-38 -87q40 -29 62 -77.5t22 -112.5v-71q0 -118 -60.5 -180.5t-163.5 -62.5q-41 0 -72 10l-35 -82zM270 445q-57 0 -87.5 -33t-30.5 -106v-71
q0 -64 21 -98l132 303q-8 3 -17 4t-18 1zM270 85q57 0 87.5 34.5t30.5 115.5v71q0 55 -21 88l-132 -305q15 -4 35 -4z" />
    <glyph glyph-name="ugrave" unicode="&#xf9;" horiz-adv-x="545" 
d="M231 -8q-77 0 -123 50.5t-46 153.5v334h112v-321q0 -63 24.5 -91.5t66.5 -28.5q20 0 38.5 8.5t32.5 24t22 38t8 49.5v321h113v-530h-103v86q-18 -41 -55.5 -67.5t-89.5 -26.5zM98 730h122l96 -160h-92z" />
    <glyph glyph-name="uacute" unicode="&#xfa;" horiz-adv-x="545" 
d="M231 -8q-77 0 -123 50.5t-46 153.5v334h112v-321q0 -63 24.5 -91.5t66.5 -28.5q20 0 38.5 8.5t32.5 24t22 38t8 49.5v321h113v-530h-103v86q-18 -41 -55.5 -67.5t-89.5 -26.5zM321 730h121l-125 -160h-93z" />
    <glyph glyph-name="ucircumflex" unicode="&#xfb;" horiz-adv-x="545" 
d="M231 -8q-77 0 -123 50.5t-46 153.5v334h112v-321q0 -63 24.5 -91.5t66.5 -28.5q20 0 38.5 8.5t32.5 24t22 38t8 49.5v321h113v-530h-103v86q-18 -41 -55.5 -67.5t-89.5 -26.5zM227 730h87l110 -160h-93l-61 77l-61 -77h-92z" />
    <glyph glyph-name="udieresis" unicode="&#xfc;" horiz-adv-x="545" 
d="M231 -8q-77 0 -123 50.5t-46 153.5v334h112v-321q0 -63 24.5 -91.5t66.5 -28.5q20 0 38.5 8.5t32.5 24t22 38t8 49.5v321h113v-530h-103v86q-18 -41 -55.5 -67.5t-89.5 -26.5zM173 579q-29 0 -49.5 21t-20.5 50t20.5 50t49.5 21t50 -21t21 -50t-21 -50t-50 -21zM367 579
q-29 0 -50 21t-21 50t21 50t50 21t50 -21t21 -50t-21 -50t-50 -21z" />
    <glyph glyph-name="yacute" unicode="&#xfd;" horiz-adv-x="530" 
d="M91 -105q52 0 80 20.5t48 76.5l-208 538h125l138 -396l125 396h120l-190 -538q-21 -60 -42 -97.5t-47.5 -58.5t-62 -28.5t-86.5 -7.5v95zM316 730h121l-125 -160h-93z" />
    <glyph glyph-name="thorn" unicode="&#xfe;" horiz-adv-x="555" 
d="M67 700h112v-248q19 38 54.5 62t87.5 24q85 0 136.5 -57t51.5 -175v-71q0 -126 -51.5 -184.5t-136.5 -58.5q-51 0 -87 24t-55 62v-278h-112v900zM291 89q48 0 76.5 34t28.5 112v71q0 69 -28.5 102t-76.5 33q-52 0 -82 -33t-30 -102v-71q0 -78 30 -112t82 -34z" />
    <glyph glyph-name="ydieresis" unicode="&#xff;" horiz-adv-x="530" 
d="M91 -105q52 0 80 20.5t48 76.5l-208 538h125l138 -396l125 396h120l-190 -538q-21 -60 -42 -97.5t-47.5 -58.5t-62 -28.5t-86.5 -7.5v95zM168 579q-29 0 -49.5 21t-20.5 50t20.5 50t49.5 21t50 -21t21 -50t-21 -50t-50 -21zM362 579q-29 0 -50 21t-21 50t21 50t50 21
t50 -21t21 -50t-21 -50t-50 -21z" />
    <glyph glyph-name="dotlessi" unicode="&#x131;" horiz-adv-x="280" 
d="M84 530h112v-530h-112v530z" />
    <glyph glyph-name="OE" unicode="&#x152;" horiz-adv-x="900" 
d="M304 -8q-119 0 -182 78t-63 250v80q0 157 63 232.5t182 75.5q39 0 73.5 -11t60.5 -38v41h417v-101h-297v-188h262v-102h-262v-207h297v-102h-417v41q-26 -27 -60.5 -38t-73.5 -11zM308 96q33 0 57.5 11t40.5 36.5t24 68.5t8 108v80q0 57 -8 96t-24 63t-40.5 34.5
t-57.5 10.5t-57.5 -10.5t-40.5 -34.5t-24 -63t-8 -96v-80q0 -65 8 -108t24 -68.5t40.5 -36.5t57.5 -11z" />
    <glyph glyph-name="oe" unicode="&#x153;" horiz-adv-x="850" 
d="M268 -8q-50 0 -91 16t-70 47t-45 76t-16 104v71q0 54 16 97t45 73t70 46t91 16q106 0 164 -73q55 73 159 73q48 0 87.5 -15.5t67 -45t43 -73t15.5 -100.5v-71h-313q1 -82 29 -115t77 -33q41 0 61 20t26 46h111q-14 -75 -63.5 -117t-134.5 -42q-107 0 -164 76
q-28 -38 -70 -57t-95 -19zM268 89q49 0 79.5 34t30.5 112v71q0 69 -30.5 102t-79.5 33t-79 -33t-30 -102v-71q0 -78 30 -112t79 -34zM593 445q-44 0 -72 -29t-30 -99h207q-2 70 -29.5 99t-75.5 29z" />
    <glyph glyph-name="Scaron" unicode="&#x160;" horiz-adv-x="620" 
d="M307 -8q-66 0 -114 14.5t-79.5 41.5t-47 64t-17.5 82h120q4 -44 34 -71t104 -27q76 0 107.5 26t31.5 65q0 24 -7.5 42t-26.5 32t-50.5 25.5t-80.5 22.5q-51 13 -91 30t-67.5 41.5t-41.5 58.5t-14 80q0 41 14.5 76t44.5 60t75 39t106 14t106 -14t75 -40t45.5 -62t17.5 -80
h-120q-4 41 -31.5 66.5t-92.5 25.5q-63 0 -92 -24.5t-29 -60.5q0 -23 7.5 -39.5t25.5 -29.5t47 -23t72 -20q58 -14 100.5 -32t71 -44t42.5 -61t14 -83q0 -42 -15.5 -78t-47.5 -62t-81 -40.5t-115 -14.5zM144 900h101l62 -74l62 74h102l-111 -150h-105z" />
    <glyph glyph-name="scaron" unicode="&#x161;" horiz-adv-x="500" 
d="M250 -8q-54 0 -92.5 12t-64 33t-38 50t-14.5 64h112q4 -30 24 -48t73 -18q56 0 77.5 17t21.5 44q0 13 -3.5 24t-15 20t-33.5 17t-59 15q-95 19 -139.5 55t-44.5 105t48 112.5t148 43.5q99 0 145.5 -43.5t50.5 -112.5h-111q-4 30 -21.5 46.5t-63.5 16.5q-48 0 -67 -15.5
t-19 -43.5q0 -12 4 -22.5t15 -19t31.5 -15.5t52.5 -13q52 -9 88.5 -22.5t59.5 -33t33.5 -46.5t10.5 -63q0 -70 -50.5 -114.5t-158.5 -44.5zM97 730h92l61 -76l61 76h93l-110 -160h-87z" />
    <glyph glyph-name="Ydieresis" unicode="&#x178;" horiz-adv-x="610" 
d="M255 291l-241 409h135l165 -284l152 284h130l-221 -409v-291h-120v291zM195 754q-29 0 -50 21t-21 50t21 50t50 21t50 -21t21 -50t-21 -50t-50 -21zM415 754q-29 0 -50 21t-21 50t21 50t50 21t50 -21t21 -50t-21 -50t-50 -21z" />
    <glyph glyph-name="Zcaron" unicode="&#x17d;" horiz-adv-x="560" 
d="M38 93l354 506h-344v101h474v-92l-354 -506h354v-102h-484v93zM122 900h101l62 -74l62 74h102l-111 -150h-105z" />
    <glyph glyph-name="zcaron" unicode="&#x17e;" horiz-adv-x="480" 
d="M41 81l267 354h-257v95h388v-81l-266 -354h266v-95h-398v81zM92 730h92l61 -76l61 76h93l-110 -160h-87z" />
    <glyph glyph-name="florin" unicode="&#x192;" 
d="M131 -106h12q35 0 49.5 13t14.5 42v486h-70v95h70v21q0 77 39 113t136 36h37v-94h-34q-36 0 -50.5 -13t-14.5 -42v-21h99v-95h-99v-486q0 -77 -39 -113t-136 -36h-14v94z" />
    <glyph glyph-name="uni0237" unicode="&#x237;" horiz-adv-x="280" 
d="M4 -105q22 0 37.5 4.5t25 16.5t13.5 32t4 52v530h112v-530q0 -59 -9 -97.5t-31 -61.5t-59 -32t-93 -9v95z" />
    <glyph glyph-name="uni02BC" unicode="&#x2bc;" horiz-adv-x="250" 
d="M78 403v127h127v-127l-97 -164h-65z" />
    <glyph glyph-name="circumflex" unicode="&#x2c6;" horiz-adv-x="380" 
d="M147 730h87l110 -160h-93l-61 77l-61 -77h-92z" />
    <glyph glyph-name="caron" unicode="&#x2c7;" horiz-adv-x="380" 
d="M37 730h92l61 -76l61 76h93l-110 -160h-87z" />
    <glyph glyph-name="dotaccent" unicode="&#x2d9;" horiz-adv-x="220" 
d="M110 579q-29 0 -50 21t-21 50t21 50t50 21t50 -21t21 -50t-21 -50t-50 -21z" />
    <glyph glyph-name="ring" unicode="&#x2da;" horiz-adv-x="300" 
d="M150 552q-57 0 -89.5 31t-32.5 77t32.5 77t89.5 31t89.5 -31t32.5 -77t-32.5 -77t-89.5 -31zM150 617q40 0 40 43t-40 43t-40 -43t40 -43z" />
    <glyph glyph-name="tilde" unicode="&#x2dc;" horiz-adv-x="400" 
d="M255 583q-19 0 -34.5 7t-29 16t-26 16t-25.5 7q-11 0 -19.5 -6t-13.5 -14q-6 -9 -10 -20l-66 34q9 26 25 47q14 17 35.5 32t53.5 15q19 0 34.5 -7t29 -16t26 -16t25.5 -7q11 0 19.5 6t13.5 14q6 9 10 20l66 -34q-9 -27 -25 -47q-14 -18 -35.5 -32.5t-53.5 -14.5z" />
    <glyph glyph-name="hungarumlaut" unicode="&#x2dd;" horiz-adv-x="560" 
d="M178 730h121l-125 -160h-93zM363 730h121l-135 -160h-93z" />
    <glyph glyph-name="uni0401" unicode="&#x401;" horiz-adv-x="575" 
d="M87 700h443v-101h-324v-188h289v-102h-289v-207h324v-102h-443v700zM198 754q-29 0 -50 21t-21 50t21 50t50 21t50 -21t21 -50t-21 -50t-50 -21zM418 754q-29 0 -50 21t-21 50t21 50t50 21t50 -21t21 -50t-21 -50t-50 -21z" />
    <glyph glyph-name="uni0402" unicode="&#x402;" horiz-adv-x="775" 
d="M225 599h-209v101h539v-101h-210v-228q23 26 63.5 46.5t105.5 20.5q97 0 148.5 -52t51.5 -151v-49q0 -95 -47 -140.5t-152 -45.5h-37v95h24q54 0 76.5 23t22.5 77v26q0 120 -123 120q-63 0 -98 -34t-35 -86v-221h-120v599z" />
    <glyph glyph-name="uni0403" unicode="&#x403;" horiz-adv-x="530" 
d="M87 700h430v-101h-311v-599h-119v700zM357 900h126l-131 -150h-101z" />
    <glyph glyph-name="uni0404" unicode="&#x404;" horiz-adv-x="630" 
d="M330 -8q-63 0 -113.5 19.5t-85.5 60.5t-53.5 103.5t-18.5 148.5v72q0 157 72 234.5t199 77.5q230 0 262 -221h-120q-14 62 -46.5 89.5t-95.5 27.5q-35 0 -62.5 -10.5t-47 -34t-30.5 -60.5t-12 -90h239v-102h-238q1 -59 12 -99.5t30.5 -65.5t46.5 -35.5t62 -10.5
q64 0 95.5 29.5t46.5 91.5h120q-17 -115 -82 -170t-180 -55z" />
    <glyph glyph-name="uni0405" unicode="&#x405;" horiz-adv-x="620" 
d="M307 -8q-66 0 -114 14.5t-79.5 41.5t-47 64t-17.5 82h120q4 -44 34 -71t104 -27q76 0 107.5 26t31.5 65q0 24 -7.5 42t-26.5 32t-50.5 25.5t-80.5 22.5q-51 13 -91 30t-67.5 41.5t-41.5 58.5t-14 80q0 41 14.5 76t44.5 60t75 39t106 14t106 -14t75 -40t45.5 -62t17.5 -80
h-120q-4 41 -31.5 66.5t-92.5 25.5q-63 0 -92 -24.5t-29 -60.5q0 -23 7.5 -39.5t25.5 -29.5t47 -23t72 -20q58 -14 100.5 -32t71 -44t42.5 -61t14 -83q0 -42 -15.5 -78t-47.5 -62t-81 -40.5t-115 -14.5z" />
    <glyph glyph-name="uni0406" unicode="&#x406;" horiz-adv-x="310" 
d="M95 700h120v-700h-120v700z" />
    <glyph glyph-name="uni0407" unicode="&#x407;" horiz-adv-x="310" 
d="M95 700h120v-700h-120v700zM46 754q-29 0 -50 21t-21 50t21 50t50 21t50 -21t21 -50t-21 -50t-50 -21zM266 754q-29 0 -50 21t-21 50t21 50t50 21t50 -21t21 -50t-21 -50t-50 -21z" />
    <glyph glyph-name="uni0408" unicode="&#x408;" horiz-adv-x="540" 
d="M232 -8q-107 0 -159 52.5t-56 148.5h119q4 -47 27 -72t69 -25q27 0 47 7.5t33.5 25t20 47t6.5 74.5v450h119v-450q0 -138 -56 -198t-170 -60z" />
    <glyph glyph-name="uni0409" unicode="&#x409;" horiz-adv-x="1020" 
d="M18 110q34 4 57.5 17t38 47t21 94.5t6.5 159.5v272h451v-263h121q66 0 116 -16t83.5 -44.5t50 -69t16.5 -89.5t-16.5 -89t-50 -68.5t-83.5 -44.5t-116 -16h-240v599h-217v-171q0 -133 -14 -216.5t-43.5 -131.5t-74.5 -66.5t-106 -21.5v118zM713 102q77 0 111.5 31
t34.5 85q0 55 -34.5 86.5t-111.5 31.5h-121v-234h121z" />
    <glyph glyph-name="uni040A" unicode="&#x40a;" horiz-adv-x="1040" 
d="M87 700h119v-273h288v273h119v-273h120q66 0 116 -15.5t83.5 -44t50 -68t16.5 -86.5t-16.5 -86t-50 -67.5t-83.5 -44t-116 -15.5h-239v326h-288v-326h-119v700zM733 102q77 0 111.5 30t34.5 81t-34.5 82t-111.5 31h-120v-224h120z" />
    <glyph glyph-name="uni040B" unicode="&#x40b;" horiz-adv-x="780" 
d="M225 599h-209v101h539v-101h-210v-228q23 26 63.5 46.5t105.5 20.5q97 0 148.5 -52t51.5 -151v-235h-113v221q0 120 -123 120q-63 0 -98 -34t-35 -86v-221h-120v599z" />
    <glyph glyph-name="uni040C" unicode="&#x40c;" horiz-adv-x="660" 
d="M87 700h119v-293h84l195 293h135l-231 -337l251 -363h-143l-207 306h-84v-306h-119v700zM408 900h126l-131 -150h-101z" />
    <glyph glyph-name="uni040E" unicode="&#x40e;" horiz-adv-x="620" 
d="M128 94q62 0 90 14.5t38 39.5l8 19l-250 533h129l178 -399l160 399h125l-230 -552q-19 -45 -39 -75t-48 -48t-67 -25.5t-94 -7.5v102zM310 742q-100 0 -144.5 40.5t-44.5 117.5h112q0 -42 17.5 -60.5t59.5 -18.5t60 18.5t18 60.5h111q0 -77 -44.5 -117.5t-144.5 -40.5z
" />
    <glyph glyph-name="uni040F" unicode="&#x40f;" horiz-adv-x="690" 
d="M290 0h-203v700h119v-598h278v598h119v-700h-203v-130h-110v130z" />
    <glyph glyph-name="uni0410" unicode="&#x410;" horiz-adv-x="650" 
d="M263 700h125l248 -700h-128l-55 156h-260l-55 -156h-124zM418 257l-95 294l-96 -294h191z" />
    <glyph glyph-name="uni0411" unicode="&#x411;" horiz-adv-x="650" 
d="M87 700h452v-101h-333v-162h127q66 0 116 -16t83.5 -44.5t50 -69t16.5 -89.5t-16.5 -89t-50 -68.5t-83.5 -44.5t-116 -16h-246v700zM333 102q77 0 111.5 31t34.5 85q0 55 -34.5 86.5t-111.5 31.5h-127v-234h127z" />
    <glyph glyph-name="uni0412" unicode="&#x412;" horiz-adv-x="650" 
d="M87 700h247q120 0 183.5 -50t63.5 -137q0 -53 -27.5 -90.5t-69.5 -57.5q55 -17 87.5 -57.5t32.5 -108.5q0 -43 -15 -79.5t-46.5 -63t-80 -41.5t-114.5 -15h-261v700zM343 102q77 0 109.5 27.5t32.5 76.5q0 50 -32.5 78t-109.5 28h-137v-210h137zM334 409q67 0 97.5 26
t30.5 68q0 44 -30 70t-98 26h-128v-190h128z" />
    <glyph glyph-name="uni0413" unicode="&#x413;" horiz-adv-x="530" 
d="M87 700h430v-101h-311v-599h-119v700z" />
    <glyph glyph-name="uni0414" unicode="&#x414;" horiz-adv-x="720" 
d="M18 102h65q24 36 38.5 79t22.5 95.5t10.5 115t2.5 136.5v172h450v-598h87v-232h-111v130h-454v-130h-111v232zM488 102v497h-217v-71q0 -135 -13 -240t-52 -186h282z" />
    <glyph glyph-name="uni0415" unicode="&#x415;" horiz-adv-x="575" 
d="M87 700h443v-101h-324v-188h289v-102h-289v-207h324v-102h-443v700z" />
    <glyph glyph-name="uni0416" unicode="&#x416;" horiz-adv-x="940" 
d="M227 355l-169 345h140l128 -291h84v291h120v-291h84l136 291h132l-169 -338l189 -362h-140l-148 307h-84v-307h-120v307h-84l-146 -307h-132z" />
    <glyph glyph-name="uni0417" unicode="&#x417;" horiz-adv-x="605" 
d="M296 -8q-118 0 -183 56.5t-76 153.5h119q8 -50 41 -78t99 -28q76 0 108.5 28t32.5 78q0 51 -32.5 79t-108.5 28h-87v102h87q60 0 89.5 26.5t29.5 69.5q0 45 -29.5 72t-89.5 27q-61 0 -93.5 -26t-36.5 -72h-115q4 44 22 81t49 64t74.5 42t99.5 15q58 0 102.5 -14.5
t74.5 -40.5t45.5 -61.5t15.5 -77.5q0 -54 -28 -91.5t-73 -57.5q57 -17 90.5 -58t33.5 -111q0 -46 -16 -84t-48 -65t-81.5 -42t-115.5 -15z" />
    <glyph glyph-name="uni0418" unicode="&#x418;" horiz-adv-x="710" 
d="M87 700h119v-504l296 504h121v-700h-119v504l-298 -504h-119v700z" />
    <glyph glyph-name="uni0419" unicode="&#x419;" horiz-adv-x="710" 
d="M87 700h119v-504l296 504h121v-700h-119v504l-298 -504h-119v700zM355 742q-100 0 -144.5 40.5t-44.5 117.5h112q0 -42 17.5 -60.5t59.5 -18.5t60 18.5t18 60.5h111q0 -77 -44.5 -117.5t-144.5 -40.5z" />
    <glyph glyph-name="uni041A" unicode="&#x41a;" horiz-adv-x="660" 
d="M87 700h119v-293h84l195 293h135l-231 -337l251 -363h-143l-207 306h-84v-306h-119v700z" />
    <glyph glyph-name="uni041B" unicode="&#x41b;" horiz-adv-x="680" 
d="M18 110q34 4 57.5 17t38 47t21 94.5t6.5 159.5v272h452v-700h-119v599h-218v-171q0 -133 -14 -216.5t-43.5 -131.5t-74.5 -66.5t-106 -21.5v118z" />
    <glyph glyph-name="uni041C" unicode="&#x41c;" horiz-adv-x="830" 
d="M87 700h122l209 -416l210 416h115v-700h-115v494l-169 -341h-87l-170 341v-494h-115v700z" />
    <glyph glyph-name="uni041D" unicode="&#x41d;" horiz-adv-x="700" 
d="M87 700h119v-289h288v289h119v-700h-119v309h-288v-309h-119v700z" />
    <glyph glyph-name="uni041E" unicode="&#x41e;" horiz-adv-x="660" 
d="M330 -8q-63 0 -113.5 19.5t-85.5 60t-53.5 102t-18.5 146.5v80q0 154 72 231t199 77t199 -77t72 -231v-80q0 -85 -18.5 -146.5t-53.5 -102t-85.5 -60t-113.5 -19.5zM330 96q36 0 64 11.5t47.5 37.5t30 69t10.5 106v80q0 110 -40.5 157t-111.5 47t-111.5 -47t-40.5 -157
v-80q0 -63 10.5 -106t30 -69t47.5 -37.5t64 -11.5z" />
    <glyph glyph-name="uni041F" unicode="&#x41f;" horiz-adv-x="690" 
d="M87 700h516v-700h-119v599h-278v-599h-119v700z" />
    <glyph glyph-name="uni0420" unicode="&#x420;" horiz-adv-x="640" 
d="M87 700h246q133 0 199.5 -61.5t66.5 -166.5q0 -106 -66.5 -167.5t-199.5 -61.5h-127v-243h-119v700zM333 344q77 0 111.5 32.5t34.5 95.5q0 62 -34.5 94.5t-111.5 32.5h-127v-255h127z" />
    <glyph glyph-name="uni0421" unicode="&#x421;" horiz-adv-x="630" 
d="M330 -8q-63 0 -113.5 19.5t-85.5 60t-53.5 102.5t-18.5 147v80q0 153 72 230t199 77q117 0 181.5 -56.5t80.5 -164.5h-120q-14 60 -46.5 88.5t-95.5 28.5q-71 0 -111.5 -47t-40.5 -156v-80q0 -63 10.5 -106t30 -69.5t47.5 -38t64 -11.5q64 0 95.5 29.5t46.5 91.5h120
q-17 -115 -82 -170t-180 -55z" />
    <glyph glyph-name="uni0422" unicode="&#x422;" horiz-adv-x="570" 
d="M225 599h-209v101h539v-101h-210v-599h-120v599z" />
    <glyph glyph-name="uni0423" unicode="&#x423;" horiz-adv-x="620" 
d="M128 94q62 0 90 14.5t38 39.5l8 19l-250 533h129l178 -399l160 399h125l-230 -552q-19 -45 -39 -75t-48 -48t-67 -25.5t-94 -7.5v102z" />
    <glyph glyph-name="uni0424" unicode="&#x424;" horiz-adv-x="820" 
d="M350 53q-149 0 -221 71.5t-72 218.5v35q0 131 72 200t221 69v53h120v-53q149 0 221.5 -69t72.5 -200v-35q0 -147 -72.5 -218.5t-221.5 -71.5v-53h-120v53zM644 378q0 88 -40.5 127.5t-133.5 39.5v-390q46 0 79 10t54 32.5t31 58.5t10 87v35zM176 343q0 -51 10 -87
t31 -58.5t54 -32.5t79 -10v390q-93 0 -133.5 -39.5t-40.5 -127.5v-35z" />
    <glyph glyph-name="uni0425" unicode="&#x425;" horiz-adv-x="630" 
d="M243 367l-196 333h131l138 -237l140 237h128l-197 -330l217 -370h-133l-157 273l-159 -273h-128z" />
    <glyph glyph-name="uni0426" unicode="&#x426;" horiz-adv-x="710" 
d="M578 0h-491v700h119v-598h268v598h119v-598h96v-232h-111v130z" />
    <glyph glyph-name="uni0427" unicode="&#x427;" horiz-adv-x="630" 
d="M424 296q-19 -13 -61 -28.5t-97 -15.5q-109 0 -161.5 54.5t-52.5 171.5v222h119v-218q0 -34 5.5 -58t19 -39t36 -22t57.5 -7q48 0 82.5 13t52.5 30v301h119v-700h-119v296z" />
    <glyph glyph-name="uni0428" unicode="&#x428;" horiz-adv-x="950" 
d="M87 700h119v-598h209v598h120v-598h209v598h119v-700h-776v700z" />
    <glyph glyph-name="uni0429" unicode="&#x429;" horiz-adv-x="980" 
d="M848 0h-761v700h119v-598h209v598h120v-598h209v598h119v-599h96v-231h-111v130z" />
    <glyph glyph-name="uni042A" unicode="&#x42a;" horiz-adv-x="705" 
d="M152 599h-152v101h271v-263h127q66 0 116 -16t83.5 -44.5t50 -69t16.5 -89.5t-16.5 -89t-50 -68.5t-83.5 -44.5t-116 -16h-246v599zM398 102q77 0 111.5 31t34.5 85q0 55 -34.5 86.5t-111.5 31.5h-127v-234h127z" />
    <glyph glyph-name="uni042B" unicode="&#x42b;" horiz-adv-x="840" 
d="M87 700h119v-263h109q66 0 116 -16t83.5 -44.5t50 -69t16.5 -89.5t-16.5 -89t-50 -68.5t-83.5 -44.5t-116 -16h-228v700zM315 102q77 0 111.5 31t34.5 85q0 55 -34.5 86.5t-111.5 31.5h-109v-234h109zM634 700h119v-700h-119v700z" />
    <glyph glyph-name="uni042C" unicode="&#x42c;" horiz-adv-x="640" 
d="M87 700h119v-263h127q66 0 116 -16t83.5 -44.5t50 -69t16.5 -89.5t-16.5 -89t-50 -68.5t-83.5 -44.5t-116 -16h-246v700zM333 102q77 0 111.5 31t34.5 85q0 55 -34.5 86.5t-111.5 31.5h-127v-234h127z" />
    <glyph glyph-name="uni042D" unicode="&#x42d;" horiz-adv-x="630" 
d="M300 -8q-115 0 -180 55t-82 170h120q7 -31 18.5 -54t28 -38t40 -22t55.5 -7q34 0 61.5 10.5t47 35.5t30.5 65.5t12 99.5h-238v102h238q-1 53 -12 90t-30 60.5t-46 34t-60 10.5q-59 0 -91.5 -27.5t-46.5 -89.5h-117q32 221 255 221q62 0 112 -19.5t84.5 -58.5t53 -97.5
t18.5 -136.5v-72q0 -86 -18.5 -148.5t-53.5 -103.5t-85.5 -60.5t-113.5 -19.5z" />
    <glyph glyph-name="uni042E" unicode="&#x42e;" horiz-adv-x="870" 
d="M560 -8q-58 0 -104 17t-78 55t-50 98.5t-19 146.5h-103v-309h-119v702h119v-291h103q4 157 69.5 227t181.5 70q60 0 106.5 -18t78.5 -56.5t49 -98t17 -143.5v-64q0 -91 -17 -155t-49 -104t-78.5 -58.5t-106.5 -18.5zM560 96q31 0 55.5 10t41.5 35.5t26 70.5t9 116v64
q0 63 -9 104t-26 65t-41.5 33.5t-55.5 9.5t-55.5 -9.5t-41.5 -33.5t-26 -65t-9 -104v-64q0 -71 9 -116t26 -70.5t41.5 -35.5t55.5 -10z" />
    <glyph glyph-name="uni042F" unicode="&#x42f;" horiz-adv-x="650" 
d="M188 289q-65 25 -98 76t-33 120q0 48 16.5 87.5t48.5 68t79.5 44t110.5 15.5h251v-700h-119v268h-144l-140 -268h-128zM444 370v229h-132q-69 0 -102.5 -31t-33.5 -83q0 -54 33.5 -84.5t102.5 -30.5h132z" />
    <glyph glyph-name="uni0430" unicode="&#x430;" horiz-adv-x="510" 
d="M191 -6q-73 0 -114 40.5t-41 115.5q0 78 46 119.5t141 41.5h117v40q0 49 -21 70.5t-68 21.5t-66 -17t-21 -42h-102q1 35 12.5 63.5t34.5 48.5t58.5 31t85.5 11q103 0 149.5 -45.5t46.5 -141.5v-351h-99v86q-9 -18 -22 -34.5t-31.5 -29.5t-44.5 -20.5t-61 -7.5zM225 87
q54 0 84.5 30.5t30.5 87.5v24h-108q-49 0 -68.5 -18.5t-19.5 -54.5q0 -32 20 -50.5t61 -18.5z" />
    <glyph glyph-name="uni0431" unicode="&#x431;" horiz-adv-x="540" 
d="M270 -8q-51 0 -92.5 16.5t-71 51.5t-45 88.5t-15.5 127.5v67q0 77 7.5 144.5t31 118.5t67.5 82t117 35q40 2 69 4t51 5t39 8.5t34 13.5v-101q-10 -6 -23 -10.5t-33 -8t-49.5 -6t-71.5 -4.5q-39 -2 -65.5 -15.5t-43 -36t-24.5 -52.5t-11 -65q26 32 60.5 52.5t78.5 20.5
q48 0 87 -15.5t67.5 -44.5t44 -70t15.5 -92v-71q0 -118 -60.5 -180.5t-163.5 -62.5zM270 89q52 0 81.5 34t29.5 112v71q0 62 -29.5 93.5t-81.5 31.5t-81.5 -31.5t-29.5 -93.5v-71q0 -78 29.5 -112t81.5 -34z" />
    <glyph glyph-name="uni0432" unicode="&#x432;" horiz-adv-x="535" 
d="M67 530h204q105 0 152.5 -40.5t47.5 -104.5q0 -37 -22.5 -67t-54.5 -41q49 -13 73 -46.5t24 -80.5q0 -69 -48 -109.5t-152 -40.5h-224v530zM291 90q48 0 68 17.5t20 51.5q0 33 -20 50.5t-68 17.5h-116v-137h116zM271 313q48 0 68 16.5t20 47.5q0 29 -20 46t-68 17h-96
v-127h96z" />
    <glyph glyph-name="uni0433" unicode="&#x433;" horiz-adv-x="410" 
d="M67 530h332v-95h-220v-435h-112v530z" />
    <glyph glyph-name="uni0434" unicode="&#x434;" horiz-adv-x="590" 
d="M13 95h51q21 23 33.5 57t18.5 76t7.5 91t1.5 102v109h365v-435h66v-220h-104v125h-335v-125h-104v220zM377 95v340h-147v-52q0 -91 -9.5 -162t-40.5 -126h197z" />
    <glyph glyph-name="uni0435" unicode="&#x435;" horiz-adv-x="520" 
d="M265 -8q-50 0 -90 16t-69 47t-44.5 76t-15.5 104v71q0 112 57.5 172t156.5 60t156.5 -60t57.5 -174v-71h-315q1 -82 29 -115t77 -33q41 0 61.5 20t25.5 46h112q-14 -75 -63.5 -117t-135.5 -42zM262 445q-48 0 -74.5 -29t-28.5 -99h209q-2 70 -29 99t-77 29z" />
    <glyph glyph-name="uni0436" unicode="&#x436;" horiz-adv-x="750" 
d="M165 266l-137 264h126l107 -213h58v213h112v-213h58l111 213h122l-137 -255l152 -275h-129l-118 223h-59v-223h-112v223h-59l-123 -223h-124z" />
    <glyph glyph-name="uni0437" unicode="&#x437;" horiz-adv-x="490" 
d="M235 -8q-104 0 -155.5 45t-55.5 118h112q5 -34 27 -53t72 -19q54 0 76.5 19t22.5 53t-22.5 53t-76.5 19h-73v86h68q43 0 63.5 18t20.5 50t-19.5 49.5t-64.5 17.5q-38 0 -57.5 -17.5t-23.5 -49.5h-115q2 34 17.5 63t41.5 50t61 32.5t76 11.5q51 0 88 -11.5t61 -32
t35.5 -48t11.5 -59.5q0 -41 -22.5 -71t-54.5 -41q49 -13 73 -47t24 -79q0 -71 -51 -114t-160 -43z" />
    <glyph glyph-name="uni0438" unicode="&#x438;" horiz-adv-x="570" 
d="M67 530h103v-379l223 379h111v-530h-104v380l-223 -380h-110v530z" />
    <glyph glyph-name="uni0439" unicode="&#x439;" horiz-adv-x="570" 
d="M67 530h103v-379l223 379h111v-530h-104v380l-223 -380h-110v530zM285 578q-81 0 -117 35.5t-36 101.5h95q0 -38 14.5 -53.5t43.5 -15.5t43.5 15.5t14.5 53.5h96q0 -66 -36.5 -101.5t-117.5 -35.5z" />
    <glyph glyph-name="uni043A" unicode="&#x43a;" horiz-adv-x="535" 
d="M67 530h112v-213h53l150 213h123l-181 -254l198 -276h-130l-159 223h-54v-223h-112v530z" />
    <glyph glyph-name="uni043B" unicode="&#x43b;" horiz-adv-x="555" 
d="M21 98q57 8 78.5 63.5t21.5 155.5v213h368v-530h-113v435h-149v-118q0 -76 -11.5 -136t-36 -102t-64 -64.5t-94.5 -22.5v106z" />
    <glyph glyph-name="uni043C" unicode="&#x43c;" horiz-adv-x="680" 
d="M67 530h114l163 -307l161 307h109v-530h-104v360l-125 -240h-89l-126 240v-360h-103v530z" />
    <glyph glyph-name="uni043D" unicode="&#x43d;" horiz-adv-x="570" 
d="M67 530h112v-213h212v213h113v-530h-113v223h-212v-223h-112v530z" />
    <glyph glyph-name="uni043E" unicode="&#x43e;" horiz-adv-x="540" 
d="M270 -8q-103 0 -163.5 62.5t-60.5 180.5v71q0 54 15.5 97t45 73t71 46t92.5 16t92.5 -16t71 -46t45 -73t15.5 -97v-71q0 -118 -60.5 -180.5t-163.5 -62.5zM270 89q52 0 81.5 34t29.5 112v71q0 69 -29.5 102t-81.5 33t-81.5 -33t-29.5 -102v-71q0 -78 29.5 -112t81.5 -34z
" />
    <glyph glyph-name="uni043F" unicode="&#x43f;" horiz-adv-x="560" 
d="M67 530h427v-530h-113v435h-202v-435h-112v530z" />
    <glyph glyph-name="uni0440" unicode="&#x440;" horiz-adv-x="555" 
d="M67 530h102v-85q23 42 59 66.5t93 24.5q85 0 136.5 -57t51.5 -173v-71q0 -126 -51.5 -184.5t-136.5 -58.5q-51 0 -87 24t-55 62v-278h-112v730zM291 89q48 0 76.5 34t28.5 112v71q0 69 -28.5 101t-76.5 32q-52 0 -82 -32t-30 -101v-71q0 -78 30 -112t82 -34z" />
    <glyph glyph-name="uni0441" unicode="&#x441;" horiz-adv-x="510" 
d="M265 -8q-50 0 -90 16t-69 47t-44.5 76t-15.5 104v71q0 54 15.5 97t44.5 73t69 46t90 16q93 0 148 -48t61 -125h-114q-6 31 -28.5 53.5t-66.5 22.5q-48 0 -77 -33t-29 -102v-71q0 -78 29 -112t77 -34q44 0 66.5 23t28.5 53h114q-12 -81 -64 -127t-145 -46z" />
    <glyph glyph-name="uni0442" unicode="&#x442;" horiz-adv-x="460" 
d="M174 435h-163v95h438v-95h-163v-435h-112v435z" />
    <glyph glyph-name="uni0443" unicode="&#x443;" horiz-adv-x="530" 
d="M91 -105q52 0 80 20.5t48 76.5l-208 538h125l138 -396l125 396h120l-190 -538q-21 -60 -42 -97.5t-47.5 -58.5t-62 -28.5t-86.5 -7.5v95z" />
    <glyph glyph-name="uni0444" unicode="&#x444;" horiz-adv-x="710" 
d="M299 -8q-125 0 -189 63t-64 182v67q0 110 64 172t189 62v172h112v-172q124 0 188.5 -62t64.5 -175v-67q0 -117 -64.5 -179.5t-188.5 -62.5v-192h-112v192zM551 301q0 73 -34 106.5t-108 33.5v-352q74 0 108 34t34 111v67zM159 237q0 -80 32.5 -114t109.5 -34v352
q-76 0 -109 -32.5t-33 -104.5v-67z" />
    <glyph glyph-name="uni0445" unicode="&#x445;" horiz-adv-x="510" 
d="M186 274l-157 256h127l100 -170l103 170h122l-157 -252l173 -278h-127l-116 191l-118 -191h-123z" />
    <glyph glyph-name="uni0446" unicode="&#x446;" horiz-adv-x="580" 
d="M450 0h-383v530h112v-435h192v435h113v-435h70v-220h-104v125z" />
    <glyph glyph-name="uni0447" unicode="&#x447;" horiz-adv-x="505" 
d="M326 223q-17 -16 -47 -27.5t-68 -11.5q-88 0 -131 45t-43 144v157h113v-144q0 -58 21.5 -81.5t67.5 -23.5q35 0 57 14.5t30 29.5v205h113v-530h-113v223z" />
    <glyph glyph-name="uni0448" unicode="&#x448;" horiz-adv-x="780" 
d="M67 530h112v-435h155v435h112v-435h155v435h113v-530h-647v530z" />
    <glyph glyph-name="uni0449" unicode="&#x449;" horiz-adv-x="810" 
d="M680 0h-613v530h112v-435h155v435h112v-435h155v435h113v-435h70v-220h-104v125z" />
    <glyph glyph-name="uni044A" unicode="&#x44a;" horiz-adv-x="590" 
d="M142 435h-134v95h246v-191h103q109 0 158 -44.5t49 -125.5q0 -80 -49.5 -124.5t-157.5 -44.5h-215v435zM357 95q54 0 74 18t20 57q0 38 -20 56t-74 18h-103v-149h103z" />
    <glyph glyph-name="uni044B" unicode="&#x44b;" horiz-adv-x="690" 
d="M67 530h112v-191h64q109 0 158 -44.5t49 -125.5q0 -80 -49.5 -124.5t-157.5 -44.5h-176v530zM243 90q56 0 77.5 19t21.5 61t-21 60.5t-78 18.5h-64v-159h64zM511 530h113v-530h-113v530z" />
    <glyph glyph-name="uni044C" unicode="&#x44c;" horiz-adv-x="515" 
d="M67 530h112v-191h103q109 0 158 -44.5t49 -125.5q0 -80 -49.5 -124.5t-157.5 -44.5h-215v530zM282 95q54 0 74 18t20 57q0 38 -20 56t-74 18h-103v-149h103z" />
    <glyph glyph-name="uni044D" unicode="&#x44d;" horiz-adv-x="515" 
d="M245 -8q-93 0 -143.5 45t-62.5 119h110q8 -29 29 -49t67 -20q49 0 78.5 31.5t31.5 103.5h-174v91h175q-2 68 -31 99t-77 31q-45 0 -66 -20t-29 -49h-107q3 35 18 65t41 52t62 34.5t81 12.5q101 0 161 -61.5t60 -172.5v-67q0 -119 -60.5 -182t-163.5 -63z" />
    <glyph glyph-name="uni044E" unicode="&#x44e;" horiz-adv-x="725" 
d="M465 -8q-97 0 -151.5 57t-57.5 174h-77v-223h-112v530h112v-213h77q4 109 58.5 165t150.5 56q100 0 157 -59.5t57 -172.5v-71q0 -121 -57 -182t-157 -61zM465 89q48 0 74.5 32.5t26.5 113.5v71q0 73 -26.5 104t-74.5 31t-74.5 -31t-26.5 -104v-71q0 -81 26.5 -113.5
t74.5 -32.5z" />
    <glyph glyph-name="uni044F" unicode="&#x44f;" horiz-adv-x="540" 
d="M162 208q-55 18 -80 57t-25 96q0 80 49.5 124.5t157.5 44.5h210v-530h-113v193h-92l-112 -193h-120zM360 286v149h-97q-54 0 -74.5 -18t-20.5 -57q0 -38 20.5 -56t74.5 -18h97z" />
    <glyph glyph-name="uni0451" unicode="&#x451;" horiz-adv-x="520" 
d="M265 -8q-50 0 -90 16t-69 47t-44.5 76t-15.5 104v71q0 112 57.5 172t156.5 60t156.5 -60t57.5 -174v-71h-315q1 -82 29 -115t77 -33q41 0 61.5 20t25.5 46h112q-14 -75 -63.5 -117t-135.5 -42zM262 445q-48 0 -74.5 -29t-28.5 -99h209q-2 70 -29 99t-77 29zM163 579
q-29 0 -49.5 21t-20.5 50t20.5 50t49.5 21t50 -21t21 -50t-21 -50t-50 -21zM357 579q-29 0 -50 21t-21 50t21 50t50 21t50 -21t21 -50t-21 -50t-50 -21z" />
    <glyph glyph-name="uni0452" unicode="&#x452;" horiz-adv-x="565" 
d="M311 -105q22 0 37.5 4.5t25 16.5t13.5 32t4 52v271q0 63 -25.5 91.5t-70.5 28.5q-46 0 -76 -32t-30 -88v-271h-112v551h-92v78h92v71h112v-71h165v-78h-165v-144q18 32 53 56.5t89 24.5q80 0 126.5 -50t46.5 -153v-285q0 -59 -9 -97.5t-31.5 -61.5t-59.5 -32t-93 -9v95z
" />
    <glyph glyph-name="uni0453" unicode="&#x453;" horiz-adv-x="410" 
d="M67 530h332v-95h-220v-435h-112v530zM284 730h121l-125 -160h-93z" />
    <glyph glyph-name="uni0454" unicode="&#x454;" horiz-adv-x="515" 
d="M270 -8q-103 0 -163.5 63t-60.5 182v67q0 55 15.5 98.5t45 73.5t71 46t92.5 16q46 0 83 -12.5t63.5 -34.5t41.5 -52t18 -65h-109q-8 29 -29.5 49t-67.5 20q-50 0 -79.5 -31t-31.5 -99h175v-91h-174q2 -72 31.5 -103.5t78.5 -31.5q46 0 67 20t29 49h110
q-12 -74 -62.5 -119t-143.5 -45z" />
    <glyph glyph-name="uni0455" unicode="&#x455;" horiz-adv-x="500" 
d="M250 -8q-54 0 -92.5 12t-64 33t-38 50t-14.5 64h112q4 -30 24 -48t73 -18q56 0 77.5 17t21.5 44q0 13 -3.5 24t-15 20t-33.5 17t-59 15q-95 19 -139.5 55t-44.5 105t48 112.5t148 43.5q99 0 145.5 -43.5t50.5 -112.5h-111q-4 30 -21.5 46.5t-63.5 16.5q-48 0 -67 -15.5
t-19 -43.5q0 -12 4 -22.5t15 -19t31.5 -15.5t52.5 -13q52 -9 88.5 -22.5t59.5 -33t33.5 -46.5t10.5 -63q0 -70 -50.5 -114.5t-158.5 -44.5z" />
    <glyph glyph-name="uni0456" unicode="&#x456;" horiz-adv-x="280" 
d="M84 530h112v-530h-112v530zM140 579q-29 0 -50 21t-21 50t21 50t50 21t50 -21t21 -50t-21 -50t-50 -21z" />
    <glyph glyph-name="uni0457" unicode="&#x457;" horiz-adv-x="280" 
d="M84 530h112v-530h-112v530zM44 579q-29 0 -49.5 21t-20.5 50t20.5 50t49.5 21t50 -21t21 -50t-21 -50t-50 -21zM238 579q-29 0 -50 21t-21 50t21 50t50 21t50 -21t21 -50t-21 -50t-50 -21z" />
    <glyph glyph-name="uni0458" unicode="&#x458;" horiz-adv-x="280" 
d="M4 -105q22 0 37.5 4.5t25 16.5t13.5 32t4 52v530h112v-530q0 -59 -9 -97.5t-31 -61.5t-59 -32t-93 -9v95zM140 579q-29 0 -50 21t-21 50t21 50t50 21t50 -21t21 -50t-21 -50t-50 -21z" />
    <glyph glyph-name="uni0459" unicode="&#x459;" horiz-adv-x="810" 
d="M21 98q57 8 78.5 63.5t21.5 155.5v213h365v-191h91q109 0 158 -44.5t49 -125.5q0 -80 -49.5 -124.5t-157.5 -44.5h-204v435h-146v-118q0 -76 -11.5 -136t-36 -102t-64 -64.5t-94.5 -22.5v106zM577 95q54 0 74 18t20 57q0 38 -20 56t-74 18h-91v-149h91z" />
    <glyph glyph-name="uni045A" unicode="&#x45a;" horiz-adv-x="825" 
d="M67 530h112v-199h206v199h113v-199h94q108 0 157.5 -44.5t49.5 -121.5t-49.5 -121t-157.5 -44h-207v236h-206v-236h-112v530zM592 95q54 0 74 17.5t20 52.5q0 36 -20 53.5t-74 17.5h-94v-141h94z" />
    <glyph glyph-name="uni045B" unicode="&#x45b;" horiz-adv-x="565" 
d="M77 551h-92v78h92v71h112v-71h165v-78h-165v-144q18 32 53 56.5t89 24.5q80 0 126.5 -50t46.5 -153v-285h-113v271q0 63 -25.5 91.5t-70.5 28.5q-46 0 -76 -32t-30 -88v-271h-112v551z" />
    <glyph glyph-name="uni045C" unicode="&#x45c;" horiz-adv-x="535" 
d="M67 530h112v-213h53l150 213h123l-181 -254l198 -276h-130l-159 223h-54v-223h-112v530zM332 730h121l-125 -160h-93z" />
    <glyph glyph-name="uni045E" unicode="&#x45e;" horiz-adv-x="530" 
d="M91 -105q52 0 80 20.5t48 76.5l-208 538h125l138 -396l125 396h120l-190 -538q-21 -60 -42 -97.5t-47.5 -58.5t-62 -28.5t-86.5 -7.5v95zM265 578q-81 0 -117 35.5t-36 101.5h95q0 -38 14.5 -53.5t43.5 -15.5t43.5 15.5t14.5 53.5h96q0 -66 -36.5 -101.5t-117.5 -35.5z
" />
    <glyph glyph-name="uni045F" unicode="&#x45f;" horiz-adv-x="560" 
d="M228 0h-161v530h112v-435h202v435h113v-530h-162v-125h-104v125z" />
    <glyph glyph-name="uni0490" unicode="&#x490;" horiz-adv-x="530" 
d="M87 700h320v130h110v-231h-311v-599h-119v700z" />
    <glyph glyph-name="uni0491" unicode="&#x491;" horiz-adv-x="410" 
d="M67 530h228v125h104v-220h-220v-435h-112v530z" />
    <glyph glyph-name="uni0492" unicode="&#x492;" horiz-adv-x="530" 
d="M87 700h430v-101h-311v-188h169v-102h-169v-309h-119v309h-87v102h87v289z" />
    <glyph glyph-name="uni0493" unicode="&#x493;" horiz-adv-x="410" 
d="M0 317h67v213h332v-95h-220v-118h97v-94h-97v-223h-112v223h-67v94z" />
    <glyph glyph-name="uni0494" unicode="&#x494;" horiz-adv-x="631" 
d="M87 700h430v-101h-311v-205q22 14 61.5 29t105.5 15q97 0 148.5 -51.5t51.5 -151.5v-248q0 -95 -47 -140.5t-152 -45.5h-37v95h24q54 0 76.5 23t22.5 77v225q0 120 -123 120q-26 0 -48.5 -6.5t-40 -15t-28.5 -17t-14 -11.5v-291h-119v700z" />
    <glyph glyph-name="uni0495" unicode="&#x495;" horiz-adv-x="510" 
d="M67 530h332v-95h-220v-128q17 16 47 27.5t68 11.5q88 0 131 -44.5t43 -144.5v-157q0 -59 -9 -97.5t-31.5 -61.5t-59.5 -32t-93 -9v95q22 0 37.5 4.5t25 16.5t13.5 32t4 52v144q0 58 -21.5 81.5t-67.5 23.5q-35 0 -57 -14.5t-30 -29.5v-205h-112v530z" />
    <glyph glyph-name="uni0496" unicode="&#x496;" horiz-adv-x="940" 
d="M227 355l-169 345h140l128 -291h84v291h120v-291h84l136 291h132l-169 -338l132 -260h85v-232h-111v130h-62l-143 307h-84v-307h-120v307h-84l-146 -307h-132z" />
    <glyph glyph-name="uni0497" unicode="&#x497;" horiz-adv-x="750" 
d="M165 266l-137 264h126l107 -213h58v213h112v-213h58l111 213h122l-137 -255l96 -180h63v-220h-104v125h-37l-113 223h-59v-223h-112v223h-59l-123 -223h-124z" />
    <glyph glyph-name="uni0498" unicode="&#x498;" horiz-adv-x="605" 
d="M250 -6q-86 9 -137 54q-65 57 -76 154h119q8 -50 41 -78t99 -28q76 0 108.5 28t32.5 78q0 51 -32.5 79t-108.5 28h-87v102h87q60 0 89.5 26.5t29.5 69.5q0 45 -29.5 72t-89.5 27q-61 0 -93.5 -26t-36.5 -72h-115q4 44 22 81t49 64t74.5 42t99.5 15q58 0 102.5 -14.5
t74.5 -40.5t45.5 -61.5t15.5 -77.5q0 -54 -28 -91.5t-73 -57.5q57 -17 90.5 -58t33.5 -111q0 -46 -16 -84t-48 -65t-82 -42q-24 -7 -51 -11v-126h-110v124z" />
    <glyph glyph-name="uni0499" unicode="&#x499;" horiz-adv-x="490" 
d="M188 -5q-70 8 -109 42q-51 45 -55 118h112q5 -34 27 -53t72 -19q54 0 76.5 19t22.5 53t-22.5 53t-76.5 19h-73v86h68q43 0 63.5 18t20.5 50t-19.5 49.5t-64.5 17.5q-38 0 -57.5 -17.5t-23.5 -49.5h-115q2 34 17.5 63t41.5 50t61 32.5t76 11.5q51 0 88 -11.5t61 -32
t35.5 -48t11.5 -59.5q0 -41 -22.5 -71t-54.5 -41q49 -13 73 -47t24 -79q0 -71 -51 -114q-37 -31 -103 -40v-120h-104v120z" />
    <glyph glyph-name="uni049A" unicode="&#x49a;" horiz-adv-x="660" 
d="M87 700h119v-293h84l195 293h135l-231 -337l180 -261h76v-232h-111v130h-37l-207 306h-84v-306h-119v700z" />
    <glyph glyph-name="uni049B" unicode="&#x49b;" horiz-adv-x="535" 
d="M67 530h112v-213h53l150 213h123l-181 -254l130 -181h65v-91l3 -4h-3v-125h-104v125h-23l-159 223h-54v-223h-112v530z" />
    <glyph glyph-name="uni049C" unicode="&#x49c;" horiz-adv-x="700" 
d="M87 700h119v-293h45v110h85v-110h14l175 293h135l-213 -337l233 -363h-143l-187 306h-14v-111h-85v111h-45v-306h-119v700z" />
    <glyph glyph-name="uni049D" unicode="&#x49d;" horiz-adv-x="575" 
d="M67 530h112v-213h33v96h75v-96h14l121 213h123l-162 -254l179 -276h-130l-130 223h-15v-93h-75v93h-33v-223h-112v530z" />
    <glyph glyph-name="uni04A0" unicode="&#x4a0;" horiz-adv-x="724" 
d="M0 700h271l-1 -1v-292h84l195 293h135l-231 -337l251 -363h-143l-207 306h-84v-306h-119v599h-151v101z" />
    <glyph glyph-name="uni04A1" unicode="&#x4a1;" horiz-adv-x="610" 
d="M142 435h-134v95h246v-213h53l150 213h123l-181 -254l198 -276h-130l-159 223h-54v-223h-112v435z" />
    <glyph glyph-name="uni04A2" unicode="&#x4a2;" horiz-adv-x="720" 
d="M87 700h119v-289h288v289h119v-598h86v-232h-111v130h-94v309h-288v-309h-119v700z" />
    <glyph glyph-name="uni04A3" unicode="&#x4a3;" horiz-adv-x="595" 
d="M67 530h112v-213h212v213h113v-435h65v-220h-104v125h-74v223h-212v-223h-112v530z" />
    <glyph glyph-name="uni04A4" unicode="&#x4a4;" horiz-adv-x="940" 
d="M494 700h430v-101h-311v-599h-119v309h-288v-309h-119v700h119v-289h288v289z" />
    <glyph glyph-name="uni04A5" unicode="&#x4a5;" horiz-adv-x="740" 
d="M391 530h334v-95h-220v-435h-114v223h-212v-223h-112v530h112v-213h212v213z" />
    <glyph glyph-name="uni04AA" unicode="&#x4aa;" horiz-adv-x="630" 
d="M280 -4q-34 4 -64 15q-50 20 -85 60.5t-53.5 102.5t-18.5 147v80q0 153 72 230t199 77q117 0 181.5 -56.5t80.5 -164.5h-120q-14 60 -46.5 88.5t-95.5 28.5q-71 0 -111.5 -47t-40.5 -156v-80q0 -63 10.5 -106t30 -69.5t47.5 -38t64 -11.5q64 0 95.5 29.5t46.5 91.5h120
q-17 -115 -82 -170q-47 -40 -120 -51v-126h-110v126z" />
    <glyph glyph-name="uni04AB" unicode="&#x4ab;" horiz-adv-x="510" 
d="M211 -2q-19 3 -36 10q-40 16 -69 47t-44.5 76t-15.5 104v71q0 54 15.5 97t44.5 73t69 46t90 16q93 0 148 -48t61 -125h-114q-6 31 -28.5 53.5t-66.5 22.5q-48 0 -77 -33t-29 -102v-71q0 -78 29 -112t77 -34q44 0 66.5 23t28.5 53h114q-12 -81 -64 -127q-37 -33 -95 -42
v-121h-104v123z" />
    <glyph glyph-name="uni04AE" unicode="&#x4ae;" horiz-adv-x="610" 
d="M255 291l-241 409h135l165 -284l152 284h130l-221 -409v-291h-120v291z" />
    <glyph glyph-name="uni04AF" unicode="&#x4af;" horiz-adv-x="530" 
d="M136 530l138 -378l125 378h120l-189 -518v-212h-112v212l-207 518h125z" />
    <glyph glyph-name="uni04B0" unicode="&#x4b0;" horiz-adv-x="610" 
d="M507 301v-102h-132v-199h-120v199h-133v102h127l-235 399h135l165 -284l152 284h130l-216 -399h127z" />
    <glyph glyph-name="uni04B1" unicode="&#x4b1;" horiz-adv-x="530" 
d="M447 94v-94h-117v-200h-112v200h-112v94h84l-179 436h125l138 -378l125 378h120l-164 -436h92z" />
    <glyph glyph-name="uni04B2" unicode="&#x4b2;" horiz-adv-x="630" 
d="M243 367l-196 333h131l138 -237l140 237h128l-197 -330l157 -268h76v-232h-111v130h-38l-157 273l-159 -273h-128z" />
    <glyph glyph-name="uni04B3" unicode="&#x4b3;" horiz-adv-x="510" 
d="M186 274l-157 256h127l100 -170l103 170h122l-157 -252l114 -183h65v-220h-104v125h-29l-116 191l-118 -191h-123z" />
    <glyph glyph-name="uni04B6" unicode="&#x4b6;" horiz-adv-x="650" 
d="M424 296q-19 -13 -61 -28.5t-97 -15.5q-109 0 -161.5 54.5t-52.5 171.5v222h119v-218q0 -34 5.5 -58t19 -39t36 -22t57.5 -7q48 0 82.5 13t52.5 30v301h119v-598h86v-232h-111v130h-94v296z" />
    <glyph glyph-name="uni04B7" unicode="&#x4b7;" horiz-adv-x="530" 
d="M326 223q-17 -16 -47 -27.5t-68 -11.5q-88 0 -131 45t-43 144v157h113v-144q0 -58 21.5 -81.5t67.5 -23.5q35 0 57 14.5t30 29.5v205h113v-435h65v-220h-104v125h-74v223z" />
    <glyph glyph-name="uni04B8" unicode="&#x4b8;" horiz-adv-x="630" 
d="M424 296q-12 -8 -33 -17.5t-50 -17.5v-101h-85v92q-104 2 -154 56.5t-50 169.5v222h119v-218q0 -59 17.5 -88.5t67.5 -36.5v135h85v-131q28 5 49 15.5t34 22.5v301h119v-700h-119v296z" />
    <glyph glyph-name="uni04B9" unicode="&#x4b9;" horiz-adv-x="505" 
d="M326 223q-10 -8 -22.5 -15.5t-28.5 -12.5v-80h-75v71q-83 2 -125 46.5t-42 140.5v157h113v-144q0 -45 12.5 -69t41.5 -32v103h75v-101q18 7 31.5 17.5t19.5 18.5v207h113v-530h-113v223z" />
    <glyph glyph-name="uni04BA" unicode="&#x4ba;" horiz-adv-x="631" 
d="M206 417q19 13 61 28.5t97 15.5q109 0 161.5 -54.5t52.5 -171.5v-235h-119v231q0 34 -5.5 58t-19 39t-36 22t-57.5 7q-48 0 -82.5 -13t-52.5 -30v-314h-119v700h119v-283z" />
    <glyph glyph-name="uni04BB" unicode="&#x4bb;" horiz-adv-x="555" 
d="M67 700h112v-243q18 32 53 56.5t89 24.5q80 0 126.5 -50t46.5 -153v-335h-113v321q0 63 -25.5 91.5t-70.5 28.5q-46 0 -76 -32t-30 -88v-321h-112v700z" />
    <glyph glyph-name="uni04C0" unicode="&#x4c0;" horiz-adv-x="310" 
d="M95 700h120v-700h-120v700z" />
    <glyph glyph-name="uni04C3" unicode="&#x4c3;" horiz-adv-x="650" 
d="M87 700h119v-293h84l195 293h135l-206 -301q37 -6 69.5 -21.5t57 -40.5t38.5 -59.5t14 -77.5v-213q0 -95 -47 -140.5t-152 -45.5h-37v95h24q54 0 76.5 23t22.5 77v181q0 31 -11.5 55t-31.5 40.5t-46.5 25t-57.5 8.5h-127v-306h-119v700z" />
    <glyph glyph-name="uni04C4" unicode="&#x4c4;" horiz-adv-x="536" 
d="M495 0q0 -59 -10 -97.5t-33 -61.5t-61 -32t-95 -9v95q24 0 40.5 4.5t26.5 16.5t14.5 32t4.5 52v106q0 57 -32.5 87t-80.5 30h-90v-223h-112v530h112v-213h53l151 213h123l-158 -220q22 -3 48 -14t48 -32t36.5 -54.5t14.5 -81.5v-128v0z" />
    <glyph glyph-name="uni04C7" unicode="&#x4c7;" horiz-adv-x="700" 
d="M87 700h119v-289h288v289h119v-700q-1 -59 -10 -97.5t-31 -61.5t-61.5 -32t-95.5 -9v100q22 0 37.5 4.5t25 16.5t13.5 32t4 47h-1v309h-288v-309h-119v700z" />
    <glyph glyph-name="uni04C8" unicode="&#x4c8;" horiz-adv-x="570" 
d="M67 530h112v-213h212v213h113v-530q-1 -59 -10 -97.5t-31 -61.5t-59 -32t-93 -9v95q22 0 37.5 4.5t25 16.5t13.5 32t4 52v223h-212v-223h-112v530z" />
    <glyph glyph-name="uni04CB" unicode="&#x4cb;" horiz-adv-x="630" 
d="M449 -130h-111v232h86v194q-19 -13 -61 -28.5t-97 -15.5q-109 0 -161.5 54.5t-52.5 171.5v222h119v-218q0 -34 5.5 -58t19 -39t36 -22t57.5 -7q48 0 82.5 13t52.5 30v301h119v-700h-94v-130z" />
    <glyph glyph-name="uni04CC" unicode="&#x4cc;" horiz-adv-x="505" 
d="M365 -125h-104v220h65v128q-17 -16 -47 -27.5t-68 -11.5q-88 0 -131 44.5t-43 144.5v157h113v-144q0 -58 21.5 -81.5t67.5 -23.5q35 0 57 14.5t30 29.5v205h113v-530h-74v-125z" />
    <glyph glyph-name="uni04CF" unicode="&#x4cf;" horiz-adv-x="257" 
d="M72 0v700h113v-700h-113z" />
    <glyph glyph-name="uni04D0" unicode="&#x4d0;" horiz-adv-x="650" 
d="M263 700h125l248 -700h-128l-55 156h-260l-55 -156h-124zM418 257l-95 294l-96 -294h191zM325 742q-100 0 -144.5 40.5t-44.5 117.5h112q0 -42 17.5 -60.5t59.5 -18.5t60 18.5t18 60.5h111q0 -77 -44.5 -117.5t-144.5 -40.5z" />
    <glyph glyph-name="uni04D1" unicode="&#x4d1;" horiz-adv-x="510" 
d="M191 -6q-73 0 -114 40.5t-41 115.5q0 78 46 119.5t141 41.5h117v40q0 49 -21 70.5t-68 21.5t-66 -17t-21 -42h-102q1 35 12.5 63.5t34.5 48.5t58.5 31t85.5 11q103 0 149.5 -45.5t46.5 -141.5v-351h-99v86q-9 -18 -22 -34.5t-31.5 -29.5t-44.5 -20.5t-61 -7.5zM225 87
q54 0 84.5 30.5t30.5 87.5v24h-108q-49 0 -68.5 -18.5t-19.5 -54.5q0 -32 20 -50.5t61 -18.5zM254 578q-81 0 -117 35.5t-36 101.5h95q0 -38 14.5 -53.5t43.5 -15.5t43.5 15.5t14.5 53.5h96q0 -66 -36.5 -101.5t-117.5 -35.5z" />
    <glyph glyph-name="uni04D2" unicode="&#x4d2;" horiz-adv-x="650" 
d="M263 700h125l248 -700h-128l-55 156h-260l-55 -156h-124zM418 257l-95 294l-96 -294h191zM215 754q-29 0 -50 21t-21 50t21 50t50 21t50 -21t21 -50t-21 -50t-50 -21zM435 754q-29 0 -50 21t-21 50t21 50t50 21t50 -21t21 -50t-21 -50t-50 -21z" />
    <glyph glyph-name="uni04D3" unicode="&#x4d3;" horiz-adv-x="510" 
d="M191 -6q-73 0 -114 40.5t-41 115.5q0 78 46 119.5t141 41.5h117v40q0 49 -21 70.5t-68 21.5t-66 -17t-21 -42h-102q1 35 12.5 63.5t34.5 48.5t58.5 31t85.5 11q103 0 149.5 -45.5t46.5 -141.5v-351h-99v86q-9 -18 -22 -34.5t-31.5 -29.5t-44.5 -20.5t-61 -7.5zM225 87
q54 0 84.5 30.5t30.5 87.5v24h-108q-49 0 -68.5 -18.5t-19.5 -54.5q0 -32 20 -50.5t61 -18.5zM158 579q-29 0 -49.5 21t-20.5 50t20.5 50t49.5 21t50 -21t21 -50t-21 -50t-50 -21zM352 579q-29 0 -50 21t-21 50t21 50t50 21t50 -21t21 -50t-21 -50t-50 -21z" />
    <glyph glyph-name="uni04D4" unicode="&#x4d4;" horiz-adv-x="920" 
d="M419 700h456v-101h-315v-188h280v-102h-280v-207h315v-102h-434v156h-214l-90 -156h-130zM441 257v282l-158 -282h158z" />
    <glyph glyph-name="uni04D5" unicode="&#x4d5;" horiz-adv-x="800" 
d="M203 -8q-79 0 -123 40.5t-44 117.5q0 78 46 119.5t140 41.5h115v40q0 49 -21 70.5t-67 21.5t-64.5 -17t-20.5 -42h-102q3 70 46.5 112t142.5 42q57 0 93 -15t59 -49q25 34 62 49t83 15q93 0 149.5 -60.5t56.5 -175.5v-73h-309q2 -80 29.5 -112t74.5 -32q38 0 58.5 20
t25.5 46h112q-14 -75 -63.5 -117t-132.5 -42q-57 0 -102 23.5t-72 68.5q-26 -42 -68 -67t-104 -25zM223 87q51 0 82.5 30.5t31.5 87.5v24h-106q-48 0 -67.5 -18.5t-19.5 -54.5q0 -32 20 -50.5t59 -18.5zM546 445q-46 0 -72.5 -29.5t-28.5 -104.5h203q-2 75 -28 104.5
t-74 29.5z" />
    <glyph glyph-name="uni04D6" unicode="&#x4d6;" horiz-adv-x="575" 
d="M87 700h443v-101h-324v-188h289v-102h-289v-207h324v-102h-443v700zM317 742q-100 0 -144.5 40.5t-44.5 117.5h112q0 -42 17.5 -60.5t59.5 -18.5t60 18.5t18 60.5h111q0 -77 -44.5 -117.5t-144.5 -40.5z" />
    <glyph glyph-name="uni04D7" unicode="&#x4d7;" horiz-adv-x="520" 
d="M265 -8q-50 0 -90 16t-69 47t-44.5 76t-15.5 104v71q0 112 57.5 172t156.5 60t156.5 -60t57.5 -174v-71h-315q1 -82 29 -115t77 -33q41 0 61.5 20t25.5 46h112q-14 -75 -63.5 -117t-135.5 -42zM262 445q-48 0 -74.5 -29t-28.5 -99h209q-2 70 -29 99t-77 29zM260 578
q-81 0 -117 35.5t-36 101.5h95q0 -38 14.5 -53.5t43.5 -15.5t43.5 15.5t14.5 53.5h96q0 -66 -36.5 -101.5t-117.5 -35.5z" />
    <glyph glyph-name="uni04D8" unicode="&#x4d8;" horiz-adv-x="660" 
d="M441 557q-41 47 -111 47q-57 0 -97 -31.5t-55 -85.5h-114q20 108 91 164.5t175 56.5q127 0 199 -77t72 -231v-80q0 -85 -18.5 -146.5t-53.5 -102t-85.5 -60t-113.5 -19.5q-77 0 -128.5 27.5t-83.5 73.5t-45.5 105t-13.5 122v80h423q0 110 -41 157zM188 214
q17 -65 52.5 -91.5t89.5 -26.5t90 26.5t51 91.5q10 37 11 84h-304q1 -25 3.5 -46t6.5 -38z" />
    <glyph glyph-name="uni04D9" unicode="&#x4d9;" horiz-adv-x="520" 
d="M381 294v12q0 69 -29.5 102t-81.5 33t-82 -33q-9 -11 -16 -25h-117l6 20q16 43 45.5 73t71 46t92.5 16t92.5 -16t71 -46t45 -73t15.5 -97v-71q0 -118 -60.5 -180.5t-163.5 -62.5t-163.5 62.5t-60.5 180.5v59h335zM380 204h-220q5 -54 28 -81q30 -34 82 -34t81 34
q24 27 29 81z" />
    <glyph glyph-name="uni04DA" unicode="&#x4da;" horiz-adv-x="660" 
d="M441 557q-41 47 -111 47q-57 0 -97 -31.5t-55 -85.5h-114q20 108 91 164.5t175 56.5q127 0 199 -77t72 -231v-80q0 -85 -18.5 -146.5t-53.5 -102t-85.5 -60t-113.5 -19.5q-77 0 -128.5 27.5t-83.5 73.5t-45.5 105t-13.5 122v80h423q0 110 -41 157zM188 214
q17 -65 52.5 -91.5t89.5 -26.5t90 26.5t51 91.5q10 37 11 84h-304q1 -25 3.5 -46t6.5 -38zM220 754q-29 0 -50 21t-21 50t21 50t50 21t50 -21t21 -50t-21 -50t-50 -21zM440 754q-29 0 -50 21t-21 50t21 50t50 21t50 -21t21 -50t-21 -50t-50 -21z" />
    <glyph glyph-name="uni04DB" unicode="&#x4db;" horiz-adv-x="520" 
d="M381 294v12q0 69 -29.5 102t-81.5 33t-82 -33q-9 -11 -16 -25h-117l6 20q16 43 45.5 73t71 46t92.5 16t92.5 -16t71 -46t45 -73t15.5 -97v-71q0 -118 -60.5 -180.5t-163.5 -62.5t-163.5 62.5t-60.5 180.5v59h335zM380 204h-220q5 -54 28 -81q30 -34 82 -34t81 34
q24 27 29 81zM163 579q-29 0 -49.5 21t-20.5 50t20.5 50t49.5 21t50 -21t21 -50t-21 -50t-50 -21zM357 579q-29 0 -50 21t-21 50t21 50t50 21t50 -21t21 -50t-21 -50t-50 -21z" />
    <glyph glyph-name="uni04DC" unicode="&#x4dc;" horiz-adv-x="940" 
d="M227 355l-169 345h140l128 -291h84v291h120v-291h84l136 291h132l-169 -338l189 -362h-140l-148 307h-84v-307h-120v307h-84l-146 -307h-132zM360 754q-29 0 -50 21t-21 50t21 50t50 21t50 -21t21 -50t-21 -50t-50 -21zM580 754q-29 0 -50 21t-21 50t21 50t50 21t50 -21
t21 -50t-21 -50t-50 -21z" />
    <glyph glyph-name="uni04DD" unicode="&#x4dd;" horiz-adv-x="750" 
d="M165 266l-137 264h126l107 -213h58v213h112v-213h58l111 213h122l-137 -255l152 -275h-129l-118 223h-59v-223h-112v223h-59l-123 -223h-124zM278 579q-29 0 -49.5 21t-20.5 50t20.5 50t49.5 21t50 -21t21 -50t-21 -50t-50 -21zM472 579q-29 0 -50 21t-21 50t21 50t50 21
t50 -21t21 -50t-21 -50t-50 -21z" />
    <glyph glyph-name="uni04DE" unicode="&#x4de;" horiz-adv-x="605" 
d="M296 -8q-118 0 -183 56.5t-76 153.5h119q8 -50 41 -78t99 -28q76 0 108.5 28t32.5 78q0 51 -32.5 79t-108.5 28h-87v102h87q60 0 89.5 26.5t29.5 69.5q0 45 -29.5 72t-89.5 27q-61 0 -93.5 -26t-36.5 -72h-115q4 44 22 81t49 64t74.5 42t99.5 15q58 0 102.5 -14.5
t74.5 -40.5t45.5 -61.5t15.5 -77.5q0 -54 -28 -91.5t-73 -57.5q57 -17 90.5 -58t33.5 -111q0 -46 -16 -84t-48 -65t-81.5 -42t-115.5 -15zM190 754q-29 0 -50 21t-21 50t21 50t50 21t50 -21t21 -50t-21 -50t-50 -21zM410 754q-29 0 -50 21t-21 50t21 50t50 21t50 -21t21 -50
t-21 -50t-50 -21z" />
    <glyph glyph-name="uni04DF" unicode="&#x4df;" horiz-adv-x="490" 
d="M235 -8q-104 0 -155.5 45t-55.5 118h112q5 -34 27 -53t72 -19q54 0 76.5 19t22.5 53t-22.5 53t-76.5 19h-73v86h68q43 0 63.5 18t20.5 50t-19.5 49.5t-64.5 17.5q-38 0 -57.5 -17.5t-23.5 -49.5h-115q2 34 17.5 63t41.5 50t61 32.5t76 11.5q51 0 88 -11.5t61 -32
t35.5 -48t11.5 -59.5q0 -41 -22.5 -71t-54.5 -41q49 -13 73 -47t24 -79q0 -71 -51 -114t-160 -43zM144 579q-29 0 -49.5 21t-20.5 50t20.5 50t49.5 21t50 -21t21 -50t-21 -50t-50 -21zM338 579q-29 0 -50 21t-21 50t21 50t50 21t50 -21t21 -50t-21 -50t-50 -21z" />
    <glyph glyph-name="uni04E2" unicode="&#x4e2;" horiz-adv-x="710" 
d="M87 700h119v-504l296 504h121v-700h-119v504l-298 -504h-119v700zM196 874h318v-97h-318v97z" />
    <glyph glyph-name="uni04E3" unicode="&#x4e3;" horiz-adv-x="570" 
d="M67 530h103v-379l223 379h111v-530h-104v380l-223 -380h-110v530zM146 695h289v-90h-289v90z" />
    <glyph glyph-name="uni04E4" unicode="&#x4e4;" horiz-adv-x="710" 
d="M87 700h119v-504l296 504h121v-700h-119v504l-298 -504h-119v700zM245 754q-29 0 -50 21t-21 50t21 50t50 21t50 -21t21 -50t-21 -50t-50 -21zM465 754q-29 0 -50 21t-21 50t21 50t50 21t50 -21t21 -50t-21 -50t-50 -21z" />
    <glyph glyph-name="uni04E5" unicode="&#x4e5;" horiz-adv-x="570" 
d="M67 530h103v-379l223 379h111v-530h-104v380l-223 -380h-110v530zM188 579q-29 0 -49.5 21t-20.5 50t20.5 50t49.5 21t50 -21t21 -50t-21 -50t-50 -21zM382 579q-29 0 -50 21t-21 50t21 50t50 21t50 -21t21 -50t-21 -50t-50 -21z" />
    <glyph glyph-name="uni04E6" unicode="&#x4e6;" horiz-adv-x="660" 
d="M330 -8q-63 0 -113.5 19.5t-85.5 60t-53.5 102t-18.5 146.5v80q0 154 72 231t199 77t199 -77t72 -231v-80q0 -85 -18.5 -146.5t-53.5 -102t-85.5 -60t-113.5 -19.5zM330 96q36 0 64 11.5t47.5 37.5t30 69t10.5 106v80q0 110 -40.5 157t-111.5 47t-111.5 -47t-40.5 -157
v-80q0 -63 10.5 -106t30 -69t47.5 -37.5t64 -11.5zM220 754q-29 0 -50 21t-21 50t21 50t50 21t50 -21t21 -50t-21 -50t-50 -21zM440 754q-29 0 -50 21t-21 50t21 50t50 21t50 -21t21 -50t-21 -50t-50 -21z" />
    <glyph glyph-name="uni04E7" unicode="&#x4e7;" horiz-adv-x="540" 
d="M270 -8q-103 0 -163.5 62.5t-60.5 180.5v71q0 54 15.5 97t45 73t71 46t92.5 16t92.5 -16t71 -46t45 -73t15.5 -97v-71q0 -118 -60.5 -180.5t-163.5 -62.5zM270 89q52 0 81.5 34t29.5 112v71q0 69 -29.5 102t-81.5 33t-81.5 -33t-29.5 -102v-71q0 -78 29.5 -112t81.5 -34z
M173 579q-29 0 -49.5 21t-20.5 50t20.5 50t49.5 21t50 -21t21 -50t-21 -50t-50 -21zM367 579q-29 0 -50 21t-21 50t21 50t50 21t50 -21t21 -50t-21 -50t-50 -21z" />
    <glyph glyph-name="uni04E8" unicode="&#x4e8;" horiz-adv-x="660" 
d="M330 -8q-63 0 -113.5 19.5t-85.5 60t-53.5 102t-18.5 146.5v80q0 154 72 231t199 77t199 -77t72 -231v-80q0 -85 -18.5 -146.5t-53.5 -102t-85.5 -60t-113.5 -19.5zM330 96q36 0 64 11.5t47.5 37.5t29.5 69q10 39 11 95h-304q1 -56 10 -95q11 -43 30.5 -69t47.5 -37.5
t64 -11.5zM441 557q-40 47 -111 47t-112 -47q-38 -45 -40 -146h304q-2 101 -41 146z" />
    <glyph glyph-name="uni04E9" unicode="&#x4e9;" horiz-adv-x="540" 
d="M270 -8q-103 0 -163.5 62.5t-60.5 180.5v71q0 54 15.5 97t45 73t71 46t92.5 16t92.5 -16t71 -46t45 -73t15.5 -97v-71q0 -118 -60.5 -180.5t-163.5 -62.5zM270 89q52 0 81 34q27 31 30 99h-222q2 -68 29 -99q30 -34 82 -34zM351 408q-29 33 -81 33t-82 -33
q-27 -31 -29 -91h222q-3 60 -30 91z" />
    <glyph glyph-name="uni04EA" unicode="&#x4ea;" horiz-adv-x="660" 
d="M330 -8q-63 0 -113.5 19.5t-85.5 60t-53.5 102t-18.5 146.5v80q0 154 72 231t199 77t199 -77t72 -231v-80q0 -85 -18.5 -146.5t-53.5 -102t-85.5 -60t-113.5 -19.5zM330 96q36 0 64 11.5t47.5 37.5t29.5 69q10 39 11 95h-304q1 -56 10 -95q11 -43 30.5 -69t47.5 -37.5
t64 -11.5zM441 557q-40 47 -111 47t-112 -47q-38 -45 -40 -146h304q-2 101 -41 146zM220 754q-29 0 -50 21t-21 50t21 50t50 21t50 -21t21 -50t-21 -50t-50 -21zM440 754q-29 0 -50 21t-21 50t21 50t50 21t50 -21t21 -50t-21 -50t-50 -21z" />
    <glyph glyph-name="uni04EB" unicode="&#x4eb;" horiz-adv-x="540" 
d="M270 -8q-103 0 -163.5 62.5t-60.5 180.5v71q0 54 15.5 97t45 73t71 46t92.5 16t92.5 -16t71 -46t45 -73t15.5 -97v-71q0 -118 -60.5 -180.5t-163.5 -62.5zM270 89q52 0 81 34q27 31 30 99h-222q2 -68 29 -99q30 -34 82 -34zM351 408q-29 33 -81 33t-82 -33
q-27 -31 -29 -91h222q-3 60 -30 91zM173 579q-29 0 -49.5 21t-20.5 50t20.5 50t49.5 21t50 -21t21 -50t-21 -50t-50 -21zM367 579q-29 0 -50 21t-21 50t21 50t50 21t50 -21t21 -50t-21 -50t-50 -21z" />
    <glyph glyph-name="uni04EE" unicode="&#x4ee;" horiz-adv-x="620" 
d="M128 94q62 0 90 14.5t38 39.5l8 19l-250 533h129l178 -399l160 399h125l-230 -552q-19 -45 -39 -75t-48 -48t-67 -25.5t-94 -7.5v102zM155 874h318v-97h-318v97z" />
    <glyph glyph-name="uni04EF" unicode="&#x4ef;" horiz-adv-x="530" 
d="M91 -105q52 0 80 20.5t48 76.5l-208 538h125l138 -396l125 396h120l-190 -538q-21 -60 -42 -97.5t-47.5 -58.5t-62 -28.5t-86.5 -7.5v95zM122 695h289v-90h-289v90z" />
    <glyph glyph-name="uni04F0" unicode="&#x4f0;" horiz-adv-x="620" 
d="M128 94q62 0 90 14.5t38 39.5l8 19l-250 533h129l178 -399l160 399h125l-230 -552q-19 -45 -39 -75t-48 -48t-67 -25.5t-94 -7.5v102zM199 754q-29 0 -50 21t-21 50t21 50t50 21t50 -21t21 -50t-21 -50t-50 -21zM419 754q-29 0 -50 21t-21 50t21 50t50 21t50 -21t21 -50
t-21 -50t-50 -21z" />
    <glyph glyph-name="uni04F1" unicode="&#x4f1;" horiz-adv-x="530" 
d="M91 -105q52 0 80 20.5t48 76.5l-208 538h125l138 -396l125 396h120l-190 -538q-21 -60 -42 -97.5t-47.5 -58.5t-62 -28.5t-86.5 -7.5v95zM171 579q-29 0 -49.5 21t-20.5 50t20.5 50t49.5 21t50 -21t21 -50t-21 -50t-50 -21zM365 579q-29 0 -50 21t-21 50t21 50t50 21
t50 -21t21 -50t-21 -50t-50 -21z" />
    <glyph glyph-name="uni04F2" unicode="&#x4f2;" horiz-adv-x="620" 
d="M128 94q62 0 90 14.5t38 39.5l8 19l-250 533h129l178 -399l160 399h125l-230 -552q-19 -45 -39 -75t-48 -48t-67 -25.5t-94 -7.5v102zM249 900h126l-131 -150h-101zM450 900h126l-161 -150h-101z" />
    <glyph glyph-name="uni04F3" unicode="&#x4f3;" horiz-adv-x="530" 
d="M91 -105q52 0 80 20.5t48 76.5l-208 538h125l138 -396l125 396h120l-190 -538q-21 -60 -42 -97.5t-47.5 -58.5t-62 -28.5t-86.5 -7.5v95zM232 730h121l-125 -160h-93zM417 730h121l-135 -160h-93z" />
    <glyph glyph-name="uni04F4" unicode="&#x4f4;" horiz-adv-x="630" 
d="M424 296q-19 -13 -61 -28.5t-97 -15.5q-109 0 -161.5 54.5t-52.5 171.5v222h119v-218q0 -34 5.5 -58t19 -39t36 -22t57.5 -7q48 0 82.5 13t52.5 30v301h119v-700h-119v296zM180 754q-29 0 -50 21t-21 50t21 50t50 21t50 -21t21 -50t-21 -50t-50 -21zM400 754
q-29 0 -50 21t-21 50t21 50t50 21t50 -21t21 -50t-21 -50t-50 -21z" />
    <glyph glyph-name="uni04F5" unicode="&#x4f5;" horiz-adv-x="505" 
d="M326 223q-17 -16 -47 -27.5t-68 -11.5q-88 0 -131 45t-43 144v157h113v-144q0 -58 21.5 -81.5t67.5 -23.5q35 0 57 14.5t30 29.5v205h113v-530h-113v223zM148 579q-29 0 -49.5 21t-20.5 50t20.5 50t49.5 21t50 -21t21 -50t-21 -50t-50 -21zM342 579q-29 0 -50 21t-21 50
t21 50t50 21t50 -21t21 -50t-21 -50t-50 -21z" />
    <glyph glyph-name="uni04F8" unicode="&#x4f8;" horiz-adv-x="840" 
d="M87 700h119v-263h109q66 0 116 -16t83.5 -44.5t50 -69t16.5 -89.5t-16.5 -89t-50 -68.5t-83.5 -44.5t-116 -16h-228v700zM315 102q77 0 111.5 31t34.5 85q0 55 -34.5 86.5t-111.5 31.5h-109v-234h109zM634 700h119v-700h-119v700zM310 754q-29 0 -50 21t-21 50t21 50
t50 21t50 -21t21 -50t-21 -50t-50 -21zM530 754q-29 0 -50 21t-21 50t21 50t50 21t50 -21t21 -50t-21 -50t-50 -21z" />
    <glyph glyph-name="uni04F9" unicode="&#x4f9;" horiz-adv-x="690" 
d="M67 530h112v-191h64q109 0 158 -44.5t49 -125.5q0 -80 -49.5 -124.5t-157.5 -44.5h-176v530zM243 90q56 0 77.5 19t21.5 61t-21 60.5t-78 18.5h-64v-159h64zM511 530h113v-530h-113v530zM248 579q-29 0 -49.5 21t-20.5 50t20.5 50t49.5 21t50 -21t21 -50t-21 -50t-50 -21
zM442 579q-29 0 -50 21t-21 50t21 50t50 21t50 -21t21 -50t-21 -50t-50 -21z" />
    <glyph glyph-name="uni0512" unicode="&#x512;" horiz-adv-x="680" 
d="M18 110q34 4 57.5 17t38 47t21 94.5t6.5 159.5v272h452v-700q-1 -59 -10 -97.5t-31 -61.5t-61.5 -32t-95.5 -9v100q22 0 37.5 4.5t25 16.5t13.5 32t4 47h-1v599h-218v-171q0 -133 -14 -216.5t-43.5 -131.5t-74.5 -66.5t-106 -21.5v118z" />
    <glyph glyph-name="uni0513" unicode="&#x513;" horiz-adv-x="555" 
d="M21 98q57 8 78.5 63.5t21.5 155.5v213h368v-530q-1 -59 -10 -97.5t-31 -61.5t-59 -32t-93 -9v95q22 0 37.5 4.5t25 16.5t13.5 32t4 52v435h-149v-118q0 -76 -11.5 -136t-36 -102t-64 -64.5t-94.5 -22.5v106z" />
    <glyph glyph-name="uni1E9E" unicode="&#x1e9e;" horiz-adv-x="650" 
d="M87 459q0 66 21.5 113.5t57.5 77.5t82 44t94 14q126 0 186.5 -63t60.5 -173l-152 -88q53 -3 87 -19.5t53.5 -42t27 -57.5t7.5 -66q0 -43 -13.5 -79.5t-44 -63t-79.5 -41.5t-119 -15h-27v97h22q42 0 69.5 7.5t43.5 21.5t22.5 34t6.5 46q0 51 -32.5 78.5t-110.5 27.5h-35
v95l155 96q0 44 -30 74t-98 30q-21 0 -44.5 -6.5t-44 -23t-34 -44.5t-13.5 -71v-462h-119v459z" />
    <glyph glyph-name="uni2009" unicode="&#x2009;" horiz-adv-x="154" 
 />
    <glyph glyph-name="uni2010" unicode="&#x2010;" horiz-adv-x="340" 
d="M36 371h269v-102h-269v102z" />
    <glyph glyph-name="uni2011" unicode="&#x2011;" horiz-adv-x="340" 
d="M36 371h269v-102h-269v102z" />
    <glyph glyph-name="figuredash" unicode="&#x2012;" 
d="M75 411h400v-102h-400v102z" />
    <glyph glyph-name="endash" unicode="&#x2013;" horiz-adv-x="500" 
d="M50 411h400v-102h-400v102z" />
    <glyph glyph-name="emdash" unicode="&#x2014;" horiz-adv-x="750" 
d="M25 371h700v-102h-700v102z" />
    <glyph glyph-name="quoteleft" unicode="&#x2018;" horiz-adv-x="300" 
d="M87 700l96 164h65l-34 -164v-127h-127v127z" />
    <glyph glyph-name="quoteright" unicode="&#x2019;" horiz-adv-x="300" 
d="M87 573v127h127v-127l-97 -164h-65z" />
    <glyph glyph-name="quotesinglbase" unicode="&#x201a;" horiz-adv-x="300" 
d="M87 0v127h127v-127l-97 -164h-65z" />
    <glyph glyph-name="quotedblleft" unicode="&#x201c;" horiz-adv-x="500" 
d="M70 700l97 164h65l-35 -164v-127h-127v127zM270 700l97 164h65l-35 -164v-127h-127v127z" />
    <glyph glyph-name="quotedblright" unicode="&#x201d;" horiz-adv-x="500" 
d="M87 573v127h127v-127l-97 -163h-65zM287 573v127h127v-127l-97 -163h-65z" />
    <glyph glyph-name="quotedblbase" unicode="&#x201e;" horiz-adv-x="500" 
d="M87 0v127h127v-127l-97 -164h-65zM287 0v127h127v-127l-97 -164h-65z" />
    <glyph glyph-name="dagger" unicode="&#x2020;" horiz-adv-x="600" 
d="M240 429h-197v101h197v170h120v-170h197v-101h-197v-629h-120v629z" />
    <glyph glyph-name="daggerdbl" unicode="&#x2021;" horiz-adv-x="600" 
d="M240 0h-197v102h197v327h-197v101h197v170h120v-170h197v-101h-197v-327h197v-102h-197v-200h-120v200z" />
    <glyph glyph-name="bullet" unicode="&#x2022;" horiz-adv-x="350" 
d="M175 208q-23 0 -43.5 9t-35.5 24t-24 35.5t-9 43.5t9 43.5t24 36t35.5 24.5t43.5 9t43.5 -9t36 -24.5t24.5 -36t9 -43.5t-9 -43.5t-24.5 -35.5t-36 -24t-43.5 -9z" />
    <glyph glyph-name="ellipsis" unicode="&#x2026;" horiz-adv-x="960" 
d="M150 -8q-34 0 -57.5 23.5t-23.5 58.5q0 34 23.5 57.5t57.5 23.5t57.5 -23.5t23.5 -57.5q0 -35 -23.5 -58.5t-57.5 -23.5zM480 -8q-34 0 -57.5 23.5t-23.5 58.5q0 34 23.5 57.5t57.5 23.5t57.5 -23.5t23.5 -57.5q0 -35 -23.5 -58.5t-57.5 -23.5zM810 -8q-34 0 -57.5 23.5
t-23.5 58.5q0 34 23.5 57.5t57.5 23.5t57.5 -23.5t23.5 -57.5q0 -35 -23.5 -58.5t-57.5 -23.5z" />
    <glyph glyph-name="uni202F" unicode="&#x202f;" horiz-adv-x="154" 
 />
    <glyph glyph-name="perthousand" unicode="&#x2030;" horiz-adv-x="1050" 
d="M166 372q-68 0 -106 38.5t-38 109.5v40q0 71 38 109.5t106 38.5t106 -38.5t38 -109.5v-40q0 -71 -38 -109.5t-106 -38.5zM166 444q29 0 44 16.5t15 59.5v40q0 43 -15 60t-44 17t-44 -17t-15 -60v-40q0 -43 15 -59.5t44 -16.5zM533 700h104l-467 -700h-105zM535 -7
q-68 0 -106 38.5t-38 109.5v40q0 71 38 109.5t106 38.5t106 -38.5t38 -109.5v-40q0 -71 -38 -109.5t-106 -38.5zM535 65q29 0 44 16.5t15 59.5v40q0 43 -15 60t-44 17t-44 -17t-15 -60v-40q0 -43 15 -59.5t44 -16.5zM885 -7q-68 0 -106 38.5t-38 109.5v40q0 71 38 109.5
t106 38.5t106 -38.5t38 -109.5v-40q0 -71 -38 -109.5t-106 -38.5zM885 65q29 0 44 16.5t15 59.5v40q0 43 -15 60t-44 17t-44 -17t-15 -60v-40q0 -43 15 -59.5t44 -16.5z" />
    <glyph glyph-name="guilsinglleft" unicode="&#x2039;" horiz-adv-x="330" 
d="M38 276v69l230 194v-114l-138 -113l138 -113v-118z" />
    <glyph glyph-name="guilsinglright" unicode="&#x203a;" horiz-adv-x="330" 
d="M62 195l138 113l-138 113v118l230 -194v-69l-230 -195v114z" />
    <glyph glyph-name="fraction" unicode="&#x2044;" horiz-adv-x="620" 
d="M492 700h104l-467 -700h-105z" />
    <glyph glyph-name="uni2074" unicode="&#x2074;" horiz-adv-x="390" 
d="M221 457h-200v65l178 278h111v-268h38v-75h-38v-77h-89v77zM221 532v162l-103 -162h103z" />
    <glyph glyph-name="Euro" unicode="&#x20ac;" 
d="M306 -8q-45 0 -83 13.5t-67 42.5t-48.5 74.5t-27.5 110.5h-63v92h57v61h-57v93h63q15 119 75 174t151 55q98 0 151 -57.5t65 -163.5h-120q-9 64 -30.5 90.5t-65.5 26.5q-41 0 -69.5 -27.5t-37.5 -97.5h142v-93h-147v-61h147v-92h-142q5 -40 14.5 -66.5t23.5 -42t31.5 -22
t37.5 -6.5q42 0 65 27.5t34 93.5h120q-14 -115 -71 -170t-148 -55z" />
    <glyph glyph-name="uni20B4" unicode="&#x20b4;" 
d="M36 476h288q15 20 22 36.5t7 38.5q0 28 -18.5 46t-59.5 18q-38 0 -55 -18t-21 -45h-112q2 33 14 61.5t35.5 49.5t58 33t80.5 12q47 0 82 -11.5t58.5 -32t35.5 -47.5t12 -57q0 -23 -5 -43t-16 -41h73v-92h-479v92zM275 -8q-50 0 -87.5 12t-63 33t-38 48.5t-12.5 58.5
q0 26 6.5 47t20.5 44h-65v92h479v-92h-293q-20 -24 -28.5 -42.5t-8.5 -40.5q0 -28 22 -47.5t68 -19.5q45 0 65 19t24 48h112q-2 -34 -15 -63.5t-37.5 -51t-61.5 -33.5t-87 -12z" />
    <glyph glyph-name="uni20B8" unicode="&#x20b8;" 
d="M215 437h-180v101h480v-101h-180v-437h-120v437zM35 599v101h480v-101h-480z" />
    <glyph glyph-name="uni20BD" unicode="&#x20bd;" 
d="M89 102h-76v97h76v62h-76v97h76v342h186q125 0 188.5 -59.5t63.5 -161.5q0 -99 -64 -158.5t-188 -59.5h-66v-62h178v-97h-178v-102h-120v102zM275 358q69 0 101 30.5t32 90.5q0 59 -32 89.5t-101 30.5h-66v-241h66z" />
    <glyph glyph-name="uni2116" unicode="&#x2116;" horiz-adv-x="1000" 
d="M87 700h115l296 -501v501h115v-700h-115l-296 503v-503h-115v700zM685 300h259v-76h-259v76zM814 372q-68 0 -106 38.5t-38 109.5v40q0 71 38 109.5t106 38.5t106 -38.5t38 -109.5v-40q0 -71 -38 -109.5t-106 -38.5zM814 444q29 0 44 16.5t15 59.5v40q0 43 -15 60t-44 17
t-44 -17t-15 -60v-40q0 -43 15 -59.5t44 -16.5z" />
    <glyph glyph-name="trademark" unicode="&#x2122;" horiz-adv-x="900" 
d="M158 724h-132v76h354v-76h-133v-344h-89v344zM427 800h90l123 -237l123 237h86v-420h-85v273l-94 -182h-64l-95 182v-273h-84v420z" />
    <glyph glyph-name="uni2190" unicode="&#x2190;" horiz-adv-x="800" 
d="M44 350l350 350h141l-300 -299h515v-102h-515l300 -299h-141z" />
    <glyph glyph-name="uni2191" unicode="&#x2191;" horiz-adv-x="800" 
d="M345 512l-295 -295v141l350 350l350 -350v-141l-295 295v-512h-110v512z" />
    <glyph glyph-name="uni2192" unicode="&#x2192;" horiz-adv-x="800" 
d="M563 299h-513v102h513l-297 299h140l350 -350l-350 -350h-140z" />
    <glyph glyph-name="uni2193" unicode="&#x2193;" horiz-adv-x="800" 
d="M50 342v141l295 -295v512h110v-512l295 295v-141l-350 -350z" />
    <glyph glyph-name="uni2196" unicode="&#x2196;" horiz-adv-x="800" 
d="M108 161v481h483l101 -101h-401l401 -401l-82 -82l-399 400v-400z" />
    <glyph glyph-name="uni2197" unicode="&#x2197;" horiz-adv-x="800" 
d="M108 138l403 403h-403l102 101h482v-481l-103 -103v402l-401 -402z" />
    <glyph glyph-name="uni2198" unicode="&#x2198;" horiz-adv-x="800" 
d="M108 160h401l-401 400l82 82l399 -400v400l103 -102v-482h-482z" />
    <glyph glyph-name="uni2199" unicode="&#x2199;" horiz-adv-x="800" 
d="M108 539l103 103v-401l401 401l80 -80l-403 -402h403l-101 -102h-483v481z" />
    <glyph glyph-name="minus" unicode="&#x2212;" 
d="M64 411h422v-102h-422v102z" />
    <glyph glyph-name="uni2215" unicode="&#x2215;" 
d="M380 700h113l-323 -705h-113z" />
    <glyph glyph-name="uniF400" unicode="&#xf400;" horiz-adv-x="0" 
d="M-234 730h122l-126 -160h-92z" />
    <glyph glyph-name="uniF401" unicode="&#xf401;" horiz-adv-x="0" 
d="M-294 900h126l-131 -150h-101z" />
    <glyph glyph-name="uniF407" unicode="&#xf407;" horiz-adv-x="240" 
d="M90 -208q-28 0 -44 3q-10 1 -18 3l15 62q5 -1 10 -1q5 -1 10.5 -1h12.5q26 0 36.5 8t10.5 21q0 11 -11 18.5t-44 9.5l18 85h68l-10 -38q41 -14 54.5 -33.5t13.5 -44.5q0 -41 -29.5 -66.5t-92.5 -25.5z" />
    <glyph glyph-name="uniF408" unicode="&#xf408;" horiz-adv-x="400" 
d="M148 900h105l111 -150h-102l-62 74l-62 -74h-101z" />
    <glyph glyph-name="uniF40A" unicode="&#xf40a;" horiz-adv-x="250" 
d="M78 573v127h127v-127l-97 -164h-65z" />
    <glyph glyph-name="uniF40B" unicode="&#xf40b;" horiz-adv-x="220" 
d="M110 754q-29 0 -50 21t-21 50t21 50t50 21t50 -21t21 -50t-21 -50t-50 -21z" />
    <glyph glyph-name="uniF40C" unicode="&#xf40c;" horiz-adv-x="300" 
d="M150 725q-60 0 -92 26.5t-32 73.5q0 48 32 74t92 26t92 -26t32 -74q0 -47 -32 -73.5t-92 -26.5zM150 790q21 0 32 9.5t11 25.5t-11 25.5t-32 9.5t-32 -9.5t-11 -25.5t11 -25.5t32 -9.5z" />
    <glyph glyph-name="uniF40D" unicode="&#xf40d;" horiz-adv-x="440" 
d="M286 756q-24 0 -41.5 7t-33 16t-29.5 16t-30 7q-14 0 -23.5 -6t-15.5 -14q-7 -9 -11 -20l-71 34q9 27 27 49q14 18 38 33.5t59 15.5q23 0 41 -7t33 -15.5t29 -15.5t30 -7q14 0 23.5 6t15.5 14q7 9 11 20l71 -35q-10 -28 -27 -49q-14 -19 -38 -34t-58 -15z" />
    <glyph glyph-name="uniF50C" unicode="&#xf50c;" horiz-adv-x="630" 
d="M300 -208q-28 0 -44 3q-10 1 -18 3l14 62q5 -1 10 -1q5 -1 10.5 -1h12.5q27 0 37 8t10 21q0 11 -11 18.5t-43 9.5l16 79q-110 10 -172.5 89.5t-62.5 237.5v80q0 153 72 230t199 77q117 0 181.5 -56.5t80.5 -164.5h-120q-14 60 -46.5 88.5t-95.5 28.5q-71 0 -111.5 -47
t-40.5 -156v-80q0 -63 10.5 -106t30 -69.5t47.5 -38t64 -11.5q64 0 95.5 29.5t46.5 91.5h120q-31 -209 -231 -223l-7 -32q41 -14 54 -33.5t13 -44.5q0 -41 -29 -66.5t-92 -25.5z" />
    <glyph glyph-name="uniF50D" unicode="&#xf50d;" horiz-adv-x="510" 
d="M235 -208q-26 0 -41 3q-9 1 -16 3l15 62q4 -1 8 -1q4 -1 9 -1h11q23 0 32.5 8t9.5 21q0 11 -10.5 18.5t-39.5 9.5l17 80q-85 10 -134.5 71.5t-49.5 168.5v71q0 54 15.5 97t44.5 73t69 46t90 16q93 0 148 -48t61 -125h-114q-6 31 -28.5 53.5t-66.5 22.5q-48 0 -77 -33
t-29 -102v-71q0 -78 29 -112t77 -34q44 0 66.5 23t28.5 53h114q-11 -74 -55 -118t-122 -52l-8 -33q37 -14 50 -33.5t13 -44.5q0 -41 -28.5 -66.5t-88.5 -25.5z" />
    <glyph glyph-name="uniF536" unicode="&#xf536;" horiz-adv-x="840" 
d="M87 700h119v-263h109q66 0 116 -16t83.5 -44.5t50 -69t16.5 -89.5t-16.5 -89t-50 -68.5t-83.5 -44.5t-116 -16h-228v700zM315 102q77 0 111.5 31t34.5 85q0 55 -34.5 86.5t-111.5 31.5h-109v-234h109zM634 700h119v-700h-119v700zM420 742q-100 0 -144.5 40.5
t-44.5 117.5h112q0 -42 17.5 -60.5t59.5 -18.5t60 18.5t18 60.5h111q0 -77 -44.5 -117.5t-144.5 -40.5z" />
    <glyph glyph-name="uniF537" unicode="&#xf537;" horiz-adv-x="690" 
d="M67 530h112v-191h64q109 0 158 -44.5t49 -125.5q0 -80 -49.5 -124.5t-157.5 -44.5h-176v530zM243 90q56 0 77.5 19t21.5 61t-21 60.5t-78 18.5h-64v-159h64zM511 530h113v-530h-113v530zM345 578q-81 0 -117 35.5t-36 101.5h95q0 -38 14.5 -53.5t43.5 -15.5t43.5 15.5
t14.5 53.5h96q0 -66 -36.5 -101.5t-117.5 -35.5z" />
    <glyph glyph-name="uniF53C" unicode="&#xf53c;" horiz-adv-x="565" 
d="M87 700h445v-101h-326v-198h291v-102h-291v-299h-119v700z" />
    <glyph glyph-name="uniF53D" unicode="&#xf53d;" horiz-adv-x="410" 
d="M67 530h332v-95h-220v-118h152v-94h-152v-223h-112v530z" />
    <glyph glyph-name="uniF6BA" unicode="&#xf6ba;" horiz-adv-x="340" 
d="M36 401h269v-102h-269v102z" />
    <glyph glyph-name="uniF6BB" unicode="&#xf6bb;" horiz-adv-x="500" 
d="M50 402h400v-102h-400v102z" />
    <glyph glyph-name="uniF6BC" unicode="&#xf6bc;" horiz-adv-x="750" 
d="M25 401h700v-102h-700v102z" />
    <glyph glyph-name="uniF6C9" unicode="&#xf6c9;" horiz-adv-x="300" 
d="M140 900h126l-131 -150h-101z" />
    <glyph glyph-name="uniF6CA" unicode="&#xf6ca;" horiz-adv-x="400" 
d="M37 900h101l62 -74l62 74h102l-111 -150h-105z" />
    <glyph glyph-name="uniF6CB" unicode="&#xf6cb;" horiz-adv-x="440" 
d="M110 754q-29 0 -50 21t-21 50t21 50t50 21t50 -21t21 -50t-21 -50t-50 -21zM330 754q-29 0 -50 21t-21 50t21 50t50 21t50 -21t21 -50t-21 -50t-50 -21z" />
    <glyph glyph-name="uniF6CE" unicode="&#xf6ce;" horiz-adv-x="300" 
d="M34 900h126l106 -150h-101z" />
    <glyph glyph-name="uniF6CF" unicode="&#xf6cf;" horiz-adv-x="490" 
d="M139 900h126l-131 -150h-101zM340 900h126l-161 -150h-101z" />
    <glyph glyph-name="uniF6D0" unicode="&#xf6d0;" horiz-adv-x="380" 
d="M31 874h318v-97h-318v97z" />
    <glyph glyph-name="uniF6D1" unicode="&#xf6d1;" horiz-adv-x="440" 
d="M220 742q-100 0 -144.5 40.5t-44.5 117.5h112q0 -42 17.5 -60.5t59.5 -18.5t60 18.5t18 60.5h111q0 -77 -44.5 -117.5t-144.5 -40.5z" />
    <glyph glyph-name="uniF6D4" unicode="&#xf6d4;" horiz-adv-x="380" 
d="M190 578q-81 0 -117 35.5t-36 101.5h95q0 -38 14.5 -53.5t43.5 -15.5t43.5 15.5t14.5 53.5h96q0 -66 -36.5 -101.5t-117.5 -35.5z" />
    <glyph glyph-name="uniFEFF" unicode="&#xfeff;" horiz-adv-x="0" 
 />
    <glyph glyph-name="cyrbreve" horiz-adv-x="500" 
d="M442 8v496h-384v-496h384zM50 512h400v-512h-400v512z" />
    </font>
</defs>
</svg>
