<svg width="24" height="24" viewBox="0 0 24 24" fill="none" xmlns="http://www.w3.org/2000/svg">
<path fill-rule="evenodd" clip-rule="evenodd" d="M2.46912 7.969C2.53879 7.89915 2.62155 7.84374 2.71267 7.80593C2.80379 7.76812 2.90147 7.74866 3.00012 7.74866C3.09877 7.74866 3.19645 7.76812 3.28757 7.80593C3.37869 7.84374 3.46145 7.89915 3.53112 7.969L12.0001 16.4395L20.4691 7.969C20.5389 7.89927 20.6216 7.84395 20.7127 7.80621C20.8039 7.76847 20.9015 7.74905 21.0001 7.74905C21.0987 7.74905 21.1964 7.76847 21.2875 7.80621C21.3786 7.84395 21.4614 7.89927 21.5311 7.969C21.6009 8.03873 21.6562 8.12151 21.6939 8.21262C21.7316 8.30373 21.7511 8.40138 21.7511 8.5C21.7511 8.59861 21.7316 8.69626 21.6939 8.78737C21.6562 8.87848 21.6009 8.96127 21.5311 9.031L12.5311 18.031C12.4615 18.1008 12.3787 18.1563 12.2876 18.1941C12.1965 18.2319 12.0988 18.2513 12.0001 18.2513C11.9015 18.2513 11.8038 18.2319 11.7127 18.1941C11.6216 18.1563 11.5388 18.1008 11.4691 18.031L2.46912 9.031C2.39928 8.96133 2.34386 8.87857 2.30605 8.78745C2.26824 8.69633 2.24878 8.59865 2.24878 8.5C2.24878 8.40135 2.26824 8.30366 2.30605 8.21255C2.34386 8.12143 2.39928 8.03867 2.46912 7.969V7.969Z" fill="#7A7A7A"/>
</svg>
