<svg width="42" height="42" viewBox="0 0 42 42" fill="none" xmlns="http://www.w3.org/2000/svg">
<path d="M26.3332 10.0344L26.4782 9.86522C26.734 9.60891 27.0735 9.45306 27.4346 9.42608C27.7958 9.39909 28.1546 9.50277 28.4457 9.71822L28.6148 9.86522L38.6776 19.928C38.9334 20.1837 39.0889 20.5227 39.1159 20.8834C39.1428 21.2441 39.0395 21.6025 38.8246 21.8934L38.6776 22.0646L28.6148 32.1395C28.345 32.4072 27.9841 32.5634 27.6042 32.5767C27.2243 32.5901 26.8533 32.4597 26.5653 32.2116C26.2773 31.9635 26.0934 31.616 26.0504 31.2383C26.0074 30.8606 26.1084 30.4805 26.3332 30.174L26.4782 30.0049L33.9513 22.5197L4.38923 22.5197C4.02456 22.5198 3.67219 22.3879 3.39718 22.1484C3.12216 21.9089 2.94308 21.578 2.893 21.2168L2.87891 21.0114C2.87892 20.6464 3.01109 20.2938 3.25098 20.0188C3.49087 19.7437 3.82225 19.5648 4.18382 19.5152L4.38923 19.5011L33.9775 19.4991L26.4782 11.9998C26.2227 11.7438 26.0676 11.4047 26.041 11.044C26.0144 10.6833 26.1181 10.3251 26.3332 10.0344Z" fill="#FF5E00"/>
</svg>
