<svg width="24" height="24" viewBox="0 0 24 24" fill="none" xmlns="http://www.w3.org/2000/svg">
<path fill-rule="evenodd" clip-rule="evenodd" d="M2.469 7.969C2.53867 7.89915 2.62143 7.84374 2.71255 7.80593C2.80367 7.76812 2.90135 7.74866 3 7.74866C3.09865 7.74866 3.19633 7.76812 3.28745 7.80593C3.37857 7.84374 3.46133 7.89915 3.531 7.969L12 16.4395L20.469 7.969C20.5387 7.89927 20.6215 7.84395 20.7126 7.80621C20.8037 7.76847 20.9014 7.74905 21 7.74905C21.0986 7.74905 21.1963 7.76847 21.2874 7.80621C21.3785 7.84395 21.4613 7.89927 21.531 7.969C21.6007 8.03873 21.656 8.12151 21.6938 8.21262C21.7315 8.30373 21.7509 8.40138 21.7509 8.5C21.7509 8.59861 21.7315 8.69626 21.6938 8.78737C21.656 8.87848 21.6007 8.96127 21.531 9.031L12.531 18.031C12.4613 18.1008 12.3786 18.1563 12.2874 18.1941C12.1963 18.2319 12.0986 18.2513 12 18.2513C11.9013 18.2513 11.8037 18.2319 11.7125 18.1941C11.6214 18.1563 11.5387 18.1008 11.469 18.031L2.469 9.031C2.39915 8.96133 2.34374 8.87857 2.30593 8.78745C2.26812 8.69633 2.24866 8.59865 2.24866 8.5C2.24866 8.40135 2.26812 8.30366 2.30593 8.21255C2.34374 8.12143 2.39915 8.03867 2.469 7.969V7.969Z" fill="#FF5E00"/>
</svg>
