<svg width="36" height="36" viewBox="0 0 36 36" fill="none" xmlns="http://www.w3.org/2000/svg">
<path d="M22.5717 8.60117L22.696 8.45618C22.9153 8.23649 23.2062 8.1029 23.5158 8.07977C23.8253 8.05664 24.1329 8.14551 24.3824 8.33018L24.5274 8.45618L33.1526 17.0814C33.3719 17.3006 33.5052 17.5912 33.5283 17.9004C33.5514 18.2095 33.4628 18.5167 33.2786 18.7661L33.1526 18.9128L24.5274 27.5484C24.2961 27.7779 23.9867 27.9117 23.6611 27.9232C23.3355 27.9347 23.0175 27.8229 22.7706 27.6103C22.5238 27.3976 22.3662 27.0997 22.3293 26.7759C22.2924 26.4522 22.379 26.1265 22.5717 25.8637L22.696 25.7187L29.1015 19.3029L3.76258 19.3029C3.45001 19.3029 3.14798 19.1899 2.91225 18.9846C2.67652 18.7793 2.52303 18.4957 2.4801 18.1861L2.46802 18.0101C2.46803 17.6972 2.58132 17.395 2.78694 17.1592C2.99256 16.9235 3.27659 16.7701 3.58652 16.7276L3.76258 16.7155L29.1239 16.7138L22.696 10.2858C22.477 10.0664 22.344 9.77572 22.3212 9.46657C22.2984 9.15741 22.3873 8.85034 22.5717 8.60117Z" fill="#292929"/>
</svg>
