<svg width="64" height="64" viewBox="0 0 64 64" fill="none" xmlns="http://www.w3.org/2000/svg">
<path d="M14.1128 14.1149C14.6129 13.615 15.291 13.3341 15.9981 13.3341C16.7052 13.3341 17.3834 13.615 17.8835 14.1149L31.9981 28.2295L46.1128 14.1149C46.3588 13.8602 46.653 13.657 46.9784 13.5173C47.3037 13.3775 47.6537 13.304 48.0077 13.3009C48.3618 13.2978 48.713 13.3653 49.0407 13.4994C49.3684 13.6334 49.6661 13.8314 49.9165 14.0818C50.1669 14.3322 50.3649 14.6299 50.499 14.9577C50.6331 15.2854 50.7005 15.6365 50.6975 15.9906C50.6944 16.3447 50.6208 16.6946 50.4811 17.02C50.3413 17.3453 50.1382 17.6396 49.8835 17.8855L35.7688 32.0002L49.8835 46.1149C50.3692 46.6178 50.638 47.2914 50.6319 47.9906C50.6259 48.6898 50.3454 49.3586 49.851 49.8531C49.3566 50.3475 48.6877 50.6279 47.9885 50.634C47.2893 50.6401 46.6157 50.3713 46.1128 49.8855L31.9981 35.7709L17.8835 49.8855C17.3805 50.3713 16.7069 50.6401 16.0077 50.634C15.3085 50.6279 14.6397 50.3475 14.1453 49.8531C13.6509 49.3586 13.3704 48.6898 13.3643 47.9906C13.3583 47.2914 13.627 46.6178 14.1128 46.1149L28.2275 32.0002L14.1128 17.8855C13.6129 17.3855 13.332 16.7073 13.332 16.0002C13.332 15.2931 13.6129 14.615 14.1128 14.1149V14.1149Z" fill="#292929"/>
</svg>
