<svg width="169" height="116" viewBox="0 0 169 116" fill="none" xmlns="http://www.w3.org/2000/svg">
<path d="M0 29.6405V0H5.67584V29.6405H0V29.6405Z" fill="#3F3F3F"/>
<path d="M6.97689 0.0791016H12.6922V4.13891C12.6922 5.79436 12.5345 7.09507 12.2586 8.04105C11.825 9.53884 10.879 10.3666 10.6425 10.6031C9.10533 12.1797 7.2528 12.5738 6.50391 12.6921C6.50391 11.8249 6.50391 10.9184 6.50391 10.0512C7.64696 9.65709 8.47469 9.14468 8.94767 8.47462C9.42066 7.80455 9.69657 6.898 9.73598 5.75494H6.97689V0.0791016Z" fill="#3F3F3F"/>
<path d="M13.7168 29.6405V0H35.7089V5.00578H19.7075V11.5882H34.6054V16.594H19.7075V24.6742H36.2607V29.6799H13.7168V29.6405Z" fill="#3F3F3F"/>
<path d="M51.7487 29.6407V26.4086C50.9605 27.5516 49.9358 28.4582 48.6746 29.1283C47.4134 29.7983 46.0733 30.1137 44.6545 30.1137C43.1962 30.1137 41.935 29.7983 40.7527 29.1677C39.6097 28.537 38.7821 27.6305 38.2697 26.4874C37.7573 25.3444 37.4814 23.7677 37.4814 21.7181V8.15918H43.1568V18.0131C43.1568 21.0481 43.2751 22.9006 43.4721 23.5707C43.6692 24.2407 44.0633 24.7926 44.6151 25.1867C45.1669 25.5809 45.8763 25.7779 46.7039 25.7779C47.6893 25.7779 48.5563 25.502 49.3052 24.9896C50.0934 24.4378 50.6058 23.8072 50.8817 23.0189C51.1575 22.2305 51.3152 20.2992 51.3152 17.2248V8.15918H56.9906V29.6407H51.7487V29.6407Z" fill="#3F3F3F"/>
<path d="M65.5426 29.6407H59.8672V8.15919H65.1484C65.1484 9.26282 65.109 10.3665 65.109 11.4701C66.2126 8.90808 68.1044 8.11977 68.2226 8.04094C68.4591 7.92269 69.6809 7.37088 71.3756 7.33146C72.0062 7.29205 72.8733 7.33146 73.9374 7.64678C73.8586 9.30224 73.8192 10.9183 73.7403 12.5737C70.3903 11.5883 68.0256 13.2438 67.3161 13.8744C66.6067 14.5051 66.3308 15.254 66.1338 15.7664C65.8973 16.3576 65.779 16.9883 65.6608 17.6583C65.5426 19.9444 65.5032 22.5459 65.5426 23.0583V29.6407Z" fill="#3F3F3F"/>
<path d="M70.9023 18.6042C70.9023 16.7122 71.3753 14.8991 72.2818 13.1254C73.2277 11.3517 74.5283 10.0116 76.223 9.06558C77.9177 8.11961 79.849 7.68604 81.9378 7.68604C85.1696 7.68604 87.8497 8.75026 89.9385 10.8393C92.0274 12.9677 93.0521 15.6086 93.0521 18.8406C93.0521 22.0727 91.988 24.7924 89.8991 26.9208C87.8102 29.0493 85.1696 30.1135 81.9772 30.1135C80.0066 30.1135 78.1148 29.6799 76.3413 28.7734C74.5677 27.8668 73.1883 26.5661 72.2818 24.8712C71.3753 23.1369 70.9023 21.0479 70.9023 18.6042ZM77.0113 18.8801C77.0113 21.0085 77.5236 22.6245 78.5089 23.7676C79.4942 24.9106 80.7554 25.4625 82.2531 25.4625C83.7508 25.4625 84.9726 24.9106 85.9973 23.7676C87.022 22.6245 87.495 21.0085 87.495 18.8406C87.495 16.7516 86.9826 15.1356 85.9973 13.9925C85.012 12.8495 83.7508 12.2977 82.2531 12.2977C80.7554 12.2977 79.5337 12.8495 78.5089 13.9925C77.5236 15.1356 77.0113 16.7516 77.0113 18.8801Z" fill="#3F3F3F"/>
<path d="M93.0923 8.15937H98.3735V11.3126C99.0436 10.2484 99.9895 9.34184 101.172 8.67178C102.354 8.00171 103.655 7.64697 105.074 7.64697C107.557 7.64697 109.685 8.63236 111.419 10.5637C113.153 12.5345 114.02 15.2542 114.02 18.7227C114.02 22.3096 113.153 25.1081 111.38 27.0789C109.645 29.0496 107.517 30.0744 104.995 30.0744C103.812 30.0744 102.748 29.8379 101.763 29.365C100.817 28.892 99.7924 28.0642 98.7282 26.9212V37.7605H93.0923V8.15937ZM98.7282 18.5257C98.7282 20.93 99.2012 22.7037 100.147 23.8862C101.093 25.0292 102.275 25.6205 103.655 25.6205C104.995 25.6205 106.059 25.1081 106.965 24.0439C107.833 22.9796 108.266 21.2453 108.266 18.841C108.266 16.5943 107.833 14.8994 106.926 13.8352C106.02 12.7316 104.916 12.1798 103.576 12.1798C102.197 12.1798 101.014 12.7316 100.108 13.7958C99.2012 14.86 98.7282 16.4366 98.7282 18.5257Z" fill="#3F3F3F"/>
<path d="M127.657 22.7824C129.745 22.6642 131.834 22.5853 133.923 22.4671C133.726 23.3342 132.859 26.4481 129.864 28.4583C127.538 30.0349 125.174 30.0743 123.952 30.0743C120.208 30.0743 117.449 28.8524 115.675 26.4086C114.256 24.4379 113.547 21.9941 113.547 18.9985C113.547 15.4511 114.493 12.6526 116.345 10.6424C118.198 8.63223 120.562 7.60742 123.4 7.60742C126.592 7.60742 129.115 8.67164 130.967 10.7607C132.82 12.8891 133.687 16.1212 133.608 20.4569H119.38C119.419 22.1518 119.892 23.4525 120.759 24.3985C121.626 25.3444 122.73 25.8174 124.031 25.8174C124.937 25.8174 125.686 25.5809 126.277 25.1079C126.868 24.635 127.341 23.8861 127.657 22.7824ZM127.065 17.0672C127.026 15.4117 126.592 14.1898 125.804 13.3227C124.976 12.4555 123.991 12.022 122.848 12.022C121.626 12.022 120.602 12.4555 119.774 13.3621C118.946 14.2687 118.552 15.4905 118.592 17.0277H127.065V17.0672Z" fill="#3F3F3F"/>
<path d="M55.8076 83.8764H50.5263V80.7231C49.6592 81.945 48.5951 82.8515 47.4127 83.4822C46.2304 84.0734 45.0086 84.3888 43.7868 84.3888C41.3038 84.3888 39.215 83.4034 37.4414 81.3932C35.6679 79.4224 34.8008 76.6239 34.8008 73.0765C34.8008 69.4503 35.6679 66.6517 37.3626 64.7598C39.0573 62.8678 41.225 61.9219 43.8656 61.9219C46.2698 61.9219 48.3586 62.9073 50.0928 64.9175V54.2358H55.7682V83.8764H55.8076ZM40.6338 72.6823C40.6338 74.9684 40.9491 76.6239 41.5797 77.6487C42.4862 79.1465 43.7868 79.856 45.4421 79.856C46.7427 79.856 47.8463 79.3041 48.7922 78.2005C49.6987 77.0969 50.1716 75.4414 50.1716 73.1947C50.1716 70.7116 49.7381 68.9379 48.8316 67.8736C47.9251 66.77 46.7821 66.2576 45.4027 66.2576C44.0627 66.2576 42.9197 66.8094 42.0132 67.8736C41.1068 68.9379 40.6338 70.5539 40.6338 72.6823Z" fill="#3F3F3F"/>
<path d="M69.6023 77.0573C71.5729 77.0573 73.5041 77.0179 75.4747 77.0179C75.3171 77.8456 74.5683 80.8018 71.8094 82.7332C69.5629 84.3098 67.277 84.3492 65.8975 84.3492C62.1534 84.3492 59.3945 83.1273 57.6209 80.6836C56.2021 78.7128 55.4927 76.269 55.4927 73.2734C55.4927 69.726 56.4386 66.9275 58.291 64.9173C60.1433 62.9071 62.5081 61.8823 65.3458 61.8823C68.5382 61.8823 71.0606 62.9465 72.9129 65.0356C74.7653 67.164 75.6324 70.3961 75.5536 74.7318H61.3257C61.3651 76.4267 61.8381 77.7274 62.7051 78.6734C63.5722 79.6193 64.6758 80.0923 65.9764 80.0923C66.8828 80.0923 67.6317 79.8558 68.2229 79.3828C68.8141 78.9098 69.287 78.1215 69.6023 77.0573ZM69.9176 71.3026C69.8782 69.6472 69.4447 68.4253 68.6564 67.5582C67.8287 66.691 66.8434 66.2574 65.7005 66.2574C64.4787 66.2574 63.454 66.691 62.6263 67.5976C61.7987 68.5041 61.4045 69.726 61.4439 71.2632H69.9176V71.3026Z" fill="#3F3F3F"/>
<path d="M64.0053 45.5642C62.2318 45.5642 60.4582 45.5642 58.6847 45.5642C58.8029 44.6182 59.3153 41.8197 61.6406 40.0066C63.3353 38.7059 65.1483 38.5088 67.9466 38.5088C70.469 38.5088 72.3608 38.8241 73.622 39.4153C74.8437 40.0066 75.7502 40.7949 76.2232 41.7014C76.7355 42.608 76.972 44.3029 76.972 46.7861L76.8932 53.4079C76.8932 55.2998 76.972 56.6794 77.1691 57.5859C77.3661 58.4925 77.6814 59.4385 78.1938 60.4633H72.5972C72.4396 60.0691 72.2819 59.5173 72.0455 58.7684C71.9666 58.4137 71.8878 58.2166 71.8484 58.0983C70.8631 59.0443 69.8384 59.7538 68.7348 60.2268C67.6313 60.6998 66.4489 60.9362 65.1877 60.9362C62.9806 60.9362 61.2465 60.345 59.9459 59.1231C58.6847 57.9407 58.0146 56.4035 58.0146 54.5903C58.0146 53.3685 58.2905 52.3042 58.8817 51.3583C59.4729 50.4123 60.2612 49.6634 61.3253 49.1904C62.3894 48.678 63.8871 48.2444 65.8577 47.8503C68.4983 47.3379 70.3507 46.9043 71.3754 46.4707V45.9189C71.3754 44.8153 71.0996 44.0664 70.5478 43.5934C69.996 43.1204 68.9713 42.8839 67.513 42.8839C66.6065 42.8839 65.8577 42.9627 65.1483 43.4751C64.2418 44.1846 64.0447 45.2488 64.0053 45.5642ZM71.4149 50.2152C70.7054 50.4517 69.5231 50.767 67.9466 51.0824C66.3701 51.4371 65.3454 51.7524 64.833 52.0677C64.0842 52.5801 63.7294 53.2502 63.7294 54.0779C63.7294 54.8663 64.0447 55.5757 64.6359 56.1275C65.2271 56.7188 65.9759 56.9947 66.8824 56.9947C67.9072 56.9947 68.8925 56.64 69.7989 55.9699C70.469 55.4575 70.9419 54.8268 71.139 54.0779C71.2966 53.605 71.3754 52.659 71.3754 51.3189V50.2152H71.4149Z" fill="#3F3F3F"/>
<path d="M93.6042 60.503V57.3103C92.8159 58.4534 91.7912 59.3599 90.53 60.03C89.2688 60.7 87.9288 61.0154 86.51 61.0154C85.0517 61.0154 83.7905 60.7001 82.6081 60.0694C81.4652 59.4388 80.6375 58.5322 80.1252 57.3891C79.6128 56.2461 79.3369 54.6695 79.3369 52.6199V39.0215H85.0123V48.8754C85.0123 51.9104 85.1305 53.7629 85.3276 54.433C85.5247 55.103 85.9188 55.6549 86.4706 56.049C87.0223 56.4432 87.7317 56.6402 88.5594 56.6402C89.5447 56.6402 90.4118 56.3643 91.1606 55.8519C91.9489 55.3001 92.4612 54.6695 92.7371 53.8812C93.013 53.0928 93.1707 51.1615 93.1707 48.0871V39.0215H98.846V60.503H93.6042Z" fill="#3F3F3F"/>
<path d="M110.946 39.0216V43.5543H107.044V52.2258C107.044 53.9601 107.083 54.9849 107.162 55.3002C107.241 55.5761 107.399 55.8126 107.675 56.0097C107.951 56.2067 109.921 56.1279 110.906 55.7338L111.379 60.1483C110.039 60.7001 108.542 61.0154 106.886 61.0154C105.862 61.0154 104.955 60.8578 104.128 60.503C103.3 60.1483 102.709 59.7147 102.315 59.1629C101.92 58.6111 101.645 57.8622 101.526 56.9556C101.408 56.2856 101.329 54.9454 101.329 52.9352V43.5543H98.728V39.0216H101.329C101.29 36.8931 101.29 34.7647 101.25 32.6362C103.182 32.6362 105.152 32.6362 107.083 32.6362C107.044 34.7647 107.044 36.8931 107.005 39.0216H110.946Z" fill="#3F3F3F"/>
<path d="M109.566 49.4665C109.566 47.5745 110.039 45.7614 110.945 43.9877C111.891 42.214 113.192 40.8739 114.887 39.9279C116.581 38.9819 118.513 38.5483 120.601 38.5483C123.833 38.5483 126.513 39.6126 128.602 41.7016C130.691 43.83 131.716 46.4709 131.716 49.7029C131.716 52.935 130.652 55.6547 128.563 57.7831C126.474 59.9116 123.833 60.9758 120.641 60.9758C118.67 60.9758 116.778 60.5422 115.005 59.6357C113.231 58.7291 111.852 57.4284 110.945 55.7335C110.039 54.0387 109.566 51.9496 109.566 49.4665ZM115.399 49.7818C115.399 51.9102 115.911 53.5263 116.897 54.6693C117.921 55.8124 119.143 56.3642 120.641 56.3642C122.138 56.3642 123.36 55.8124 124.385 54.6693C125.37 53.5263 125.883 51.9102 125.883 49.7424C125.883 47.6533 125.37 46.0373 124.385 44.8942C123.4 43.7512 122.138 43.1994 120.641 43.1994C119.143 43.1994 117.921 43.7512 116.897 44.8942C115.911 45.9979 115.399 47.6533 115.399 49.7818Z" fill="#3F3F3F"/>
<path d="M146.023 60.503V57.3103C145.234 58.4534 144.21 59.3599 142.948 60.03C141.687 60.7 140.347 61.0154 138.928 61.0154C137.47 61.0154 136.209 60.7001 135.027 60.0694C133.884 59.4388 133.056 58.5322 132.544 57.3891C132.031 56.2461 131.755 54.6695 131.755 52.6199V39.0215H137.431V48.8754C137.431 51.9104 137.549 53.7629 137.746 54.433C137.943 55.103 138.337 55.6549 138.889 56.049C139.441 56.4432 140.15 56.6402 140.978 56.6402C141.963 56.6402 142.83 56.3643 143.579 55.8519C144.367 55.3001 144.88 54.6695 145.156 53.8812C145.431 53.0928 145.589 51.1615 145.589 48.0871V39.0215H151.264V60.503H146.023Z" fill="#3F3F3F"/>
<path d="M160.723 60.5029H155.048V39.0214H160.329C160.329 40.3222 160.329 41.6229 160.329 42.9236C160.644 42.3323 161.748 40.4404 164.113 39.3762C166.32 38.3908 168.33 38.6667 169 38.8244C168.921 40.6769 168.882 42.5294 168.803 44.382C164.901 43.0024 161.511 45.525 161.196 46.6681C160.881 47.8111 160.723 50.2155 160.723 53.8811V60.5029Z" fill="#3F3F3F"/>
<path d="M12.1406 115.803V86.1626H17.8165V115.803H12.1406Z" fill="#3F3F3F"/>
<path d="M19.1159 86.2021H24.7918V90.262C24.7918 91.9174 24.6341 93.2181 24.3582 94.1641C24.1611 94.7947 23.6487 95.7801 22.7422 96.7261C21.2049 98.3421 19.3918 98.8151 18.6035 98.9728C18.6035 98.0268 18.6035 97.0808 18.6035 96.1349C19.7466 95.7407 20.5743 95.2283 21.0473 94.5582C21.5203 93.8882 21.7962 92.9816 21.8356 91.8386H19.0765V86.2021H19.1159Z" fill="#3F3F3F"/>
<path d="M25.8555 115.803V86.1626H47.8476V91.1684H31.8461V97.7508H46.744V102.757H31.8461V110.837H48.3994V115.843H25.8555V115.803Z" fill="#3F3F3F"/>
<path d="M64.6769 107.881V104.649C63.8887 105.792 62.864 106.698 61.6028 107.368C60.3416 108.038 59.0016 108.354 57.5827 108.354C56.1245 108.354 54.8633 108.038 53.6809 107.408C52.5379 106.777 51.7103 105.871 51.1979 104.728C50.6856 103.584 50.4097 102.008 50.4097 99.9582V86.3599H56.0851V96.2138C56.0851 99.2488 56.2033 101.101 56.4003 101.771C56.5974 102.441 56.9915 102.993 57.5433 103.387C58.0951 103.782 58.8045 103.979 59.6322 103.979C60.6175 103.979 61.4845 103.703 62.2334 103.19C63.0216 102.638 63.534 102.008 63.8099 101.22C64.0858 100.431 64.2434 98.4999 64.2434 95.4255V86.3599H69.9188V107.841H64.6769V107.881Z" fill="#3F3F3F"/>
<path d="M78.1954 107.881H72.52V86.3994H77.8013C77.8013 87.5818 77.8013 88.7249 77.8013 89.9074C77.9195 89.6315 81.2696 84.6257 86.472 85.9658C86.472 87.5424 86.472 89.1585 86.472 90.7351C84.1467 89.9862 81.1907 90.4198 79.969 91.6417C79.3384 92.2329 78.9442 92.9818 78.6683 94.0066C78.353 95.1496 78.1954 97.554 78.1954 101.22V107.881Z" fill="#3F3F3F"/>
<path d="M83.8311 96.8449C83.8311 94.9529 84.304 93.1398 85.2105 91.3661C86.1564 89.5924 87.457 88.2523 89.1517 87.3063C90.8465 86.3603 92.7777 85.9268 94.8665 85.9268C98.0983 85.9268 100.778 86.991 102.867 89.08C104.956 91.2084 105.981 93.8493 105.981 97.0814C105.981 100.313 104.917 103.033 102.828 105.162C100.739 107.29 98.0983 108.354 94.9059 108.354C92.9353 108.354 91.0435 107.921 89.27 107.014C87.4964 106.108 86.117 104.807 85.2105 103.112C84.304 101.417 83.8311 99.328 83.8311 96.8449ZM89.6641 97.1602C89.6641 99.2886 90.1764 100.905 91.1618 102.048C92.1471 103.191 93.4083 103.743 94.9059 103.743C96.4036 103.743 97.6254 103.191 98.6501 102.048C99.6354 100.905 100.148 99.2886 100.148 97.1208C100.148 95.0318 99.6354 93.4157 98.6501 92.2727C97.6648 91.1296 96.4036 90.5778 94.9059 90.5778C93.4083 90.5778 92.1865 91.1296 91.1618 92.2727C90.1764 93.3763 89.6641 95.0318 89.6641 97.1602Z" fill="#3F3F3F"/>
<path d="M106.059 86.3996H111.341V89.5529C112.011 88.4886 112.957 87.5821 114.139 86.912C115.321 86.2419 116.622 85.8872 118.041 85.8872C120.524 85.8872 122.652 86.8726 124.386 88.804C126.12 90.7747 126.987 93.4944 126.987 96.963C126.987 100.55 126.12 103.348 124.347 105.319C122.613 107.29 120.484 108.315 117.962 108.315C116.78 108.315 115.715 108.078 114.73 107.605C113.784 107.132 112.76 106.304 111.695 105.161V116.001H106.02V86.3996H106.059ZM111.656 96.8053C111.656 99.2097 112.129 100.983 113.075 102.166C114.021 103.309 115.203 103.9 116.583 103.9C117.923 103.9 118.987 103.388 119.893 102.324C120.76 101.259 121.194 99.525 121.194 97.1206C121.194 94.874 120.76 93.1791 119.854 92.1149C118.947 91.0112 117.844 90.4594 116.504 90.4594C115.124 90.4594 113.942 91.0112 113.035 92.0755C112.129 93.1003 111.656 94.6769 111.656 96.8053Z" fill="#3F3F3F"/>
<path d="M140.585 101.062C142.477 101.062 144.368 101.023 146.26 101.023C146.142 101.811 145.511 104.767 142.831 106.738C140.664 108.315 138.417 108.354 136.92 108.354C133.175 108.354 130.416 107.132 128.643 104.688C127.224 102.718 126.515 100.274 126.515 97.2783C126.515 93.7309 127.461 90.9324 129.313 88.9222C131.165 86.912 133.53 85.8872 136.368 85.8872C139.56 85.8872 142.083 86.9514 143.935 89.0405C145.787 91.1689 146.654 94.401 146.576 98.7367H132.348C132.387 100.432 132.86 101.732 133.727 102.678C134.594 103.624 135.698 104.097 136.998 104.097C137.905 104.097 138.654 103.861 139.245 103.388C139.797 102.915 140.27 102.126 140.585 101.062ZM140.9 95.3075C140.861 93.6521 140.427 92.4302 139.639 91.563C138.811 90.6959 137.826 90.2623 136.683 90.2623C135.461 90.2623 134.437 90.6959 133.609 91.6025C132.781 92.509 132.387 93.7309 132.427 95.2681H140.9V95.3075Z" fill="#3F3F3F"/>
<path d="M77.9575 64.7595H78.6276V64.4048C78.6276 64.0106 78.667 63.7347 78.7458 63.5771C78.8247 63.38 78.9823 63.2618 79.1794 63.1435C79.4159 63.0253 79.613 62.9858 80.0071 62.9858C80.2042 62.9858 80.5195 62.9858 80.8349 63.0253C80.8349 63.3406 80.8349 63.6559 80.8349 63.9712C80.6378 63.9318 80.4801 63.8924 80.283 63.8924C80.1254 63.8924 80.0071 63.9318 79.9283 64.0106C79.8495 64.0895 79.8101 64.2471 79.8101 64.4836V64.799H80.6772V65.7055H79.8101V69.2135H78.6276V65.7055H77.9575V64.7595V64.7595Z" fill="#3F3F3F"/>
<path d="M83.8702 67.7945C84.2644 67.7945 84.6585 67.7945 85.0527 67.7945C85.0133 67.9522 84.895 68.5828 84.3038 68.977C83.8308 69.2923 83.3972 69.3317 83.0819 69.3317C82.2936 69.3317 81.7418 69.0952 81.3476 68.5828C81.0717 68.1887 80.9141 67.6762 80.9141 67.0456C80.9141 66.2967 81.1111 65.7449 81.5053 65.3113C81.8995 64.8777 82.3724 64.6807 82.9637 64.6807C83.6337 64.6807 84.1461 64.9172 84.5403 65.3507C84.9344 65.7843 85.0921 66.4544 85.0921 67.3609H82.1359C82.1359 67.7157 82.2542 67.9916 82.4118 68.1887C82.6089 68.3857 82.806 68.4646 83.0819 68.4646C83.279 68.4646 83.4367 68.4251 83.5549 68.3069C83.7126 68.1886 83.8308 68.031 83.8702 67.7945ZM83.9491 66.612C83.9491 66.2573 83.8702 66.0208 83.6732 65.8237C83.5155 65.6266 83.3184 65.5478 83.0425 65.5478C82.7666 65.5478 82.5695 65.6266 82.4118 65.8237C82.2542 66.0208 82.1754 66.2573 82.1754 66.5726H83.9491V66.612Z" fill="#3F3F3F"/>
<path d="M85.7227 67.7554C86.0775 67.7554 86.4716 67.7554 86.8264 67.7554C86.8658 67.9919 86.984 68.1496 87.1417 68.2678C87.2994 68.3861 87.4964 68.4649 87.7724 68.4649C88.0877 68.4649 88.3242 68.4255 88.4424 68.3072C88.5607 68.2284 88.6001 68.1102 88.6001 67.9919C88.6001 67.9131 88.5607 67.8343 88.5212 67.7554C88.4818 67.716 88.3242 67.6372 88.1271 67.5978C87.1811 67.4007 86.5899 67.2036 86.314 67.0065C85.9592 66.77 85.8016 66.4153 85.8016 66.0211C85.8016 65.627 85.9592 65.3117 86.2746 65.0358C86.5899 64.7598 87.0629 64.6416 87.6935 64.6416C88.2059 64.6416 88.6395 64.6416 89.0337 64.9569C89.5066 65.3117 89.6249 65.8635 89.6643 66.0211C89.2701 66.0211 88.9154 66.0211 88.5212 66.0211C88.4818 65.8635 88.403 65.7058 88.2453 65.627C88.1271 65.5482 87.93 65.4693 87.6935 65.4693C87.3782 65.4693 87.1417 65.5087 87.0235 65.5876C86.9446 65.6664 86.9052 65.7452 86.9052 65.8241C86.9052 65.9029 86.9446 65.9817 87.0235 66.0211C87.1417 66.1 87.4964 66.2182 88.1271 66.3365C88.7577 66.4941 89.1913 66.6518 89.4278 66.8489C89.6643 67.0459 89.7826 67.3613 89.7826 67.716C89.7826 68.1102 89.6249 68.4649 89.2701 68.7802C88.9154 69.0561 88.4424 69.2138 87.7724 69.2138C87.1811 69.2138 86.6687 69.0956 86.314 68.8591C86.0381 68.662 85.9198 68.5043 85.8804 68.4649C85.6833 68.2284 85.6833 67.9131 85.7227 67.7554Z" fill="#3F3F3F"/>
<path d="M92.8175 64.7596V65.7056H92.0292V67.5187C92.0292 67.8734 92.0292 68.1099 92.0686 68.1493C92.0686 68.2282 92.108 68.2676 92.1869 68.307C92.2263 68.3464 92.3051 68.3464 92.384 68.3464C92.5022 68.3464 92.6599 68.307 92.8569 68.2282L92.9752 69.1347C92.6993 69.253 92.3839 69.2924 92.0292 69.2924C91.8321 69.2924 91.635 69.253 91.438 69.1741C91.2803 69.0953 91.1621 69.0165 91.0438 68.8982C90.965 68.78 90.9256 68.6223 90.8862 68.4252C90.8467 68.307 90.8467 68.0311 90.8467 67.5975V65.6661H90.2949V64.7202H90.8467C90.8467 64.4443 90.8467 64.1289 90.8467 63.853C91.2409 63.853 91.635 63.853 92.0292 63.853C92.0292 64.1289 92.0292 64.4443 92.0292 64.7202H92.8175V64.7596Z" fill="#3F3F3F"/>
<path d="M93.5649 64.1686V63.0649H94.7474V64.1686H93.5649ZM93.5649 69.2138V64.7598H94.7474V69.2138H93.5649Z" fill="#3F3F3F"/>
<path d="M97.1515 69.2136L95.3384 64.7596H96.5603L97.388 67.0457L97.6245 67.7946C97.7033 67.5976 97.7427 67.4793 97.7427 67.4005C97.7821 67.2822 97.8216 67.164 97.861 67.0063L98.6887 64.7202H99.9106L98.1369 69.1742H97.1515V69.2136Z" fill="#3F3F3F"/>
<path d="M101.526 66.139C101.171 66.139 100.817 66.139 100.422 66.139C100.462 65.942 100.58 65.3507 101.053 64.996C101.408 64.7201 101.802 64.6807 102.354 64.6807C102.866 64.6807 103.26 64.7595 103.536 64.8777C103.812 64.996 103.97 65.1536 104.088 65.3507C104.206 65.5478 104.246 65.9026 104.246 66.415V67.7945C104.246 68.1887 104.246 68.4646 104.285 68.6616C104.325 68.8587 104.403 69.0558 104.482 69.2529H103.3C103.26 69.174 103.221 69.0558 103.182 68.8981C103.182 68.8193 103.142 68.7799 103.142 68.7405C102.945 68.9375 102.709 69.0952 102.511 69.174C102.275 69.2529 102.038 69.3317 101.763 69.3317C101.29 69.3317 100.935 69.2135 100.698 68.977C100.422 68.7405 100.304 68.4251 100.304 68.031C100.304 67.7945 100.383 67.558 100.501 67.3609C100.62 67.1638 100.777 67.0062 101.014 66.9274C101.211 66.8091 101.526 66.7303 101.96 66.6514C102.511 66.5332 102.906 66.4544 103.103 66.3755V66.2573C103.103 66.0208 103.063 65.8631 102.945 65.7843C102.827 65.7055 102.63 65.6266 102.314 65.6266C102.117 65.6266 101.96 65.6661 101.841 65.7449C101.684 65.7843 101.605 65.9025 101.526 66.139ZM103.103 67.085C102.945 67.1244 102.709 67.2033 102.393 67.2821C102.078 67.3609 101.841 67.4398 101.763 67.4792C101.605 67.5974 101.526 67.7157 101.526 67.9127C101.526 68.0704 101.605 68.2281 101.723 68.3463C101.841 68.4646 101.999 68.5434 102.196 68.5434C102.393 68.5434 102.63 68.4646 102.787 68.3463C102.945 68.2281 103.024 68.1098 103.063 67.9522C103.103 67.8339 103.103 67.6762 103.103 67.3609V67.085V67.085Z" fill="#3F3F3F"/>
<path d="M105.388 69.2138V63.0649H106.571V69.2138H105.388Z" fill="#3F3F3F"/>
<path d="M114.138 69.2136H113.035V68.5436C112.838 68.7801 112.641 68.9771 112.404 69.0954C112.168 69.2136 111.892 69.2925 111.655 69.2925C111.143 69.2925 110.709 69.0954 110.355 68.6618C110 68.2677 109.803 67.6764 109.803 66.9275C109.803 66.1786 110 65.5874 110.315 65.1932C110.67 64.7991 111.103 64.602 111.655 64.602C112.168 64.602 112.601 64.7991 112.956 65.2327V63.0254H114.138V69.2136ZM110.985 66.8881C110.985 67.3611 111.064 67.7158 111.182 67.9129C111.379 68.2282 111.655 68.3859 111.971 68.3859C112.247 68.3859 112.483 68.2677 112.68 68.0312C112.877 67.7947 112.956 67.4399 112.956 67.0064C112.956 66.494 112.877 66.1392 112.68 65.9027C112.483 65.6662 112.247 65.548 111.971 65.548C111.695 65.548 111.458 65.6662 111.261 65.8633C111.103 66.1392 110.985 66.4545 110.985 66.8881Z" fill="#3F3F3F"/>
<path d="M117.843 67.7945C118.237 67.7945 118.631 67.7945 119.025 67.7945C118.986 67.9522 118.868 68.5828 118.316 68.977C117.882 69.2923 117.409 69.3317 117.094 69.3317C116.306 69.3317 115.754 69.0952 115.36 68.5828C115.084 68.1887 114.926 67.6762 114.926 67.0456C114.926 66.2967 115.123 65.7449 115.518 65.3113C115.912 64.8777 116.385 64.6807 116.976 64.6807C117.646 64.6807 118.158 64.9172 118.553 65.3507C118.947 65.7843 119.104 66.4544 119.104 67.3609H116.148C116.148 67.7157 116.266 67.9916 116.424 68.1887C116.621 68.3857 116.818 68.4646 117.094 68.4646C117.291 68.4646 117.449 68.4251 117.567 68.3069C117.685 68.1886 117.764 68.031 117.843 67.7945ZM117.922 66.612C117.922 66.2573 117.843 66.0208 117.646 65.8237C117.488 65.6266 117.291 65.5478 117.015 65.5478C116.739 65.5478 116.542 65.6266 116.385 65.8237C116.227 66.0208 116.148 66.2573 116.148 66.5726H117.922V66.612Z" fill="#3F3F3F"/>
<path d="M121.824 64.7595H122.494V64.4048C122.494 64.0106 122.533 63.7347 122.612 63.5771C122.691 63.38 122.849 63.2618 123.046 63.1435C123.282 63.0253 123.519 62.9858 123.873 62.9858C124.07 62.9858 124.346 62.9858 124.662 63.0253C124.662 63.3406 124.701 63.6559 124.701 63.9712C124.504 63.9318 124.346 63.8924 124.149 63.8924C123.992 63.8924 123.873 63.9318 123.795 64.0106C123.716 64.0895 123.676 64.2471 123.676 64.4836V64.799H124.543V65.7055H123.676V69.2135H122.494V65.7055H121.824V64.7595V64.7595Z" fill="#3F3F3F"/>
<path d="M125.134 64.1686V63.0649H126.317V64.1686H125.134ZM125.134 69.2138V64.7598H126.317V69.2138H125.134Z" fill="#3F3F3F"/>
<path d="M127.499 69.2138V63.0649H128.681V69.2138H127.499Z" fill="#3F3F3F"/>
<path d="M129.746 64.7598H130.849V65.3511C131.243 64.8781 131.716 64.6416 132.229 64.6416C132.505 64.6416 132.781 64.681 132.978 64.7993C133.175 64.9175 133.372 65.0752 133.49 65.3117C133.687 65.0752 133.884 64.8781 134.121 64.7993C134.357 64.681 134.594 64.6416 134.83 64.6416C135.146 64.6416 135.421 64.7204 135.658 64.8387C135.894 64.9569 136.052 65.154 136.17 65.4299C136.249 65.627 136.289 65.9423 136.289 66.3365V69.1744H135.106V66.6124C135.106 66.1788 135.067 65.9029 134.988 65.7452C134.87 65.5876 134.712 65.5087 134.475 65.5087C134.318 65.5087 134.16 65.5482 134.002 65.6664C133.845 65.7846 133.766 65.9029 133.687 66.1C133.608 66.2971 133.608 66.6124 133.608 67.0065V69.135H132.426V66.77C132.426 66.3365 132.386 66.0606 132.347 65.9423C132.308 65.8241 132.229 65.7058 132.15 65.6664C132.071 65.5876 131.953 65.5876 131.795 65.5876C131.598 65.5876 131.44 65.627 131.322 65.7452C131.165 65.8241 131.086 65.9817 131.007 66.1788C130.928 66.3759 130.928 66.6518 130.928 67.0854V69.2532H129.746V64.7598V64.7598Z" fill="#3F3F3F"/>
<path d="M82.5691 76.3084H81.4655V75.6383C81.2684 75.8748 81.0713 76.0719 80.8348 76.1901C80.5983 76.3084 80.3224 76.3872 80.0859 76.3872C79.5735 76.3872 79.14 76.1901 78.7852 75.7565C78.4305 75.3624 78.2334 74.7712 78.2334 74.0223C78.2334 73.2734 78.4305 72.6821 78.7852 72.288C79.14 71.8938 79.5735 71.6967 80.1253 71.6967C80.6377 71.6967 81.0713 71.8938 81.4261 72.3274V70.1201H82.6085V76.3084H82.5691ZM79.4159 73.9828C79.4159 74.4558 79.4947 74.8106 79.6129 75.0076C79.81 75.323 80.0859 75.4806 80.4013 75.4806C80.6772 75.4806 80.9137 75.3624 81.1107 75.1259C81.3078 74.8894 81.3866 74.5347 81.3866 74.1011C81.3866 73.5887 81.3078 73.2339 81.1107 72.9975C80.9137 72.761 80.6772 72.6427 80.4013 72.6427C80.1253 72.6427 79.8889 72.761 79.6918 72.958C79.5341 73.2339 79.4159 73.5493 79.4159 73.9828Z" fill="#3F3F3F"/>
<path d="M83.6726 70.1987H84.8551V71.0265C84.8551 71.3812 84.8156 71.6177 84.7762 71.8148C84.7368 72.0118 84.6186 72.1695 84.4609 72.3272C84.3032 72.4848 84.1062 72.6031 83.8302 72.6819L83.5938 72.2089C83.8302 72.1301 83.9879 72.0118 84.1062 71.8936C84.2244 71.7754 84.2638 71.5783 84.2638 71.3418H83.712V70.1987H83.6726Z" fill="#3F3F3F"/>
<path d="M86.905 73.2343C86.5503 73.2343 86.1955 73.2343 85.8408 73.2343C85.8802 73.0372 85.959 72.4459 86.432 72.0912C86.7867 71.8153 87.1415 71.7759 87.7327 71.7759C88.2451 71.7759 88.6393 71.8547 88.9152 71.973C89.1911 72.0912 89.3488 72.2489 89.467 72.4459C89.5852 72.643 89.6247 72.9978 89.6247 73.5102V74.8897C89.6247 75.2839 89.6247 75.5598 89.6641 75.7569C89.7035 75.9539 89.7823 76.151 89.8612 76.3481H88.6787C88.6393 76.2693 88.5999 76.151 88.5604 75.9933C88.5604 75.9145 88.521 75.8751 88.521 75.8357C88.3239 76.0328 88.0875 76.1904 87.8904 76.2693C87.6539 76.3481 87.4174 76.4269 87.1415 76.4269C86.6685 76.4269 86.3138 76.3087 86.0773 76.0722C85.8014 75.8357 85.6831 75.5204 85.6831 75.1262C85.6831 74.8897 85.7619 74.6532 85.8802 74.4561C85.9984 74.2591 86.1561 74.1014 86.3926 74.0226C86.5897 73.9043 86.905 73.8255 87.3386 73.7467C87.8904 73.6284 88.2845 73.5496 88.4816 73.4707V73.3525C88.4816 73.116 88.4422 72.9583 88.3239 72.8795C88.2057 72.8007 88.0086 72.7219 87.6933 72.7219C87.4962 72.7219 87.3386 72.7613 87.2203 72.8401C87.1021 72.9189 86.9838 73.0372 86.905 73.2343ZM88.4816 74.1802C88.3239 74.2196 88.0875 74.2985 87.7721 74.3773C87.4568 74.4561 87.2203 74.535 87.1415 74.5744C86.9838 74.6926 86.905 74.8109 86.905 75.008C86.905 75.1656 86.9838 75.3233 87.1021 75.4415C87.2203 75.5598 87.378 75.6386 87.5751 75.6386C87.7721 75.6386 88.0086 75.5598 88.1663 75.4415C88.324 75.3233 88.4028 75.205 88.4422 75.0474C88.4816 74.9291 88.4816 74.7715 88.4816 74.4561V74.1802Z" fill="#3F3F3F"/>
<path d="M93.6834 76.3085V75.6384C93.5257 75.8749 93.2892 76.072 93.0527 76.1902C92.7768 76.3085 92.5009 76.3873 92.225 76.3873C91.9096 76.3873 91.6732 76.3085 91.4367 76.1902C91.2002 76.072 91.0425 75.8749 90.9243 75.6384C90.806 75.4019 90.7666 75.0866 90.7666 74.653V71.8545H91.9491V73.9041C91.9491 74.5348 91.9885 74.9289 92.0279 75.0472C92.0673 75.2048 92.1461 75.2836 92.2644 75.4019C92.3826 75.4807 92.5403 75.5201 92.698 75.5201C92.895 75.5201 93.0921 75.4807 93.2498 75.3625C93.4074 75.2442 93.5257 75.126 93.5651 74.9683C93.6045 74.8107 93.6439 74.4165 93.6439 73.7859V71.8939H94.8264V76.3479H93.6834V76.3085Z" fill="#3F3F3F"/>
<path d="M98.0186 71.8541V72.8001H97.2302V74.6132C97.2302 74.9679 97.2302 75.2044 97.2697 75.2438C97.2697 75.3227 97.3091 75.3621 97.3879 75.4015C97.4273 75.4409 97.5062 75.4409 97.585 75.4409C97.7032 75.4409 97.8609 75.4015 98.058 75.3227L98.1762 76.2292C97.9003 76.3475 97.585 76.3869 97.2302 76.3869C97.0332 76.3869 96.8361 76.3475 96.639 76.2686C96.4813 76.1898 96.3631 76.111 96.2449 75.9927C96.166 75.8745 96.1266 75.7168 96.0872 75.5197C96.0478 75.4015 96.0478 75.1256 96.0478 74.692V72.7607H95.4565V71.8147H96.0084C96.0084 71.5388 96.0084 71.2629 96.0084 71.0264C96.4025 71.0264 96.7967 71.0264 97.1908 71.0264C97.1908 71.3023 97.1908 71.5782 97.1908 71.8147H98.0186V71.8541Z" fill="#3F3F3F"/>
<path d="M101.369 74.8897C101.763 74.8897 102.157 74.8897 102.551 74.8897C102.512 75.0474 102.394 75.678 101.802 76.0722C101.329 76.3875 100.856 76.4269 100.58 76.4269C99.7921 76.4269 99.2403 76.1904 98.8462 75.678C98.5703 75.2839 98.4126 74.7715 98.4126 74.1408C98.4126 73.3919 98.6097 72.8401 99.0038 72.4065C99.398 71.973 99.871 71.7759 100.462 71.7759C101.132 71.7759 101.645 72.0124 102.039 72.4459C102.433 72.8795 102.591 73.5496 102.591 74.4561H99.6345C99.6345 74.8109 99.7527 75.0868 99.9104 75.2839C100.107 75.4809 100.305 75.5598 100.58 75.5598C100.778 75.5598 100.935 75.5204 101.053 75.4021C101.211 75.2839 101.29 75.1262 101.369 74.8897ZM101.408 73.7072C101.408 73.3525 101.329 73.116 101.132 72.9189C100.975 72.7219 100.778 72.643 100.502 72.643C100.226 72.643 100.029 72.7219 99.871 72.9189C99.7133 73.116 99.6345 73.3525 99.6345 73.6678H101.408V73.7072Z" fill="#3F3F3F"/>
<path d="M106.453 76.3085V75.6384C106.295 75.8749 106.059 76.072 105.822 76.1902C105.546 76.3085 105.27 76.3873 104.995 76.3873C104.679 76.3873 104.443 76.3085 104.206 76.1902C103.97 76.072 103.812 75.8749 103.694 75.6384C103.576 75.4019 103.536 75.0866 103.536 74.653V71.8545H104.719V73.9041C104.719 74.5348 104.758 74.9289 104.797 75.0472C104.837 75.2048 104.916 75.2836 105.034 75.4019C105.152 75.4807 105.31 75.5201 105.467 75.5201C105.665 75.5201 105.862 75.4807 106.019 75.3625C106.177 75.2442 106.295 75.126 106.335 74.9683C106.374 74.8107 106.413 74.4165 106.413 73.7859V71.8939H107.596V76.3479H106.453V76.3085Z" fill="#3F3F3F"/>
<path d="M109.842 76.3085H108.66V71.8546H109.763V72.4852C109.96 72.1699 110.118 71.9728 110.276 71.894C110.315 71.8546 110.355 71.8546 110.394 71.8152C110.552 71.7363 110.67 71.7363 110.788 71.7363C110.985 71.7363 111.182 71.7363 111.379 71.7363C111.379 72.0911 111.379 72.4458 111.379 72.8005C111.182 72.7611 110.906 72.7217 110.63 72.8005C110.512 72.84 110.355 72.8794 110.236 72.9582C110.079 73.0765 110 73.2735 109.96 73.4312C109.882 73.6677 109.842 74.1801 109.842 74.929V76.3085V76.3085Z" fill="#3F3F3F"/>
<path d="M116.937 74.8897C117.331 74.8897 117.725 74.8897 118.119 74.8897C118.08 75.0474 117.962 75.678 117.41 76.0722C116.976 76.3875 116.503 76.4269 116.188 76.4269C115.4 76.4269 114.848 76.1904 114.454 75.678C114.178 75.2839 114.02 74.7715 114.02 74.1408C114.02 73.3919 114.217 72.8401 114.611 72.4065C115.005 71.973 115.478 71.7759 116.07 71.7759C116.74 71.7759 117.252 72.0124 117.646 72.4459C118.04 72.8795 118.198 73.5496 118.198 74.4561H115.242C115.242 74.8109 115.36 75.0868 115.518 75.2839C115.715 75.4809 115.912 75.5598 116.188 75.5598C116.385 75.5598 116.543 75.5204 116.661 75.4021C116.779 75.2839 116.858 75.1262 116.937 74.8897ZM116.976 73.7072C116.976 73.3525 116.897 73.116 116.7 72.9189C116.543 72.7219 116.346 72.643 116.07 72.643C115.794 72.643 115.597 72.7219 115.439 72.9189C115.281 73.116 115.202 73.3525 115.202 73.6678H116.976V73.7072Z" fill="#3F3F3F"/>
<path d="M121.114 71.8543V72.8003H120.326V74.6134C120.326 74.9681 120.326 75.2046 120.365 75.244C120.365 75.3229 120.404 75.3623 120.483 75.4017C120.523 75.4411 120.601 75.4411 120.68 75.4411C120.799 75.4411 120.956 75.4017 121.153 75.3229L121.272 76.2294C120.996 76.3477 120.68 76.3871 120.326 76.3871C120.129 76.3871 119.931 76.3477 119.734 76.2689C119.577 76.19 119.458 76.1112 119.34 75.9929C119.261 75.8747 119.222 75.717 119.183 75.52C119.143 75.4017 119.143 75.1258 119.143 74.6922V72.7609H118.591V71.8149H119.143C119.143 71.539 119.143 71.2631 119.104 70.9872C119.498 70.9872 119.892 70.9872 120.286 70.9478C120.286 71.2237 120.286 71.4996 120.286 71.7755H121.114V71.8543Z" fill="#3F3F3F"/>
<path d="M128.326 76.3084H127.223V75.6383C127.026 75.8748 126.829 76.0719 126.592 76.1901C126.356 76.3084 126.08 76.3872 125.843 76.3872C125.331 76.3872 124.897 76.1901 124.543 75.7565C124.188 75.3624 123.991 74.7712 123.991 74.0223C123.991 73.2734 124.188 72.6821 124.503 72.288C124.858 71.8938 125.291 71.6967 125.843 71.6967C126.356 71.6967 126.789 71.8938 127.144 72.3274V70.1201H128.326V76.3084ZM125.173 73.9828C125.173 74.4558 125.252 74.8106 125.37 75.0076C125.567 75.323 125.843 75.4806 126.159 75.4806C126.434 75.4806 126.671 75.3624 126.868 75.1259C127.065 74.8894 127.144 74.5347 127.144 74.1011C127.144 73.5887 127.065 73.2339 126.868 72.9975C126.671 72.761 126.434 72.6427 126.159 72.6427C125.883 72.6427 125.646 72.761 125.449 72.958C125.252 73.2339 125.173 73.5493 125.173 73.9828Z" fill="#3F3F3F"/>
<path d="M129.39 70.1987H130.573V71.0265C130.573 71.3812 130.533 71.6177 130.494 71.8148C130.455 72.0118 130.336 72.1695 130.179 72.3272C130.021 72.4848 129.824 72.6031 129.548 72.6819L129.312 72.2089C129.548 72.1301 129.706 72.0118 129.824 71.8936C129.942 71.7754 129.982 71.5783 129.982 71.3418H129.43V70.1987H129.39Z" fill="#3F3F3F"/>
<path d="M132.662 73.2343C132.307 73.2343 131.992 73.2343 131.637 73.2343C131.677 73.0372 131.755 72.4854 132.228 72.0912C132.583 71.8153 132.938 71.7759 133.529 71.7759C134.042 71.7759 134.436 71.8547 134.712 71.973C134.987 72.0912 135.145 72.2489 135.263 72.4459C135.382 72.643 135.421 72.9978 135.421 73.5102V74.8897C135.421 75.2839 135.421 75.5598 135.46 75.7569C135.5 75.9539 135.579 76.151 135.658 76.3481H134.475C134.436 76.2693 134.396 76.151 134.357 75.9933C134.357 75.9145 134.317 75.8751 134.317 75.8357C134.12 76.0328 133.884 76.1904 133.687 76.2693C133.45 76.3481 133.214 76.4269 132.938 76.4269C132.465 76.4269 132.11 76.3087 131.874 76.0722C131.598 75.8357 131.479 75.5204 131.479 75.1262C131.479 74.8897 131.558 74.6532 131.677 74.4561C131.795 74.2591 131.952 74.1014 132.189 74.0226C132.386 73.9043 132.701 73.8255 133.135 73.7467C133.687 73.6284 134.081 73.5496 134.278 73.4707V73.3525C134.278 73.116 134.239 72.9583 134.12 72.8795C134.002 72.8007 133.805 72.7219 133.49 72.7219C133.293 72.7219 133.135 72.7613 133.017 72.8401C132.82 72.8795 132.701 73.0372 132.662 73.2343ZM134.239 74.1802C134.081 74.2196 133.844 74.2985 133.529 74.3773C133.214 74.4561 132.977 74.535 132.898 74.5744C132.741 74.6926 132.662 74.8109 132.662 75.008C132.662 75.1656 132.741 75.3233 132.859 75.4415C132.977 75.5598 133.135 75.6386 133.332 75.6386C133.529 75.6386 133.766 75.5598 133.923 75.4415C134.081 75.3233 134.16 75.205 134.199 75.0474C134.239 74.9291 134.239 74.7715 134.239 74.4561V74.1802V74.1802Z" fill="#3F3F3F"/>
<path d="M137.628 76.3085H136.445V71.8546H137.549V72.4852C137.746 72.1699 137.904 71.9728 138.061 71.894C138.101 71.8546 138.14 71.8546 138.18 71.8152C138.337 71.7363 138.456 71.7363 138.574 71.7363C138.771 71.7363 138.968 71.7363 139.165 71.7363C139.165 72.1305 139.165 72.4852 139.165 72.8794C139.086 72.84 138.928 72.7611 138.731 72.7217C138.692 72.7217 138.298 72.6823 138.022 72.9188C137.864 73.037 137.825 73.1947 137.746 73.3918C137.667 73.6283 137.628 74.1407 137.628 74.8896V76.3085Z" fill="#3F3F3F"/>
<path d="M142.121 71.8544V72.8004H141.333V74.6135C141.333 74.9683 141.333 75.2048 141.372 75.2442C141.372 75.323 141.412 75.3624 141.491 75.4018C141.53 75.4413 141.609 75.4413 141.688 75.4413C141.806 75.4413 141.964 75.4018 142.161 75.323L142.279 76.2296C142.003 76.3478 141.688 76.3872 141.333 76.3872C141.136 76.3872 140.939 76.3478 140.742 76.269C140.584 76.1902 140.466 76.1113 140.348 75.9931C140.269 75.8748 140.229 75.7172 140.19 75.5201C140.15 75.4018 140.15 75.1259 140.15 74.6924V72.761H139.599V71.815H140.15C140.15 71.5391 140.15 71.2632 140.19 70.9873C140.584 70.9873 140.978 70.9873 141.333 71.0267C141.333 71.3026 141.333 71.5785 141.333 71.8544H142.121Z" fill="#3F3F3F"/>
<path d="M82.5691 83.7185H81.4655V83.0485C81.2684 83.2849 81.0713 83.482 80.8348 83.6003C80.5983 83.7185 80.3224 83.7973 80.0859 83.7973C79.5735 83.7973 79.14 83.6003 78.7852 83.1667C78.4305 82.7725 78.2334 82.1813 78.2334 81.4324C78.2334 80.6835 78.4305 80.0923 78.7852 79.6981C79.14 79.304 79.5735 79.1069 80.1253 79.1069C80.6377 79.1069 81.0713 79.304 81.4261 79.7375V77.5303H82.6085V83.7185H82.5691ZM79.4159 81.393C79.4159 81.866 79.4947 82.2207 79.6129 82.4178C79.81 82.7331 80.0859 82.8908 80.4013 82.8908C80.6772 82.8908 80.9137 82.7725 81.1107 82.5361C81.3078 82.2996 81.3866 81.9448 81.3866 81.5112C81.3866 80.9988 81.3078 80.6441 81.1107 80.4076C80.9137 80.1711 80.6772 80.0529 80.4013 80.0529C80.1253 80.0529 79.8889 80.1711 79.6918 80.3682C79.5341 80.6441 79.4159 80.9594 79.4159 81.393Z" fill="#3F3F3F"/>
<path d="M86.1956 82.2994C86.5897 82.2994 86.9839 82.2994 87.4174 82.2994C87.378 82.457 87.2204 83.0877 86.6685 83.4818C86.1956 83.7972 85.7226 83.8366 85.4467 83.8366C84.6584 83.8366 84.1065 83.6001 83.7124 83.0877C83.4365 82.6935 83.2788 82.1811 83.2788 81.5505C83.2788 80.8016 83.4759 80.2498 83.87 79.8162C84.2642 79.3826 84.7372 79.1855 85.3284 79.1855C85.9985 79.1855 86.5109 79.422 86.905 79.8556C87.2992 80.2892 87.4569 80.9592 87.4569 81.8658H84.5007C84.5007 82.2205 84.6189 82.4965 84.7766 82.6935C84.9737 82.8906 85.1708 82.9694 85.4467 82.9694C85.6437 82.9694 85.8014 82.93 85.9197 82.8118C86.0379 82.6935 86.1167 82.5359 86.1956 82.2994ZM86.235 81.1169C86.235 80.7622 86.1561 80.5257 85.9591 80.3286C85.8014 80.1315 85.6043 80.0527 85.3284 80.0527C85.0525 80.0527 84.8554 80.1315 84.6978 80.3286C84.5401 80.5257 84.4613 80.7622 84.4613 81.0775H86.235V81.1169Z" fill="#3F3F3F"/>
<path d="M90.4917 83.7187V77.5698H91.6742V83.7187H90.4917Z" fill="#3F3F3F"/>
<path d="M93.6452 80.6439C93.2905 80.6439 92.9357 80.6439 92.5416 80.6439C92.581 80.4468 92.6993 79.8556 93.1722 79.5009C93.527 79.225 93.9211 79.1855 94.473 79.1855C94.9854 79.1855 95.3795 79.2644 95.6554 79.3826C95.9313 79.5009 96.089 79.6585 96.2072 79.8556C96.3255 80.0527 96.3649 80.4074 96.3649 80.9198V82.2994C96.3649 82.6935 96.3649 82.9694 96.4043 83.1665C96.4437 83.3636 96.5226 83.5607 96.6014 83.7578H95.4189C95.3795 83.6789 95.3401 83.5607 95.3007 83.403C95.3007 83.3242 95.2613 83.2848 95.2613 83.2454C95.0642 83.4424 94.8277 83.6001 94.6306 83.6789C94.3941 83.7578 94.1576 83.8366 93.8817 83.8366C93.4087 83.8366 93.054 83.7183 92.8175 83.4818C92.5416 83.2453 92.4233 82.93 92.4233 82.5359C92.4233 82.2994 92.5022 82.0629 92.6204 81.8658C92.7387 81.6687 92.8963 81.5111 93.1328 81.4322C93.3299 81.314 93.6452 81.2352 94.0788 81.1563C94.6306 81.0381 95.0248 80.9592 95.2218 80.8804V80.7622C95.2218 80.5257 95.1824 80.368 95.0642 80.2892C94.9459 80.2104 94.7489 80.1315 94.4335 80.1315C94.2365 80.1315 94.0788 80.1709 93.9606 80.2498C93.8029 80.2892 93.7241 80.4074 93.6452 80.6439ZM95.2218 81.5899C95.0642 81.6293 94.8277 81.7081 94.5124 81.787C94.197 81.8658 93.9606 81.9446 93.8817 81.9841C93.7241 82.1023 93.6452 82.2205 93.6452 82.4176C93.6452 82.5753 93.7241 82.733 93.8423 82.8512C93.9605 82.9694 94.1182 83.0483 94.3153 83.0483C94.5124 83.0483 94.7489 82.9694 94.9065 82.8512C95.0642 82.733 95.143 82.6147 95.1824 82.457C95.2218 82.3388 95.2218 82.1811 95.2218 81.8658V81.5899V81.5899Z" fill="#3F3F3F"/>
<path d="M102.512 81.4718V80.447C103.339 80.447 104.206 80.447 105.034 80.447C105.034 81.5507 105.034 83.7579 105.034 83.7579C104.719 83.7579 104.404 83.7579 104.088 83.7579C104.088 83.5214 104.088 83.3244 104.088 83.0879C103.97 83.2061 103.773 83.4032 103.497 83.5609C103.063 83.7974 102.669 83.8368 102.59 83.8762C101.763 83.9944 101.171 83.6003 100.896 83.482C100.423 83.2061 100.068 82.812 99.8313 82.339C99.5948 81.866 99.4766 81.2748 99.4766 80.6835C99.4766 80.0529 99.5948 79.4616 99.8707 78.9886C100.147 78.4762 100.541 78.1215 101.053 77.8456C101.447 77.6485 101.92 77.5303 102.512 77.5303C103.26 77.5303 103.852 77.6879 104.285 78.0033C104.522 78.1609 104.64 78.358 104.679 78.3974C105.034 78.831 105.074 79.3434 105.074 79.5799C104.679 79.5799 104.285 79.5799 103.891 79.5799C103.812 79.2646 103.655 79.0281 103.418 78.8704C103.182 78.7127 102.866 78.5945 102.512 78.5945C101.96 78.5945 101.526 78.7522 101.211 79.1069C100.896 79.4616 100.738 79.974 100.738 80.6441C100.738 81.3536 100.896 81.9054 101.211 82.2996C101.526 82.6543 101.96 82.8514 102.472 82.8514C102.748 82.8514 102.985 82.812 103.26 82.6937C103.931 82.4178 103.931 81.5507 103.931 81.5507H102.512V81.4718Z" fill="#3F3F3F"/>
<path d="M107.044 83.7187H105.861V79.2647H106.965V79.8954C107.162 79.5801 107.32 79.383 107.477 79.3042C107.635 79.2253 107.793 79.1465 107.99 79.1465C108.266 79.1465 108.502 79.2253 108.778 79.383C108.739 79.6983 108.739 80.053 108.699 80.3684C108.62 80.329 108.542 80.329 108.423 80.2895C108.305 80.2501 108.187 80.2107 108.069 80.2107C107.99 80.2107 107.674 80.1713 107.438 80.3684C107.28 80.4866 107.241 80.6443 107.162 80.8414C107.083 81.0778 107.044 81.5903 107.044 82.3391V83.7187V83.7187Z" fill="#3F3F3F"/>
<path d="M110 80.6439C109.645 80.6439 109.29 80.6439 108.936 80.6439C108.975 80.4468 109.054 79.8556 109.566 79.5009C109.921 79.225 110.276 79.1855 110.867 79.1855C111.379 79.1855 111.774 79.2644 112.049 79.3826C112.325 79.5009 112.483 79.6585 112.601 79.8556C112.72 80.0527 112.759 80.4074 112.759 80.9198V82.2994C112.759 82.6935 112.759 82.9694 112.798 83.1665C112.838 83.3636 112.917 83.5607 112.995 83.7578H111.813C111.774 83.6789 111.734 83.5607 111.695 83.403C111.695 83.3242 111.655 83.2848 111.655 83.2454C111.458 83.4424 111.222 83.6001 111.025 83.6789C110.788 83.7578 110.552 83.8366 110.276 83.8366C109.803 83.8366 109.448 83.7183 109.212 83.4818C108.936 83.2453 108.817 82.93 108.817 82.5359C108.817 82.2994 108.896 82.0629 109.014 81.8658C109.133 81.6687 109.29 81.5111 109.527 81.4322C109.724 81.314 110.039 81.2352 110.473 81.1563C111.025 81.0381 111.419 80.9592 111.616 80.8804V80.7622C111.616 80.5257 111.576 80.368 111.458 80.2892C111.34 80.2104 111.143 80.1315 110.828 80.1315C110.631 80.1315 110.473 80.1709 110.355 80.2498C110.158 80.2892 110.079 80.4074 110 80.6439ZM111.576 81.5899C111.419 81.6293 111.182 81.7081 110.867 81.787C110.552 81.8658 110.315 81.9446 110.236 81.9841C110.079 82.1023 110 82.2205 110 82.4176C110 82.5753 110.079 82.733 110.197 82.8512C110.315 82.9694 110.473 83.0483 110.67 83.0483C110.867 83.0483 111.103 82.9694 111.261 82.8512C111.419 82.733 111.498 82.6147 111.537 82.457C111.576 82.3388 111.576 82.1811 111.576 81.8658V81.5899V81.5899Z" fill="#3F3F3F"/>
<path d="M117.804 83.7187H116.621V81.4326C116.621 80.9596 116.582 80.6443 116.542 80.4866C116.503 80.329 116.424 80.2501 116.306 80.1713C116.188 80.0925 116.069 80.053 115.912 80.053C115.715 80.053 115.517 80.0925 115.36 80.2107C115.202 80.329 115.084 80.4866 115.045 80.6443C114.966 80.8414 114.966 81.1567 114.966 81.6691V83.6793H113.783V79.2253H114.887V79.8954C115.281 79.383 115.754 79.1465 116.345 79.1465C116.621 79.1465 116.858 79.1859 117.055 79.3042C117.252 79.383 117.449 79.5012 117.528 79.6589C117.646 79.8166 117.725 79.9742 117.764 80.1713C117.804 80.3684 117.843 80.6049 117.843 80.9596V83.7187H117.804Z" fill="#3F3F3F"/>
<path d="M122.967 83.7185H121.863V83.0485C121.666 83.2849 121.469 83.482 121.232 83.6003C120.996 83.7185 120.72 83.7973 120.483 83.7973C119.971 83.7973 119.537 83.6003 119.183 83.1667C118.828 82.7725 118.631 82.1813 118.631 81.4324C118.631 80.6835 118.828 80.0923 119.183 79.6981C119.537 79.304 119.971 79.1069 120.523 79.1069C121.035 79.1069 121.469 79.304 121.824 79.7375V77.5303H123.006V83.7185H122.967ZM119.813 81.393C119.813 81.866 119.892 82.2207 120.01 82.4178C120.207 82.7331 120.483 82.8908 120.799 82.8908C121.075 82.8908 121.311 82.7725 121.508 82.5361C121.705 82.2996 121.784 81.9448 121.784 81.5112C121.784 80.9988 121.705 80.6441 121.508 80.4076C121.311 80.1711 121.075 80.0529 120.799 80.0529C120.523 80.0529 120.286 80.1711 120.089 80.3682C119.892 80.6441 119.813 80.9594 119.813 81.393Z" fill="#3F3F3F"/>
<path d="M126.553 82.2994C126.947 82.2994 127.381 82.2994 127.775 82.2994C127.735 82.457 127.578 83.0877 127.026 83.4818C126.553 83.7972 126.08 83.8366 125.804 83.8366C125.016 83.8366 124.464 83.6001 124.07 83.0877C123.794 82.6935 123.636 82.1811 123.636 81.5505C123.636 80.8016 123.833 80.2498 124.227 79.8162C124.622 79.3826 125.095 79.1855 125.686 79.1855C126.356 79.1855 126.868 79.422 127.262 79.8556C127.657 80.2892 127.814 80.9592 127.814 81.8658H124.858C124.858 82.2205 124.976 82.4965 125.134 82.6935C125.331 82.8906 125.528 82.9694 125.804 82.9694C126.001 82.9694 126.159 82.93 126.277 82.8118C126.395 82.6935 126.514 82.5359 126.553 82.2994ZM126.632 81.1169C126.632 80.7622 126.553 80.5257 126.356 80.3286C126.198 80.1315 126.001 80.0527 125.725 80.0527C125.449 80.0527 125.252 80.1315 125.095 80.3286C124.937 80.5257 124.858 80.7622 124.858 81.0775H126.632V81.1169Z" fill="#3F3F3F"/>
<path d="M130.888 83.7187V77.5698H135.46V78.5946H132.149V79.9742H135.224V80.999H132.149V82.6544H135.579V83.6792H130.888V83.7187Z" fill="#3F3F3F"/>
<path d="M139.125 83.7181V83.0481C138.968 83.2846 138.731 83.4816 138.495 83.5999C138.219 83.7181 137.943 83.797 137.667 83.797C137.352 83.797 137.115 83.7181 136.879 83.5999C136.642 83.4816 136.484 83.2846 136.366 83.0481C136.248 82.8116 136.208 82.4962 136.208 82.0627V79.2642H137.391V81.3138C137.391 81.9444 137.43 82.3386 137.47 82.4568C137.509 82.6145 137.588 82.6933 137.706 82.8116C137.825 82.8904 137.982 82.9298 138.14 82.9298C138.337 82.9298 138.534 82.8904 138.692 82.7721C138.849 82.6539 138.968 82.5357 139.007 82.378C139.046 82.2203 139.086 81.8262 139.086 81.1955V79.3036H140.268V83.7181H139.125Z" fill="#3F3F3F"/>
<path d="M142.436 83.7187H141.254V79.2647H142.358V79.8954C142.555 79.5801 142.712 79.383 142.87 79.3042C143.028 79.2253 143.185 79.1465 143.382 79.1465C143.658 79.1465 143.895 79.2253 144.171 79.383C144.131 79.7377 144.131 80.053 144.092 80.4078C144.013 80.3684 143.934 80.329 143.855 80.2895C143.776 80.2501 143.619 80.2107 143.461 80.2107C143.343 80.2107 143.067 80.1713 142.87 80.3684C142.712 80.4866 142.673 80.6443 142.594 80.8414C142.515 81.0778 142.476 81.5903 142.476 82.3391V83.7187H142.436Z" fill="#3F3F3F"/>
<path d="M144.25 81.4322C144.25 81.0381 144.328 80.6439 144.525 80.2892C144.723 79.9344 144.998 79.6585 145.353 79.4615C145.708 79.2644 146.102 79.1855 146.536 79.1855C147.206 79.1855 147.757 79.422 148.191 79.8556C148.625 80.2892 148.822 80.841 148.822 81.5111C148.822 82.1811 148.585 82.733 148.152 83.1665C147.718 83.6001 147.166 83.8366 146.496 83.8366C146.102 83.8366 145.708 83.7578 145.314 83.5607C144.92 83.3636 144.644 83.0877 144.486 82.7329C144.328 82.3782 144.25 81.9446 144.25 81.4322ZM145.432 81.5111C145.432 81.9446 145.55 82.2994 145.747 82.5359C145.944 82.7724 146.22 82.8906 146.536 82.8906C146.851 82.8906 147.087 82.7724 147.324 82.5359C147.521 82.2994 147.639 81.9446 147.639 81.5111C147.639 81.0775 147.521 80.7228 147.324 80.4863C147.127 80.2498 146.851 80.1315 146.536 80.1315C146.22 80.1315 145.984 80.2498 145.747 80.4863C145.55 80.7228 145.432 81.0381 145.432 81.5111Z" fill="#3F3F3F"/>
<path d="M149.609 79.2644H150.713V79.9344C150.87 79.6979 151.067 79.5403 151.304 79.3826C151.54 79.225 151.816 79.1855 152.131 79.1855C152.644 79.1855 153.077 79.3826 153.432 79.7768C153.787 80.1709 153.984 80.7622 153.984 81.4717C153.984 82.2205 153.787 82.8118 153.432 83.2059C153.077 83.6001 152.644 83.8366 152.131 83.8366C151.895 83.8366 151.659 83.7972 151.461 83.6789C151.264 83.6001 151.067 83.403 150.831 83.1665V85.4132H149.648V79.2644H149.609ZM150.752 81.4322C150.752 81.9446 150.87 82.2994 151.067 82.5359C151.264 82.7724 151.501 82.8906 151.777 82.8906C152.053 82.8906 152.289 82.7724 152.447 82.5753C152.604 82.3782 152.723 81.9841 152.723 81.5111C152.723 81.0381 152.644 80.6833 152.447 80.4863C152.25 80.2498 152.013 80.1315 151.737 80.1315C151.461 80.1315 151.225 80.2498 151.028 80.4468C150.87 80.6439 150.752 80.9987 150.752 81.4322Z" fill="#3F3F3F"/>
<path d="M157.334 82.2994C157.728 82.2994 158.162 82.2994 158.556 82.2994C158.517 82.457 158.359 83.0877 157.807 83.4818C157.334 83.7972 156.861 83.8366 156.585 83.8366C155.797 83.8366 155.245 83.6001 154.851 83.0877C154.575 82.6935 154.417 82.1811 154.417 81.5505C154.417 80.8016 154.615 80.2498 155.009 79.8162C155.403 79.3826 155.876 79.1855 156.467 79.1855C157.137 79.1855 157.65 79.422 158.044 79.8556C158.438 80.2892 158.596 80.9592 158.596 81.8658H155.639C155.639 82.2205 155.758 82.4965 155.915 82.6935C156.112 82.8906 156.309 82.9694 156.585 82.9694C156.782 82.9694 156.94 82.93 157.058 82.8118C157.177 82.6935 157.255 82.5359 157.334 82.2994ZM157.374 81.1169C157.374 80.7622 157.295 80.5257 157.098 80.3286C156.94 80.1315 156.743 80.0527 156.467 80.0527C156.191 80.0527 155.994 80.1315 155.836 80.3286C155.679 80.5257 155.6 80.7622 155.6 81.0775H157.374V81.1169Z" fill="#3F3F3F"/>
</svg>
