<?xml version="1.0" standalone="no"?>
<!DOCTYPE svg PUBLIC "-//W3C//DTD SVG 20010904//EN"
 "http://www.w3.org/TR/2001/REC-SVG-20010904/DTD/svg10.dtd">
<svg version="1.0" xmlns="http://www.w3.org/2000/svg"
 width="464.000000pt" height="464.000000pt" viewBox="0 0 464.000000 464.000000"
 preserveAspectRatio="xMidYMid meet">
<metadata>
Created by potrace 1.14, written by Peter Selinger 2001-2017
</metadata>
<g transform="translate(0.000000,464.000000) scale(0.100000,-0.100000)"
fill="#000000" stroke="none">
<path d="M1850 4130 c-13 -8 -12 -10 3 -10 9 0 17 5 17 10 0 12 -1 12 -20 0z"/>
<path d="M500 4110 c-8 -5 -11 -12 -7 -17 5 -4 12 -1 16 6 7 11 13 9 30 -8 31
-31 19 -47 -37 -44 -35 2 -42 1 -27 -6 27 -13 85 -13 85 -1 0 6 7 10 16 10 8
0 12 -4 9 -10 -3 -5 0 -10 8 -10 20 0 9 50 -12 51 -9 1 4 5 29 9 25 4 47 3 48
-1 2 -5 8 -9 13 -9 6 0 7 5 4 10 -3 6 1 10 9 10 9 0 16 -6 16 -14 0 -8 3 -21
6 -30 4 -11 1 -16 -10 -16 -9 0 -19 6 -22 14 -3 8 -13 13 -22 11 -9 -2 -20 -4
-24 -4 -5 -1 -8 -6 -8 -13 0 -6 3 -9 6 -6 3 4 20 2 37 -4 53 -16 167 -21 167
-7 0 7 4 8 13 2 6 -5 26 -8 42 -6 17 1 50 3 75 3 34 1 40 4 25 10 -11 5 -30 9
-42 9 -13 1 -23 5 -23 10 0 5 21 7 48 6 38 -1 46 -5 44 -18 -2 -10 3 -17 10
-17 7 -1 46 -3 86 -6 55 -5 72 -3 70 7 -3 14 38 39 65 39 21 0 23 -26 1 -34
-8 -3 -12 -10 -9 -16 9 -15 25 -12 25 5 0 8 7 15 15 15 9 0 12 6 9 15 -4 10 0
15 12 15 16 0 16 2 4 10 -8 5 -19 5 -25 0 -6 -5 -17 -5 -25 1 -13 8 -13 10 0
19 8 5 11 10 6 10 -5 0 -18 -7 -28 -17 -11 -10 -18 -12 -18 -4 0 8 -5 9 -19 1
-16 -8 -23 -6 -33 8 -18 25 -47 21 -63 -8 -11 -19 -14 -21 -15 -7 0 9 -6 18
-12 19 -47 5 -85 3 -97 -6 -12 -9 -13 -8 -6 3 6 11 3 13 -19 7 -14 -3 -36 -2
-47 5 -11 6 -28 7 -37 4 -18 -8 -147 -9 -159 -2 -5 3 -32 1 -61 -3 -31 -4 -55
-3 -59 3 -3 5 -10 2 -15 -7 -8 -15 -11 -15 -24 -1 -18 17 -24 18 -44 5z"/>
<path d="M460 4101 c0 -5 5 -13 10 -16 6 -3 10 -2 10 4 0 5 -4 13 -10 16 -5 3
-10 2 -10 -4z"/>
<path d="M680 4060 c0 -5 5 -10 11 -10 5 0 7 5 4 10 -3 6 -8 10 -11 10 -2 0
-4 -4 -4 -10z"/>
<path d="M202 3998 c-13 -24 -21 -36 -18 -26 6 23 -4 30 -22 15 -12 -9 -16 -9
-19 1 -5 13 -43 16 -81 5 -18 -4 -21 -8 -10 -15 9 -6 3 -8 -20 -5 -24 3 -32 0
-32 -12 0 -18 3 -18 170 -21 58 -1 116 1 129 4 13 3 28 3 33 0 6 -4 96 -5 201
-4 369 5 652 4 708 -2 69 -7 180 10 156 24 -9 5 -44 7 -77 4 -33 -3 -60 -1
-60 4 0 13 -90 29 -114 21 -12 -5 -27 -6 -33 -4 -7 3 -13 0 -13 -7 0 -7 -26
-9 -90 -4 -70 5 -90 4 -90 -6 0 -9 -3 -10 -14 -1 -9 7 -57 11 -132 10 -66 0
-128 3 -138 7 -15 6 -17 4 -11 -6 5 -8 4 -11 -2 -7 -5 3 -26 7 -46 9 -21 1
-37 5 -37 8 0 6 -53 12 -133 14 -31 0 -57 5 -57 10 0 5 -6 3 -14 -3 -7 -6 -22
-10 -32 -10 -44 4 -85 -2 -79 -11 3 -5 1 -10 -4 -10 -16 0 -13 20 4 26 8 4 15
12 15 20 0 26 -16 14 -38 -28z"/>
<path d="M85 4020 c-3 -5 -1 -10 4 -10 6 0 11 5 11 10 0 6 -2 10 -4 10 -3 0
-8 -4 -11 -10z"/>
<path d="M1405 4020 c-8 -13 -1 -24 14 -19 6 3 7 10 2 18 -6 10 -10 10 -16 1z"/>
<path d="M1520 4015 c0 -7 -14 -12 -31 -13 -41 -1 -51 -12 -11 -12 18 0 32 -4
32 -8 0 -5 -8 -9 -17 -9 -48 1 -73 -4 -73 -13 0 -5 18 -10 40 -10 31 0 40 -4
40 -17 1 -16 2 -16 12 1 6 11 11 29 12 40 1 18 7 20 36 18 29 -3 32 -2 22 11
-16 19 -62 28 -62 12z"/>
<path d="M1668 3993 c7 -3 16 -2 19 1 4 3 -2 6 -13 5 -11 0 -14 -3 -6 -6z"/>
<path d="M1730 3980 c-8 -5 -50 -6 -95 -3 -44 3 -76 2 -72 -3 4 -4 27 -7 51
-5 28 1 48 -3 58 -13 25 -24 67 -31 74 -12 3 9 10 16 16 16 5 0 7 -4 4 -9 -10
-16 23 -21 38 -6 12 13 15 12 21 -3 7 -15 8 -15 15 3 7 17 9 17 9 3 1 -10 6
-18 11 -18 14 0 13 33 -2 48 -14 14 -106 16 -128 2z"/>
<path d="M1895 3982 c-5 -4 -11 -14 -13 -24 -2 -13 9 -17 63 -20 47 -2 66 1
70 10 8 20 -3 31 -25 26 -11 -2 -29 -6 -40 -9 -13 -2 -23 2 -27 10 -6 17 -13
18 -28 7z"/>
<path d="M2031 3954 c0 -11 3 -14 6 -6 3 7 2 16 -1 19 -3 4 -6 -2 -5 -13z"/>
<path d="M2060 3950 c0 -5 5 -10 10 -10 6 0 10 5 10 10 0 6 -4 10 -10 10 -5 0
-10 -4 -10 -10z"/>
<path d="M0 3837 c0 -59 4 -87 13 -90 10 -4 10 -6 0 -6 -8 -1 -13 -16 -13 -41
l0 -40 78 6 c42 4 88 6 102 5 92 -6 121 -9 127 -15 3 -3 11 -6 17 -6 6 0 4 5
-4 10 -12 8 -11 10 7 10 12 0 25 5 29 11 4 8 0 9 -15 4 -12 -4 -21 -2 -21 4 0
10 42 16 85 12 10 -1 26 2 35 5 26 12 40 13 40 3 0 -5 5 -9 10 -9 6 0 10 7 10
15 0 17 14 19 119 15 53 -2 76 2 82 11 6 10 9 10 9 2 0 -9 52 -11 221 -7 205
5 222 4 235 -13 12 -17 13 -17 14 -1 0 11 11 20 28 24 15 4 33 12 41 18 11 8
13 8 7 -2 -6 -9 -1 -11 18 -8 14 3 28 1 31 -4 2 -4 49 -7 104 -6 54 0 97 -2
94 -7 -2 -4 42 -4 99 -1 134 9 268 5 268 -9 0 -4 10 -5 23 -2 30 7 425 14 459
7 61 -11 21 -17 -109 -18 -184 -1 -241 -6 -247 -21 -4 -10 9 -13 47 -14 285
-6 343 -5 356 5 13 10 29 12 132 19 25 2 51 7 57 11 7 4 21 4 32 1 11 -4 20
-2 20 4 0 18 48 12 59 -6 8 -15 11 -15 26 -3 19 16 72 15 91 -1 8 -7 19 -7 31
-1 10 5 52 8 93 7 95 -3 90 -2 91 -22 0 -16 1 -16 7 -2 4 10 17 15 32 13 14
-1 40 1 58 6 19 5 32 5 32 -1 0 -5 7 -9 15 -9 8 0 15 -4 15 -10 0 -5 -15 -10
-34 -10 -20 0 -36 -6 -39 -14 -8 -19 -116 -44 -126 -28 -4 6 -17 9 -31 5 -22
-6 -23 -7 -4 -14 15 -6 16 -8 2 -8 -9 -1 -24 6 -32 15 -13 13 -22 14 -51 4
-19 -6 -49 -9 -65 -5 -20 4 -30 3 -30 -5 0 -12 -43 -4 -48 9 -1 4 -17 5 -36 3
-18 -2 -37 1 -40 7 -4 6 -15 11 -24 11 -15 0 -15 -2 -2 -10 11 -7 7 -10 -17
-10 -17 0 -34 -6 -36 -12 -4 -10 -8 -9 -16 2 -6 8 -11 11 -11 5 0 -15 -337
-10 -354 5 -10 8 -16 8 -21 0 -4 -7 -38 -9 -98 -5 -51 3 -117 1 -147 -4 -38
-6 -46 -9 -25 -10 17 -2 39 -6 50 -11 22 -8 22 -8 -370 -15 -132 -2 -325 -6
-430 -10 -108 -3 -202 -1 -220 4 -53 17 -351 39 -570 42 -154 2 -177 5 -154
20 11 7 10 9 -3 9 -10 0 -18 -4 -18 -8 0 -4 -24 -8 -53 -9 -28 0 -71 -1 -94
-2 l-43 -1 0 -445 0 -445 43 -1 c75 -1 104 -12 77 -29 -13 -8 -87 -15 -112
-11 -5 0 -8 -64 -8 -144 0 -80 1 -145 3 -145 1 -1 29 -3 62 -6 33 -4 62 -10
63 -15 2 -5 11 -9 21 -9 9 0 26 -7 37 -15 18 -14 17 -14 -13 -15 -18 0 -33 -4
-33 -10 0 -14 57 -13 66 1 5 8 8 8 14 0 4 -8 55 -14 136 -17 71 -3 134 -6 141
-7 7 0 10 -4 7 -9 -3 -4 6 -8 19 -8 14 0 39 -15 60 -35 27 -26 45 -35 70 -35
39 0 63 -20 46 -37 -8 -8 -7 -17 1 -33 11 -20 10 -21 -10 -10 -15 8 -25 9 -32
2 -6 -6 -17 -8 -25 -5 -12 5 -11 10 8 24 l24 18 -25 -6 c-25 -6 -57 -41 -52
-55 1 -5 -2 -8 -8 -8 -10 0 -14 15 -11 34 1 5 -10 1 -24 -8 -15 -10 -34 -14
-45 -11 -14 4 -20 2 -20 -9 0 -9 -7 -16 -15 -16 -19 0 -33 32 -17 38 21 7 13
32 -9 32 -17 0 -19 -3 -10 -14 16 -19 -23 -56 -60 -56 -15 0 -29 -7 -33 -15
-3 -8 -1 -15 5 -15 6 0 7 -5 4 -11 -8 -12 -54 -9 -74 5 -9 7 -17 6 -25 -5 -11
-14 -44 -17 -64 -5 -6 3 -12 2 -14 -3 -4 -12 -139 -18 -156 -7 -7 4 -12 1 -12
-8 0 -9 6 -16 14 -16 19 0 40 -26 27 -34 -6 -4 -8 -13 -4 -22 3 -8 2 -14 -3
-13 -26 5 -34 -4 -34 -37 0 -33 2 -36 23 -30 12 3 25 6 30 6 4 0 7 7 7 15 0
16 15 21 23 7 10 -14 -31 -52 -57 -52 -21 0 -26 -5 -26 -26 0 -20 4 -24 19
-19 11 3 22 1 26 -5 3 -5 15 -10 26 -10 10 0 19 -4 19 -10 0 -5 -20 -10 -45
-10 l-45 0 0 -414 c0 -322 3 -415 13 -419 10 -4 10 -6 0 -6 -22 -2 -15 -41 7
-41 26 0 26 -16 0 -23 -11 -3 -20 -13 -20 -22 0 -14 7 -16 38 -11 104 18 237
24 252 11 8 -7 22 -15 30 -18 8 -3 -2 -5 -22 -4 -27 1 -42 -5 -51 -17 -8 -11
-19 -16 -25 -12 -7 4 -12 2 -12 -3 0 -6 5 -11 11 -11 7 0 18 -8 26 -18 8 -9
12 -12 9 -7 -3 7 48 10 157 8 105 -2 155 0 142 6 -19 9 -19 10 3 10 13 1 22 7
22 16 0 8 6 15 14 15 19 0 32 -20 14 -20 -23 -1 26 -24 57 -28 17 -2 48 -8 70
-15 37 -10 28 -12 -105 -20 -80 -5 -147 -11 -149 -13 -13 -12 26 -15 196 -15
103 0 204 -4 223 -9 19 -5 62 -14 95 -20 33 -7 77 -18 98 -25 33 -12 43 -12
72 2 37 18 68 12 59 -12 -3 -8 -9 -13 -14 -10 -4 2 -16 -2 -26 -10 -18 -13
-18 -14 -1 -20 10 -4 31 -5 47 -2 16 4 32 3 35 -2 8 -14 -22 -33 -46 -29 -12
2 -24 -3 -26 -9 -3 -7 3 -13 12 -13 9 0 13 -4 10 -10 -3 -5 -1 -10 4 -10 6 0
11 -6 11 -14 0 -8 -15 -17 -35 -20 -40 -8 -47 -26 -11 -26 34 0 76 -17 76 -31
0 -14 -89 -4 -104 11 -6 6 -19 10 -30 9 -19 0 -19 -1 3 -10 19 -8 21 -12 11
-24 -7 -9 -10 -19 -6 -23 14 -13 138 -4 155 12 16 15 49 15 72 0 8 -4 9 3 5
23 -7 30 -7 30 34 29 24 -1 45 -8 50 -16 6 -8 10 -10 10 -5 -1 22 -40 55 -79
67 -22 7 -41 16 -41 21 0 16 27 17 63 2 33 -14 37 -14 37 0 0 8 8 15 18 15 9
0 29 7 44 14 15 8 53 14 85 14 32 0 69 2 82 4 13 2 26 -3 28 -9 3 -9 -6 -13
-26 -13 -17 0 -31 -4 -31 -10 0 -5 6 -10 14 -10 8 0 22 -3 32 -7 12 -4 15 -3
10 5 -10 16 13 15 43 -2 20 -11 31 -11 69 0 25 8 55 14 66 13 37 -1 -20 -20
-107 -35 -84 -15 -141 -39 -132 -54 4 -6 -3 -10 -14 -10 -12 0 -21 5 -21 10 0
6 -7 10 -16 10 -13 0 -14 -3 -5 -14 10 -11 6 -17 -20 -30 -18 -9 -35 -13 -38
-8 -7 10 -51 11 -51 1 0 -10 30 -20 40 -14 5 3 11 1 15 -5 4 -6 11 -8 16 -5
11 7 39 -18 39 -35 0 -7 -6 -8 -19 0 -11 5 -28 10 -38 9 -12 0 -9 -5 12 -15
17 -7 41 -11 55 -8 54 12 99 14 105 4 3 -5 15 -10 26 -10 10 0 19 -4 19 -10 0
-5 -26 -9 -59 -9 -34 1 -70 -5 -87 -14 -29 -15 -29 -15 29 -15 68 -1 117 -10
117 -23 0 -5 -15 -10 -32 -10 -18 -1 -67 -3 -108 -5 -41 -2 -134 -5 -207 -6
-87 -2 -136 -7 -144 -15 -22 -22 16 -26 193 -21 128 5 173 9 179 19 7 11 12
12 28 2 11 -7 34 -10 54 -6 19 3 42 1 52 -4 14 -8 11 -10 -15 -11 -17 0 -37
-5 -43 -10 -14 -12 -192 -32 -280 -32 -71 0 -119 -19 -52 -21 22 0 83 -1 135
-3 52 -1 142 4 200 11 154 19 242 17 261 -4 9 -10 26 -26 39 -36 28 -23 21
-31 -14 -15 -22 10 -29 9 -36 -2 -5 -7 -24 -14 -44 -14 -20 -1 -36 -5 -36 -9
0 -5 46 -8 103 -6 66 2 109 -1 122 -9 11 -6 15 -12 9 -12 -5 0 -15 5 -20 10
-7 7 -20 5 -40 -5 -17 -8 -61 -18 -98 -22 -36 -5 -66 -12 -66 -18 1 -17 53
-26 77 -14 12 6 33 9 47 7 14 -3 26 -2 26 3 0 4 43 8 95 8 77 0 95 -2 95 -14
0 -13 78 -15 603 -14 331 1 613 5 627 10 24 8 24 8 -5 6 -19 -1 -29 3 -28 11
4 16 -9 15 -26 -1 -11 -9 -14 -9 -18 0 -3 10 -10 10 -25 2 -12 -7 -18 -7 -14
-1 4 6 -2 8 -14 5 -11 -3 -20 0 -20 6 0 7 -22 11 -60 11 -49 0 -58 -3 -54 -15
4 -8 1 -15 -5 -15 -7 0 -14 6 -17 14 -3 8 -14 16 -25 19 -10 3 -19 10 -19 16
0 16 16 13 35 -5 15 -15 17 -15 34 0 11 10 36 16 70 16 38 0 51 4 49 13 -6 16
-86 27 -116 16 -13 -5 -35 -9 -50 -9 -24 0 -25 1 -7 13 11 8 15 19 10 26 -4 8
1 18 14 27 12 9 19 20 16 25 -6 9 8 13 33 10 6 -1 12 3 12 10 0 6 7 9 15 5 8
-3 15 -1 15 5 0 6 4 8 9 4 5 -3 12 -1 15 3 3 5 17 7 31 4 18 -3 25 0 25 11 0
19 95 37 225 43 77 4 131 10 253 29 30 5 28 -3 -5 -17 -29 -11 -36 -13 -90
-24 -37 -7 -35 -24 3 -24 14 0 23 3 21 8 -6 9 297 7 312 -2 6 -4 11 -3 11 1 0
9 78 8 165 -2 76 -9 93 -12 180 -39 44 -14 115 -36 158 -49 l77 -24 0 166 c0
91 -4 171 -8 176 -4 6 -13 11 -21 13 -27 6 -71 43 -71 60 0 15 -2 15 -10 2 -7
-12 -12 -12 -22 -2 -6 6 -20 12 -30 12 -10 0 -18 4 -18 10 0 5 -5 9 -11 7 -6
-1 -14 4 -16 11 -3 7 4 12 16 12 12 0 21 6 21 16 0 11 -8 15 -27 14 -51 -4
-63 0 -63 18 0 13 -2 14 -9 3 -6 -10 -13 -11 -29 -2 -11 6 -28 11 -38 11 -9 0
-25 9 -35 21 -10 11 -22 18 -28 15 -14 -9 -61 4 -61 16 0 5 6 6 13 2 9 -5 9
-4 0 6 -9 10 -16 10 -26 2 -10 -9 -16 -9 -25 0 -8 8 -6 18 9 39 15 22 25 27
47 23 18 -3 23 -1 13 5 -19 12 0 21 56 27 52 5 63 10 63 28 0 10 -12 12 -45 8
-37 -4 -45 -2 -45 12 0 10 8 16 23 16 13 0 32 9 42 20 17 19 17 19 -16 10 -48
-14 -49 -14 -49 24 l0 34 74 4 c41 2 78 7 82 11 16 15 -11 22 -82 19 -67 -2
-74 -1 -74 16 0 18 9 19 143 18 105 -1 148 -5 160 -15 9 -7 24 -11 32 -7 22 8
18 25 -4 19 -11 -3 -32 5 -50 18 -34 25 -81 29 -202 16 l-77 -8 -7 37 c-4 26
-3 39 7 45 12 9 7 16 -22 31 -3 2 -18 35 -33 74 -15 39 -48 104 -72 145 l-45
74 38 12 c20 6 63 14 95 18 41 6 57 12 57 22 0 12 -7 14 -27 8 -16 -3 -45 -8
-65 -10 -20 -2 -46 -9 -57 -14 -35 -19 -56 -12 -94 33 -28 34 -32 43 -17 39
12 -3 22 1 26 11 3 9 12 16 18 16 7 0 21 8 32 18 10 10 35 24 54 31 19 8 39
18 45 23 5 4 23 8 40 8 17 0 41 7 54 16 21 15 23 23 19 73 -4 44 -3 52 6 37
17 -28 115 -157 148 -194 23 -27 27 -37 17 -48 -6 -8 -8 -14 -3 -15 30 -2 49
-10 68 -27 28 -26 88 -62 104 -62 8 0 12 21 12 70 0 56 -3 70 -15 70 -20 0
-19 17 1 28 10 6 14 19 12 40 l-3 30 -39 -19 -40 -19 -31 30 c-17 16 -38 43
-48 59 l-18 30 37 16 c20 8 38 15 41 15 2 0 27 10 54 21 45 20 49 24 49 55 0
30 -2 33 -17 24 -10 -5 -60 -25 -110 -44 l-93 -34 -44 62 c-33 46 -41 64 -33
72 7 6 53 24 102 39 50 15 95 30 101 32 6 2 28 -21 48 -51 20 -31 40 -56 43
-56 3 0 3 107 -1 238 -3 130 -6 256 -6 280 0 31 -4 42 -15 42 -17 0 -20 16 -5
25 22 14 7 108 -16 106 -12 -1 -12 22 0 31 6 4 6 20 -2 44 -15 49 -6 56 24 21
28 -33 31 -27 8 13 -13 21 -24 27 -48 26 -42 -1 -41 25 1 43 37 16 49 41 34
70 -6 11 -11 25 -11 31 0 17 20 1 30 -24 7 -16 9 -8 9 33 1 57 -22 176 -45
228 -7 18 -24 69 -38 115 -46 154 -71 212 -112 261 -14 17 -26 48 -30 78 l-7
50 -38 -6 c-35 -6 -39 -5 -45 20 -8 31 1 42 36 47 22 3 25 8 24 41 -1 21 -4
40 -6 43 -3 2 -46 15 -96 27 l-91 23 -6 -23 c-5 -23 -7 -23 -113 -17 -137 7
-491 13 -697 12 -396 -3 -499 -2 -627 2 -80 3 -134 1 -130 -4 5 -8 -40 -4
-118 11 -53 10 -66 9 -82 0 -12 -8 -21 -7 -32 2 -14 11 -16 11 -16 -4 0 -12
-5 -15 -17 -10 -10 4 -74 9 -143 11 -217 6 -301 3 -293 -8 2 -5 -3 -8 -11 -8
-9 0 -16 4 -16 9 0 5 -7 11 -14 14 -10 4 -13 1 -9 -9 3 -7 0 -14 -6 -14 -6 0
-11 5 -11 11 0 8 -5 7 -16 -2 -12 -9 -17 -10 -23 -1 -8 13 -74 13 -110 0 -15
-5 -27 -5 -30 0 -4 6 -27 6 -55 2 -27 -4 -80 -7 -118 -6 -37 1 -69 -2 -71 -7
-1 -4 -15 -1 -31 7 -21 10 -35 12 -48 5 -12 -6 -18 -6 -18 1 0 5 -9 10 -21 10
-11 0 -17 5 -14 10 4 6 11 8 16 5 5 -4 32 -8 61 -10 32 -2 46 0 37 6 -8 5 -9
9 -4 9 6 0 16 -5 23 -12 8 -8 12 -8 12 -1 0 18 121 28 131 12 5 -8 9 -9 9 -4
0 6 29 10 70 9 38 0 67 3 65 6 -2 4 28 7 68 8 40 0 97 4 127 9 l55 8 -55 5
c-31 3 -58 1 -62 -5 -5 -6 -8 -5 -8 3 0 6 -5 12 -11 12 -5 0 -7 -6 -3 -12 6
-10 5 -10 -7 -1 -10 8 -31 10 -60 7 -24 -4 -60 -6 -79 -6 -19 1 -332 3 -695 6
-363 3 -669 5 -680 6 -11 0 -63 1 -115 0 -52 0 -116 3 -142 6 l-48 7 0 -86z
m1090 7 c0 -8 -19 -13 -24 -6 -3 5 1 9 9 9 8 0 15 -2 15 -3z m163 -1 c-7 -2
-19 -2 -25 0 -7 3 -2 5 12 5 14 0 19 -2 13 -5z m-616 -9 c-3 -3 -12 -4 -19 -1
-8 3 -5 6 6 6 11 1 17 -2 13 -5z m528 -4 c3 -5 1 -10 -4 -10 -6 0 -11 5 -11
10 0 6 2 10 4 10 3 0 8 -4 11 -10z m-445 -9 c0 -17 -15 -19 -28 -5 -11 12 -9
14 8 14 11 0 20 -4 20 -9z m128 -9 c2 -6 -17 -10 -52 -10 -45 1 -52 3 -43 14
14 16 89 13 95 -4z m279 3 c0 -8 -6 -15 -14 -15 -14 0 -17 12 -6 23 11 11 20
8 20 -8z m-667 1 c0 -3 -4 -8 -10 -11 -5 -3 -10 -1 -10 4 0 6 5 11 10 11 6 0
10 -2 10 -4z m160 -6 c0 -5 -9 -10 -19 -10 -11 0 -23 5 -26 10 -4 6 5 10 19
10 14 0 26 -4 26 -10z m300 6 c0 -2 -9 -6 -20 -9 -11 -3 -20 -1 -20 4 0 5 9 9
20 9 11 0 20 -2 20 -4z m530 -28 c0 -4 -6 -8 -14 -8 -8 0 -17 4 -20 8 -2 4 4
8 15 8 10 0 19 -4 19 -8z m-1310 -37 c0 -17 -26 -29 -52 -24 -15 3 -26 9 -23
13 2 4 16 5 30 2 15 -2 25 0 25 7 0 6 5 11 10 11 6 0 10 -4 10 -9z m4022 -41
c6 -13 7 -12 7 2 1 11 7 15 22 11 14 -4 19 -12 16 -24 -3 -10 -1 -19 5 -21 5
-2 13 -20 18 -41 6 -27 5 -37 -3 -34 -7 2 -18 -3 -26 -10 -10 -11 -11 -17 -2
-26 9 -9 14 -8 21 3 7 11 10 11 10 2 0 -7 5 -10 10 -7 6 3 10 -3 10 -14 0 -19
-6 -20 -379 -18 -209 1 -383 6 -387 10 -22 22 42 26 319 24 191 -1 296 1 294
8 -2 5 -14 12 -28 16 -13 4 -18 7 -10 8 8 1 11 4 8 7 -4 4 -14 1 -23 -7 -14
-12 -37 -13 -124 -5 -14 2 -26 10 -28 19 -4 19 18 23 35 6 8 -8 22 -6 52 7 23
10 41 21 41 26 0 14 -43 8 -62 -9 -10 -9 -18 -11 -18 -5 0 21 25 27 107 27 87
0 103 6 83 30 -16 19 -34 20 -27 1 3 -8 0 -17 -8 -20 -15 -5 -10 18 8 42 13
16 50 11 59 -8z m-377 0 c-3 -5 1 -10 9 -10 9 0 16 -5 16 -11 0 -5 5 -7 12 -3
7 4 8 3 4 -4 -4 -7 -18 -9 -31 -6 -13 3 -31 1 -42 -4 -13 -7 -24 -6 -38 4 -10
8 -13 14 -6 14 7 0 10 4 7 8 -3 5 8 6 25 4 17 -3 29 0 29 7 0 6 5 11 11 11 5
0 7 -4 4 -10z m-3480 -11 c11 -16 1 -19 -13 -3 -7 8 -8 14 -3 14 5 0 13 -5 16
-11z m3542 5 c-3 -3 -12 -4 -19 -1 -8 3 -5 6 6 6 11 1 17 -2 13 -5z m57 -9 c3
-8 1 -15 -4 -15 -6 0 -10 5 -10 11 0 8 -5 8 -15 -1 -12 -10 -15 -10 -15 4 0
20 36 21 44 1z m141 5 c-3 -5 -1 -10 4 -10 6 0 11 -3 11 -7 0 -5 -29 -8 -65
-8 -63 0 -94 14 -37 16 21 2 18 3 -13 9 -34 6 -29 7 33 9 47 0 71 -3 67 -9z
m-743 -18 c-7 -2 -10 -8 -6 -13 3 -5 -4 -9 -16 -9 -13 0 -19 -4 -14 -12 4 -6
3 -8 -4 -4 -5 3 -12 2 -14 -3 -8 -23 -88 -9 -88 15 0 18 5 18 35 -2 18 -11 25
-13 25 -4 0 7 7 10 15 6 9 -3 18 1 21 9 4 8 12 15 20 15 8 0 14 5 14 11 0 5 5
7 12 3 9 -6 9 -9 0 -12z m88 8 c0 -5 -4 -10 -10 -10 -5 0 -10 5 -10 10 0 6 5
10 10 10 6 0 10 -4 10 -10z m23 -21 c-7 -25 -26 -34 -50 -23 -10 4 -21 6 -25
6 -5 -1 -8 5 -8 13 0 18 27 20 32 3 3 -8 11 -5 24 9 23 24 34 21 27 -8z m257
6 c10 -12 10 -15 -4 -15 -9 0 -16 7 -16 15 0 8 2 15 4 15 2 0 9 -7 16 -15z
m-230 -19 c0 -8 -4 -18 -10 -21 -5 -3 -10 3 -10 14 0 12 5 21 10 21 6 0 10 -6
10 -14z m485 -6 c-3 -5 -13 -10 -21 -10 -8 0 -12 5 -9 10 3 6 13 10 21 10 8 0
12 -4 9 -10z m-165 -20 c4 0 11 -7 14 -16 4 -11 2 -15 -8 -11 -7 3 -18 1 -24
-5 -8 -8 -16 -8 -26 2 -9 7 -23 9 -32 6 -8 -3 -22 1 -30 8 -12 13 -10 14 20 9
20 -3 36 -1 41 7 4 6 14 9 22 6 8 -3 18 -6 23 -6z m-1137 -7 c-7 -2 -19 -2
-25 0 -7 3 -2 5 12 5 14 0 19 -2 13 -5z m977 3 c0 -9 -50 -12 -62 -5 -8 6 1 9
25 9 20 0 37 -2 37 -4z m283 -16 c4 -16 0 -20 -19 -20 -13 0 -24 5 -24 11 0 6
7 8 16 5 12 -4 15 -2 10 9 -3 8 -2 15 3 15 5 0 11 -9 14 -20z m-59 1 c3 -5 -1
-11 -9 -14 -9 -4 -12 -1 -8 9 6 16 10 17 17 5z m-1004 -41 c8 -5 12 -11 10
-14 -3 -2 -14 2 -24 10 -22 15 -10 19 14 4z m270 6 c0 -2 -12 -11 -26 -21 -23
-15 -27 -15 -37 -2 -7 9 -21 17 -32 20 -11 3 6 5 38 6 31 0 57 -1 57 -3z m145
-5 c-11 -4 35 -6 103 -4 104 4 122 2 122 -11 0 -13 -25 -15 -165 -15 -133 0
-165 3 -165 14 0 17 13 21 75 23 34 1 44 -1 30 -7z m-320 -21 c3 -5 -1 -10
-10 -10 -9 0 -13 5 -10 10 3 6 8 10 10 10 2 0 7 -4 10 -10z m72 -2 c-21 -7
-32 -7 -40 1 -8 8 0 11 29 10 39 -1 39 -1 11 -11z m-684 -13 c-3 -9 -8 -14
-10 -11 -3 3 -2 9 2 15 9 16 15 13 8 -4z m1056 -47 c117 1 197 -2 186 -7 -24
-10 -224 -20 -415 -22 -74 -1 -142 -5 -151 -10 -11 -5 -16 -3 -16 7 0 7 5 14
11 15 11 1 31 3 105 12 24 3 46 8 48 11 3 3 10 3 16 -1 6 -4 103 -6 216 -5z
m-494 -28 c3 -5 1 -10 -4 -10 -6 0 -11 5 -11 10 0 6 2 10 4 10 3 0 8 -4 11
-10z m42 -5 c0 -8 -4 -12 -9 -9 -5 3 -6 10 -3 15 9 13 12 11 12 -6z m1434
-272 c7 -7 -33 -12 -112 -17 -67 -4 -124 -4 -127 -1 -11 11 10 18 54 17 26 0
55 3 65 6 26 10 109 6 120 -5z m193 -78 c3 3 3 1 -1 -4 -12 -14 -56 -17 -60
-4 -5 14 28 23 43 11 6 -4 14 -6 18 -3z m-161 -16 c6 -21 5 -21 -251 -15 -141
3 -258 5 -260 6 -2 0 -1 4 2 9 4 5 68 10 143 10 75 1 138 3 140 4 1 2 51 4
112 5 103 2 109 0 114 -19z m-553 1 c0 -5 -8 -10 -17 -10 -15 0 -16 2 -3 10
19 12 20 12 20 0z m-314 -19 c5 -5 52 -12 104 -15 52 -4 107 -9 122 -12 16 -3
130 -10 255 -15 337 -13 390 -16 401 -23 5 -3 15 -30 22 -58 7 -29 23 -91 36
-138 13 -46 24 -90 24 -98 0 -10 -26 -13 -122 -11 -116 1 -158 -4 -158 -20 0
-4 -32 -4 -70 0 -80 7 -122 2 -132 -17 -5 -7 -17 -10 -30 -6 -23 6 -23 6 2 13
15 4 -15 8 -75 9 -55 2 -154 4 -220 5 -66 2 -136 5 -155 9 -19 3 -62 8 -95 10
-33 2 -63 5 -67 5 -4 1 -14 9 -24 19 -12 12 -33 17 -71 17 -29 0 -53 3 -53 6
0 10 -20 11 -340 13 -162 1 -302 -1 -311 -6 -11 -5 -25 2 -45 25 -16 17 -20
24 -8 14 23 -19 34 -14 34 17 1 19 2 19 13 5 18 -23 67 -30 94 -12 16 11 27
12 36 5 16 -13 159 -7 186 8 15 7 27 8 40 0 25 -13 31 -13 31 0 0 6 -7 10 -15
10 -18 0 -20 26 -2 32 6 3 41 6 77 7 36 1 66 6 68 11 2 6 11 3 20 -6 9 -9 18
-12 19 -7 3 9 69 8 131 -1 12 -2 22 0 22 4 0 4 23 6 51 4 29 -1 47 2 42 7 -10
10 -109 18 -298 24 -160 5 -227 13 -237 28 -5 8 -12 6 -22 -8 -12 -16 -17 -18
-27 -7 -7 6 -9 12 -3 12 5 1 -4 7 -21 14 -21 9 -32 10 -37 2 -6 -8 -8 -7 -8 1
0 8 -14 10 -40 8 -50 -5 -67 -14 -49 -26 9 -5 5 -7 -12 -5 -13 1 -29 5 -34 8
-18 11 -135 5 -136 -6 0 -6 -4 -2 -9 9 -12 28 -12 35 1 35 5 0 8 -4 4 -9 -3
-6 4 -9 15 -8 11 1 20 4 20 7 0 3 8 6 18 6 9 1 39 5 66 9 38 5 47 4 41 -6 -5
-8 -4 -10 3 -5 18 11 14 46 -5 46 -9 0 -14 2 -11 5 7 7 94 15 228 20 58 2 105
5 105 6 0 1 20 3 45 4 25 2 71 6 103 9 32 4 74 2 93 -3 20 -6 32 -6 29 0 -4 5
-1 9 4 9 6 0 11 -5 11 -10 0 -7 8 -6 23 2 12 7 27 11 32 9 25 -9 211 2 221 12
10 10 38 9 50 -2z m-1732 -105 c-3 -9 -10 -13 -16 -10 -5 3 -4 12 3 20 15 18
22 13 13 -10z m186 -3 c0 -8 -4 -12 -8 -9 -5 3 -23 8 -41 11 -24 4 -31 2 -25
-6 4 -8 3 -9 -4 -5 -28 17 -11 31 33 28 31 -3 45 -9 45 -19z m120 5 c0 -9 3
-9 8 -2 10 14 95 16 104 1 6 -9 8 -9 8 1 0 8 15 12 43 11 37 -1 105 -15 83
-18 -5 -1 -3 -8 4 -16 9 -10 9 -15 1 -15 -6 0 -11 4 -11 8 0 5 -18 9 -41 10
-22 1 -45 4 -50 8 -5 3 -9 1 -9 -4 0 -6 -14 -7 -34 -2 -19 4 -39 4 -45 0 -7
-3 -22 -5 -34 -4 -12 1 -35 3 -52 3 -29 2 -29 2 -11 16 24 18 36 19 36 3z
m2500 -8 c9 -17 7 -22 -15 -32 -19 -8 -32 -9 -43 -2 -26 17 -25 31 5 42 39 15
41 14 53 -8z m-2207 -4 c9 1 15 -1 12 -6 -3 -5 -2 -10 2 -13 5 -2 3 -3 -3 -1
-6 1 -17 -3 -24 -9 -10 -9 -11 -9 -6 0 3 6 2 14 -4 18 -5 3 -10 12 -10 18 0 9
2 9 8 1 4 -6 15 -10 25 -8z m497 -96 c-8 -5 -19 -10 -25 -10 -5 0 -3 5 5 10 8
5 20 10 25 10 6 0 3 -5 -5 -10z m-2730 -50 c0 -11 -21 -11 -65 0 -27 7 -25 8
18 9 26 0 47 -3 47 -9z m1063 3 c-7 -2 -19 -2 -25 0 -7 3 -2 5 12 5 14 0 19
-2 13 -5z m-563 -74 c0 -4 -7 -6 -15 -3 -8 4 -15 10 -15 15 0 4 7 6 15 3 8 -4
15 -10 15 -15z m3820 -81 c0 -10 2 -10 9 0 5 9 13 -9 21 -50 7 -35 19 -80 26
-101 l13 -37 -27 6 c-15 4 -35 13 -44 22 -11 9 -28 13 -47 9 -29 -6 -59 13
-48 30 3 5 -3 10 -14 10 -17 2 -18 -3 -13 -36 4 -24 2 -41 -5 -45 -10 -7 -14
18 -15 100 0 11 -7 22 -16 23 -51 8 -93 2 -141 -21 -74 -35 -135 -51 -156 -40
-10 5 -35 10 -56 10 -21 1 -42 4 -46 7 -11 6 -61 -70 -61 -94 0 -24 -26 -34
-52 -20 -18 10 -20 9 -15 -6 4 -9 7 -21 7 -26 0 -5 10 -9 23 -9 29 0 50 -36
43 -73 -2 -15 -1 -27 3 -27 9 0 33 -122 25 -129 -3 -3 -10 1 -15 9 -8 12 -9
10 -4 -6 6 -25 -21 -37 -49 -22 -9 5 -21 6 -26 3 -6 -3 -10 1 -10 10 0 9 9 19
20 22 11 3 20 7 20 10 0 2 -9 13 -20 25 -11 12 -20 16 -20 9 0 -7 -5 -9 -11
-6 -5 4 -21 8 -33 9 -18 2 -22 -1 -19 -15 3 -9 13 -19 24 -22 25 -7 24 -27 -1
-34 -11 -3 -20 -9 -20 -13 0 -4 9 -10 20 -13 11 -3 20 -13 20 -22 0 -18 -12
-13 -47 18 -13 12 -29 17 -39 13 -20 -8 -84 3 -84 14 0 4 29 6 65 3 60 -4 65
-2 65 17 0 18 -6 20 -54 20 -35 0 -58 5 -66 15 -11 13 -6 15 39 15 52 0 58 4
42 29 -7 10 -21 12 -55 7 -39 -6 -46 -5 -46 10 0 15 9 16 73 12 56 -4 81 -2
112 13 45 20 44 21 -5 24 -20 1 -44 7 -55 13 -20 12 -20 12 -1 27 10 8 23 12
28 9 5 -3 16 0 25 7 13 11 18 10 33 -9 10 -12 23 -22 30 -22 6 0 8 -4 5 -10
-4 -6 1 -7 11 -3 17 6 16 7 -1 17 -11 6 -32 23 -48 39 -16 15 -33 27 -38 27
-14 0 -11 17 8 36 16 15 15 16 -18 9 -44 -9 -45 -11 -25 -31 16 -15 15 -18 -9
-40 -14 -13 -33 -24 -41 -24 -21 0 -57 36 -49 49 10 18 25 13 25 -9 0 -15 7
-20 26 -20 20 0 25 4 22 21 -4 26 -78 56 -90 36 -4 -7 -8 -8 -8 -3 0 4 -11 1
-24 -8 -27 -17 -116 -12 -116 7 0 6 21 7 55 2 37 -4 55 -3 55 4 0 12 -11 14
-46 12 -29 -3 -125 37 -146 59 -19 21 -24 60 -8 60 5 0 9 6 7 12 -1 7 8 14 21
16 30 5 28 -11 -3 -28 -18 -10 -22 -16 -13 -22 7 -4 18 -8 23 -8 6 0 3 5 -5
10 -13 8 -12 10 3 10 9 0 17 5 17 10 0 6 8 10 18 10 13 0 14 2 4 9 -17 10 15
20 68 22 29 0 31 2 15 9 -20 9 -20 9 0 9 12 1 25 -3 30 -8 13 -12 56 -16 77
-7 11 5 24 2 35 -9 11 -12 18 -14 21 -6 2 6 15 11 28 11 15 0 24 6 24 15 0 8
7 15 16 15 8 0 13 -4 9 -9 -3 -6 11 -9 34 -8 29 1 47 -5 64 -21 27 -25 54 -29
54 -7 0 10 -6 13 -17 10 -10 -3 -22 0 -28 7 -8 10 -2 13 26 14 21 1 40 -4 44
-10 5 -8 8 -7 8 1 0 9 7 10 25 3 23 -9 29 -6 26 13 -2 11 27 9 34 -3 3 -5 11
-10 16 -10 6 0 7 5 4 10 -3 6 -3 10 2 11 4 0 16 2 26 4 9 2 15 -1 11 -6 -3 -5
-10 -7 -15 -4 -5 3 -6 -1 -3 -9 3 -9 11 -13 17 -9 15 9 117 13 117 5 0 -15 55
-9 67 6 11 16 12 16 13 1 0 -25 73 -49 86 -28 3 5 10 7 15 3 5 -3 8 -2 7 3 -2
4 1 9 6 10 5 1 13 7 17 15 8 11 10 11 18 -1 6 -9 11 -10 15 -2 4 6 2 11 -3 11
-6 0 -11 7 -11 15 0 8 9 15 20 15 11 0 20 -6 20 -12z m-110 -50 c0 -4 -4 -8
-9 -8 -6 0 -12 4 -15 8 -3 5 1 9 9 9 8 0 15 -4 15 -9z m-1037 -59 c-6 -6 -19
-9 -29 -6 -16 4 -15 5 4 6 12 0 22 6 22 13 0 6 3 8 7 5 4 -4 2 -12 -4 -18z
m-104 -15 c10 -9 -35 -3 -49 6 -11 8 -7 9 15 4 17 -4 32 -8 34 -10z m86 -42
c24 5 34 -5 16 -16 -12 -8 -71 14 -71 26 0 6 6 5 15 -2 8 -7 26 -10 40 -8z
m977 1 c24 -21 23 -33 -3 -33 -11 0 -18 -4 -14 -9 5 -9 -33 -27 -40 -19 -3 2
-2 21 2 41 6 41 25 48 55 20z m-1172 3 c0 -3 -4 -8 -10 -11 -5 -3 -10 -1 -10
4 0 6 5 11 10 11 6 0 10 -2 10 -4z m65 -6 c8 -13 -5 -13 -25 0 -13 8 -13 10 2
10 9 0 20 -4 23 -10z m40 -9 c3 -5 1 -12 -5 -16 -5 -3 -10 1 -10 9 0 18 6 21
15 7z m1234 -12 c32 -5 40 -29 10 -29 -21 0 -48 25 -49 45 0 6 4 5 8 -1 4 -7
18 -14 31 -15z m-2159 -9 c0 -5 -4 -10 -10 -10 -5 0 -10 5 -10 10 0 6 5 10 10
10 6 0 10 -4 10 -10z m101 -52 c11 -21 24 -38 29 -38 15 0 12 16 -5 30 -8 7
-15 20 -15 28 0 14 2 14 14 2 26 -28 29 -58 7 -77 -27 -23 -26 -29 3 -37 14
-3 28 -15 31 -26 3 -11 13 -20 21 -20 11 0 14 15 14 63 1 73 17 59 21 -18 3
-57 -6 -66 -110 -115 -52 -25 -62 -27 -56 -13 24 62 23 203 -2 269 -12 34 26
-5 48 -48z m1729 27 c0 -43 -10 -44 -32 -6 -16 29 -16 30 5 34 12 2 23 5 25 6
1 0 2 -15 2 -34z m-710 15 c0 -5 -6 -10 -14 -10 -8 0 -18 5 -21 10 -3 6 3 10
14 10 12 0 21 -4 21 -10z m-1170 -10 c0 -5 -5 -10 -10 -10 -6 0 -24 -22 -41
-50 -31 -50 -47 -65 -35 -33 10 24 69 102 79 103 4 0 7 -4 7 -10z m2298 -8
c11 -7 51 -133 76 -234 6 -27 -6 -39 -19 -18 -9 15 -25 12 -25 -5 0 -19 -10
-19 -24 0 -8 10 -16 12 -26 5 -12 -8 -13 -13 -2 -30 19 -32 15 -36 -45 -54
-69 -21 -132 -41 -154 -50 -11 -5 -22 9 -45 55 -28 60 -28 62 -10 73 11 6 27
19 37 28 10 10 25 15 34 12 8 -3 39 2 69 11 l55 17 12 57 c8 39 8 64 1 84 -9
24 -8 27 10 27 14 0 18 5 14 15 -6 16 20 21 42 7z m-202 -29 c-10 -10 -19 5
-10 18 6 11 8 11 12 0 2 -7 1 -15 -2 -18z m-1071 -3 c3 -5 -1 -10 -9 -10 -8 0
-18 5 -21 10 -3 6 1 10 9 10 8 0 18 -4 21 -10z m-705 -37 c-1 -24 -2 -26 -11
-10 -5 9 -7 22 -4 27 10 17 15 11 15 -17z m1819 -14 c22 -23 41 -45 41 -49 0
-4 -20 -13 -44 -19 -25 -6 -47 -18 -50 -28 -6 -15 -9 -15 -16 -3 -7 12 -12 12
-34 0 -14 -7 -28 -11 -31 -8 -3 3 -7 32 -8 64 l-2 58 40 12 c58 18 59 18 104
-27z m-1155 15 c4 -10 1 -14 -6 -12 -15 5 -23 28 -10 28 5 0 13 -7 16 -16z
m76 6 c0 -5 -4 -10 -10 -10 -5 0 -10 5 -10 10 0 6 5 10 10 10 6 0 10 -4 10
-10z m-969 -164 c-9 -19 -20 30 -19 89 l0 60 12 -70 c7 -38 10 -74 7 -79z
m-451 78 c0 -22 -22 -12 -31 14 -8 20 -6 21 11 12 11 -6 20 -18 20 -26z m2180
-29 c0 -14 -66 -38 -80 -30 -5 3 -10 22 -10 41 0 27 5 37 23 44 18 7 26 3 44
-18 13 -15 23 -32 23 -37z m-1060 13 c0 -13 -23 -5 -28 10 -2 7 2 10 12 6 9
-3 16 -11 16 -16z m-780 0 c0 -7 -4 -20 -10 -28 -5 -9 -5 -19 2 -27 11 -14
-79 13 -96 28 -5 4 -22 1 -38 -8 -22 -14 -30 -15 -40 -5 -9 9 -8 12 8 12 11 0
30 7 42 16 12 8 22 10 22 5 0 -6 9 -11 19 -11 11 0 23 -4 26 -10 12 -20 35
-10 35 15 0 16 6 25 15 25 8 0 15 -6 15 -12z m50 -35 c0 -30 -2 -34 -15 -23
-24 20 -18 79 6 64 5 -3 9 -21 9 -41z m1015 29 c-3 -3 -11 0 -18 7 -9 10 -8
11 6 5 10 -3 15 -9 12 -12z m276 -5 c-9 -9 -110 -12 -119 -2 -8 8 62 21 95 17
24 -3 31 -8 24 -15z m-1025 -46 c-20 -22 -20 -31 -1 -31 20 0 19 -13 -3 -26
-9 -6 -31 -31 -47 -55 -16 -24 -41 -58 -55 -75 -39 -48 -68 -85 -106 -136 -31
-43 -54 -60 -54 -41 0 4 20 32 45 64 45 58 48 72 11 64 -13 -3 -32 5 -51 20
-32 26 -27 47 7 26 36 -22 44 2 36 103 -2 16 2 31 10 33 6 3 12 -2 12 -11 0
-28 21 -27 55 3 20 18 41 28 50 25 9 -4 15 0 15 10 0 9 8 16 18 16 10 0 29 12
43 26 26 28 41 14 15 -15z m761 3 c-3 -3 -12 -4 -19 -1 -8 3 -5 6 6 6 11 1 17
-2 13 -5z m-1218 -91 c2 -31 -27 -7 -64 52 l-18 30 40 -35 c23 -19 42 -41 42
-47z m221 67 c0 -5 -4 -10 -10 -10 -5 0 -10 5 -10 10 0 6 5 10 10 10 6 0 10
-4 10 -10z m1805 -21 c9 -17 15 -32 13 -33 -13 -12 -98 -37 -106 -32 -5 3 -12
17 -15 32 -4 23 1 28 37 45 53 24 53 24 71 -12z m-520 11 c3 -5 -1 -10 -10
-10 -9 0 -13 5 -10 10 3 6 8 10 10 10 2 0 7 -4 10 -10z m-35 -20 c0 -5 -7 -10
-15 -10 -8 0 -15 5 -15 10 0 6 7 10 15 10 8 0 15 -4 15 -10z m354 -32 c29
-110 23 -123 -45 -101 -24 9 -48 21 -52 29 -4 8 -17 14 -29 14 -17 0 -18 2 -8
15 7 8 27 15 45 15 19 0 39 8 50 20 21 23 34 26 39 8z m-3449 -26 c-3 -3 -11
0 -18 7 -9 10 -8 11 6 5 10 -3 15 -9 12 -12z m65 2 c0 -8 -4 -12 -10 -9 -5 3
-10 10 -10 16 0 5 5 9 10 9 6 0 10 -7 10 -16z m3183 -5 c-6 -6 -28 -12 -49
-14 -22 -1 -30 0 -19 2 11 3 24 9 30 14 14 13 52 12 38 -2z m-1495 -11 c-3 -7
-15 -15 -28 -16 -21 -3 -22 -2 -11 12 16 19 44 21 39 4z m1352 2 c11 -8 7 -9
-15 -4 -37 8 -45 14 -19 14 10 0 26 -5 34 -10z m605 -31 c9 -17 15 -32 13 -33
-2 -1 -28 -13 -58 -25 -30 -13 -61 -25 -67 -28 -8 -3 -13 3 -13 14 0 10 -5 24
-12 31 -16 16 -3 28 58 52 63 25 61 25 79 -11z m-380 -19 c-3 -5 -10 -10 -16
-10 -5 0 -9 5 -9 10 0 6 7 10 16 10 8 0 12 -4 9 -10z m-3682 -26 c-7 -19 -20
-17 -32 5 -9 16 -7 17 14 13 15 -2 22 -9 18 -18z m4101 -50 c12 -30 6 -40 -39
-62 l-44 -21 -28 23 c-16 14 -26 26 -23 28 6 5 112 46 121 47 4 1 10 -6 13
-15z m-1645 -32 c7 -13 6 -23 -1 -30 -9 -9 -7 -15 8 -26 15 -12 16 -17 7 -27
-7 -7 -14 -11 -15 -8 -10 16 -34 99 -30 104 10 10 21 5 31 -13z m190 -1 c-13
-11 -26 -17 -29 -14 -6 6 30 33 43 33 5 0 -1 -9 -14 -19z m1211 -21 c0 -5 -5
-10 -11 -10 -5 0 -7 5 -4 10 3 6 8 10 11 10 2 0 4 -4 4 -10z m-2960 -4 c0 -3
-4 -8 -10 -11 -5 -3 -10 -1 -10 4 0 6 5 11 10 11 6 0 10 -2 10 -4z m1500 -6
c0 -5 -4 -10 -9 -10 -5 0 -18 -3 -28 -6 -16 -6 -16 -5 2 9 23 19 35 21 35 7z
m290 -10 c0 -20 -98 -54 -119 -41 -10 7 -1 11 32 16 25 4 52 13 58 21 13 16
29 18 29 4z m1135 0 c-3 -5 -11 -10 -16 -10 -6 0 -7 5 -4 10 3 6 11 10 16 10
6 0 7 -4 4 -10z m-3775 -15 c0 -17 -2 -18 -24 -9 -23 9 -20 24 4 24 11 0 20
-7 20 -15z m2339 -44 l-22 -30 -22 32 c-12 18 -20 34 -17 37 3 3 7 -1 9 -7 7
-18 38 -16 54 3 23 28 22 -3 -2 -35z m1490 13 c-13 -16 -39 -19 -39 -4 0 12
32 30 43 23 4 -3 3 -11 -4 -19z m241 22 c0 -2 3 -11 6 -19 8 -22 -30 -41 -56
-27 -26 14 -25 29 3 40 24 10 47 12 47 6z m-336 -60 c20 -24 36 -49 36 -54 0
-14 -21 -20 -50 -12 -20 5 -25 12 -25 37 0 17 -3 29 -7 26 -5 -2 -8 7 -8 21 0
37 12 32 54 -18z m-1176 -18 c8 -7 17 -6 27 2 13 11 20 11 40 0 14 -7 25 -17
25 -21 0 -10 -176 -1 -210 10 -42 14 -70 11 -70 -7 0 -12 -3 -13 -11 -5 -7 7
-9 18 -6 25 4 11 25 13 98 10 52 -2 100 -9 107 -14z m1292 2 c0 -5 -2 -10 -4
-10 -3 0 -8 5 -11 10 -3 6 -1 10 4 10 6 0 11 -4 11 -10z m-1150 -10 c0 -5 -2
-10 -4 -10 -3 0 -8 5 -11 10 -3 6 -1 10 4 10 6 0 11 -4 11 -10z m-480 -10 c0
-5 -4 -10 -10 -10 -5 0 -10 5 -10 10 0 6 5 10 10 10 6 0 10 -4 10 -10z m133
-30 c6 -11 16 -20 20 -20 18 0 58 -39 91 -88 29 -43 32 -53 20 -63 -19 -15
-37 0 -71 61 -34 60 -58 77 -79 55 -9 -9 -11 -15 -4 -15 14 0 40 -61 40 -93 0
-14 7 -30 15 -37 27 -22 18 -38 -17 -31 -22 5 -34 13 -36 26 -2 11 -7 29 -11
40 -27 66 -33 98 -21 105 7 4 9 13 6 19 -10 15 -26 14 -26 -3 0 -7 -6 -18 -13
-25 -10 -8 -12 -25 -6 -63 4 -29 3 -57 -1 -62 -4 -4 -4 -22 1 -39 11 -38 -1
-53 -30 -38 -19 11 -21 19 -17 102 1 49 -1 92 -6 95 -4 3 -8 11 -8 17 0 7 5 4
11 -5 15 -26 32 -22 27 7 -4 18 0 26 14 31 15 4 17 9 9 17 -15 15 -14 27 4 27
8 0 15 -4 15 -10 0 -5 7 -10 16 -10 11 0 14 6 9 21 -6 19 -5 20 14 9 12 -6 27
-20 34 -30z m1737 30 c0 -5 -4 -10 -10 -10 -5 0 -10 5 -10 10 0 6 5 10 10 10
6 0 10 -4 10 -10z m-1280 -4 c0 -2 -11 -6 -25 -8 -13 -3 -22 -1 -19 3 5 9 44
13 44 5z m-630 -27 c8 -15 8 -24 0 -34 -21 -25 -48 -85 -39 -85 5 0 9 -4 9
-10 0 -5 -7 -7 -15 -4 -19 7 -36 -35 -39 -93 -3 -50 -8 -57 -35 -48 -25 8 -30
60 -7 68 9 4 12 14 9 26 -3 12 -1 27 5 34 6 7 10 22 8 33 -2 10 -1 13 1 6 3
-7 10 -11 16 -9 16 5 22 47 7 47 -6 0 -10 10 -8 23 2 14 9 21 21 21 10 -1 17
5 17 15 0 36 33 43 50 10z m860 11 c0 -5 -7 -10 -16 -10 -8 0 -12 5 -9 10 3 6
10 10 16 10 5 0 9 -4 9 -10z m-130 -15 c10 -13 9 -15 -12 -15 -13 0 -29 -5
-36 -12 -6 -6 -15 -9 -18 -5 -6 6 34 46 47 47 4 0 12 -7 19 -15z m334 -9 c-7
-18 -61 -19 -56 -1 2 6 14 9 27 7 15 -2 25 2 25 9 0 7 2 10 5 7 3 -3 3 -13 -1
-22z m286 -28 c0 -30 -25 -15 -25 15 -1 20 2 24 12 15 7 -6 13 -19 13 -30z
m-870 17 c-14 -8 -43 -14 -64 -15 -50 0 -42 8 14 15 24 3 46 8 49 10 2 3 9 5
15 5 6 -1 0 -7 -14 -15z m350 11 c0 -3 -4 -8 -10 -11 -5 -3 -10 -1 -10 4 0 6
5 11 10 11 6 0 10 -2 10 -4z m976 -11 c-16 -9 -32 -13 -35 -10 -8 9 21 25 44
25 16 0 14 -3 -9 -15z m-1028 -13 c2 -7 -3 -12 -12 -12 -9 0 -16 7 -16 16 0
17 22 14 28 -4z m358 4 c8 -8 14 -18 14 -22 0 -14 -52 -54 -62 -48 -5 3 0 13
11 21 29 20 27 43 -4 43 -14 0 -25 5 -25 10 0 15 49 12 66 -4z m458 -11 c3 -8
17 -15 30 -15 23 0 66 -33 66 -51 0 -4 -8 -10 -17 -13 -12 -5 -32 8 -67 44
-33 32 -45 50 -34 50 9 0 18 -7 22 -15z m-714 -15 c0 -5 -4 -10 -9 -10 -6 0
-13 5 -16 10 -3 6 1 10 9 10 9 0 16 -4 16 -10z m-1095 -29 c-7 -23 -72 -77
-81 -68 -3 3 14 26 37 51 45 47 55 51 44 17z m57 7 c-7 -7 -12 -8 -12 -2 0 6
3 14 7 17 3 4 9 5 12 2 2 -3 -1 -11 -7 -17z m898 7 c20 -24 4 -29 -19 -6 -14
14 -17 21 -7 21 7 0 19 -7 26 -15z m285 -15 c3 -5 1 -10 -4 -10 -6 0 -11 5
-11 10 0 6 2 10 4 10 3 0 8 -4 11 -10z m-560 -20 c13 0 16 -3 9 -10 -12 -12
-74 -2 -74 12 0 6 10 8 23 4 12 -3 31 -6 42 -6z m130 0 c-3 -5 -10 -10 -16
-10 -5 0 -9 5 -9 10 0 6 7 10 16 10 8 0 12 -4 9 -10z m885 3 c0 -10 -32 -43
-42 -43 -10 0 -11 34 -1 43 8 9 43 9 43 0z m-936 -12 c3 -4 3 -11 0 -14 -8 -8
-34 3 -34 14 0 11 27 12 34 0z m121 -1 c4 -6 15 -8 25 -5 11 3 20 0 24 -10 8
-22 -30 -19 -56 5 -12 11 -17 20 -10 20 6 0 14 -5 17 -10z m305 0 c0 -13 -11
-13 -30 0 -12 8 -11 10 8 10 12 0 22 -4 22 -10z m205 0 c-3 -5 -11 -10 -16
-10 -6 0 -7 5 -4 10 3 6 11 10 16 10 6 0 7 -4 4 -10z m65 -21 c0 -3 -11 -11
-25 -17 -22 -10 -25 -9 -25 8 0 15 6 19 25 18 14 -1 25 -5 25 -9z m-220 -9 c0
-5 -9 -10 -21 -10 -11 0 -17 5 -14 10 3 6 13 10 21 10 8 0 14 -4 14 -10z m560
-83 c0 -40 -16 -25 -23 20 -3 21 -8 47 -12 58 -3 11 3 4 14 -15 11 -19 20 -48
21 -63z m-1186 62 c-3 -5 -10 -7 -15 -3 -5 3 -7 10 -3 15 3 5 10 7 15 3 5 -3
7 -10 3 -15z m936 6 c10 -12 10 -15 -4 -15 -9 0 -16 7 -16 15 0 8 2 15 4 15 2
0 9 -7 16 -15z m-863 -32 c-9 -9 -19 -14 -22 -11 -3 3 2 13 11 22 9 9 19 14
22 11 3 -3 -2 -13 -11 -22z m1033 12 c0 -8 -4 -15 -10 -15 -5 0 -10 7 -10 15
0 8 5 15 10 15 6 0 10 -7 10 -15z m-953 -1 c-3 -3 -12 -4 -19 -1 -8 3 -5 6 6
6 11 1 17 -2 13 -5z m108 -4 c-3 -5 -15 -10 -26 -10 -11 0 -17 5 -14 10 3 6
15 10 26 10 11 0 17 -4 14 -10z m520 0 c3 -5 -1 -10 -10 -10 -9 0 -13 5 -10
10 3 6 8 10 10 10 2 0 7 -4 10 -10z m200 -31 c12 -19 -5 -23 -22 -6 -16 16
-16 17 -1 17 9 0 20 -5 23 -11z m-970 -9 c3 -5 -3 -10 -14 -10 -12 0 -21 5
-21 10 0 6 6 10 14 10 8 0 18 -4 21 -10z m658 -12 c21 -11 20 -13 -18 -19 -54
-11 -85 -11 -85 -1 0 5 17 13 38 19 20 6 38 11 40 12 2 0 13 -4 25 -11z m151
-14 c18 -7 12 -24 -10 -24 -8 0 -14 7 -14 15 0 17 2 18 24 9z m-299 -22 c-3
-3 -11 0 -18 7 -9 10 -8 11 6 5 10 -3 15 -9 12 -12z m428 -9 c-7 -2 -13 -11
-13 -18 0 -13 -29 -29 -38 -20 -7 7 38 45 52 44 6 0 6 -3 -1 -6z m-323 -27 c0
-11 -19 -15 -25 -6 -3 5 1 10 9 10 9 0 16 -2 16 -4z m498 -39 c17 -24 32 -50
34 -57 2 -7 12 -22 22 -34 26 -27 9 -31 -49 -12 -25 9 -52 16 -60 16 -8 0 -15
7 -15 15 0 11 7 14 24 9 32 -8 37 4 20 51 -24 69 -19 71 24 12z m-604 15 c3
-5 -8 -9 -24 -10 -16 0 -32 4 -35 9 -4 5 7 9 24 9 16 0 32 -4 35 -8z m493 -35
c-1 -29 -16 -38 -40 -25 -18 9 -18 11 4 34 25 27 38 24 36 -9z m-480 -10 c-4
-10 -15 -13 -34 -9 l-28 5 30 13 c33 14 40 12 32 -9z m-150 -39 c6 -13 21 -52
33 -88 12 -36 27 -71 33 -78 22 -27 -2 -20 -54 16 -36 26 -54 45 -54 59 0 33
-13 39 -36 14 -13 -13 -27 -20 -38 -16 -10 3 -24 -1 -31 -10 -11 -13 -7 -15
31 -15 38 0 53 -7 109 -52 111 -88 156 -158 94 -146 -12 2 -20 13 -22 31 -3
20 -10 28 -30 32 -47 10 -117 52 -117 72 0 27 -30 27 -59 -1 -16 -17 -36 -26
-58 -26 -27 0 -30 -2 -18 -13 8 -7 33 -19 55 -26 22 -8 48 -20 58 -29 9 -8 27
-16 40 -17 12 -1 27 -11 33 -23 6 -12 19 -31 29 -42 16 -18 16 -20 1 -26 -23
-9 -47 3 -53 26 -4 13 -14 20 -29 20 -24 0 -96 40 -109 60 -8 14 -71 13 -98
-1 -11 -7 -22 -8 -24 -3 -12 34 -20 35 -58 10 -21 -14 -47 -26 -59 -26 -28 0
-66 -27 -66 -47 0 -9 7 -25 17 -35 13 -15 13 -18 2 -18 -8 0 -23 9 -32 21 -15
17 -21 18 -33 8 -11 -9 -18 -9 -32 3 -9 9 -46 26 -80 39 -35 12 -66 28 -69 36
-14 37 84 164 125 163 20 -1 72 -29 57 -31 -17 -2 68 -18 103 -18 19 -1 40 7
51 18 10 10 34 24 53 30 19 6 55 31 80 55 50 48 135 82 234 95 6 0 15 -9 21
-21z m947 -57 c17 -17 36 -31 43 -31 20 0 16 35 -7 55 -18 17 -28 45 -15 45
18 0 54 -59 55 -88 0 -36 3 -36 -77 -8 -26 9 -83 72 -83 92 0 9 53 -32 84 -65z
m-1367 53 c-3 -3 -12 -4 -19 -1 -8 3 -5 6 6 6 11 1 17 -2 13 -5z m533 -19 c0
-12 -19 -12 -23 0 -4 9 -1 12 9 8 7 -3 14 -7 14 -8z m-430 -5 c0 -5 -4 -10
-10 -10 -5 0 -10 5 -10 10 0 6 5 10 10 10 6 0 10 -4 10 -10z m-183 -16 c-3 -3
-12 -4 -19 -1 -8 3 -5 6 6 6 11 1 17 -2 13 -5z m223 -19 c-22 -26 -51 -38 -62
-27 -7 7 2 17 28 29 44 22 53 21 34 -2z m-86 6 c7 -11 -81 -19 -97 -9 -9 6 13
10 75 16 9 1 19 -2 22 -7z m987 -17 c-24 -15 -63 -29 -86 -32 -41 -4 -43 -3
-42 21 2 21 5 23 19 16 29 -16 84 -13 109 4 13 10 28 17 34 17 5 0 -10 -12
-34 -26z m109 6 c24 -15 7 -18 -25 -4 -23 10 -25 13 -10 13 11 1 27 -3 35 -9z
m-567 -34 c16 6 57 -28 57 -46 0 -5 -11 -10 -24 -10 -24 0 -86 62 -86 85 1 5
9 0 19 -13 11 -13 26 -20 34 -16z m-753 14 c0 -5 -10 -10 -22 -9 -22 0 -22 1
-3 9 11 5 21 9 23 9 1 1 2 -3 2 -9z m-146 -17 c28 -9 57 -18 65 -20 10 -2 7
-12 -11 -36 -29 -38 -66 -107 -107 -199 -35 -81 -40 -82 -170 -31 -46 18 -88
30 -92 27 -5 -3 -6 2 -3 10 3 8 12 17 20 20 8 3 14 14 14 25 0 20 75 137 118
183 16 17 38 28 61 31 20 2 40 4 45 5 4 1 31 -5 60 -15z m76 7 c0 -5 -7 -10
-16 -10 -8 0 -12 5 -9 10 3 6 10 10 16 10 5 0 9 -4 9 -10z m1502 -7 c10 -9 18
-20 18 -24 0 -12 -73 2 -87 17 -13 12 -7 16 41 23 5 0 18 -6 28 -16z m-1225
-19 c2 -5 -6 -15 -17 -21 -22 -14 -110 -6 -110 9 0 6 18 8 45 4 36 -6 46 -4
51 9 7 16 25 16 31 -1z m1373 -8 c26 -8 46 -20 48 -30 2 -9 -1 -16 -7 -16 -6
0 -16 -10 -22 -22 -9 -19 -9 -21 2 -10 18 17 39 15 39 -3 0 -8 -4 -15 -10 -15
-5 0 -10 -7 -10 -15 0 -8 7 -15 15 -15 8 0 15 -7 15 -15 0 -8 -6 -15 -14 -15
-8 0 -21 -3 -29 -6 -11 -4 -20 9 -33 53 -10 32 -17 61 -16 66 1 4 -2 7 -6 7
-5 0 -14 11 -20 25 -13 29 -12 29 48 11z m-427 -16 c-6 -24 -16 -25 -32 -6
-10 12 -8 15 11 19 13 2 24 5 25 6 0 0 -1 -8 -4 -19z m317 -20 c5 9 9 9 14 1
8 -12 -10 -51 -24 -51 -6 0 -10 -6 -10 -14 0 -10 7 -12 22 -8 17 4 20 2 15
-11 -4 -10 0 -20 11 -26 9 -5 14 -12 11 -15 -3 -3 -26 14 -51 37 -51 46 -70
93 -41 99 10 2 24 -2 32 -10 10 -10 16 -11 21 -2z m-541 -112 c18 -24 27 -44
21 -46 -5 -2 -10 -8 -10 -13 0 -4 7 -6 14 -3 8 3 24 -3 36 -13 15 -15 17 -20
5 -20 -8 0 -15 4 -15 8 0 4 -9 6 -20 4 -11 -2 -20 0 -20 5 0 5 -7 7 -16 3 -10
-4 -17 1 -21 16 -3 11 -9 18 -14 15 -5 -3 -6 -10 -3 -16 4 -7 2 -8 -4 -4 -6 4
-14 22 -18 41 -3 19 -10 32 -15 29 -5 -3 -9 2 -9 10 0 13 16 22 47 25 6 0 25
-18 42 -41z m248 7 c13 -23 13 -29 1 -36 -21 -14 -38 -10 -38 9 0 10 -6 27
-14 38 -13 18 -12 19 11 18 17 0 31 -10 40 -29z m-124 5 c-6 -23 21 -60 44
-60 19 0 16 -13 -7 -28 -21 -13 -40 -9 -40 9 0 6 -9 18 -20 27 -18 15 -19 20
-8 44 15 32 39 38 31 8z m372 -27 c30 -24 32 -28 17 -39 -14 -10 -14 -12 -2
-12 62 4 79 -2 82 -29 3 -30 -36 -73 -66 -73 -22 0 -96 38 -96 50 0 5 -9 11
-19 15 -11 3 -22 13 -25 21 -7 17 23 63 40 64 7 0 14 7 18 15 7 20 12 19 51
-12z m229 -28 c-4 -8 -11 -15 -16 -15 -6 0 -6 -6 1 -14 15 -17 11 -68 -5 -73
-6 -2 -14 13 -17 34 -5 30 -2 42 15 60 25 27 29 28 22 8z m-1464 -25 c0 -5 -9
-10 -20 -10 -11 0 -20 5 -20 10 0 6 9 10 20 10 11 0 20 -4 20 -10z m1047 -10
c14 -11 22 -20 18 -20 -4 0 -18 9 -32 20 -14 11 -22 20 -18 20 4 0 18 -9 32
-20z m-3667 2 c0 -10 91 -15 179 -9 19 1 36 -2 38 -8 4 -12 -23 -15 -132 -18
-44 -1 -86 -6 -92 -10 -9 -5 -11 -3 -7 7 3 9 -3 17 -17 21 -17 6 -19 9 -8 16
17 11 39 12 39 1z m3493 -39 c-4 -10 -11 -21 -17 -25 -6 -4 1 -8 17 -8 28 0
36 -13 15 -26 -7 -4 -8 -3 -4 4 4 7 1 12 -9 12 -9 0 -13 -4 -10 -10 3 -6 -1
-7 -9 -4 -9 3 -14 9 -11 14 2 4 -2 16 -10 26 -12 16 -17 17 -34 7 -17 -11 -19
-10 -15 2 4 9 19 15 36 15 20 0 27 -4 22 -12 -4 -7 2 -5 12 5 10 9 19 17 21
17 1 0 -1 -8 -4 -17z m-2975 -8 c-11 -9 -58 -14 -58 -6 0 10 39 20 53 13 5 -2
7 -5 5 -7z m658 0 c-11 -8 -27 -15 -35 -15 -11 0 -10 4 5 15 10 8 26 14 34 14
11 0 10 -3 -4 -14z m-839 -11 c-3 -3 -12 -4 -19 -1 -8 3 -5 6 6 6 11 1 17 -2
13 -5z m3362 -38 c9 -10 9 -16 1 -21 -15 -9 -100 4 -100 15 0 20 83 26 99 6z
m138 -49 c7 2 21 0 31 -6 16 -8 28 -5 61 19 l41 30 -2 -31 c-1 -17 -6 -33 -11
-36 -5 -3 -4 -9 3 -13 9 -6 4 -13 -16 -25 -16 -9 -21 -14 -11 -11 9 3 17 1 17
-4 0 -6 -9 -10 -20 -10 -12 0 -20 7 -20 16 0 12 -3 14 -12 6 -16 -13 -68 -11
-60 2 3 5 -1 7 -10 4 -8 -4 -21 -2 -29 3 -11 7 -11 9 4 9 24 0 21 23 -8 58
-34 41 -32 55 3 16 15 -17 32 -29 39 -27z m227 38 c-4 -8 -8 -15 -10 -15 -2 0
-4 7 -4 15 0 8 4 15 10 15 5 0 7 -7 4 -15z m-3414 -35 c0 -5 -4 -10 -9 -10 -6
0 -13 5 -16 10 -3 6 1 10 9 10 9 0 16 -4 16 -10z m2835 0 c3 -5 2 -10 -4 -10
-5 0 -13 5 -16 10 -3 6 -2 10 4 10 5 0 13 -4 16 -10z m243 -16 c-10 -10 -21
-13 -29 -8 -12 7 0 14 41 23 2 1 -3 -6 -12 -15z m-438 -4 c0 -5 -7 -10 -15
-10 -8 0 -23 -10 -34 -21 -19 -20 -19 -20 -15 -2 3 11 18 24 32 30 15 6 28 11
30 12 1 1 2 -3 2 -9z m-2410 -26 c8 -6 24 -14 35 -17 11 -3 -7 -3 -40 0 -33 3
-64 9 -69 14 -16 14 -53 10 -71 -7 -12 -13 -19 -14 -28 -5 -20 20 13 31 88 29
39 -1 77 -7 85 -14z m2015 -4 c28 -6 42 -6 46 2 6 9 19 8 50 -1 32 -10 44 -10
47 -2 3 8 8 9 16 2 15 -13 98 -21 111 -11 6 4 38 -6 73 -23 54 -26 61 -32 49
-44 -12 -12 -36 -18 -89 -22 -23 -1 -13 -27 13 -34 25 -7 25 -27 -1 -27 -11 0
-20 7 -20 15 0 21 -37 19 -67 -5 -31 -24 -65 -27 -57 -5 8 19 -10 20 -26 1 -6
-8 -17 -13 -25 -10 -7 3 -16 1 -19 -5 -4 -6 -13 -8 -20 -5 -8 3 -16 1 -20 -4
-3 -5 -30 -5 -63 -1 -32 4 -60 4 -63 0 -8 -12 -70 -22 -70 -11 0 15 -37 12
-44 -2 -3 -10 -9 -8 -19 5 -11 14 -16 15 -20 5 -4 -10 -7 -10 -14 -1 -6 9 -23
11 -50 7 -38 -5 -41 -4 -51 25 -8 22 -15 29 -26 25 -18 -7 -19 -3 -10 20 3 9
10 16 16 16 5 0 6 -5 2 -11 -4 -7 -1 -10 7 -7 9 3 13 17 11 39 -3 28 -1 32 9
22 16 -16 33 -17 23 -1 -5 8 -2 9 9 5 15 -6 22 3 18 25 0 4 15 4 34 1 19 -3
42 -2 52 2 10 4 39 7 64 6 26 -2 50 2 54 8 8 13 18 13 70 1z m-1825 -30 c0 -5
-2 -10 -4 -10 -3 0 -8 5 -11 10 -3 6 -1 10 4 10 6 0 11 -4 11 -10z m-83 -6
c-3 -3 -12 -4 -19 -1 -8 3 -5 6 6 6 11 1 17 -2 13 -5z m213 -24 c-8 -5 -19
-10 -25 -10 -5 0 -3 5 5 10 8 5 20 10 25 10 6 0 3 -5 -5 -10z m100 -90 c0 -5
-4 -10 -9 -10 -6 0 -13 5 -16 10 -3 6 1 10 9 10 9 0 16 -4 16 -10z m355 0 c3
-5 -1 -10 -9 -10 -9 0 -16 5 -16 10 0 6 4 10 9 10 6 0 13 -4 16 -10z m-405
-30 c0 -5 -10 -10 -22 -10 -19 0 -20 2 -8 10 19 13 30 13 30 0z m470 0 c0 -5
-5 -10 -11 -10 -5 0 -7 -4 -4 -10 3 -6 -1 -7 -9 -4 -23 9 -20 34 4 34 11 0 20
-4 20 -10z m-450 -83 c8 -4 -3 -5 -24 -4 -22 1 -41 7 -43 14 -5 16 30 22 42 7
6 -6 17 -14 25 -17z m500 -7 c0 -4 -27 -11 -60 -15 -32 -4 -64 -13 -71 -21 -6
-8 -17 -14 -24 -14 -17 0 -28 30 -12 31 7 0 19 2 27 5 87 23 140 28 140 14z
m44 -25 c-4 -8 -12 -15 -20 -15 -20 0 -17 18 4 23 9 3 18 5 19 6 1 0 0 -6 -3
-14z m-54 -35 c0 -5 -10 -10 -22 -11 -13 0 -40 -2 -60 -5 -21 -3 -38 0 -38 5
0 9 27 14 98 19 12 1 22 -2 22 -8z m383 -17 c-7 -2 -19 -2 -25 0 -7 3 -2 5 12
5 14 0 19 -2 13 -5z m97 -17 c0 -25 -14 -34 -38 -25 -15 6 -29 10 -32 9 -2 -1
-6 3 -8 9 -2 7 12 11 37 11 23 0 41 -2 41 -4z m468 -9 c10 -8 16 -7 23 4 8 12
10 12 18 0 5 -7 14 -10 20 -6 7 4 18 1 26 -5 8 -6 19 -9 25 -5 5 3 10 -1 10
-10 0 -25 25 -46 39 -32 8 8 11 7 11 -5 0 -10 -12 -19 -32 -24 -18 -3 -40 -14
-48 -24 -8 -9 -21 -15 -27 -13 -7 3 -13 0 -13 -5 0 -6 -13 -15 -30 -21 -18 -6
-30 -6 -30 0 0 5 -7 9 -15 9 -8 0 -15 -4 -15 -10 0 -5 -6 -10 -13 -10 -7 0
-18 -5 -24 -11 -7 -7 -27 -13 -45 -14 -18 -2 -44 -6 -58 -10 -14 -4 -31 -7
-37 -7 -7 -1 -13 -7 -13 -15 0 -15 0 -15 -58 -4 -54 11 -63 -2 -17 -23 19 -9
35 -19 35 -21 0 -5 -13 -2 -109 25 -49 14 -76 17 -81 11 -7 -13 -110 -12 -110
0 0 5 15 15 33 23 17 8 25 15 17 15 -13 1 -13 2 0 11 8 5 33 7 55 4 22 -3 51
-1 65 5 21 8 17 10 -31 10 -31 1 -64 7 -75 15 -13 10 -33 13 -62 9 -38 -5 -44
-3 -49 16 -4 17 -13 21 -49 22 -118 4 -174 15 -182 37 -6 18 33 15 49 -4 8
-10 22 -14 39 -10 15 3 58 0 96 -5 38 -6 95 -7 127 -3 52 5 60 9 68 33 8 24
14 26 44 23 21 -3 35 0 35 7 0 6 -7 8 -15 5 -8 -4 -15 -1 -15 5 0 20 42 12 47
-9 4 -16 14 -20 44 -20 22 0 39 4 39 9 0 5 19 10 43 10 77 1 122 7 140 17 24
14 88 14 105 1z m-594 -12 c27 -2 52 -9 57 -16 10 -16 -12 -32 -25 -19 -6 6
-25 10 -43 10 -18 0 -33 3 -33 8 0 4 -16 8 -36 9 -20 1 -42 7 -48 14 -8 9 -1
10 34 4 25 -4 67 -8 94 -10z m276 -5 c-8 -5 -19 -10 -25 -10 -5 0 -3 5 5 10 8
5 20 10 25 10 6 0 3 -5 -5 -10z m-420 -4 c0 -2 -11 -6 -25 -8 -14 -3 -25 -1
-25 3 0 5 11 9 25 9 14 0 25 -2 25 -4z m1475 -27 c11 -16 1 -19 -13 -3 -7 8
-8 14 -3 14 5 0 13 -5 16 -11z m-1725 -19 c0 -5 -9 -10 -19 -10 -11 0 -23 5
-26 10 -4 6 5 10 19 10 14 0 26 -4 26 -10z m1670 1 c0 -5 -9 -7 -20 -4 -11 3
-20 7 -20 9 0 2 9 4 20 4 11 0 20 -4 20 -9z m95 -19 c-3 -3 -11 0 -18 7 -9 10
-8 11 6 5 10 -3 15 -9 12 -12z m-1551 -128 c22 -21 20 -25 -8 -14 -13 5 -26 7
-28 4 -3 -2 -5 3 -5 11 0 20 21 19 41 -1z m90 -23 c3 -4 -9 -8 -25 -9 -16 -1
-29 2 -29 7 0 10 48 12 54 2z m75 -74 c9 -11 4 -14 -24 -13 -34 1 -42 6 -28
19 11 12 40 8 52 -6z"/>
<path d="M4183 3643 c9 -2 23 -2 30 0 6 3 -1 5 -18 5 -16 0 -22 -2 -12 -5z"/>
<path d="M4117 3579 c4 -12 11 -18 20 -15 8 3 19 6 24 6 5 0 9 8 9 18 0 11 -3
13 -8 5 -5 -8 -13 -9 -22 -3 -23 15 -29 12 -23 -11z"/>
<path d="M3728 3683 c6 -2 18 -2 25 0 6 3 1 5 -13 5 -14 0 -19 -2 -12 -5z"/>
<path d="M2622 2988 c2 -6 10 -13 16 -14 7 -1 8 0 2 3 -5 2 -8 9 -4 14 3 5 0
9 -6 9 -7 0 -10 -5 -8 -12z"/>
<path d="M4116 2978 c3 -4 9 -8 15 -8 5 0 9 4 9 8 0 5 -7 9 -15 9 -8 0 -12 -4
-9 -9z"/>
<path d="M3398 2883 c7 -3 16 -2 19 1 4 3 -2 6 -13 5 -11 0 -14 -3 -6 -6z"/>
<path d="M3734 2868 c-5 -8 -16 -17 -24 -20 -8 -3 105 -6 253 -7 180 -1 267 2
267 9 0 5 10 11 23 11 64 5 -151 17 -305 18 -120 1 -179 -3 -184 -10 -5 -8 -9
-8 -14 1 -6 9 -10 9 -16 -2z"/>
<path d="M2940 2836 c0 -9 13 -13 40 -12 22 0 40 4 40 8 0 5 -6 8 -12 9 -7 0
-25 2 -40 4 -18 2 -28 -1 -28 -9z"/>
<path d="M3035 2830 c3 -5 8 -10 11 -10 2 0 4 5 4 10 0 6 -5 10 -11 10 -5 0
-7 -4 -4 -10z"/>
<path d="M4284 2832 c3 -6 -4 -13 -16 -15 -14 -3 -8 -5 15 -6 27 -1 37 3 35
12 -3 6 -13 14 -23 15 -10 2 -15 0 -11 -6z"/>
<path d="M3527 2589 c-3 -11 0 -19 8 -19 18 0 27 27 10 33 -7 3 -15 -3 -18
-14z"/>
<path d="M3788 2593 c-36 -4 -51 -24 -29 -37 13 -9 69 13 75 30 3 8 2 13 -2
12 -4 -1 -24 -3 -44 -5z"/>
<path d="M3935 2590 c-9 -15 4 -30 26 -30 17 0 18 3 9 20 -12 22 -25 26 -35
10z"/>
<path d="M3628 2573 c7 -3 16 -2 19 1 4 3 -2 6 -13 5 -11 0 -14 -3 -6 -6z"/>
<path d="M3710 2536 c0 -14 5 -26 10 -26 6 0 10 9 10 19 0 11 -4 23 -10 26 -6
4 -10 -5 -10 -19z"/>
<path d="M3833 2525 c0 -8 4 -12 9 -9 5 3 6 10 3 15 -9 13 -12 11 -12 -6z"/>
<path d="M3625 2489 l-30 -19 37 0 c20 0 45 -3 55 -7 17 -7 17 -6 2 17 -21 31
-28 32 -64 9z"/>
<path d="M3804 2464 c-18 -14 -18 -15 4 -4 12 6 22 13 22 15 0 8 -5 6 -26 -11z"/>
<path d="M3748 2343 c7 -3 16 -2 19 1 4 3 -2 6 -13 5 -11 0 -14 -3 -6 -6z"/>
<path d="M4287 2354 c-11 -11 3 -24 24 -24 12 0 19 5 17 13 -5 14 -31 21 -41
11z"/>
<path d="M4240 2305 c-11 -13 -10 -14 4 -9 9 3 16 10 16 15 0 13 -6 11 -20 -6z"/>
<path d="M2392 2130 c-9 -16 -23 -30 -29 -30 -18 0 -16 -31 3 -59 l17 -24 18
24 c22 29 24 43 4 36 -8 -4 -17 -1 -21 5 -10 15 26 39 47 33 25 -8 35 16 14
32 -27 19 -34 17 -53 -17z"/>
<path d="M2794 1186 c-10 -8 -15 -18 -11 -22 4 -4 17 2 30 14 24 25 12 30 -19
8z"/>
<path d="M2488 1163 c7 -3 16 -2 19 1 4 3 -2 6 -13 5 -11 0 -14 -3 -6 -6z"/>
<path d="M2897 1153 c-13 -12 -7 -23 13 -23 11 0 20 7 20 15 0 15 -21 21 -33
8z"/>
<path d="M2717 1094 c-16 -9 -27 -18 -24 -21 3 -2 14 0 25 6 11 6 28 8 36 5
11 -4 16 -1 16 10 0 20 -16 20 -53 0z"/>
<path d="M2612 1071 c2 -7 7 -12 11 -12 12 1 9 15 -3 20 -7 2 -11 -2 -8 -8z"/>
<path d="M2110 1021 c0 -11 -4 -22 -10 -26 -12 -8 -1 -37 13 -32 14 4 19 77 6
77 -5 0 -9 -9 -9 -19z"/>
<path d="M2200 1024 c0 -11 -6 -13 -19 -9 -28 9 -35 -11 -11 -35 19 -19 21
-19 26 -3 3 10 10 28 15 41 5 14 5 22 -1 22 -6 0 -10 -7 -10 -16z"/>
<path d="M2243 1025 c-9 -25 4 -29 17 -6 7 15 7 21 0 21 -6 0 -13 -7 -17 -15z"/>
<path d="M2203 954 c-15 -7 -5 -34 12 -34 11 0 25 20 25 36 0 5 -21 4 -37 -2z"/>
<path d="M2260 939 c0 -5 5 -7 10 -4 6 3 10 8 10 11 0 2 -4 4 -10 4 -5 0 -10
-5 -10 -11z"/>
<path d="M3420 984 c0 -8 5 -12 10 -9 6 3 10 10 10 16 0 5 -4 9 -10 9 -5 0
-10 -7 -10 -16z"/>
<path d="M3870 968 c0 -4 4 -8 9 -8 6 0 12 4 15 8 3 5 -1 9 -9 9 -8 0 -15 -4
-15 -9z"/>
<path d="M2738 733 c7 -3 16 -2 19 1 4 3 -2 6 -13 5 -11 0 -14 -3 -6 -6z"/>
<path d="M3178 653 c7 -3 16 -2 19 1 4 3 -2 6 -13 5 -11 0 -14 -3 -6 -6z"/>
<path d="M2398 343 c-10 -2 -18 -9 -18 -14 0 -14 16 -11 30 6 7 8 11 14 9 14
-2 -1 -12 -3 -21 -6z"/>
<path d="M2550 340 c-8 -5 -12 -11 -9 -14 3 -3 14 1 25 9 21 16 8 20 -16 5z"/>
<path d="M2325 310 c3 -5 10 -10 16 -10 5 0 9 5 9 10 0 6 -7 10 -16 10 -8 0
-12 -4 -9 -10z"/>
<path d="M2527 284 c-16 -16 -5 -25 26 -22 17 2 31 8 30 13 -3 12 -46 19 -56
9z"/>
<path d="M2578 3833 c7 -3 16 -2 19 1 4 3 -2 6 -13 5 -11 0 -14 -3 -6 -6z"/>
<path d="M4505 3760 c-9 -14 24 -25 37 -12 8 8 4 9 -12 5 -16 -4 -21 -3 -16 5
4 7 5 12 2 12 -3 0 -8 -5 -11 -10z"/>
<path d="M1305 3710 c-17 -7 -18 -9 -2 -10 9 -1 28 -2 42 -2 14 0 28 1 33 2 9
2 -29 19 -43 19 -5 0 -19 -4 -30 -9z"/>
<path d="M1223 3703 c9 -2 23 -2 30 0 6 3 -1 5 -18 5 -16 0 -22 -2 -12 -5z"/>
<path d="M1408 3703 c7 -3 16 -2 19 1 4 3 -2 6 -13 5 -11 0 -14 -3 -6 -6z"/>
<path d="M2988 3683 c6 -2 18 -2 25 0 6 3 1 5 -13 5 -14 0 -19 -2 -12 -5z"/>
<path d="M3060 3670 c0 -5 5 -10 10 -10 6 0 10 5 10 10 0 6 -4 10 -10 10 -5 0
-10 -4 -10 -10z"/>
<path d="M3095 3670 c-3 -5 -1 -10 4 -10 6 0 11 5 11 10 0 6 -2 10 -4 10 -3 0
-8 -4 -11 -10z"/>
<path d="M1717 3653 c-10 -3 -16 -10 -14 -16 4 -13 145 -18 153 -6 7 12 -106
30 -139 22z"/>
<path d="M2588 3653 c7 -3 16 -2 19 1 4 3 -2 6 -13 5 -11 0 -14 -3 -6 -6z"/>
<path d="M2828 3643 c6 -2 18 -2 25 0 6 3 1 5 -13 5 -14 0 -19 -2 -12 -5z"/>
<path d="M4555 3455 c1 -44 6 -89 11 -100 6 -11 21 -48 34 -82 12 -35 27 -63
31 -63 6 0 8 68 7 158 l-3 157 -40 5 -40 6 0 -81z"/>
<path d="M385 2200 c-3 -5 1 -10 10 -10 9 0 13 5 10 10 -3 6 -8 10 -10 10 -2
0 -7 -4 -10 -10z"/>
<path d="M475 2170 c-3 -6 1 -7 9 -4 18 7 21 14 7 14 -6 0 -13 -4 -16 -10z"/>
<path d="M358 2163 c7 -3 16 -2 19 1 4 3 -2 6 -13 5 -11 0 -14 -3 -6 -6z"/>
<path d="M4396 1573 c-3 -3 -26 -7 -51 -7 -48 -1 -67 -19 -25 -24 31 -3 108
22 93 31 -6 4 -13 4 -17 0z"/>
<path d="M4547 1484 c-14 -14 -6 -24 19 -24 16 0 24 5 22 13 -5 14 -31 21 -41
11z"/>
<path d="M4305 1240 c-9 -15 17 -21 75 -18 32 2 55 8 58 16 5 15 -123 17 -133
2z"/>
<path d="M4570 1182 c-35 -2 -69 -7 -75 -12 -6 -5 -54 -7 -108 -6 -53 1 -97 1
-97 0 0 -1 16 -12 35 -24 27 -17 44 -20 73 -15 25 4 53 1 83 -10 24 -10 59
-19 77 -22 18 -3 35 -9 38 -14 8 -14 44 -10 44 4 0 14 -55 35 -104 39 -16 2
-32 9 -34 17 -4 11 7 13 55 9 64 -6 87 1 81 23 -2 11 -19 13 -68 11z"/>
<path d="M4625 1021 c-4 -13 -12 -18 -22 -14 -21 8 -8 -13 15 -26 14 -7 17 -4
19 25 2 38 -3 44 -12 15z"/>
<path d="M4490 1010 c0 -13 28 -25 38 -16 3 4 0 11 -8 16 -20 13 -30 12 -30 0z"/>
<path d="M4420 986 c0 -9 30 -14 35 -6 4 6 -3 10 -14 10 -12 0 -21 -2 -21 -4z"/>
<path d="M4557 933 c3 -10 10 -24 16 -30 7 -9 5 -13 -6 -13 -9 0 -18 10 -20
23 -2 12 -5 2 -6 -22 -1 -34 -4 -42 -16 -37 -11 4 -19 -3 -26 -21 -6 -17 -13
-23 -17 -16 -10 15 -62 4 -62 -13 0 -8 5 -14 11 -14 5 0 7 -4 4 -10 -3 -5 1
-10 10 -10 10 0 13 5 9 12 -4 7 -3 8 4 4 7 -4 12 -15 12 -25 0 -14 -7 -16 -37
-13 -27 2 -34 0 -24 -6 9 -7 11 -19 7 -38 -6 -22 -5 -26 4 -18 6 6 13 20 15
30 2 11 4 21 4 24 1 3 6 -2 11 -10 5 -8 6 -26 3 -40 -6 -23 -5 -24 10 -8 19
19 22 38 6 38 -6 0 -4 7 5 15 21 22 26 19 21 -14 -4 -31 22 -52 36 -30 4 6 12
8 18 5 6 -4 25 -1 41 8 20 10 30 11 30 3 0 -7 4 -7 12 1 10 10 10 15 -2 22
-10 7 -11 10 -2 10 10 0 10 4 0 23 -7 12 -17 25 -23 29 -5 4 0 8 13 8 22 0 23
3 20 64 -1 36 -6 62 -11 59 -5 -3 -6 -11 -3 -18 5 -15 -17 -38 -27 -28 -4 3
-1 13 6 21 9 12 9 16 0 19 -7 3 -13 11 -13 19 0 8 -9 14 -20 14 -14 0 -18 -5
-13 -17z m-47 -153 c0 -5 -7 -10 -16 -10 -8 0 -12 5 -9 10 3 6 10 10 16 10 5
0 9 -4 9 -10z m50 0 c0 -5 -2 -10 -4 -10 -3 0 -8 5 -11 10 -3 6 -1 10 4 10 6
0 11 -4 11 -10z m-32 -52 c-7 -21 -13 -26 -18 -17 -5 7 -6 18 -4 26 14 47 15
48 24 34 4 -8 3 -27 -2 -43z m53 -1 c-8 -8 -11 -5 -11 9 0 27 14 41 18 19 2
-9 -1 -22 -7 -28z m-21 -1 c0 -3 -4 -8 -10 -11 -5 -3 -10 -1 -10 4 0 6 5 11
10 11 6 0 10 -2 10 -4z"/>
<path d="M4350 891 c0 -5 6 -11 13 -14 8 -3 14 1 14 9 0 8 -6 14 -14 14 -7 0
-13 -4 -13 -9z"/>
<path d="M110 841 c0 -10 38 -18 63 -13 33 7 17 22 -23 22 -22 0 -40 -4 -40
-9z"/>
<path d="M4342 823 c-6 -10 -13 -17 -16 -15 -15 6 -47 1 -42 -7 3 -4 17 -6 30
-4 26 5 53 29 43 39 -3 3 -10 -3 -15 -13z"/>
<path d="M4360 735 c0 -8 5 -15 10 -15 6 0 10 7 10 15 0 8 -4 15 -10 15 -5 0
-10 -7 -10 -15z"/>
<path d="M15 730 c-4 -6 6 -10 24 -10 16 0 33 5 36 10 4 6 -6 10 -24 10 -16 0
-33 -4 -36 -10z"/>
<path d="M130 730 c20 -13 113 -13 105 0 -3 6 -32 10 -63 10 -41 0 -53 -3 -42
-10z"/>
<path d="M418 733 c7 -3 16 -2 19 1 4 3 -2 6 -13 5 -11 0 -14 -3 -6 -6z"/>
<path d="M4286 706 c3 -9 11 -16 16 -16 13 0 5 23 -10 28 -7 2 -10 -2 -6 -12z"/>
<path d="M438 694 c-42 -12 -11 -21 100 -30 141 -11 243 -2 220 21 -6 7 -299
15 -320 9z"/>
<path d="M808 683 c7 -3 16 -2 19 1 4 3 -2 6 -13 5 -11 0 -14 -3 -6 -6z"/>
<path d="M840 680 c0 -5 11 -10 25 -10 14 0 25 5 25 10 0 6 -11 10 -25 10 -14
0 -25 -4 -25 -10z"/>
<path d="M930 670 c0 -5 5 -10 10 -10 6 0 10 -4 10 -10 0 -5 -15 -10 -32 -9
-117 2 -329 -9 -341 -19 -8 -7 -17 -9 -20 -5 -4 3 -7 2 -7 -3 0 -5 64 -10 141
-12 148 -3 300 11 353 33 l31 13 -50 7 c-28 3 -58 10 -67 16 -22 12 -28 11
-28 -1z"/>
<path d="M1160 590 c0 -5 5 -10 10 -10 6 0 10 5 10 10 0 6 -4 10 -10 10 -5 0
-10 -4 -10 -10z"/>
<path d="M1524 565 c-3 -8 -22 -19 -42 -26 -21 -7 -32 -14 -26 -16 9 -3 124
43 124 50 0 11 -52 4 -56 -8z"/>
<path d="M785 529 c-45 -29 -47 -32 -29 -42 10 -7 52 -12 92 -12 59 0 76 4 87
18 7 10 19 15 29 11 19 -7 21 7 4 24 -17 17 -45 15 -52 -3 -3 -9 -18 -15 -37
-15 -30 0 -31 1 -16 18 10 10 17 22 17 25 0 17 -51 4 -95 -24z"/>
<path d="M4570 550 c-13 -8 -13 -10 2 -10 9 0 20 5 23 10 8 13 -5 13 -25 0z"/>
<path d="M475 466 c-19 -14 -16 -15 33 -16 39 0 53 4 50 13 -7 18 -60 20 -83
3z"/>
<path d="M635 440 c-3 -5 -3 -10 2 -11 4 0 22 -2 38 -4 17 -3 39 -2 50 2 19 6
18 7 -5 14 -38 11 -78 10 -85 -1z"/>
<path d="M305 391 c-11 -5 -37 -6 -58 -3 -26 3 -43 0 -55 -12 -19 -16 -62 -16
-155 0 -25 5 -37 3 -37 -5 0 -23 54 -33 151 -27 77 5 98 3 102 -8 4 -10 43
-16 154 -22 81 -5 158 -7 170 -6 13 2 32 -2 43 -8 24 -13 221 -24 257 -15 13
3 23 11 21 17 -3 8 -43 12 -124 13 -92 1 -126 5 -151 18 -18 9 -45 17 -62 17
-48 0 -62 9 -50 31 12 24 -12 27 -31 4 -16 -19 -51 -19 -76 0 -21 16 -67 18
-99 6z m18 -38 c-7 -2 -19 -2 -25 0 -7 3 -2 5 12 5 14 0 19 -2 13 -5z"/>
<path d="M575 390 c3 -5 17 -10 31 -10 14 0 22 4 19 10 -3 6 -17 10 -31 10
-14 0 -22 -4 -19 -10z"/>
<path d="M730 370 c0 -5 12 -10 28 -10 21 0 24 2 12 10 -20 13 -40 13 -40 0z"/>
<path d="M843 363 c9 -2 23 -2 30 0 6 3 -1 5 -18 5 -16 0 -22 -2 -12 -5z"/>
<path d="M3822 188 c5 -15 69 -22 105 -13 42 10 14 25 -48 25 -44 0 -60 -3
-57 -12z"/>
<path d="M3970 171 c0 -14 18 -23 31 -15 8 4 7 9 -2 15 -18 11 -29 11 -29 0z"/>
<path d="M395 160 c-3 -5 3 -10 15 -10 12 0 18 5 15 10 -3 6 -10 10 -15 10 -5
0 -12 -4 -15 -10z"/>
<path d="M1670 144 c-80 -7 -189 -14 -243 -14 -65 -1 -95 -5 -91 -12 6 -9 379
-5 499 6 41 4 95 21 95 31 0 8 -100 4 -260 -11z"/>
<path d="M287 143 c-14 -13 -6 -23 18 -23 28 0 34 15 9 24 -19 7 -19 7 -27 -1z"/>
<path d="M3343 124 c-26 -11 -12 -24 25 -23 38 0 93 17 61 18 -9 1 -29 3 -45
6 -16 2 -35 2 -41 -1z"/>
<path d="M200 104 c0 -11 8 -14 27 -12 39 4 42 28 4 28 -21 0 -31 -5 -31 -16z"/>
<path d="M4110 97 c0 -16 55 -37 95 -37 25 1 61 27 51 37 -4 4 -38 9 -77 11
-58 4 -69 2 -69 -11z"/>
<path d="M4505 86 c-19 -15 -18 -15 18 -16 27 0 37 4 35 13 -7 18 -31 20 -53
3z"/>
<path d="M1150 50 c0 -13 47 -13 55 0 4 6 -7 10 -24 10 -17 0 -31 -4 -31 -10z"/>
<path d="M3575 34 c21 -15 49 -19 41 -5 -3 5 -18 11 -33 14 -26 5 -26 4 -8 -9z"/>
<path d="M1785 30 c-4 -6 5 -10 19 -10 14 0 26 5 26 10 0 6 -9 10 -19 10 -11
0 -23 -4 -26 -10z"/>
<path d="M1723 23 c9 -2 23 -2 30 0 6 3 -1 5 -18 5 -16 0 -22 -2 -12 -5z"/>
<path d="M3510 20 c0 -5 9 -10 20 -10 11 0 20 5 20 10 0 6 -9 10 -20 10 -11 0
-20 -4 -20 -10z"/>
<path d="M4530 20 c0 -5 9 -10 20 -10 11 0 20 5 20 10 0 6 -9 10 -20 10 -11 0
-20 -4 -20 -10z"/>
<path d="M2078 13 c7 -3 16 -2 19 1 4 3 -2 6 -13 5 -11 0 -14 -3 -6 -6z"/>
</g>
</svg>
